%TF.GenerationSoftware,KiCad,Pcbnew,(6.0.0)*%
%TF.CreationDate,2022-02-11T23:13:40+09:00*%
%TF.ProjectId,8x8_eyes,3878385f-6579-4657-932e-6b696361645f,rev?*%
%TF.SameCoordinates,Original*%
%TF.FileFunction,Legend,Top*%
%TF.FilePolarity,Positive*%
%FSLAX46Y46*%
G04 Gerber Fmt 4.6, Leading zero omitted, Abs format (unit mm)*
G04 Created by KiCad (PCBNEW (6.0.0)) date 2022-02-11 23:13:40*
%MOMM*%
%LPD*%
G01*
G04 APERTURE LIST*
%ADD10C,0.150000*%
%ADD11C,0.120000*%
G04 APERTURE END LIST*
D10*
X129285714Y-91952380D02*
X129285714Y-90952380D01*
X129523809Y-90952380D01*
X129666666Y-91000000D01*
X129761904Y-91095238D01*
X129809523Y-91190476D01*
X129857142Y-91380952D01*
X129857142Y-91523809D01*
X129809523Y-91714285D01*
X129761904Y-91809523D01*
X129666666Y-91904761D01*
X129523809Y-91952380D01*
X129285714Y-91952380D01*
X130714285Y-90952380D02*
X130523809Y-90952380D01*
X130428571Y-91000000D01*
X130380952Y-91047619D01*
X130285714Y-91190476D01*
X130238095Y-91380952D01*
X130238095Y-91761904D01*
X130285714Y-91857142D01*
X130333333Y-91904761D01*
X130428571Y-91952380D01*
X130619047Y-91952380D01*
X130714285Y-91904761D01*
X130761904Y-91857142D01*
X130809523Y-91761904D01*
X130809523Y-91523809D01*
X130761904Y-91428571D01*
X130714285Y-91380952D01*
X130619047Y-91333333D01*
X130428571Y-91333333D01*
X130333333Y-91380952D01*
X130285714Y-91428571D01*
X130238095Y-91523809D01*
X131714285Y-90952380D02*
X131238095Y-90952380D01*
X131190476Y-91428571D01*
X131238095Y-91380952D01*
X131333333Y-91333333D01*
X131571428Y-91333333D01*
X131666666Y-91380952D01*
X131714285Y-91428571D01*
X131761904Y-91523809D01*
X131761904Y-91761904D01*
X131714285Y-91857142D01*
X131666666Y-91904761D01*
X131571428Y-91952380D01*
X131333333Y-91952380D01*
X131238095Y-91904761D01*
X131190476Y-91857142D01*
X173896666Y-119702380D02*
X173896666Y-120416666D01*
X173849047Y-120559523D01*
X173753809Y-120654761D01*
X173610952Y-120702380D01*
X173515714Y-120702380D01*
X174896666Y-120702380D02*
X174325238Y-120702380D01*
X174610952Y-120702380D02*
X174610952Y-119702380D01*
X174515714Y-119845238D01*
X174420476Y-119940476D01*
X174325238Y-119988095D01*
X157957142Y-127166666D02*
X158004761Y-127214285D01*
X158052380Y-127357142D01*
X158052380Y-127452380D01*
X158004761Y-127595238D01*
X157909523Y-127690476D01*
X157814285Y-127738095D01*
X157623809Y-127785714D01*
X157480952Y-127785714D01*
X157290476Y-127738095D01*
X157195238Y-127690476D01*
X157100000Y-127595238D01*
X157052380Y-127452380D01*
X157052380Y-127357142D01*
X157100000Y-127214285D01*
X157147619Y-127166666D01*
X158052380Y-126214285D02*
X158052380Y-126785714D01*
X158052380Y-126500000D02*
X157052380Y-126500000D01*
X157195238Y-126595238D01*
X157290476Y-126690476D01*
X157338095Y-126785714D01*
X136992380Y-127166666D02*
X136516190Y-127500000D01*
X136992380Y-127738095D02*
X135992380Y-127738095D01*
X135992380Y-127357142D01*
X136040000Y-127261904D01*
X136087619Y-127214285D01*
X136182857Y-127166666D01*
X136325714Y-127166666D01*
X136420952Y-127214285D01*
X136468571Y-127261904D01*
X136516190Y-127357142D01*
X136516190Y-127738095D01*
X136087619Y-126785714D02*
X136040000Y-126738095D01*
X135992380Y-126642857D01*
X135992380Y-126404761D01*
X136040000Y-126309523D01*
X136087619Y-126261904D01*
X136182857Y-126214285D01*
X136278095Y-126214285D01*
X136420952Y-126261904D01*
X136992380Y-126833333D01*
X136992380Y-126214285D01*
X144612380Y-127166666D02*
X144136190Y-127500000D01*
X144612380Y-127738095D02*
X143612380Y-127738095D01*
X143612380Y-127357142D01*
X143660000Y-127261904D01*
X143707619Y-127214285D01*
X143802857Y-127166666D01*
X143945714Y-127166666D01*
X144040952Y-127214285D01*
X144088571Y-127261904D01*
X144136190Y-127357142D01*
X144136190Y-127738095D01*
X143612380Y-126833333D02*
X143612380Y-126214285D01*
X143993333Y-126547619D01*
X143993333Y-126404761D01*
X144040952Y-126309523D01*
X144088571Y-126261904D01*
X144183809Y-126214285D01*
X144421904Y-126214285D01*
X144517142Y-126261904D01*
X144564761Y-126309523D01*
X144612380Y-126404761D01*
X144612380Y-126690476D01*
X144564761Y-126785714D01*
X144517142Y-126833333D01*
X140772380Y-78906666D02*
X140296190Y-79240000D01*
X140772380Y-79478095D02*
X139772380Y-79478095D01*
X139772380Y-79097142D01*
X139820000Y-79001904D01*
X139867619Y-78954285D01*
X139962857Y-78906666D01*
X140105714Y-78906666D01*
X140200952Y-78954285D01*
X140248571Y-79001904D01*
X140296190Y-79097142D01*
X140296190Y-79478095D01*
X139772380Y-78049523D02*
X139772380Y-78240000D01*
X139820000Y-78335238D01*
X139867619Y-78382857D01*
X140010476Y-78478095D01*
X140200952Y-78525714D01*
X140581904Y-78525714D01*
X140677142Y-78478095D01*
X140724761Y-78430476D01*
X140772380Y-78335238D01*
X140772380Y-78144761D01*
X140724761Y-78049523D01*
X140677142Y-78001904D01*
X140581904Y-77954285D01*
X140343809Y-77954285D01*
X140248571Y-78001904D01*
X140200952Y-78049523D01*
X140153333Y-78144761D01*
X140153333Y-78335238D01*
X140200952Y-78430476D01*
X140248571Y-78478095D01*
X140343809Y-78525714D01*
X143312380Y-78906666D02*
X142836190Y-79240000D01*
X143312380Y-79478095D02*
X142312380Y-79478095D01*
X142312380Y-79097142D01*
X142360000Y-79001904D01*
X142407619Y-78954285D01*
X142502857Y-78906666D01*
X142645714Y-78906666D01*
X142740952Y-78954285D01*
X142788571Y-79001904D01*
X142836190Y-79097142D01*
X142836190Y-79478095D01*
X142312380Y-78001904D02*
X142312380Y-78478095D01*
X142788571Y-78525714D01*
X142740952Y-78478095D01*
X142693333Y-78382857D01*
X142693333Y-78144761D01*
X142740952Y-78049523D01*
X142788571Y-78001904D01*
X142883809Y-77954285D01*
X143121904Y-77954285D01*
X143217142Y-78001904D01*
X143264761Y-78049523D01*
X143312380Y-78144761D01*
X143312380Y-78382857D01*
X143264761Y-78478095D01*
X143217142Y-78525714D01*
X164338095Y-97392380D02*
X164338095Y-98201904D01*
X164385714Y-98297142D01*
X164433333Y-98344761D01*
X164528571Y-98392380D01*
X164719047Y-98392380D01*
X164814285Y-98344761D01*
X164861904Y-98297142D01*
X164909523Y-98201904D01*
X164909523Y-97392380D01*
X165909523Y-98392380D02*
X165338095Y-98392380D01*
X165623809Y-98392380D02*
X165623809Y-97392380D01*
X165528571Y-97535238D01*
X165433333Y-97630476D01*
X165338095Y-97678095D01*
X135692380Y-78906666D02*
X135216190Y-79240000D01*
X135692380Y-79478095D02*
X134692380Y-79478095D01*
X134692380Y-79097142D01*
X134740000Y-79001904D01*
X134787619Y-78954285D01*
X134882857Y-78906666D01*
X135025714Y-78906666D01*
X135120952Y-78954285D01*
X135168571Y-79001904D01*
X135216190Y-79097142D01*
X135216190Y-79478095D01*
X135692380Y-77954285D02*
X135692380Y-78525714D01*
X135692380Y-78240000D02*
X134692380Y-78240000D01*
X134835238Y-78335238D01*
X134930476Y-78430476D01*
X134978095Y-78525714D01*
X135692380Y-127166666D02*
X135216190Y-127500000D01*
X135692380Y-127738095D02*
X134692380Y-127738095D01*
X134692380Y-127357142D01*
X134740000Y-127261904D01*
X134787619Y-127214285D01*
X134882857Y-127166666D01*
X135025714Y-127166666D01*
X135120952Y-127214285D01*
X135168571Y-127261904D01*
X135216190Y-127357142D01*
X135216190Y-127738095D01*
X135025714Y-126309523D02*
X135692380Y-126309523D01*
X134644761Y-126547619D02*
X135359047Y-126785714D01*
X135359047Y-126166666D01*
X131912380Y-78906666D02*
X131436190Y-79240000D01*
X131912380Y-79478095D02*
X130912380Y-79478095D01*
X130912380Y-79097142D01*
X130960000Y-79001904D01*
X131007619Y-78954285D01*
X131102857Y-78906666D01*
X131245714Y-78906666D01*
X131340952Y-78954285D01*
X131388571Y-79001904D01*
X131436190Y-79097142D01*
X131436190Y-79478095D01*
X131340952Y-78335238D02*
X131293333Y-78430476D01*
X131245714Y-78478095D01*
X131150476Y-78525714D01*
X131102857Y-78525714D01*
X131007619Y-78478095D01*
X130960000Y-78430476D01*
X130912380Y-78335238D01*
X130912380Y-78144761D01*
X130960000Y-78049523D01*
X131007619Y-78001904D01*
X131102857Y-77954285D01*
X131150476Y-77954285D01*
X131245714Y-78001904D01*
X131293333Y-78049523D01*
X131340952Y-78144761D01*
X131340952Y-78335238D01*
X131388571Y-78430476D01*
X131436190Y-78478095D01*
X131531428Y-78525714D01*
X131721904Y-78525714D01*
X131817142Y-78478095D01*
X131864761Y-78430476D01*
X131912380Y-78335238D01*
X131912380Y-78144761D01*
X131864761Y-78049523D01*
X131817142Y-78001904D01*
X131721904Y-77954285D01*
X131531428Y-77954285D01*
X131436190Y-78001904D01*
X131388571Y-78049523D01*
X131340952Y-78144761D01*
X164338095Y-82152380D02*
X164338095Y-82961904D01*
X164385714Y-83057142D01*
X164433333Y-83104761D01*
X164528571Y-83152380D01*
X164719047Y-83152380D01*
X164814285Y-83104761D01*
X164861904Y-83057142D01*
X164909523Y-82961904D01*
X164909523Y-82152380D01*
X165338095Y-82247619D02*
X165385714Y-82200000D01*
X165480952Y-82152380D01*
X165719047Y-82152380D01*
X165814285Y-82200000D01*
X165861904Y-82247619D01*
X165909523Y-82342857D01*
X165909523Y-82438095D01*
X165861904Y-82580952D01*
X165290476Y-83152380D01*
X165909523Y-83152380D01*
X130612380Y-78906666D02*
X130136190Y-79240000D01*
X130612380Y-79478095D02*
X129612380Y-79478095D01*
X129612380Y-79097142D01*
X129660000Y-79001904D01*
X129707619Y-78954285D01*
X129802857Y-78906666D01*
X129945714Y-78906666D01*
X130040952Y-78954285D01*
X130088571Y-79001904D01*
X130136190Y-79097142D01*
X130136190Y-79478095D01*
X129612380Y-78573333D02*
X129612380Y-77906666D01*
X130612380Y-78335238D01*
D11*
X156925000Y-83095000D02*
X156925000Y-121095000D01*
X118925000Y-121095000D02*
X118925000Y-83095000D01*
X118925000Y-83095000D02*
X156925000Y-83095000D01*
X156925000Y-121095000D02*
X118925000Y-121095000D01*
X166230000Y-128300000D02*
X166230000Y-130900000D01*
X167230000Y-112000000D02*
X167230000Y-114300000D01*
X167230000Y-114300000D02*
X166230000Y-114300000D01*
X174340000Y-131510000D02*
X174340000Y-111390000D01*
X167230000Y-116900000D02*
X167230000Y-128300000D01*
X167230000Y-128300000D02*
X166230000Y-128300000D01*
X165620000Y-111390000D02*
X165620000Y-131510000D01*
X166230000Y-130900000D02*
X172730000Y-130900000D01*
X174340000Y-111390000D02*
X165620000Y-111390000D01*
X172230000Y-111090000D02*
X174640000Y-111090000D01*
X172730000Y-112000000D02*
X167230000Y-112000000D01*
X166230000Y-116900000D02*
X167230000Y-116900000D01*
X165620000Y-131510000D02*
X174340000Y-131510000D01*
X166230000Y-114300000D02*
X166230000Y-116900000D01*
X174640000Y-111090000D02*
X174640000Y-113500000D01*
X172730000Y-130900000D02*
X172730000Y-112000000D01*
X158600000Y-129020000D02*
X161440000Y-129020000D01*
X161440000Y-129020000D02*
X161440000Y-124980000D01*
X158600000Y-124980000D02*
X158600000Y-129020000D01*
X160020000Y-124290000D02*
X160020000Y-124980000D01*
X161440000Y-124980000D02*
X158600000Y-124980000D01*
X160020000Y-129710000D02*
X160020000Y-129020000D01*
X135540000Y-125080000D02*
X135540000Y-128920000D01*
X133700000Y-125080000D02*
X133700000Y-128920000D01*
X143160000Y-125080000D02*
X143160000Y-128920000D01*
X141320000Y-125080000D02*
X141320000Y-128920000D01*
X143160000Y-80660000D02*
X143160000Y-76820000D01*
X141320000Y-80660000D02*
X141320000Y-76820000D01*
X145700000Y-80660000D02*
X145700000Y-76820000D01*
X143860000Y-80660000D02*
X143860000Y-76820000D01*
D10*
X162325000Y-109415000D02*
X162325000Y-109060000D01*
X162325000Y-99140000D02*
X160800000Y-99140000D01*
X167875000Y-98865000D02*
X167875000Y-99220000D01*
X162325000Y-98865000D02*
X167875000Y-98865000D01*
X162325000Y-109415000D02*
X167875000Y-109415000D01*
X167875000Y-109415000D02*
X167875000Y-109060000D01*
X162325000Y-98865000D02*
X162325000Y-99140000D01*
D11*
X136240000Y-80660000D02*
X136240000Y-76820000D01*
X138080000Y-80660000D02*
X138080000Y-76820000D01*
X136240000Y-128920000D02*
X136240000Y-125080000D01*
X138080000Y-128920000D02*
X138080000Y-125080000D01*
X128620000Y-76820000D02*
X128620000Y-80660000D01*
X130460000Y-76820000D02*
X130460000Y-80660000D01*
D10*
X167875000Y-94175000D02*
X167875000Y-93820000D01*
X162325000Y-83625000D02*
X167875000Y-83625000D01*
X162325000Y-83625000D02*
X162325000Y-83900000D01*
X162325000Y-83900000D02*
X160800000Y-83900000D01*
X162325000Y-94175000D02*
X167875000Y-94175000D01*
X162325000Y-94175000D02*
X162325000Y-93820000D01*
X167875000Y-83625000D02*
X167875000Y-83980000D01*
D11*
X131160000Y-80660000D02*
X131160000Y-76820000D01*
X133000000Y-80660000D02*
X133000000Y-76820000D01*
M02*
