%TF.GenerationSoftware,KiCad,Pcbnew,(6.0.0)*%
%TF.CreationDate,2022-02-11T23:13:40+09:00*%
%TF.ProjectId,8x8_eyes,3878385f-6579-4657-932e-6b696361645f,rev?*%
%TF.SameCoordinates,Original*%
%TF.FileFunction,Copper,L2,Bot*%
%TF.FilePolarity,Positive*%
%FSLAX46Y46*%
G04 Gerber Fmt 4.6, Leading zero omitted, Abs format (unit mm)*
G04 Created by KiCad (PCBNEW (6.0.0)) date 2022-02-11 23:13:40*
%MOMM*%
%LPD*%
G01*
G04 APERTURE LIST*
G04 Aperture macros list*
%AMRoundRect*
0 Rectangle with rounded corners*
0 $1 Rounding radius*
0 $2 $3 $4 $5 $6 $7 $8 $9 X,Y pos of 4 corners*
0 Add a 4 corners polygon primitive as box body*
4,1,4,$2,$3,$4,$5,$6,$7,$8,$9,$2,$3,0*
0 Add four circle primitives for the rounded corners*
1,1,$1+$1,$2,$3*
1,1,$1+$1,$4,$5*
1,1,$1+$1,$6,$7*
1,1,$1+$1,$8,$9*
0 Add four rect primitives between the rounded corners*
20,1,$1+$1,$2,$3,$4,$5,0*
20,1,$1+$1,$4,$5,$6,$7,0*
20,1,$1+$1,$6,$7,$8,$9,0*
20,1,$1+$1,$8,$9,$2,$3,0*%
G04 Aperture macros list end*
%TA.AperFunction,ComponentPad*%
%ADD10C,2.000000*%
%TD*%
%TA.AperFunction,ComponentPad*%
%ADD11RoundRect,0.250000X-1.050000X0.750000X-1.050000X-0.750000X1.050000X-0.750000X1.050000X0.750000X0*%
%TD*%
%TA.AperFunction,ComponentPad*%
%ADD12O,2.600000X2.000000*%
%TD*%
%TA.AperFunction,ComponentPad*%
%ADD13C,1.600000*%
%TD*%
%TA.AperFunction,ComponentPad*%
%ADD14O,1.600000X1.600000*%
%TD*%
%TA.AperFunction,ComponentPad*%
%ADD15C,1.400000*%
%TD*%
%TA.AperFunction,ComponentPad*%
%ADD16O,1.400000X1.400000*%
%TD*%
%TA.AperFunction,ViaPad*%
%ADD17C,0.800000*%
%TD*%
%TA.AperFunction,Conductor*%
%ADD18C,0.250000*%
%TD*%
G04 APERTURE END LIST*
D10*
X129035000Y-87845000D03*
X131575000Y-87845000D03*
X134115000Y-87845000D03*
X136655000Y-87845000D03*
X139195000Y-87845000D03*
X141735000Y-87845000D03*
X144275000Y-87845000D03*
X146815000Y-87845000D03*
X146815000Y-116345000D03*
X144275000Y-116345000D03*
X141735000Y-116345000D03*
X139195000Y-116345000D03*
X136655000Y-116345000D03*
X134115000Y-116345000D03*
X131575000Y-116345000D03*
X129035000Y-116345000D03*
D11*
X170080000Y-114300000D03*
D12*
X170080000Y-117800000D03*
X170080000Y-121300000D03*
X170080000Y-124800000D03*
X170080000Y-128300000D03*
D13*
X160020000Y-130750000D03*
D14*
X160020000Y-123250000D03*
D15*
X134620000Y-124460000D03*
D16*
X134620000Y-129540000D03*
D15*
X142240000Y-124460000D03*
D16*
X142240000Y-129540000D03*
D15*
X142240000Y-81280000D03*
D16*
X142240000Y-76200000D03*
D15*
X144780000Y-81280000D03*
D16*
X144780000Y-76200000D03*
D15*
X137160000Y-81280000D03*
D16*
X137160000Y-76200000D03*
D15*
X137160000Y-129540000D03*
D16*
X137160000Y-124460000D03*
D15*
X129540000Y-76200000D03*
D16*
X129540000Y-81280000D03*
D15*
X132080000Y-81280000D03*
D16*
X132080000Y-76200000D03*
D17*
X151500000Y-127500000D03*
X159500000Y-116500000D03*
X174000000Y-105500000D03*
X174000000Y-93000000D03*
X174000000Y-86500000D03*
X173500000Y-77500000D03*
X165500000Y-73000000D03*
X154000000Y-73000000D03*
X146000000Y-73000000D03*
X130496430Y-72975170D03*
X125426552Y-76982009D03*
X119500000Y-77000000D03*
X129000000Y-128000000D03*
X121000000Y-128000000D03*
X111500000Y-128000000D03*
X111500000Y-120500000D03*
X111500000Y-111500000D03*
X111500000Y-102000000D03*
X111500000Y-93500000D03*
X111500000Y-85000000D03*
X111500000Y-77000000D03*
X157665600Y-85725000D03*
X167292900Y-102235000D03*
X146815000Y-104251300D03*
X159219200Y-88053900D03*
X158390900Y-84095900D03*
D18*
X136118000Y-116882000D02*
X136655000Y-116345000D01*
X136118000Y-128498000D02*
X136118000Y-116882000D01*
X137160000Y-129540000D02*
X136118000Y-128498000D01*
X137160000Y-124460000D02*
X138185300Y-124460000D01*
X157665600Y-110495400D02*
X157665600Y-85725000D01*
X142675700Y-125485300D02*
X157665600Y-110495400D01*
X139210600Y-125485300D02*
X142675700Y-125485300D01*
X138185300Y-124460000D02*
X139210600Y-125485300D01*
X170080000Y-121300000D02*
X170080000Y-119974700D01*
X167292900Y-117187600D02*
X167292900Y-102235000D01*
X170080000Y-119974700D02*
X167292900Y-117187600D01*
X146815000Y-116345000D02*
X146815000Y-104251300D01*
X129035000Y-82810300D02*
X129035000Y-87845000D01*
X129540000Y-82305300D02*
X129035000Y-82810300D01*
X129540000Y-81280000D02*
X129540000Y-82305300D01*
X131001200Y-87271200D02*
X131575000Y-87845000D01*
X131001200Y-78304100D02*
X131001200Y-87271200D01*
X132080000Y-77225300D02*
X131001200Y-78304100D01*
X132080000Y-76200000D02*
X132080000Y-77225300D01*
X141203600Y-87313600D02*
X141735000Y-87845000D01*
X141203600Y-78261700D02*
X141203600Y-87313600D01*
X142240000Y-77225300D02*
X141203600Y-78261700D01*
X142240000Y-76200000D02*
X142240000Y-77225300D01*
X143701200Y-87271200D02*
X144275000Y-87845000D01*
X143701200Y-78304100D02*
X143701200Y-87271200D01*
X144780000Y-77225300D02*
X143701200Y-78304100D01*
X144780000Y-76200000D02*
X144780000Y-77225300D01*
X159219200Y-111535500D02*
X159219200Y-88053900D01*
X142240000Y-128514700D02*
X159219200Y-111535500D01*
X142240000Y-129540000D02*
X142240000Y-128514700D01*
X141735000Y-123955000D02*
X141735000Y-116345000D01*
X142240000Y-124460000D02*
X141735000Y-123955000D01*
X134620000Y-129540000D02*
X135645300Y-129540000D01*
X158390900Y-110407000D02*
X158390900Y-84095900D01*
X138223400Y-130574500D02*
X158390900Y-110407000D01*
X136679800Y-130574500D02*
X138223400Y-130574500D01*
X135645300Y-129540000D02*
X136679800Y-130574500D01*
X134115000Y-123955000D02*
X134115000Y-116345000D01*
X134620000Y-124460000D02*
X134115000Y-123955000D01*
X136123600Y-87313600D02*
X136655000Y-87845000D01*
X136123600Y-78261700D02*
X136123600Y-87313600D01*
X137160000Y-77225300D02*
X136123600Y-78261700D01*
X137160000Y-76200000D02*
X137160000Y-77225300D01*
%TA.AperFunction,Conductor*%
G36*
X177234121Y-71648002D02*
G01*
X177280614Y-71701658D01*
X177292000Y-71754000D01*
X177292000Y-133874000D01*
X177271998Y-133942121D01*
X177218342Y-133988614D01*
X177166000Y-134000000D01*
X107314000Y-134000000D01*
X107245879Y-133979998D01*
X107199386Y-133926342D01*
X107188000Y-133874000D01*
X107188000Y-116345000D01*
X127521835Y-116345000D01*
X127540465Y-116581711D01*
X127541619Y-116586518D01*
X127541620Y-116586524D01*
X127542818Y-116591512D01*
X127595895Y-116812594D01*
X127597788Y-116817165D01*
X127597789Y-116817167D01*
X127657822Y-116962099D01*
X127686760Y-117031963D01*
X127689346Y-117036183D01*
X127808241Y-117230202D01*
X127808245Y-117230208D01*
X127810824Y-117234416D01*
X127965031Y-117414969D01*
X128145584Y-117569176D01*
X128149792Y-117571755D01*
X128149798Y-117571759D01*
X128341335Y-117689133D01*
X128348037Y-117693240D01*
X128352607Y-117695133D01*
X128352611Y-117695135D01*
X128490469Y-117752237D01*
X128567406Y-117784105D01*
X128619310Y-117796566D01*
X128793476Y-117838380D01*
X128793482Y-117838381D01*
X128798289Y-117839535D01*
X129035000Y-117858165D01*
X129271711Y-117839535D01*
X129276518Y-117838381D01*
X129276524Y-117838380D01*
X129450690Y-117796566D01*
X129502594Y-117784105D01*
X129579531Y-117752237D01*
X129717389Y-117695135D01*
X129717393Y-117695133D01*
X129721963Y-117693240D01*
X129728665Y-117689133D01*
X129920202Y-117571759D01*
X129920208Y-117571755D01*
X129924416Y-117569176D01*
X130104969Y-117414969D01*
X130108177Y-117411213D01*
X130108182Y-117411208D01*
X130209189Y-117292944D01*
X130268639Y-117254134D01*
X130339634Y-117253628D01*
X130400811Y-117292944D01*
X130501818Y-117411208D01*
X130501823Y-117411213D01*
X130505031Y-117414969D01*
X130685584Y-117569176D01*
X130689792Y-117571755D01*
X130689798Y-117571759D01*
X130881335Y-117689133D01*
X130888037Y-117693240D01*
X130892607Y-117695133D01*
X130892611Y-117695135D01*
X131030469Y-117752237D01*
X131107406Y-117784105D01*
X131159310Y-117796566D01*
X131333476Y-117838380D01*
X131333482Y-117838381D01*
X131338289Y-117839535D01*
X131575000Y-117858165D01*
X131811711Y-117839535D01*
X131816518Y-117838381D01*
X131816524Y-117838380D01*
X131990690Y-117796566D01*
X132042594Y-117784105D01*
X132119531Y-117752237D01*
X132257389Y-117695135D01*
X132257393Y-117695133D01*
X132261963Y-117693240D01*
X132268665Y-117689133D01*
X132460202Y-117571759D01*
X132460208Y-117571755D01*
X132464416Y-117569176D01*
X132644969Y-117414969D01*
X132648177Y-117411213D01*
X132648182Y-117411208D01*
X132749189Y-117292944D01*
X132808639Y-117254134D01*
X132879634Y-117253628D01*
X132940811Y-117292944D01*
X133041818Y-117411208D01*
X133041823Y-117411213D01*
X133045031Y-117414969D01*
X133225584Y-117569176D01*
X133229792Y-117571755D01*
X133229798Y-117571759D01*
X133421335Y-117689133D01*
X133468966Y-117741781D01*
X133481500Y-117796566D01*
X133481500Y-123876233D01*
X133480973Y-123887416D01*
X133479298Y-123894909D01*
X133479547Y-123902835D01*
X133479547Y-123902836D01*
X133481438Y-123962986D01*
X133481500Y-123966945D01*
X133481500Y-123994856D01*
X133481997Y-123998790D01*
X133481997Y-123998791D01*
X133482005Y-123998856D01*
X133482938Y-124010706D01*
X133483017Y-124013224D01*
X133478786Y-124049784D01*
X133425314Y-124249345D01*
X133406884Y-124460000D01*
X133425314Y-124670655D01*
X133480044Y-124874910D01*
X133482366Y-124879891D01*
X133482367Y-124879892D01*
X133565484Y-125058136D01*
X133569411Y-125066558D01*
X133690699Y-125239776D01*
X133840224Y-125389301D01*
X134013442Y-125510589D01*
X134018420Y-125512910D01*
X134018423Y-125512912D01*
X134145179Y-125572019D01*
X134205090Y-125599956D01*
X134210398Y-125601378D01*
X134210400Y-125601379D01*
X134404030Y-125653262D01*
X134404032Y-125653262D01*
X134409345Y-125654686D01*
X134620000Y-125673116D01*
X134830655Y-125654686D01*
X134835968Y-125653262D01*
X134835970Y-125653262D01*
X135029600Y-125601379D01*
X135029602Y-125601378D01*
X135034910Y-125599956D01*
X135094821Y-125572019D01*
X135221577Y-125512912D01*
X135221580Y-125512910D01*
X135226558Y-125510589D01*
X135286232Y-125468805D01*
X135353503Y-125446118D01*
X135422363Y-125463403D01*
X135470948Y-125515172D01*
X135484500Y-125572019D01*
X135484500Y-128419233D01*
X135483972Y-128430420D01*
X135482298Y-128437909D01*
X135482402Y-128441211D01*
X135456836Y-128505237D01*
X135399041Y-128546470D01*
X135328128Y-128549912D01*
X135285457Y-128530652D01*
X135226558Y-128489411D01*
X135221580Y-128487090D01*
X135221577Y-128487088D01*
X135039892Y-128402367D01*
X135039891Y-128402366D01*
X135034910Y-128400044D01*
X135029602Y-128398622D01*
X135029600Y-128398621D01*
X134835970Y-128346738D01*
X134835968Y-128346738D01*
X134830655Y-128345314D01*
X134620000Y-128326884D01*
X134409345Y-128345314D01*
X134404032Y-128346738D01*
X134404030Y-128346738D01*
X134210400Y-128398621D01*
X134210398Y-128398622D01*
X134205090Y-128400044D01*
X134200109Y-128402366D01*
X134200108Y-128402367D01*
X134018423Y-128487088D01*
X134018420Y-128487090D01*
X134013442Y-128489411D01*
X133840224Y-128610699D01*
X133690699Y-128760224D01*
X133569411Y-128933442D01*
X133567090Y-128938420D01*
X133567088Y-128938423D01*
X133516208Y-129047536D01*
X133480044Y-129125090D01*
X133478622Y-129130398D01*
X133478621Y-129130400D01*
X133468646Y-129167628D01*
X133425314Y-129329345D01*
X133406884Y-129540000D01*
X133425314Y-129750655D01*
X133426738Y-129755968D01*
X133426738Y-129755970D01*
X133440814Y-129808500D01*
X133480044Y-129954910D01*
X133482366Y-129959891D01*
X133482367Y-129959892D01*
X133544554Y-130093251D01*
X133569411Y-130146558D01*
X133690699Y-130319776D01*
X133840224Y-130469301D01*
X134013442Y-130590589D01*
X134018420Y-130592910D01*
X134018423Y-130592912D01*
X134200108Y-130677633D01*
X134205090Y-130679956D01*
X134210398Y-130681378D01*
X134210400Y-130681379D01*
X134404030Y-130733262D01*
X134404032Y-130733262D01*
X134409345Y-130734686D01*
X134620000Y-130753116D01*
X134830655Y-130734686D01*
X134835968Y-130733262D01*
X134835970Y-130733262D01*
X135029600Y-130681379D01*
X135029602Y-130681378D01*
X135034910Y-130679956D01*
X135039892Y-130677633D01*
X135221577Y-130592912D01*
X135221580Y-130592910D01*
X135226558Y-130590589D01*
X135399776Y-130469301D01*
X135450141Y-130418936D01*
X135512453Y-130384910D01*
X135583268Y-130389975D01*
X135628331Y-130418936D01*
X136176148Y-130966753D01*
X136183688Y-130975039D01*
X136187800Y-130981518D01*
X136193577Y-130986943D01*
X136237451Y-131028143D01*
X136240293Y-131030898D01*
X136260030Y-131050635D01*
X136263227Y-131053115D01*
X136272247Y-131060818D01*
X136304479Y-131091086D01*
X136311425Y-131094905D01*
X136311428Y-131094907D01*
X136322234Y-131100848D01*
X136338753Y-131111699D01*
X136354759Y-131124114D01*
X136362028Y-131127259D01*
X136362032Y-131127262D01*
X136395337Y-131141674D01*
X136405987Y-131146891D01*
X136444740Y-131168195D01*
X136452415Y-131170166D01*
X136452416Y-131170166D01*
X136464362Y-131173233D01*
X136483067Y-131179637D01*
X136501655Y-131187681D01*
X136509478Y-131188920D01*
X136509488Y-131188923D01*
X136545324Y-131194599D01*
X136556944Y-131197005D01*
X136588759Y-131205173D01*
X136599770Y-131208000D01*
X136620024Y-131208000D01*
X136639734Y-131209551D01*
X136659743Y-131212720D01*
X136667635Y-131211974D01*
X136686380Y-131210202D01*
X136703762Y-131208559D01*
X136715619Y-131208000D01*
X138144633Y-131208000D01*
X138155816Y-131208527D01*
X138163309Y-131210202D01*
X138171235Y-131209953D01*
X138171236Y-131209953D01*
X138231386Y-131208062D01*
X138235345Y-131208000D01*
X138263256Y-131208000D01*
X138267191Y-131207503D01*
X138267256Y-131207495D01*
X138279093Y-131206562D01*
X138311351Y-131205548D01*
X138315370Y-131205422D01*
X138323289Y-131205173D01*
X138342743Y-131199521D01*
X138362100Y-131195513D01*
X138374330Y-131193968D01*
X138374331Y-131193968D01*
X138382197Y-131192974D01*
X138389568Y-131190055D01*
X138389570Y-131190055D01*
X138423312Y-131176696D01*
X138434542Y-131172851D01*
X138469383Y-131162729D01*
X138469384Y-131162729D01*
X138476993Y-131160518D01*
X138483812Y-131156485D01*
X138483817Y-131156483D01*
X138494428Y-131150207D01*
X138512176Y-131141512D01*
X138531017Y-131134052D01*
X138566787Y-131108064D01*
X138576707Y-131101548D01*
X138607935Y-131083080D01*
X138607938Y-131083078D01*
X138614762Y-131079042D01*
X138629083Y-131064721D01*
X138644117Y-131051880D01*
X138654094Y-131044631D01*
X138660507Y-131039972D01*
X138688698Y-131005895D01*
X138696688Y-130997116D01*
X141400821Y-128292983D01*
X141463133Y-128258957D01*
X141533948Y-128264022D01*
X141590784Y-128306569D01*
X141615595Y-128373089D01*
X141611958Y-128413411D01*
X141606500Y-128434670D01*
X141606500Y-128442685D01*
X141606481Y-128442750D01*
X141605507Y-128450460D01*
X141604263Y-128450303D01*
X141586498Y-128510806D01*
X141552771Y-128545897D01*
X141460224Y-128610699D01*
X141310699Y-128760224D01*
X141189411Y-128933442D01*
X141187090Y-128938420D01*
X141187088Y-128938423D01*
X141136208Y-129047536D01*
X141100044Y-129125090D01*
X141098622Y-129130398D01*
X141098621Y-129130400D01*
X141088646Y-129167628D01*
X141045314Y-129329345D01*
X141026884Y-129540000D01*
X141045314Y-129750655D01*
X141046738Y-129755968D01*
X141046738Y-129755970D01*
X141060814Y-129808500D01*
X141100044Y-129954910D01*
X141102366Y-129959891D01*
X141102367Y-129959892D01*
X141164554Y-130093251D01*
X141189411Y-130146558D01*
X141310699Y-130319776D01*
X141460224Y-130469301D01*
X141633442Y-130590589D01*
X141638420Y-130592910D01*
X141638423Y-130592912D01*
X141820108Y-130677633D01*
X141825090Y-130679956D01*
X141830398Y-130681378D01*
X141830400Y-130681379D01*
X142024030Y-130733262D01*
X142024032Y-130733262D01*
X142029345Y-130734686D01*
X142240000Y-130753116D01*
X142275616Y-130750000D01*
X158706502Y-130750000D01*
X158726457Y-130978087D01*
X158727881Y-130983400D01*
X158727881Y-130983402D01*
X158780463Y-131179637D01*
X158785716Y-131199243D01*
X158788039Y-131204224D01*
X158788039Y-131204225D01*
X158880151Y-131401762D01*
X158880154Y-131401767D01*
X158882477Y-131406749D01*
X159013802Y-131594300D01*
X159175700Y-131756198D01*
X159180208Y-131759355D01*
X159180211Y-131759357D01*
X159258389Y-131814098D01*
X159363251Y-131887523D01*
X159368233Y-131889846D01*
X159368238Y-131889849D01*
X159565775Y-131981961D01*
X159570757Y-131984284D01*
X159576065Y-131985706D01*
X159576067Y-131985707D01*
X159786598Y-132042119D01*
X159786600Y-132042119D01*
X159791913Y-132043543D01*
X160020000Y-132063498D01*
X160248087Y-132043543D01*
X160253400Y-132042119D01*
X160253402Y-132042119D01*
X160463933Y-131985707D01*
X160463935Y-131985706D01*
X160469243Y-131984284D01*
X160474225Y-131981961D01*
X160671762Y-131889849D01*
X160671767Y-131889846D01*
X160676749Y-131887523D01*
X160781611Y-131814098D01*
X160859789Y-131759357D01*
X160859792Y-131759355D01*
X160864300Y-131756198D01*
X161026198Y-131594300D01*
X161157523Y-131406749D01*
X161159846Y-131401767D01*
X161159849Y-131401762D01*
X161251961Y-131204225D01*
X161251961Y-131204224D01*
X161254284Y-131199243D01*
X161259538Y-131179637D01*
X161312119Y-130983402D01*
X161312119Y-130983400D01*
X161313543Y-130978087D01*
X161333498Y-130750000D01*
X161313543Y-130521913D01*
X161254284Y-130300757D01*
X161184481Y-130151063D01*
X161159849Y-130098238D01*
X161159846Y-130098233D01*
X161157523Y-130093251D01*
X161026198Y-129905700D01*
X160864300Y-129743802D01*
X160859792Y-129740645D01*
X160859789Y-129740643D01*
X160779521Y-129684439D01*
X160676749Y-129612477D01*
X160671767Y-129610154D01*
X160671762Y-129610151D01*
X160474225Y-129518039D01*
X160474224Y-129518039D01*
X160469243Y-129515716D01*
X160463935Y-129514294D01*
X160463933Y-129514293D01*
X160253402Y-129457881D01*
X160253400Y-129457881D01*
X160248087Y-129456457D01*
X160020000Y-129436502D01*
X159791913Y-129456457D01*
X159786600Y-129457881D01*
X159786598Y-129457881D01*
X159576067Y-129514293D01*
X159576065Y-129514294D01*
X159570757Y-129515716D01*
X159565776Y-129518039D01*
X159565775Y-129518039D01*
X159368238Y-129610151D01*
X159368233Y-129610154D01*
X159363251Y-129612477D01*
X159260479Y-129684439D01*
X159180211Y-129740643D01*
X159180208Y-129740645D01*
X159175700Y-129743802D01*
X159013802Y-129905700D01*
X158882477Y-130093251D01*
X158880154Y-130098233D01*
X158880151Y-130098238D01*
X158855519Y-130151063D01*
X158785716Y-130300757D01*
X158726457Y-130521913D01*
X158706502Y-130750000D01*
X142275616Y-130750000D01*
X142450655Y-130734686D01*
X142455968Y-130733262D01*
X142455970Y-130733262D01*
X142649600Y-130681379D01*
X142649602Y-130681378D01*
X142654910Y-130679956D01*
X142659892Y-130677633D01*
X142841577Y-130592912D01*
X142841580Y-130592910D01*
X142846558Y-130590589D01*
X143019776Y-130469301D01*
X143169301Y-130319776D01*
X143290589Y-130146558D01*
X143315447Y-130093251D01*
X143377633Y-129959892D01*
X143377634Y-129959891D01*
X143379956Y-129954910D01*
X143419187Y-129808500D01*
X143433262Y-129755970D01*
X143433262Y-129755968D01*
X143434686Y-129750655D01*
X143453116Y-129540000D01*
X143434686Y-129329345D01*
X143391354Y-129167628D01*
X143381379Y-129130400D01*
X143381378Y-129130398D01*
X143379956Y-129125090D01*
X143343792Y-129047536D01*
X143292912Y-128938423D01*
X143292910Y-128938420D01*
X143290589Y-128933442D01*
X143169301Y-128760224D01*
X143118936Y-128709859D01*
X143084910Y-128647547D01*
X143089975Y-128576732D01*
X143118936Y-128531669D01*
X143297788Y-128352817D01*
X168267514Y-128352817D01*
X168268095Y-128357837D01*
X168268095Y-128357841D01*
X168289921Y-128546470D01*
X168295415Y-128593956D01*
X168296791Y-128598820D01*
X168296792Y-128598823D01*
X168336556Y-128739347D01*
X168361510Y-128827532D01*
X168363644Y-128832108D01*
X168363646Y-128832114D01*
X168420446Y-128953922D01*
X168464099Y-129047536D01*
X168600544Y-129248307D01*
X168767332Y-129424681D01*
X168771358Y-129427759D01*
X168771359Y-129427760D01*
X168956154Y-129569047D01*
X168956158Y-129569050D01*
X168960174Y-129572120D01*
X169174109Y-129686831D01*
X169403631Y-129765862D01*
X169502978Y-129783022D01*
X169638926Y-129806504D01*
X169638932Y-129806505D01*
X169642836Y-129807179D01*
X169646797Y-129807359D01*
X169646798Y-129807359D01*
X169670506Y-129808436D01*
X169670525Y-129808436D01*
X169671925Y-129808500D01*
X170441001Y-129808500D01*
X170443509Y-129808298D01*
X170443514Y-129808298D01*
X170616924Y-129794346D01*
X170616929Y-129794345D01*
X170621965Y-129793940D01*
X170626873Y-129792734D01*
X170626876Y-129792734D01*
X170852792Y-129737244D01*
X170857706Y-129736037D01*
X170862358Y-129734062D01*
X170862362Y-129734061D01*
X171076498Y-129643165D01*
X171081156Y-129641188D01*
X171187037Y-129574511D01*
X171282288Y-129514528D01*
X171282291Y-129514526D01*
X171286567Y-129511833D01*
X171385422Y-129424681D01*
X171464858Y-129354650D01*
X171464861Y-129354647D01*
X171468655Y-129351302D01*
X171486691Y-129329345D01*
X171619526Y-129167628D01*
X171619528Y-129167625D01*
X171622734Y-129163722D01*
X171744841Y-128953922D01*
X171750790Y-128938423D01*
X171830020Y-128732022D01*
X171830021Y-128732018D01*
X171831833Y-128727298D01*
X171836819Y-128703431D01*
X171880440Y-128494631D01*
X171880440Y-128494627D01*
X171881474Y-128489680D01*
X171892486Y-128247183D01*
X171891156Y-128235689D01*
X171865167Y-128011071D01*
X171865166Y-128011067D01*
X171864585Y-128006044D01*
X171825517Y-127867978D01*
X171799866Y-127777331D01*
X171798490Y-127772468D01*
X171796356Y-127767892D01*
X171796354Y-127767886D01*
X171698038Y-127557046D01*
X171698036Y-127557042D01*
X171695901Y-127552464D01*
X171559456Y-127351693D01*
X171392668Y-127175319D01*
X171388641Y-127172240D01*
X171203846Y-127030953D01*
X171203842Y-127030950D01*
X171199826Y-127027880D01*
X170985891Y-126913169D01*
X170756369Y-126834138D01*
X170657022Y-126816978D01*
X170521074Y-126793496D01*
X170521068Y-126793495D01*
X170517164Y-126792821D01*
X170513203Y-126792641D01*
X170513202Y-126792641D01*
X170489494Y-126791564D01*
X170489475Y-126791564D01*
X170488075Y-126791500D01*
X169718999Y-126791500D01*
X169716491Y-126791702D01*
X169716486Y-126791702D01*
X169543076Y-126805654D01*
X169543071Y-126805655D01*
X169538035Y-126806060D01*
X169533127Y-126807266D01*
X169533124Y-126807266D01*
X169417007Y-126835787D01*
X169302294Y-126863963D01*
X169297642Y-126865938D01*
X169297638Y-126865939D01*
X169190252Y-126911522D01*
X169078844Y-126958812D01*
X169074560Y-126961510D01*
X168877712Y-127085472D01*
X168877709Y-127085474D01*
X168873433Y-127088167D01*
X168869639Y-127091512D01*
X168695142Y-127245350D01*
X168695139Y-127245353D01*
X168691345Y-127248698D01*
X168537266Y-127436278D01*
X168415159Y-127646078D01*
X168328167Y-127872702D01*
X168327133Y-127877652D01*
X168327132Y-127877655D01*
X168296831Y-128022700D01*
X168278526Y-128110320D01*
X168267514Y-128352817D01*
X143297788Y-128352817D01*
X146579491Y-125071114D01*
X168293275Y-125071114D01*
X168295325Y-125088830D01*
X168297285Y-125098727D01*
X168360604Y-125322494D01*
X168364116Y-125331938D01*
X168462399Y-125542705D01*
X168467378Y-125551471D01*
X168598087Y-125743802D01*
X168604419Y-125751677D01*
X168764186Y-125920626D01*
X168771695Y-125927387D01*
X168956426Y-126068625D01*
X168964905Y-126074089D01*
X169169847Y-126183978D01*
X169179099Y-126188020D01*
X169398971Y-126263727D01*
X169408743Y-126266236D01*
X169638971Y-126306004D01*
X169646843Y-126306859D01*
X169670551Y-126307936D01*
X169673384Y-126308000D01*
X169807885Y-126308000D01*
X169823124Y-126303525D01*
X169824329Y-126302135D01*
X169826000Y-126294452D01*
X169826000Y-126289885D01*
X170334000Y-126289885D01*
X170338475Y-126305124D01*
X170339865Y-126306329D01*
X170347548Y-126308000D01*
X170438456Y-126308000D01*
X170443488Y-126307798D01*
X170616843Y-126293850D01*
X170626796Y-126292238D01*
X170852633Y-126236767D01*
X170862203Y-126233584D01*
X171076265Y-126142720D01*
X171085207Y-126138045D01*
X171281987Y-126014126D01*
X171290060Y-126008086D01*
X171464500Y-125854297D01*
X171471504Y-125847044D01*
X171619110Y-125667346D01*
X171624866Y-125659064D01*
X171741841Y-125458081D01*
X171746203Y-125448976D01*
X171829537Y-125231885D01*
X171832388Y-125222196D01*
X171863821Y-125071736D01*
X171862698Y-125057675D01*
X171852590Y-125054000D01*
X170352115Y-125054000D01*
X170336876Y-125058475D01*
X170335671Y-125059865D01*
X170334000Y-125067548D01*
X170334000Y-126289885D01*
X169826000Y-126289885D01*
X169826000Y-125072115D01*
X169821525Y-125056876D01*
X169820135Y-125055671D01*
X169812452Y-125054000D01*
X168309410Y-125054000D01*
X168295324Y-125058136D01*
X168293275Y-125071114D01*
X146579491Y-125071114D01*
X148134083Y-123516522D01*
X158737273Y-123516522D01*
X158784764Y-123693761D01*
X158788510Y-123704053D01*
X158880586Y-123901511D01*
X158886069Y-123911007D01*
X159011028Y-124089467D01*
X159018084Y-124097875D01*
X159172125Y-124251916D01*
X159180533Y-124258972D01*
X159358993Y-124383931D01*
X159368489Y-124389414D01*
X159565947Y-124481490D01*
X159576239Y-124485236D01*
X159748503Y-124531394D01*
X159762599Y-124531058D01*
X159766000Y-124523116D01*
X159766000Y-124517967D01*
X160274000Y-124517967D01*
X160277973Y-124531498D01*
X160286522Y-124532727D01*
X160303178Y-124528264D01*
X168296179Y-124528264D01*
X168297302Y-124542325D01*
X168307410Y-124546000D01*
X169807885Y-124546000D01*
X169823124Y-124541525D01*
X169824329Y-124540135D01*
X169826000Y-124532452D01*
X169826000Y-124527885D01*
X170334000Y-124527885D01*
X170338475Y-124543124D01*
X170339865Y-124544329D01*
X170347548Y-124546000D01*
X171850590Y-124546000D01*
X171864676Y-124541864D01*
X171866725Y-124528886D01*
X171864675Y-124511170D01*
X171862715Y-124501273D01*
X171799396Y-124277506D01*
X171795884Y-124268062D01*
X171697601Y-124057295D01*
X171692622Y-124048529D01*
X171561913Y-123856198D01*
X171555581Y-123848323D01*
X171395814Y-123679374D01*
X171388305Y-123672613D01*
X171203574Y-123531375D01*
X171195095Y-123525911D01*
X170990153Y-123416022D01*
X170980901Y-123411980D01*
X170761029Y-123336273D01*
X170751257Y-123333764D01*
X170521029Y-123293996D01*
X170513157Y-123293141D01*
X170489449Y-123292064D01*
X170486616Y-123292000D01*
X170352115Y-123292000D01*
X170336876Y-123296475D01*
X170335671Y-123297865D01*
X170334000Y-123305548D01*
X170334000Y-124527885D01*
X169826000Y-124527885D01*
X169826000Y-123310115D01*
X169821525Y-123294876D01*
X169820135Y-123293671D01*
X169812452Y-123292000D01*
X169721544Y-123292000D01*
X169716512Y-123292202D01*
X169543157Y-123306150D01*
X169533204Y-123307762D01*
X169307367Y-123363233D01*
X169297797Y-123366416D01*
X169083735Y-123457280D01*
X169074793Y-123461955D01*
X168878013Y-123585874D01*
X168869940Y-123591914D01*
X168695500Y-123745703D01*
X168688496Y-123752956D01*
X168540890Y-123932654D01*
X168535134Y-123940936D01*
X168418159Y-124141919D01*
X168413797Y-124151024D01*
X168330463Y-124368115D01*
X168327612Y-124377804D01*
X168296179Y-124528264D01*
X160303178Y-124528264D01*
X160463761Y-124485236D01*
X160474053Y-124481490D01*
X160671511Y-124389414D01*
X160681007Y-124383931D01*
X160859467Y-124258972D01*
X160867875Y-124251916D01*
X161021916Y-124097875D01*
X161028972Y-124089467D01*
X161153931Y-123911007D01*
X161159414Y-123901511D01*
X161251490Y-123704053D01*
X161255236Y-123693761D01*
X161301394Y-123521497D01*
X161301058Y-123507401D01*
X161293116Y-123504000D01*
X160292115Y-123504000D01*
X160276876Y-123508475D01*
X160275671Y-123509865D01*
X160274000Y-123517548D01*
X160274000Y-124517967D01*
X159766000Y-124517967D01*
X159766000Y-123522115D01*
X159761525Y-123506876D01*
X159760135Y-123505671D01*
X159752452Y-123504000D01*
X158752033Y-123504000D01*
X158738502Y-123507973D01*
X158737273Y-123516522D01*
X148134083Y-123516522D01*
X148672102Y-122978503D01*
X158738606Y-122978503D01*
X158738942Y-122992599D01*
X158746884Y-122996000D01*
X159747885Y-122996000D01*
X159763124Y-122991525D01*
X159764329Y-122990135D01*
X159766000Y-122982452D01*
X159766000Y-122977885D01*
X160274000Y-122977885D01*
X160278475Y-122993124D01*
X160279865Y-122994329D01*
X160287548Y-122996000D01*
X161287967Y-122996000D01*
X161301498Y-122992027D01*
X161302727Y-122983478D01*
X161255236Y-122806239D01*
X161251490Y-122795947D01*
X161159414Y-122598489D01*
X161153931Y-122588993D01*
X161028972Y-122410533D01*
X161021916Y-122402125D01*
X160867875Y-122248084D01*
X160859467Y-122241028D01*
X160681007Y-122116069D01*
X160671511Y-122110586D01*
X160474053Y-122018510D01*
X160463761Y-122014764D01*
X160291497Y-121968606D01*
X160277401Y-121968942D01*
X160274000Y-121976884D01*
X160274000Y-122977885D01*
X159766000Y-122977885D01*
X159766000Y-121982033D01*
X159762027Y-121968502D01*
X159753478Y-121967273D01*
X159576239Y-122014764D01*
X159565947Y-122018510D01*
X159368489Y-122110586D01*
X159358993Y-122116069D01*
X159180533Y-122241028D01*
X159172125Y-122248084D01*
X159018084Y-122402125D01*
X159011028Y-122410533D01*
X158886069Y-122588993D01*
X158880586Y-122598489D01*
X158788510Y-122795947D01*
X158784764Y-122806239D01*
X158738606Y-122978503D01*
X148672102Y-122978503D01*
X159611453Y-112039152D01*
X159619739Y-112031612D01*
X159626218Y-112027500D01*
X159672844Y-111977848D01*
X159675598Y-111975007D01*
X159695335Y-111955270D01*
X159697815Y-111952073D01*
X159705520Y-111943051D01*
X159730359Y-111916600D01*
X159735786Y-111910821D01*
X159739605Y-111903875D01*
X159739607Y-111903872D01*
X159745548Y-111893066D01*
X159756399Y-111876547D01*
X159763958Y-111866801D01*
X159768814Y-111860541D01*
X159771959Y-111853272D01*
X159771962Y-111853268D01*
X159786374Y-111819963D01*
X159791591Y-111809313D01*
X159812895Y-111770560D01*
X159817933Y-111750937D01*
X159824337Y-111732234D01*
X159829233Y-111720920D01*
X159829233Y-111720919D01*
X159832381Y-111713645D01*
X159833620Y-111705822D01*
X159833623Y-111705812D01*
X159839299Y-111669976D01*
X159841705Y-111658356D01*
X159850728Y-111623211D01*
X159850728Y-111623210D01*
X159852700Y-111615530D01*
X159852700Y-111595276D01*
X159854251Y-111575565D01*
X159856180Y-111563386D01*
X159857420Y-111555557D01*
X159853259Y-111511538D01*
X159852700Y-111499681D01*
X159852700Y-102235000D01*
X166379396Y-102235000D01*
X166399358Y-102424928D01*
X166458373Y-102606556D01*
X166553860Y-102771944D01*
X166627037Y-102853215D01*
X166657753Y-102917221D01*
X166659400Y-102937524D01*
X166659400Y-117108833D01*
X166658873Y-117120016D01*
X166657198Y-117127509D01*
X166657447Y-117135435D01*
X166657447Y-117135436D01*
X166659338Y-117195586D01*
X166659400Y-117199545D01*
X166659400Y-117227456D01*
X166659897Y-117231390D01*
X166659897Y-117231391D01*
X166659905Y-117231456D01*
X166660838Y-117243293D01*
X166662227Y-117287489D01*
X166667878Y-117306939D01*
X166671887Y-117326300D01*
X166674426Y-117346397D01*
X166677345Y-117353768D01*
X166677345Y-117353770D01*
X166690704Y-117387512D01*
X166694549Y-117398742D01*
X166706882Y-117441193D01*
X166710915Y-117448012D01*
X166710917Y-117448017D01*
X166717193Y-117458628D01*
X166725888Y-117476376D01*
X166733348Y-117495217D01*
X166738010Y-117501633D01*
X166738010Y-117501634D01*
X166759336Y-117530987D01*
X166765852Y-117540907D01*
X166782571Y-117569176D01*
X166788358Y-117578962D01*
X166802679Y-117593283D01*
X166815519Y-117608316D01*
X166827428Y-117624707D01*
X166833534Y-117629758D01*
X166861505Y-117652898D01*
X166870284Y-117660888D01*
X169022070Y-119812674D01*
X169056096Y-119874986D01*
X169051031Y-119945801D01*
X169008484Y-120002637D01*
X169000123Y-120008386D01*
X168969167Y-120027880D01*
X168877712Y-120085472D01*
X168877709Y-120085474D01*
X168873433Y-120088167D01*
X168869639Y-120091512D01*
X168695142Y-120245350D01*
X168695139Y-120245353D01*
X168691345Y-120248698D01*
X168537266Y-120436278D01*
X168415159Y-120646078D01*
X168328167Y-120872702D01*
X168278526Y-121110320D01*
X168267514Y-121352817D01*
X168268095Y-121357837D01*
X168268095Y-121357841D01*
X168283923Y-121494631D01*
X168295415Y-121593956D01*
X168296791Y-121598820D01*
X168296792Y-121598823D01*
X168342476Y-121760266D01*
X168361510Y-121827532D01*
X168363644Y-121832108D01*
X168363646Y-121832114D01*
X168448817Y-122014764D01*
X168464099Y-122047536D01*
X168600544Y-122248307D01*
X168767332Y-122424681D01*
X168771358Y-122427759D01*
X168771359Y-122427760D01*
X168956154Y-122569047D01*
X168956158Y-122569050D01*
X168960174Y-122572120D01*
X169174109Y-122686831D01*
X169403631Y-122765862D01*
X169502978Y-122783022D01*
X169638926Y-122806504D01*
X169638932Y-122806505D01*
X169642836Y-122807179D01*
X169646797Y-122807359D01*
X169646798Y-122807359D01*
X169670506Y-122808436D01*
X169670525Y-122808436D01*
X169671925Y-122808500D01*
X170441001Y-122808500D01*
X170443509Y-122808298D01*
X170443514Y-122808298D01*
X170616924Y-122794346D01*
X170616929Y-122794345D01*
X170621965Y-122793940D01*
X170626873Y-122792734D01*
X170626876Y-122792734D01*
X170852792Y-122737244D01*
X170857706Y-122736037D01*
X170862358Y-122734062D01*
X170862362Y-122734061D01*
X171076498Y-122643165D01*
X171081156Y-122641188D01*
X171187037Y-122574511D01*
X171282288Y-122514528D01*
X171282291Y-122514526D01*
X171286567Y-122511833D01*
X171385422Y-122424681D01*
X171464858Y-122354650D01*
X171464861Y-122354647D01*
X171468655Y-122351302D01*
X171622734Y-122163722D01*
X171744841Y-121953922D01*
X171831833Y-121727298D01*
X171881474Y-121489680D01*
X171892486Y-121247183D01*
X171877235Y-121115373D01*
X171865167Y-121011071D01*
X171865166Y-121011067D01*
X171864585Y-121006044D01*
X171825517Y-120867978D01*
X171799866Y-120777331D01*
X171798490Y-120772468D01*
X171796356Y-120767892D01*
X171796354Y-120767886D01*
X171698038Y-120557046D01*
X171698036Y-120557042D01*
X171695901Y-120552464D01*
X171559456Y-120351693D01*
X171392668Y-120175319D01*
X171388641Y-120172240D01*
X171203846Y-120030953D01*
X171203842Y-120030950D01*
X171199826Y-120027880D01*
X171163476Y-120008389D01*
X170990352Y-119915561D01*
X170985891Y-119913169D01*
X170756369Y-119834138D01*
X170756984Y-119832351D01*
X170702963Y-119800198D01*
X170674302Y-119749618D01*
X170668230Y-119728719D01*
X170666019Y-119721107D01*
X170655705Y-119703666D01*
X170647008Y-119685913D01*
X170642472Y-119674458D01*
X170639552Y-119667083D01*
X170613563Y-119631312D01*
X170607047Y-119621392D01*
X170588578Y-119590163D01*
X170584542Y-119583338D01*
X170570221Y-119569017D01*
X170557380Y-119553983D01*
X170550131Y-119544006D01*
X170545472Y-119537593D01*
X170539368Y-119532543D01*
X170539363Y-119532538D01*
X170522924Y-119518939D01*
X170483186Y-119460106D01*
X170481563Y-119389127D01*
X170518572Y-119328540D01*
X170582462Y-119297579D01*
X170593133Y-119296260D01*
X170616924Y-119294346D01*
X170616929Y-119294345D01*
X170621965Y-119293940D01*
X170626873Y-119292734D01*
X170626876Y-119292734D01*
X170852792Y-119237244D01*
X170857706Y-119236037D01*
X170862358Y-119234062D01*
X170862362Y-119234061D01*
X171076498Y-119143165D01*
X171081156Y-119141188D01*
X171157646Y-119093019D01*
X171282288Y-119014528D01*
X171282291Y-119014526D01*
X171286567Y-119011833D01*
X171332166Y-118971633D01*
X171464858Y-118854650D01*
X171464861Y-118854647D01*
X171468655Y-118851302D01*
X171622734Y-118663722D01*
X171744841Y-118453922D01*
X171831833Y-118227298D01*
X171881474Y-117989680D01*
X171892486Y-117747183D01*
X171886245Y-117693240D01*
X171865167Y-117511071D01*
X171865166Y-117511067D01*
X171864585Y-117506044D01*
X171798490Y-117272468D01*
X171796356Y-117267892D01*
X171796354Y-117267886D01*
X171698038Y-117057046D01*
X171698036Y-117057042D01*
X171695901Y-117052464D01*
X171559456Y-116851693D01*
X171392668Y-116675319D01*
X171388641Y-116672240D01*
X171203846Y-116530953D01*
X171203842Y-116530950D01*
X171199826Y-116527880D01*
X170985891Y-116413169D01*
X170756369Y-116334138D01*
X170657022Y-116316978D01*
X170521074Y-116293496D01*
X170521068Y-116293495D01*
X170517164Y-116292821D01*
X170513203Y-116292641D01*
X170513202Y-116292641D01*
X170489494Y-116291564D01*
X170489475Y-116291564D01*
X170488075Y-116291500D01*
X169718999Y-116291500D01*
X169716491Y-116291702D01*
X169716486Y-116291702D01*
X169543076Y-116305654D01*
X169543071Y-116305655D01*
X169538035Y-116306060D01*
X169533127Y-116307266D01*
X169533124Y-116307266D01*
X169307208Y-116362756D01*
X169302294Y-116363963D01*
X169297642Y-116365938D01*
X169297638Y-116365939D01*
X169190252Y-116411522D01*
X169078844Y-116458812D01*
X169074560Y-116461510D01*
X168877712Y-116585472D01*
X168877709Y-116585474D01*
X168873433Y-116588167D01*
X168869639Y-116591512D01*
X168695142Y-116745350D01*
X168695139Y-116745353D01*
X168691345Y-116748698D01*
X168688135Y-116752606D01*
X168688134Y-116752607D01*
X168546370Y-116925195D01*
X168537266Y-116936278D01*
X168415159Y-117146078D01*
X168413346Y-117150801D01*
X168410387Y-117158510D01*
X168367303Y-117214940D01*
X168300550Y-117239118D01*
X168231322Y-117223368D01*
X168203660Y-117202454D01*
X167963305Y-116962099D01*
X167929279Y-116899787D01*
X167926400Y-116873004D01*
X167926400Y-115100400D01*
X168271500Y-115100400D01*
X168282474Y-115206166D01*
X168338450Y-115373946D01*
X168431522Y-115524348D01*
X168556697Y-115649305D01*
X168562927Y-115653145D01*
X168562928Y-115653146D01*
X168700090Y-115737694D01*
X168707262Y-115742115D01*
X168787005Y-115768564D01*
X168868611Y-115795632D01*
X168868613Y-115795632D01*
X168875139Y-115797797D01*
X168881975Y-115798497D01*
X168881978Y-115798498D01*
X168925031Y-115802909D01*
X168979600Y-115808500D01*
X171180400Y-115808500D01*
X171183646Y-115808163D01*
X171183650Y-115808163D01*
X171279308Y-115798238D01*
X171279312Y-115798237D01*
X171286166Y-115797526D01*
X171292702Y-115795345D01*
X171292704Y-115795345D01*
X171424806Y-115751272D01*
X171453946Y-115741550D01*
X171604348Y-115648478D01*
X171729305Y-115523303D01*
X171822115Y-115372738D01*
X171877797Y-115204861D01*
X171888500Y-115100400D01*
X171888500Y-113499600D01*
X171877526Y-113393834D01*
X171821550Y-113226054D01*
X171728478Y-113075652D01*
X171603303Y-112950695D01*
X171597072Y-112946854D01*
X171458968Y-112861725D01*
X171458966Y-112861724D01*
X171452738Y-112857885D01*
X171292254Y-112804655D01*
X171291389Y-112804368D01*
X171291387Y-112804368D01*
X171284861Y-112802203D01*
X171278025Y-112801503D01*
X171278022Y-112801502D01*
X171234969Y-112797091D01*
X171180400Y-112791500D01*
X168979600Y-112791500D01*
X168976354Y-112791837D01*
X168976350Y-112791837D01*
X168880692Y-112801762D01*
X168880688Y-112801763D01*
X168873834Y-112802474D01*
X168867298Y-112804655D01*
X168867296Y-112804655D01*
X168735194Y-112848728D01*
X168706054Y-112858450D01*
X168555652Y-112951522D01*
X168430695Y-113076697D01*
X168337885Y-113227262D01*
X168282203Y-113395139D01*
X168271500Y-113499600D01*
X168271500Y-115100400D01*
X167926400Y-115100400D01*
X167926400Y-102937524D01*
X167946402Y-102869403D01*
X167958758Y-102853221D01*
X168031940Y-102771944D01*
X168127427Y-102606556D01*
X168186442Y-102424928D01*
X168206404Y-102235000D01*
X168186442Y-102045072D01*
X168127427Y-101863444D01*
X168031940Y-101698056D01*
X167904153Y-101556134D01*
X167749652Y-101443882D01*
X167743624Y-101441198D01*
X167743622Y-101441197D01*
X167581219Y-101368891D01*
X167581218Y-101368891D01*
X167575188Y-101366206D01*
X167481787Y-101346353D01*
X167394844Y-101327872D01*
X167394839Y-101327872D01*
X167388387Y-101326500D01*
X167197413Y-101326500D01*
X167190961Y-101327872D01*
X167190956Y-101327872D01*
X167104013Y-101346353D01*
X167010612Y-101366206D01*
X167004582Y-101368891D01*
X167004581Y-101368891D01*
X166842178Y-101441197D01*
X166842176Y-101441198D01*
X166836148Y-101443882D01*
X166681647Y-101556134D01*
X166553860Y-101698056D01*
X166458373Y-101863444D01*
X166399358Y-102045072D01*
X166379396Y-102235000D01*
X159852700Y-102235000D01*
X159852700Y-88756424D01*
X159872702Y-88688303D01*
X159885058Y-88672121D01*
X159958240Y-88590844D01*
X160053727Y-88425456D01*
X160112742Y-88243828D01*
X160132704Y-88053900D01*
X160112742Y-87863972D01*
X160053727Y-87682344D01*
X159958240Y-87516956D01*
X159836922Y-87382218D01*
X159834875Y-87379945D01*
X159834874Y-87379944D01*
X159830453Y-87375034D01*
X159675952Y-87262782D01*
X159669924Y-87260098D01*
X159669922Y-87260097D01*
X159507519Y-87187791D01*
X159507518Y-87187791D01*
X159501488Y-87185106D01*
X159395658Y-87162611D01*
X159321144Y-87146772D01*
X159321139Y-87146772D01*
X159314687Y-87145400D01*
X159150400Y-87145400D01*
X159082279Y-87125398D01*
X159035786Y-87071742D01*
X159024400Y-87019400D01*
X159024400Y-84798424D01*
X159044402Y-84730303D01*
X159056758Y-84714121D01*
X159129940Y-84632844D01*
X159225427Y-84467456D01*
X159284442Y-84285828D01*
X159304404Y-84095900D01*
X159284442Y-83905972D01*
X159225427Y-83724344D01*
X159129940Y-83558956D01*
X159002153Y-83417034D01*
X158847652Y-83304782D01*
X158841624Y-83302098D01*
X158841622Y-83302097D01*
X158679219Y-83229791D01*
X158679218Y-83229791D01*
X158673188Y-83227106D01*
X158579787Y-83207253D01*
X158492844Y-83188772D01*
X158492839Y-83188772D01*
X158486387Y-83187400D01*
X158295413Y-83187400D01*
X158288961Y-83188772D01*
X158288956Y-83188772D01*
X158202013Y-83207253D01*
X158108612Y-83227106D01*
X158102582Y-83229791D01*
X158102581Y-83229791D01*
X157940178Y-83302097D01*
X157940176Y-83302098D01*
X157934148Y-83304782D01*
X157779647Y-83417034D01*
X157651860Y-83558956D01*
X157556373Y-83724344D01*
X157497358Y-83905972D01*
X157477396Y-84095900D01*
X157497358Y-84285828D01*
X157556373Y-84467456D01*
X157559676Y-84473178D01*
X157559677Y-84473179D01*
X157650656Y-84630759D01*
X157667394Y-84699754D01*
X157644174Y-84766846D01*
X157588366Y-84810733D01*
X157567738Y-84817005D01*
X157383312Y-84856206D01*
X157377282Y-84858891D01*
X157377281Y-84858891D01*
X157214878Y-84931197D01*
X157214876Y-84931198D01*
X157208848Y-84933882D01*
X157054347Y-85046134D01*
X156926560Y-85188056D01*
X156831073Y-85353444D01*
X156772058Y-85535072D01*
X156752096Y-85725000D01*
X156772058Y-85914928D01*
X156831073Y-86096556D01*
X156926560Y-86261944D01*
X156999737Y-86343215D01*
X157030453Y-86407221D01*
X157032100Y-86427524D01*
X157032100Y-110180806D01*
X157012098Y-110248927D01*
X156995195Y-110269901D01*
X143446627Y-123818468D01*
X143384315Y-123852494D01*
X143313500Y-123847429D01*
X143254319Y-123801643D01*
X143220228Y-123752956D01*
X143169301Y-123680224D01*
X143019776Y-123530699D01*
X142846558Y-123409411D01*
X142841580Y-123407090D01*
X142841577Y-123407088D01*
X142659892Y-123322367D01*
X142659891Y-123322366D01*
X142654910Y-123320044D01*
X142649602Y-123318622D01*
X142649600Y-123318621D01*
X142461889Y-123268324D01*
X142401266Y-123231372D01*
X142370245Y-123167511D01*
X142368500Y-123146617D01*
X142368500Y-117796566D01*
X142388502Y-117728445D01*
X142428665Y-117689133D01*
X142620202Y-117571759D01*
X142620208Y-117571755D01*
X142624416Y-117569176D01*
X142804969Y-117414969D01*
X142808177Y-117411213D01*
X142808182Y-117411208D01*
X142909189Y-117292944D01*
X142968639Y-117254134D01*
X143039634Y-117253628D01*
X143100811Y-117292944D01*
X143201818Y-117411208D01*
X143201823Y-117411213D01*
X143205031Y-117414969D01*
X143385584Y-117569176D01*
X143389792Y-117571755D01*
X143389798Y-117571759D01*
X143581335Y-117689133D01*
X143588037Y-117693240D01*
X143592607Y-117695133D01*
X143592611Y-117695135D01*
X143730469Y-117752237D01*
X143807406Y-117784105D01*
X143859310Y-117796566D01*
X144033476Y-117838380D01*
X144033482Y-117838381D01*
X144038289Y-117839535D01*
X144275000Y-117858165D01*
X144511711Y-117839535D01*
X144516518Y-117838381D01*
X144516524Y-117838380D01*
X144690690Y-117796566D01*
X144742594Y-117784105D01*
X144819531Y-117752237D01*
X144957389Y-117695135D01*
X144957393Y-117695133D01*
X144961963Y-117693240D01*
X144968665Y-117689133D01*
X145160202Y-117571759D01*
X145160208Y-117571755D01*
X145164416Y-117569176D01*
X145344969Y-117414969D01*
X145348177Y-117411213D01*
X145348182Y-117411208D01*
X145449189Y-117292944D01*
X145508639Y-117254134D01*
X145579634Y-117253628D01*
X145640811Y-117292944D01*
X145741818Y-117411208D01*
X145741823Y-117411213D01*
X145745031Y-117414969D01*
X145925584Y-117569176D01*
X145929792Y-117571755D01*
X145929798Y-117571759D01*
X146121335Y-117689133D01*
X146128037Y-117693240D01*
X146132607Y-117695133D01*
X146132611Y-117695135D01*
X146270469Y-117752237D01*
X146347406Y-117784105D01*
X146399310Y-117796566D01*
X146573476Y-117838380D01*
X146573482Y-117838381D01*
X146578289Y-117839535D01*
X146815000Y-117858165D01*
X147051711Y-117839535D01*
X147056518Y-117838381D01*
X147056524Y-117838380D01*
X147230690Y-117796566D01*
X147282594Y-117784105D01*
X147359531Y-117752237D01*
X147497389Y-117695135D01*
X147497393Y-117695133D01*
X147501963Y-117693240D01*
X147508665Y-117689133D01*
X147700202Y-117571759D01*
X147700208Y-117571755D01*
X147704416Y-117569176D01*
X147884969Y-117414969D01*
X148039176Y-117234416D01*
X148041755Y-117230208D01*
X148041759Y-117230202D01*
X148160654Y-117036183D01*
X148163240Y-117031963D01*
X148192179Y-116962099D01*
X148252211Y-116817167D01*
X148252212Y-116817165D01*
X148254105Y-116812594D01*
X148307182Y-116591512D01*
X148308380Y-116586524D01*
X148308381Y-116586518D01*
X148309535Y-116581711D01*
X148328165Y-116345000D01*
X148309535Y-116108289D01*
X148254105Y-115877406D01*
X148252211Y-115872833D01*
X148165135Y-115662611D01*
X148165133Y-115662607D01*
X148163240Y-115658037D01*
X148154207Y-115643296D01*
X148041759Y-115459798D01*
X148041755Y-115459792D01*
X148039176Y-115455584D01*
X147884969Y-115275031D01*
X147704416Y-115120824D01*
X147700208Y-115118245D01*
X147700202Y-115118241D01*
X147508665Y-115000867D01*
X147461034Y-114948219D01*
X147448500Y-114893434D01*
X147448500Y-104953824D01*
X147468502Y-104885703D01*
X147480858Y-104869521D01*
X147554040Y-104788244D01*
X147649527Y-104622856D01*
X147708542Y-104441228D01*
X147728504Y-104251300D01*
X147708542Y-104061372D01*
X147649527Y-103879744D01*
X147554040Y-103714356D01*
X147426253Y-103572434D01*
X147271752Y-103460182D01*
X147265724Y-103457498D01*
X147265722Y-103457497D01*
X147103319Y-103385191D01*
X147103318Y-103385191D01*
X147097288Y-103382506D01*
X147003887Y-103362653D01*
X146916944Y-103344172D01*
X146916939Y-103344172D01*
X146910487Y-103342800D01*
X146719513Y-103342800D01*
X146713061Y-103344172D01*
X146713056Y-103344172D01*
X146626112Y-103362653D01*
X146532712Y-103382506D01*
X146526682Y-103385191D01*
X146526681Y-103385191D01*
X146364278Y-103457497D01*
X146364276Y-103457498D01*
X146358248Y-103460182D01*
X146203747Y-103572434D01*
X146075960Y-103714356D01*
X145980473Y-103879744D01*
X145921458Y-104061372D01*
X145901496Y-104251300D01*
X145921458Y-104441228D01*
X145980473Y-104622856D01*
X146075960Y-104788244D01*
X146149137Y-104869515D01*
X146179853Y-104933521D01*
X146181500Y-104953824D01*
X146181500Y-114893434D01*
X146161498Y-114961555D01*
X146121335Y-115000867D01*
X145929798Y-115118241D01*
X145929792Y-115118245D01*
X145925584Y-115120824D01*
X145745031Y-115275031D01*
X145741823Y-115278787D01*
X145741818Y-115278792D01*
X145640811Y-115397056D01*
X145581361Y-115435866D01*
X145510366Y-115436372D01*
X145449189Y-115397056D01*
X145348182Y-115278792D01*
X145348177Y-115278787D01*
X145344969Y-115275031D01*
X145164416Y-115120824D01*
X145160208Y-115118245D01*
X145160202Y-115118241D01*
X144966183Y-114999346D01*
X144961963Y-114996760D01*
X144957393Y-114994867D01*
X144957389Y-114994865D01*
X144747167Y-114907789D01*
X144747165Y-114907788D01*
X144742594Y-114905895D01*
X144662391Y-114886640D01*
X144516524Y-114851620D01*
X144516518Y-114851619D01*
X144511711Y-114850465D01*
X144275000Y-114831835D01*
X144038289Y-114850465D01*
X144033482Y-114851619D01*
X144033476Y-114851620D01*
X143887609Y-114886640D01*
X143807406Y-114905895D01*
X143802835Y-114907788D01*
X143802833Y-114907789D01*
X143592611Y-114994865D01*
X143592607Y-114994867D01*
X143588037Y-114996760D01*
X143583817Y-114999346D01*
X143389798Y-115118241D01*
X143389792Y-115118245D01*
X143385584Y-115120824D01*
X143205031Y-115275031D01*
X143201823Y-115278787D01*
X143201818Y-115278792D01*
X143100811Y-115397056D01*
X143041361Y-115435866D01*
X142970366Y-115436372D01*
X142909189Y-115397056D01*
X142808182Y-115278792D01*
X142808177Y-115278787D01*
X142804969Y-115275031D01*
X142624416Y-115120824D01*
X142620208Y-115118245D01*
X142620202Y-115118241D01*
X142426183Y-114999346D01*
X142421963Y-114996760D01*
X142417393Y-114994867D01*
X142417389Y-114994865D01*
X142207167Y-114907789D01*
X142207165Y-114907788D01*
X142202594Y-114905895D01*
X142122391Y-114886640D01*
X141976524Y-114851620D01*
X141976518Y-114851619D01*
X141971711Y-114850465D01*
X141735000Y-114831835D01*
X141498289Y-114850465D01*
X141493482Y-114851619D01*
X141493476Y-114851620D01*
X141347609Y-114886640D01*
X141267406Y-114905895D01*
X141262835Y-114907788D01*
X141262833Y-114907789D01*
X141052611Y-114994865D01*
X141052607Y-114994867D01*
X141048037Y-114996760D01*
X141043817Y-114999346D01*
X140849798Y-115118241D01*
X140849792Y-115118245D01*
X140845584Y-115120824D01*
X140665031Y-115275031D01*
X140661823Y-115278787D01*
X140661818Y-115278792D01*
X140560811Y-115397056D01*
X140501361Y-115435866D01*
X140430366Y-115436372D01*
X140369189Y-115397056D01*
X140268182Y-115278792D01*
X140268177Y-115278787D01*
X140264969Y-115275031D01*
X140084416Y-115120824D01*
X140080208Y-115118245D01*
X140080202Y-115118241D01*
X139886183Y-114999346D01*
X139881963Y-114996760D01*
X139877393Y-114994867D01*
X139877389Y-114994865D01*
X139667167Y-114907789D01*
X139667165Y-114907788D01*
X139662594Y-114905895D01*
X139582391Y-114886640D01*
X139436524Y-114851620D01*
X139436518Y-114851619D01*
X139431711Y-114850465D01*
X139195000Y-114831835D01*
X138958289Y-114850465D01*
X138953482Y-114851619D01*
X138953476Y-114851620D01*
X138807609Y-114886640D01*
X138727406Y-114905895D01*
X138722835Y-114907788D01*
X138722833Y-114907789D01*
X138512611Y-114994865D01*
X138512607Y-114994867D01*
X138508037Y-114996760D01*
X138503817Y-114999346D01*
X138309798Y-115118241D01*
X138309792Y-115118245D01*
X138305584Y-115120824D01*
X138125031Y-115275031D01*
X138121823Y-115278787D01*
X138121818Y-115278792D01*
X138020811Y-115397056D01*
X137961361Y-115435866D01*
X137890366Y-115436372D01*
X137829189Y-115397056D01*
X137728182Y-115278792D01*
X137728177Y-115278787D01*
X137724969Y-115275031D01*
X137544416Y-115120824D01*
X137540208Y-115118245D01*
X137540202Y-115118241D01*
X137346183Y-114999346D01*
X137341963Y-114996760D01*
X137337393Y-114994867D01*
X137337389Y-114994865D01*
X137127167Y-114907789D01*
X137127165Y-114907788D01*
X137122594Y-114905895D01*
X137042391Y-114886640D01*
X136896524Y-114851620D01*
X136896518Y-114851619D01*
X136891711Y-114850465D01*
X136655000Y-114831835D01*
X136418289Y-114850465D01*
X136413482Y-114851619D01*
X136413476Y-114851620D01*
X136267609Y-114886640D01*
X136187406Y-114905895D01*
X136182835Y-114907788D01*
X136182833Y-114907789D01*
X135972611Y-114994865D01*
X135972607Y-114994867D01*
X135968037Y-114996760D01*
X135963817Y-114999346D01*
X135769798Y-115118241D01*
X135769792Y-115118245D01*
X135765584Y-115120824D01*
X135585031Y-115275031D01*
X135581823Y-115278787D01*
X135581818Y-115278792D01*
X135480811Y-115397056D01*
X135421361Y-115435866D01*
X135350366Y-115436372D01*
X135289189Y-115397056D01*
X135188182Y-115278792D01*
X135188177Y-115278787D01*
X135184969Y-115275031D01*
X135004416Y-115120824D01*
X135000208Y-115118245D01*
X135000202Y-115118241D01*
X134806183Y-114999346D01*
X134801963Y-114996760D01*
X134797393Y-114994867D01*
X134797389Y-114994865D01*
X134587167Y-114907789D01*
X134587165Y-114907788D01*
X134582594Y-114905895D01*
X134502391Y-114886640D01*
X134356524Y-114851620D01*
X134356518Y-114851619D01*
X134351711Y-114850465D01*
X134115000Y-114831835D01*
X133878289Y-114850465D01*
X133873482Y-114851619D01*
X133873476Y-114851620D01*
X133727609Y-114886640D01*
X133647406Y-114905895D01*
X133642835Y-114907788D01*
X133642833Y-114907789D01*
X133432611Y-114994865D01*
X133432607Y-114994867D01*
X133428037Y-114996760D01*
X133423817Y-114999346D01*
X133229798Y-115118241D01*
X133229792Y-115118245D01*
X133225584Y-115120824D01*
X133045031Y-115275031D01*
X133041823Y-115278787D01*
X133041818Y-115278792D01*
X132940811Y-115397056D01*
X132881361Y-115435866D01*
X132810366Y-115436372D01*
X132749189Y-115397056D01*
X132648182Y-115278792D01*
X132648177Y-115278787D01*
X132644969Y-115275031D01*
X132464416Y-115120824D01*
X132460208Y-115118245D01*
X132460202Y-115118241D01*
X132266183Y-114999346D01*
X132261963Y-114996760D01*
X132257393Y-114994867D01*
X132257389Y-114994865D01*
X132047167Y-114907789D01*
X132047165Y-114907788D01*
X132042594Y-114905895D01*
X131962391Y-114886640D01*
X131816524Y-114851620D01*
X131816518Y-114851619D01*
X131811711Y-114850465D01*
X131575000Y-114831835D01*
X131338289Y-114850465D01*
X131333482Y-114851619D01*
X131333476Y-114851620D01*
X131187609Y-114886640D01*
X131107406Y-114905895D01*
X131102835Y-114907788D01*
X131102833Y-114907789D01*
X130892611Y-114994865D01*
X130892607Y-114994867D01*
X130888037Y-114996760D01*
X130883817Y-114999346D01*
X130689798Y-115118241D01*
X130689792Y-115118245D01*
X130685584Y-115120824D01*
X130505031Y-115275031D01*
X130501823Y-115278787D01*
X130501818Y-115278792D01*
X130400811Y-115397056D01*
X130341361Y-115435866D01*
X130270366Y-115436372D01*
X130209189Y-115397056D01*
X130108182Y-115278792D01*
X130108177Y-115278787D01*
X130104969Y-115275031D01*
X129924416Y-115120824D01*
X129920208Y-115118245D01*
X129920202Y-115118241D01*
X129726183Y-114999346D01*
X129721963Y-114996760D01*
X129717393Y-114994867D01*
X129717389Y-114994865D01*
X129507167Y-114907789D01*
X129507165Y-114907788D01*
X129502594Y-114905895D01*
X129422391Y-114886640D01*
X129276524Y-114851620D01*
X129276518Y-114851619D01*
X129271711Y-114850465D01*
X129035000Y-114831835D01*
X128798289Y-114850465D01*
X128793482Y-114851619D01*
X128793476Y-114851620D01*
X128647609Y-114886640D01*
X128567406Y-114905895D01*
X128562835Y-114907788D01*
X128562833Y-114907789D01*
X128352611Y-114994865D01*
X128352607Y-114994867D01*
X128348037Y-114996760D01*
X128343817Y-114999346D01*
X128149798Y-115118241D01*
X128149792Y-115118245D01*
X128145584Y-115120824D01*
X127965031Y-115275031D01*
X127810824Y-115455584D01*
X127808245Y-115459792D01*
X127808241Y-115459798D01*
X127695793Y-115643296D01*
X127686760Y-115658037D01*
X127684867Y-115662607D01*
X127684865Y-115662611D01*
X127597789Y-115872833D01*
X127595895Y-115877406D01*
X127540465Y-116108289D01*
X127521835Y-116345000D01*
X107188000Y-116345000D01*
X107188000Y-87845000D01*
X127521835Y-87845000D01*
X127540465Y-88081711D01*
X127595895Y-88312594D01*
X127597788Y-88317165D01*
X127597789Y-88317167D01*
X127642644Y-88425456D01*
X127686760Y-88531963D01*
X127689346Y-88536183D01*
X127808241Y-88730202D01*
X127808245Y-88730208D01*
X127810824Y-88734416D01*
X127965031Y-88914969D01*
X128145584Y-89069176D01*
X128149792Y-89071755D01*
X128149798Y-89071759D01*
X128343817Y-89190654D01*
X128348037Y-89193240D01*
X128352607Y-89195133D01*
X128352611Y-89195135D01*
X128562833Y-89282211D01*
X128567406Y-89284105D01*
X128647609Y-89303360D01*
X128793476Y-89338380D01*
X128793482Y-89338381D01*
X128798289Y-89339535D01*
X129035000Y-89358165D01*
X129271711Y-89339535D01*
X129276518Y-89338381D01*
X129276524Y-89338380D01*
X129422391Y-89303360D01*
X129502594Y-89284105D01*
X129507167Y-89282211D01*
X129717389Y-89195135D01*
X129717393Y-89195133D01*
X129721963Y-89193240D01*
X129726183Y-89190654D01*
X129920202Y-89071759D01*
X129920208Y-89071755D01*
X129924416Y-89069176D01*
X130104969Y-88914969D01*
X130108177Y-88911213D01*
X130108182Y-88911208D01*
X130209189Y-88792944D01*
X130268639Y-88754134D01*
X130339634Y-88753628D01*
X130400811Y-88792944D01*
X130501818Y-88911208D01*
X130501823Y-88911213D01*
X130505031Y-88914969D01*
X130685584Y-89069176D01*
X130689792Y-89071755D01*
X130689798Y-89071759D01*
X130883817Y-89190654D01*
X130888037Y-89193240D01*
X130892607Y-89195133D01*
X130892611Y-89195135D01*
X131102833Y-89282211D01*
X131107406Y-89284105D01*
X131187609Y-89303360D01*
X131333476Y-89338380D01*
X131333482Y-89338381D01*
X131338289Y-89339535D01*
X131575000Y-89358165D01*
X131811711Y-89339535D01*
X131816518Y-89338381D01*
X131816524Y-89338380D01*
X131962391Y-89303360D01*
X132042594Y-89284105D01*
X132047167Y-89282211D01*
X132257389Y-89195135D01*
X132257393Y-89195133D01*
X132261963Y-89193240D01*
X132266183Y-89190654D01*
X132460202Y-89071759D01*
X132460208Y-89071755D01*
X132464416Y-89069176D01*
X132644969Y-88914969D01*
X132648177Y-88911213D01*
X132648182Y-88911208D01*
X132749189Y-88792944D01*
X132808639Y-88754134D01*
X132879634Y-88753628D01*
X132940811Y-88792944D01*
X133041818Y-88911208D01*
X133041823Y-88911213D01*
X133045031Y-88914969D01*
X133225584Y-89069176D01*
X133229792Y-89071755D01*
X133229798Y-89071759D01*
X133423817Y-89190654D01*
X133428037Y-89193240D01*
X133432607Y-89195133D01*
X133432611Y-89195135D01*
X133642833Y-89282211D01*
X133647406Y-89284105D01*
X133727609Y-89303360D01*
X133873476Y-89338380D01*
X133873482Y-89338381D01*
X133878289Y-89339535D01*
X134115000Y-89358165D01*
X134351711Y-89339535D01*
X134356518Y-89338381D01*
X134356524Y-89338380D01*
X134502391Y-89303360D01*
X134582594Y-89284105D01*
X134587167Y-89282211D01*
X134797389Y-89195135D01*
X134797393Y-89195133D01*
X134801963Y-89193240D01*
X134806183Y-89190654D01*
X135000202Y-89071759D01*
X135000208Y-89071755D01*
X135004416Y-89069176D01*
X135184969Y-88914969D01*
X135188177Y-88911213D01*
X135188182Y-88911208D01*
X135289189Y-88792944D01*
X135348639Y-88754134D01*
X135419634Y-88753628D01*
X135480811Y-88792944D01*
X135581818Y-88911208D01*
X135581823Y-88911213D01*
X135585031Y-88914969D01*
X135765584Y-89069176D01*
X135769792Y-89071755D01*
X135769798Y-89071759D01*
X135963817Y-89190654D01*
X135968037Y-89193240D01*
X135972607Y-89195133D01*
X135972611Y-89195135D01*
X136182833Y-89282211D01*
X136187406Y-89284105D01*
X136267609Y-89303360D01*
X136413476Y-89338380D01*
X136413482Y-89338381D01*
X136418289Y-89339535D01*
X136655000Y-89358165D01*
X136891711Y-89339535D01*
X136896518Y-89338381D01*
X136896524Y-89338380D01*
X137042391Y-89303360D01*
X137122594Y-89284105D01*
X137127167Y-89282211D01*
X137337389Y-89195135D01*
X137337393Y-89195133D01*
X137341963Y-89193240D01*
X137346183Y-89190654D01*
X137540202Y-89071759D01*
X137540208Y-89071755D01*
X137544416Y-89069176D01*
X137724969Y-88914969D01*
X137728177Y-88911213D01*
X137728182Y-88911208D01*
X137829189Y-88792944D01*
X137888639Y-88754134D01*
X137959634Y-88753628D01*
X138020811Y-88792944D01*
X138121818Y-88911208D01*
X138121823Y-88911213D01*
X138125031Y-88914969D01*
X138305584Y-89069176D01*
X138309792Y-89071755D01*
X138309798Y-89071759D01*
X138503817Y-89190654D01*
X138508037Y-89193240D01*
X138512607Y-89195133D01*
X138512611Y-89195135D01*
X138722833Y-89282211D01*
X138727406Y-89284105D01*
X138807609Y-89303360D01*
X138953476Y-89338380D01*
X138953482Y-89338381D01*
X138958289Y-89339535D01*
X139195000Y-89358165D01*
X139431711Y-89339535D01*
X139436518Y-89338381D01*
X139436524Y-89338380D01*
X139582391Y-89303360D01*
X139662594Y-89284105D01*
X139667167Y-89282211D01*
X139877389Y-89195135D01*
X139877393Y-89195133D01*
X139881963Y-89193240D01*
X139886183Y-89190654D01*
X140080202Y-89071759D01*
X140080208Y-89071755D01*
X140084416Y-89069176D01*
X140264969Y-88914969D01*
X140268177Y-88911213D01*
X140268182Y-88911208D01*
X140369189Y-88792944D01*
X140428639Y-88754134D01*
X140499634Y-88753628D01*
X140560811Y-88792944D01*
X140661818Y-88911208D01*
X140661823Y-88911213D01*
X140665031Y-88914969D01*
X140845584Y-89069176D01*
X140849792Y-89071755D01*
X140849798Y-89071759D01*
X141043817Y-89190654D01*
X141048037Y-89193240D01*
X141052607Y-89195133D01*
X141052611Y-89195135D01*
X141262833Y-89282211D01*
X141267406Y-89284105D01*
X141347609Y-89303360D01*
X141493476Y-89338380D01*
X141493482Y-89338381D01*
X141498289Y-89339535D01*
X141735000Y-89358165D01*
X141971711Y-89339535D01*
X141976518Y-89338381D01*
X141976524Y-89338380D01*
X142122391Y-89303360D01*
X142202594Y-89284105D01*
X142207167Y-89282211D01*
X142417389Y-89195135D01*
X142417393Y-89195133D01*
X142421963Y-89193240D01*
X142426183Y-89190654D01*
X142620202Y-89071759D01*
X142620208Y-89071755D01*
X142624416Y-89069176D01*
X142804969Y-88914969D01*
X142808177Y-88911213D01*
X142808182Y-88911208D01*
X142909189Y-88792944D01*
X142968639Y-88754134D01*
X143039634Y-88753628D01*
X143100811Y-88792944D01*
X143201818Y-88911208D01*
X143201823Y-88911213D01*
X143205031Y-88914969D01*
X143385584Y-89069176D01*
X143389792Y-89071755D01*
X143389798Y-89071759D01*
X143583817Y-89190654D01*
X143588037Y-89193240D01*
X143592607Y-89195133D01*
X143592611Y-89195135D01*
X143802833Y-89282211D01*
X143807406Y-89284105D01*
X143887609Y-89303360D01*
X144033476Y-89338380D01*
X144033482Y-89338381D01*
X144038289Y-89339535D01*
X144275000Y-89358165D01*
X144511711Y-89339535D01*
X144516518Y-89338381D01*
X144516524Y-89338380D01*
X144662391Y-89303360D01*
X144742594Y-89284105D01*
X144747167Y-89282211D01*
X144957389Y-89195135D01*
X144957393Y-89195133D01*
X144961963Y-89193240D01*
X144966183Y-89190654D01*
X145160202Y-89071759D01*
X145160208Y-89071755D01*
X145164416Y-89069176D01*
X145344969Y-88914969D01*
X145348177Y-88911213D01*
X145348182Y-88911208D01*
X145449189Y-88792944D01*
X145508639Y-88754134D01*
X145579634Y-88753628D01*
X145640811Y-88792944D01*
X145741818Y-88911208D01*
X145741823Y-88911213D01*
X145745031Y-88914969D01*
X145925584Y-89069176D01*
X145929792Y-89071755D01*
X145929798Y-89071759D01*
X146123817Y-89190654D01*
X146128037Y-89193240D01*
X146132607Y-89195133D01*
X146132611Y-89195135D01*
X146342833Y-89282211D01*
X146347406Y-89284105D01*
X146427609Y-89303360D01*
X146573476Y-89338380D01*
X146573482Y-89338381D01*
X146578289Y-89339535D01*
X146815000Y-89358165D01*
X147051711Y-89339535D01*
X147056518Y-89338381D01*
X147056524Y-89338380D01*
X147202391Y-89303360D01*
X147282594Y-89284105D01*
X147287167Y-89282211D01*
X147497389Y-89195135D01*
X147497393Y-89195133D01*
X147501963Y-89193240D01*
X147506183Y-89190654D01*
X147700202Y-89071759D01*
X147700208Y-89071755D01*
X147704416Y-89069176D01*
X147884969Y-88914969D01*
X148039176Y-88734416D01*
X148041755Y-88730208D01*
X148041759Y-88730202D01*
X148160654Y-88536183D01*
X148163240Y-88531963D01*
X148207357Y-88425456D01*
X148252211Y-88317167D01*
X148252212Y-88317165D01*
X148254105Y-88312594D01*
X148309535Y-88081711D01*
X148328165Y-87845000D01*
X148309535Y-87608289D01*
X148254105Y-87377406D01*
X148206627Y-87262782D01*
X148165135Y-87162611D01*
X148165133Y-87162607D01*
X148163240Y-87158037D01*
X148110358Y-87071742D01*
X148041759Y-86959798D01*
X148041755Y-86959792D01*
X148039176Y-86955584D01*
X147884969Y-86775031D01*
X147704416Y-86620824D01*
X147700208Y-86618245D01*
X147700202Y-86618241D01*
X147506183Y-86499346D01*
X147501963Y-86496760D01*
X147497393Y-86494867D01*
X147497389Y-86494865D01*
X147287167Y-86407789D01*
X147287165Y-86407788D01*
X147282594Y-86405895D01*
X147202391Y-86386640D01*
X147056524Y-86351620D01*
X147056518Y-86351619D01*
X147051711Y-86350465D01*
X146815000Y-86331835D01*
X146578289Y-86350465D01*
X146573482Y-86351619D01*
X146573476Y-86351620D01*
X146427609Y-86386640D01*
X146347406Y-86405895D01*
X146342835Y-86407788D01*
X146342833Y-86407789D01*
X146132611Y-86494865D01*
X146132607Y-86494867D01*
X146128037Y-86496760D01*
X146123817Y-86499346D01*
X145929798Y-86618241D01*
X145929792Y-86618245D01*
X145925584Y-86620824D01*
X145745031Y-86775031D01*
X145741823Y-86778787D01*
X145741818Y-86778792D01*
X145640811Y-86897056D01*
X145581361Y-86935866D01*
X145510366Y-86936372D01*
X145449189Y-86897056D01*
X145348182Y-86778792D01*
X145348177Y-86778787D01*
X145344969Y-86775031D01*
X145164416Y-86620824D01*
X145160208Y-86618245D01*
X145160202Y-86618241D01*
X144966183Y-86499346D01*
X144961963Y-86496760D01*
X144957393Y-86494867D01*
X144957389Y-86494865D01*
X144747167Y-86407789D01*
X144747165Y-86407788D01*
X144742594Y-86405895D01*
X144662391Y-86386640D01*
X144516524Y-86351620D01*
X144516518Y-86351619D01*
X144511711Y-86350465D01*
X144479373Y-86347920D01*
X144450814Y-86345672D01*
X144384472Y-86320386D01*
X144342333Y-86263248D01*
X144334700Y-86220060D01*
X144334700Y-82576020D01*
X144354702Y-82507899D01*
X144408358Y-82461406D01*
X144478632Y-82451302D01*
X144493311Y-82454313D01*
X144564030Y-82473262D01*
X144564032Y-82473262D01*
X144569345Y-82474686D01*
X144780000Y-82493116D01*
X144990655Y-82474686D01*
X144995968Y-82473262D01*
X144995970Y-82473262D01*
X145189600Y-82421379D01*
X145189602Y-82421378D01*
X145194910Y-82419956D01*
X145241094Y-82398420D01*
X145381577Y-82332912D01*
X145381580Y-82332910D01*
X145386558Y-82330589D01*
X145559776Y-82209301D01*
X145709301Y-82059776D01*
X145830589Y-81886558D01*
X145919956Y-81694910D01*
X145974686Y-81490655D01*
X145993116Y-81280000D01*
X145974686Y-81069345D01*
X145919956Y-80865090D01*
X145830589Y-80673442D01*
X145709301Y-80500224D01*
X145559776Y-80350699D01*
X145386558Y-80229411D01*
X145381580Y-80227090D01*
X145381577Y-80227088D01*
X145199892Y-80142367D01*
X145199891Y-80142366D01*
X145194910Y-80140044D01*
X145189602Y-80138622D01*
X145189600Y-80138621D01*
X144995970Y-80086738D01*
X144995968Y-80086738D01*
X144990655Y-80085314D01*
X144780000Y-80066884D01*
X144569345Y-80085314D01*
X144564032Y-80086738D01*
X144564030Y-80086738D01*
X144493311Y-80105687D01*
X144422334Y-80103997D01*
X144363539Y-80064203D01*
X144335591Y-79998938D01*
X144334700Y-79983980D01*
X144334700Y-78618694D01*
X144354702Y-78550573D01*
X144371605Y-78529599D01*
X145172247Y-77728957D01*
X145180537Y-77721413D01*
X145187018Y-77717300D01*
X145233659Y-77667632D01*
X145236413Y-77664791D01*
X145256135Y-77645069D01*
X145258612Y-77641876D01*
X145266317Y-77632855D01*
X145291159Y-77606400D01*
X145296586Y-77600621D01*
X145300407Y-77593671D01*
X145306346Y-77582868D01*
X145317202Y-77566341D01*
X145324757Y-77556602D01*
X145324758Y-77556600D01*
X145329614Y-77550340D01*
X145347174Y-77509760D01*
X145352391Y-77499112D01*
X145369875Y-77467309D01*
X145369876Y-77467307D01*
X145373695Y-77460360D01*
X145378733Y-77440737D01*
X145385137Y-77422034D01*
X145390033Y-77410720D01*
X145390033Y-77410719D01*
X145393181Y-77403445D01*
X145394420Y-77395622D01*
X145394423Y-77395612D01*
X145400099Y-77359776D01*
X145402505Y-77348156D01*
X145411528Y-77313011D01*
X145411528Y-77313010D01*
X145413500Y-77305330D01*
X145413500Y-77297315D01*
X145413519Y-77297250D01*
X145414493Y-77289540D01*
X145415737Y-77289697D01*
X145433502Y-77229194D01*
X145467230Y-77194102D01*
X145555264Y-77132460D01*
X145559776Y-77129301D01*
X145709301Y-76979776D01*
X145830589Y-76806558D01*
X145919956Y-76614910D01*
X145974686Y-76410655D01*
X145993116Y-76200000D01*
X145974686Y-75989345D01*
X145919956Y-75785090D01*
X145830589Y-75593442D01*
X145709301Y-75420224D01*
X145559776Y-75270699D01*
X145386558Y-75149411D01*
X145381580Y-75147090D01*
X145381577Y-75147088D01*
X145199892Y-75062367D01*
X145199891Y-75062366D01*
X145194910Y-75060044D01*
X145189602Y-75058622D01*
X145189600Y-75058621D01*
X144995970Y-75006738D01*
X144995968Y-75006738D01*
X144990655Y-75005314D01*
X144780000Y-74986884D01*
X144569345Y-75005314D01*
X144564032Y-75006738D01*
X144564030Y-75006738D01*
X144370400Y-75058621D01*
X144370398Y-75058622D01*
X144365090Y-75060044D01*
X144360109Y-75062366D01*
X144360108Y-75062367D01*
X144178423Y-75147088D01*
X144178420Y-75147090D01*
X144173442Y-75149411D01*
X144000224Y-75270699D01*
X143850699Y-75420224D01*
X143729411Y-75593442D01*
X143640044Y-75785090D01*
X143638622Y-75790398D01*
X143638621Y-75790400D01*
X143631707Y-75816204D01*
X143594755Y-75876827D01*
X143530894Y-75907848D01*
X143460400Y-75899420D01*
X143405653Y-75854217D01*
X143388293Y-75816204D01*
X143381379Y-75790400D01*
X143381378Y-75790398D01*
X143379956Y-75785090D01*
X143290589Y-75593442D01*
X143169301Y-75420224D01*
X143019776Y-75270699D01*
X142846558Y-75149411D01*
X142841580Y-75147090D01*
X142841577Y-75147088D01*
X142659892Y-75062367D01*
X142659891Y-75062366D01*
X142654910Y-75060044D01*
X142649602Y-75058622D01*
X142649600Y-75058621D01*
X142455970Y-75006738D01*
X142455968Y-75006738D01*
X142450655Y-75005314D01*
X142240000Y-74986884D01*
X142029345Y-75005314D01*
X142024032Y-75006738D01*
X142024030Y-75006738D01*
X141830400Y-75058621D01*
X141830398Y-75058622D01*
X141825090Y-75060044D01*
X141820109Y-75062366D01*
X141820108Y-75062367D01*
X141638423Y-75147088D01*
X141638420Y-75147090D01*
X141633442Y-75149411D01*
X141460224Y-75270699D01*
X141310699Y-75420224D01*
X141189411Y-75593442D01*
X141100044Y-75785090D01*
X141045314Y-75989345D01*
X141026884Y-76200000D01*
X141045314Y-76410655D01*
X141100044Y-76614910D01*
X141189411Y-76806558D01*
X141310699Y-76979776D01*
X141361064Y-77030141D01*
X141395090Y-77092453D01*
X141390025Y-77163268D01*
X141361064Y-77208331D01*
X140811347Y-77758048D01*
X140803061Y-77765588D01*
X140796582Y-77769700D01*
X140791157Y-77775477D01*
X140749957Y-77819351D01*
X140747202Y-77822193D01*
X140727465Y-77841930D01*
X140724985Y-77845127D01*
X140717282Y-77854147D01*
X140687014Y-77886379D01*
X140683195Y-77893325D01*
X140683193Y-77893328D01*
X140677252Y-77904134D01*
X140666401Y-77920653D01*
X140653986Y-77936659D01*
X140650841Y-77943928D01*
X140650838Y-77943932D01*
X140636426Y-77977237D01*
X140631209Y-77987887D01*
X140609905Y-78026640D01*
X140607934Y-78034315D01*
X140607934Y-78034316D01*
X140604867Y-78046262D01*
X140598463Y-78064966D01*
X140590419Y-78083555D01*
X140589180Y-78091378D01*
X140589177Y-78091388D01*
X140583501Y-78127224D01*
X140581095Y-78138844D01*
X140570100Y-78181670D01*
X140570100Y-78201924D01*
X140568549Y-78221634D01*
X140565380Y-78241643D01*
X140566126Y-78249535D01*
X140569541Y-78285661D01*
X140570100Y-78297519D01*
X140570100Y-86790755D01*
X140550098Y-86858876D01*
X140496442Y-86905369D01*
X140426168Y-86915473D01*
X140361588Y-86885979D01*
X140348289Y-86872586D01*
X140268177Y-86778787D01*
X140264969Y-86775031D01*
X140084416Y-86620824D01*
X140080208Y-86618245D01*
X140080202Y-86618241D01*
X139886183Y-86499346D01*
X139881963Y-86496760D01*
X139877393Y-86494867D01*
X139877389Y-86494865D01*
X139667167Y-86407789D01*
X139667165Y-86407788D01*
X139662594Y-86405895D01*
X139582391Y-86386640D01*
X139436524Y-86351620D01*
X139436518Y-86351619D01*
X139431711Y-86350465D01*
X139195000Y-86331835D01*
X138958289Y-86350465D01*
X138953482Y-86351619D01*
X138953476Y-86351620D01*
X138807609Y-86386640D01*
X138727406Y-86405895D01*
X138722835Y-86407788D01*
X138722833Y-86407789D01*
X138512611Y-86494865D01*
X138512607Y-86494867D01*
X138508037Y-86496760D01*
X138503817Y-86499346D01*
X138309798Y-86618241D01*
X138309792Y-86618245D01*
X138305584Y-86620824D01*
X138125031Y-86775031D01*
X138121823Y-86778787D01*
X138121818Y-86778792D01*
X138020811Y-86897056D01*
X137961361Y-86935866D01*
X137890366Y-86936372D01*
X137829189Y-86897056D01*
X137728182Y-86778792D01*
X137728177Y-86778787D01*
X137724969Y-86775031D01*
X137544416Y-86620824D01*
X137540208Y-86618245D01*
X137540202Y-86618241D01*
X137346183Y-86499346D01*
X137341963Y-86496760D01*
X137337393Y-86494867D01*
X137337389Y-86494865D01*
X137127167Y-86407789D01*
X137127165Y-86407788D01*
X137122594Y-86405895D01*
X137042391Y-86386640D01*
X136896524Y-86351620D01*
X136896518Y-86351619D01*
X136891711Y-86350465D01*
X136886776Y-86350077D01*
X136886766Y-86350075D01*
X136873212Y-86349008D01*
X136806871Y-86323722D01*
X136764732Y-86266584D01*
X136757100Y-86223397D01*
X136757100Y-82587381D01*
X136777102Y-82519260D01*
X136830758Y-82472767D01*
X136901032Y-82462663D01*
X136915711Y-82465674D01*
X136944030Y-82473262D01*
X136944032Y-82473262D01*
X136949345Y-82474686D01*
X137160000Y-82493116D01*
X137370655Y-82474686D01*
X137375968Y-82473262D01*
X137375970Y-82473262D01*
X137569600Y-82421379D01*
X137569602Y-82421378D01*
X137574910Y-82419956D01*
X137621094Y-82398420D01*
X137761577Y-82332912D01*
X137761580Y-82332910D01*
X137766558Y-82330589D01*
X137939776Y-82209301D01*
X138089301Y-82059776D01*
X138210589Y-81886558D01*
X138299956Y-81694910D01*
X138354686Y-81490655D01*
X138373116Y-81280000D01*
X138354686Y-81069345D01*
X138299956Y-80865090D01*
X138210589Y-80673442D01*
X138089301Y-80500224D01*
X137939776Y-80350699D01*
X137766558Y-80229411D01*
X137761580Y-80227090D01*
X137761577Y-80227088D01*
X137579892Y-80142367D01*
X137579891Y-80142366D01*
X137574910Y-80140044D01*
X137569602Y-80138622D01*
X137569600Y-80138621D01*
X137375970Y-80086738D01*
X137375968Y-80086738D01*
X137370655Y-80085314D01*
X137160000Y-80066884D01*
X136949345Y-80085314D01*
X136944032Y-80086738D01*
X136944030Y-80086738D01*
X136915711Y-80094326D01*
X136844734Y-80092636D01*
X136785938Y-80052841D01*
X136757991Y-79987577D01*
X136757100Y-79972619D01*
X136757100Y-78576295D01*
X136777102Y-78508174D01*
X136794005Y-78487199D01*
X137162525Y-78118680D01*
X137552258Y-77728947D01*
X137560537Y-77721413D01*
X137567018Y-77717300D01*
X137613644Y-77667648D01*
X137616398Y-77664807D01*
X137636135Y-77645070D01*
X137638615Y-77641873D01*
X137646320Y-77632851D01*
X137671159Y-77606400D01*
X137676586Y-77600621D01*
X137680405Y-77593675D01*
X137680407Y-77593672D01*
X137686348Y-77582866D01*
X137697199Y-77566347D01*
X137697559Y-77565883D01*
X137709614Y-77550341D01*
X137712759Y-77543072D01*
X137712762Y-77543068D01*
X137727174Y-77509763D01*
X137732391Y-77499112D01*
X137753695Y-77460360D01*
X137758733Y-77440737D01*
X137765137Y-77422034D01*
X137770033Y-77410720D01*
X137770033Y-77410719D01*
X137773181Y-77403445D01*
X137774420Y-77395622D01*
X137774423Y-77395612D01*
X137780099Y-77359776D01*
X137782505Y-77348156D01*
X137791528Y-77313011D01*
X137791528Y-77313010D01*
X137793500Y-77305330D01*
X137793500Y-77297315D01*
X137793519Y-77297250D01*
X137794493Y-77289540D01*
X137795737Y-77289697D01*
X137813502Y-77229194D01*
X137847230Y-77194102D01*
X137935264Y-77132460D01*
X137939776Y-77129301D01*
X138089301Y-76979776D01*
X138210589Y-76806558D01*
X138299956Y-76614910D01*
X138354686Y-76410655D01*
X138373116Y-76200000D01*
X138354686Y-75989345D01*
X138299956Y-75785090D01*
X138210589Y-75593442D01*
X138089301Y-75420224D01*
X137939776Y-75270699D01*
X137766558Y-75149411D01*
X137761580Y-75147090D01*
X137761577Y-75147088D01*
X137579892Y-75062367D01*
X137579891Y-75062366D01*
X137574910Y-75060044D01*
X137569602Y-75058622D01*
X137569600Y-75058621D01*
X137375970Y-75006738D01*
X137375968Y-75006738D01*
X137370655Y-75005314D01*
X137160000Y-74986884D01*
X136949345Y-75005314D01*
X136944032Y-75006738D01*
X136944030Y-75006738D01*
X136750400Y-75058621D01*
X136750398Y-75058622D01*
X136745090Y-75060044D01*
X136740109Y-75062366D01*
X136740108Y-75062367D01*
X136558423Y-75147088D01*
X136558420Y-75147090D01*
X136553442Y-75149411D01*
X136380224Y-75270699D01*
X136230699Y-75420224D01*
X136109411Y-75593442D01*
X136020044Y-75785090D01*
X135965314Y-75989345D01*
X135946884Y-76200000D01*
X135965314Y-76410655D01*
X136020044Y-76614910D01*
X136109411Y-76806558D01*
X136230699Y-76979776D01*
X136281064Y-77030141D01*
X136315090Y-77092453D01*
X136310025Y-77163268D01*
X136281064Y-77208331D01*
X135731347Y-77758048D01*
X135723061Y-77765588D01*
X135716582Y-77769700D01*
X135711157Y-77775477D01*
X135669957Y-77819351D01*
X135667202Y-77822193D01*
X135647465Y-77841930D01*
X135644985Y-77845127D01*
X135637282Y-77854147D01*
X135607014Y-77886379D01*
X135603195Y-77893325D01*
X135603193Y-77893328D01*
X135597252Y-77904134D01*
X135586401Y-77920653D01*
X135573986Y-77936659D01*
X135570841Y-77943928D01*
X135570838Y-77943932D01*
X135556426Y-77977237D01*
X135551209Y-77987887D01*
X135529905Y-78026640D01*
X135527934Y-78034315D01*
X135527934Y-78034316D01*
X135524867Y-78046262D01*
X135518463Y-78064966D01*
X135510419Y-78083555D01*
X135509180Y-78091378D01*
X135509177Y-78091388D01*
X135503501Y-78127224D01*
X135501095Y-78138844D01*
X135490100Y-78181670D01*
X135490100Y-78201924D01*
X135488549Y-78221634D01*
X135485380Y-78241643D01*
X135486126Y-78249535D01*
X135489541Y-78285661D01*
X135490100Y-78297519D01*
X135490100Y-86790755D01*
X135470098Y-86858876D01*
X135416442Y-86905369D01*
X135346168Y-86915473D01*
X135281588Y-86885979D01*
X135268289Y-86872586D01*
X135188177Y-86778787D01*
X135184969Y-86775031D01*
X135004416Y-86620824D01*
X135000208Y-86618245D01*
X135000202Y-86618241D01*
X134806183Y-86499346D01*
X134801963Y-86496760D01*
X134797393Y-86494867D01*
X134797389Y-86494865D01*
X134587167Y-86407789D01*
X134587165Y-86407788D01*
X134582594Y-86405895D01*
X134502391Y-86386640D01*
X134356524Y-86351620D01*
X134356518Y-86351619D01*
X134351711Y-86350465D01*
X134115000Y-86331835D01*
X133878289Y-86350465D01*
X133873482Y-86351619D01*
X133873476Y-86351620D01*
X133727609Y-86386640D01*
X133647406Y-86405895D01*
X133642835Y-86407788D01*
X133642833Y-86407789D01*
X133432611Y-86494865D01*
X133432607Y-86494867D01*
X133428037Y-86496760D01*
X133423817Y-86499346D01*
X133229798Y-86618241D01*
X133229792Y-86618245D01*
X133225584Y-86620824D01*
X133045031Y-86775031D01*
X133041823Y-86778787D01*
X133041818Y-86778792D01*
X132940811Y-86897056D01*
X132881361Y-86935866D01*
X132810366Y-86936372D01*
X132749189Y-86897056D01*
X132648182Y-86778792D01*
X132648177Y-86778787D01*
X132644969Y-86775031D01*
X132464416Y-86620824D01*
X132460208Y-86618245D01*
X132460202Y-86618241D01*
X132266183Y-86499346D01*
X132261963Y-86496760D01*
X132257393Y-86494867D01*
X132257389Y-86494865D01*
X132047167Y-86407789D01*
X132047165Y-86407788D01*
X132042594Y-86405895D01*
X131962391Y-86386640D01*
X131816524Y-86351620D01*
X131816518Y-86351619D01*
X131811711Y-86350465D01*
X131779373Y-86347920D01*
X131750814Y-86345672D01*
X131684472Y-86320386D01*
X131642333Y-86263248D01*
X131634700Y-86220060D01*
X131634700Y-82576020D01*
X131654702Y-82507899D01*
X131708358Y-82461406D01*
X131778632Y-82451302D01*
X131793311Y-82454313D01*
X131864030Y-82473262D01*
X131864032Y-82473262D01*
X131869345Y-82474686D01*
X132080000Y-82493116D01*
X132290655Y-82474686D01*
X132295968Y-82473262D01*
X132295970Y-82473262D01*
X132489600Y-82421379D01*
X132489602Y-82421378D01*
X132494910Y-82419956D01*
X132541094Y-82398420D01*
X132681577Y-82332912D01*
X132681580Y-82332910D01*
X132686558Y-82330589D01*
X132859776Y-82209301D01*
X133009301Y-82059776D01*
X133130589Y-81886558D01*
X133219956Y-81694910D01*
X133274686Y-81490655D01*
X133293116Y-81280000D01*
X133274686Y-81069345D01*
X133219956Y-80865090D01*
X133130589Y-80673442D01*
X133009301Y-80500224D01*
X132859776Y-80350699D01*
X132686558Y-80229411D01*
X132681580Y-80227090D01*
X132681577Y-80227088D01*
X132499892Y-80142367D01*
X132499891Y-80142366D01*
X132494910Y-80140044D01*
X132489602Y-80138622D01*
X132489600Y-80138621D01*
X132295970Y-80086738D01*
X132295968Y-80086738D01*
X132290655Y-80085314D01*
X132080000Y-80066884D01*
X131869345Y-80085314D01*
X131864032Y-80086738D01*
X131864030Y-80086738D01*
X131793311Y-80105687D01*
X131722334Y-80103997D01*
X131663539Y-80064203D01*
X131635591Y-79998938D01*
X131634700Y-79983980D01*
X131634700Y-78618694D01*
X131654702Y-78550573D01*
X131671605Y-78529599D01*
X132472247Y-77728957D01*
X132480537Y-77721413D01*
X132487018Y-77717300D01*
X132533659Y-77667632D01*
X132536413Y-77664791D01*
X132556135Y-77645069D01*
X132558612Y-77641876D01*
X132566317Y-77632855D01*
X132591159Y-77606400D01*
X132596586Y-77600621D01*
X132600407Y-77593671D01*
X132606346Y-77582868D01*
X132617202Y-77566341D01*
X132624757Y-77556602D01*
X132624758Y-77556600D01*
X132629614Y-77550340D01*
X132647174Y-77509760D01*
X132652391Y-77499112D01*
X132669875Y-77467309D01*
X132669876Y-77467307D01*
X132673695Y-77460360D01*
X132678733Y-77440737D01*
X132685137Y-77422034D01*
X132690033Y-77410720D01*
X132690033Y-77410719D01*
X132693181Y-77403445D01*
X132694420Y-77395622D01*
X132694423Y-77395612D01*
X132700099Y-77359776D01*
X132702505Y-77348156D01*
X132711528Y-77313011D01*
X132711528Y-77313010D01*
X132713500Y-77305330D01*
X132713500Y-77297315D01*
X132713519Y-77297250D01*
X132714493Y-77289540D01*
X132715737Y-77289697D01*
X132733502Y-77229194D01*
X132767230Y-77194102D01*
X132855264Y-77132460D01*
X132859776Y-77129301D01*
X133009301Y-76979776D01*
X133130589Y-76806558D01*
X133219956Y-76614910D01*
X133274686Y-76410655D01*
X133293116Y-76200000D01*
X133274686Y-75989345D01*
X133219956Y-75785090D01*
X133130589Y-75593442D01*
X133009301Y-75420224D01*
X132859776Y-75270699D01*
X132686558Y-75149411D01*
X132681580Y-75147090D01*
X132681577Y-75147088D01*
X132499892Y-75062367D01*
X132499891Y-75062366D01*
X132494910Y-75060044D01*
X132489602Y-75058622D01*
X132489600Y-75058621D01*
X132295970Y-75006738D01*
X132295968Y-75006738D01*
X132290655Y-75005314D01*
X132080000Y-74986884D01*
X131869345Y-75005314D01*
X131864032Y-75006738D01*
X131864030Y-75006738D01*
X131670400Y-75058621D01*
X131670398Y-75058622D01*
X131665090Y-75060044D01*
X131660109Y-75062366D01*
X131660108Y-75062367D01*
X131478423Y-75147088D01*
X131478420Y-75147090D01*
X131473442Y-75149411D01*
X131300224Y-75270699D01*
X131150699Y-75420224D01*
X131029411Y-75593442D01*
X130940044Y-75785090D01*
X130938622Y-75790398D01*
X130938621Y-75790400D01*
X130931707Y-75816204D01*
X130894755Y-75876827D01*
X130830894Y-75907848D01*
X130760400Y-75899420D01*
X130705653Y-75854217D01*
X130688293Y-75816204D01*
X130681379Y-75790400D01*
X130681378Y-75790398D01*
X130679956Y-75785090D01*
X130590589Y-75593442D01*
X130469301Y-75420224D01*
X130319776Y-75270699D01*
X130146558Y-75149411D01*
X130141580Y-75147090D01*
X130141577Y-75147088D01*
X129959892Y-75062367D01*
X129959891Y-75062366D01*
X129954910Y-75060044D01*
X129949602Y-75058622D01*
X129949600Y-75058621D01*
X129755970Y-75006738D01*
X129755968Y-75006738D01*
X129750655Y-75005314D01*
X129540000Y-74986884D01*
X129329345Y-75005314D01*
X129324032Y-75006738D01*
X129324030Y-75006738D01*
X129130400Y-75058621D01*
X129130398Y-75058622D01*
X129125090Y-75060044D01*
X129120109Y-75062366D01*
X129120108Y-75062367D01*
X128938423Y-75147088D01*
X128938420Y-75147090D01*
X128933442Y-75149411D01*
X128760224Y-75270699D01*
X128610699Y-75420224D01*
X128489411Y-75593442D01*
X128400044Y-75785090D01*
X128345314Y-75989345D01*
X128326884Y-76200000D01*
X128345314Y-76410655D01*
X128400044Y-76614910D01*
X128489411Y-76806558D01*
X128610699Y-76979776D01*
X128760224Y-77129301D01*
X128933442Y-77250589D01*
X128938420Y-77252910D01*
X128938423Y-77252912D01*
X129050834Y-77305330D01*
X129125090Y-77339956D01*
X129130398Y-77341378D01*
X129130400Y-77341379D01*
X129324030Y-77393262D01*
X129324032Y-77393262D01*
X129329345Y-77394686D01*
X129540000Y-77413116D01*
X129750655Y-77394686D01*
X129755968Y-77393262D01*
X129755970Y-77393262D01*
X129949600Y-77341379D01*
X129949602Y-77341378D01*
X129954910Y-77339956D01*
X130029166Y-77305330D01*
X130141577Y-77252912D01*
X130141580Y-77252910D01*
X130146558Y-77250589D01*
X130319776Y-77129301D01*
X130469301Y-76979776D01*
X130590589Y-76806558D01*
X130679956Y-76614910D01*
X130688293Y-76583796D01*
X130725245Y-76523173D01*
X130789106Y-76492152D01*
X130859600Y-76500580D01*
X130914347Y-76545783D01*
X130931707Y-76583796D01*
X130940044Y-76614910D01*
X131029411Y-76806558D01*
X131150699Y-76979776D01*
X131201064Y-77030141D01*
X131235090Y-77092453D01*
X131230025Y-77163268D01*
X131201064Y-77208331D01*
X130608947Y-77800448D01*
X130600661Y-77807988D01*
X130594182Y-77812100D01*
X130588757Y-77817877D01*
X130547557Y-77861751D01*
X130544802Y-77864593D01*
X130525065Y-77884330D01*
X130522585Y-77887527D01*
X130514882Y-77896547D01*
X130484614Y-77928779D01*
X130480795Y-77935725D01*
X130480793Y-77935728D01*
X130474852Y-77946534D01*
X130464001Y-77963053D01*
X130451586Y-77979059D01*
X130448441Y-77986328D01*
X130448438Y-77986332D01*
X130434026Y-78019637D01*
X130428809Y-78030287D01*
X130407505Y-78069040D01*
X130405534Y-78076715D01*
X130405534Y-78076716D01*
X130402467Y-78088662D01*
X130396063Y-78107366D01*
X130388019Y-78125955D01*
X130386780Y-78133778D01*
X130386777Y-78133788D01*
X130381101Y-78169624D01*
X130378695Y-78181244D01*
X130367700Y-78224070D01*
X130367700Y-78244324D01*
X130366149Y-78264034D01*
X130362980Y-78284043D01*
X130363726Y-78291935D01*
X130367141Y-78328061D01*
X130367700Y-78339919D01*
X130367700Y-80142213D01*
X130347698Y-80210334D01*
X130294042Y-80256827D01*
X130223768Y-80266931D01*
X130169430Y-80245426D01*
X130167343Y-80243965D01*
X130146558Y-80229411D01*
X130141580Y-80227090D01*
X130141577Y-80227088D01*
X129959892Y-80142367D01*
X129959891Y-80142366D01*
X129954910Y-80140044D01*
X129949602Y-80138622D01*
X129949600Y-80138621D01*
X129755970Y-80086738D01*
X129755968Y-80086738D01*
X129750655Y-80085314D01*
X129540000Y-80066884D01*
X129329345Y-80085314D01*
X129324032Y-80086738D01*
X129324030Y-80086738D01*
X129130400Y-80138621D01*
X129130398Y-80138622D01*
X129125090Y-80140044D01*
X129120109Y-80142366D01*
X129120108Y-80142367D01*
X128938423Y-80227088D01*
X128938420Y-80227090D01*
X128933442Y-80229411D01*
X128760224Y-80350699D01*
X128610699Y-80500224D01*
X128489411Y-80673442D01*
X128400044Y-80865090D01*
X128345314Y-81069345D01*
X128326884Y-81280000D01*
X128345314Y-81490655D01*
X128400044Y-81694910D01*
X128489411Y-81886558D01*
X128610699Y-82059776D01*
X128661064Y-82110141D01*
X128695090Y-82172453D01*
X128690025Y-82243268D01*
X128661064Y-82288331D01*
X128642747Y-82306648D01*
X128634461Y-82314188D01*
X128627982Y-82318300D01*
X128622557Y-82324077D01*
X128581357Y-82367951D01*
X128578602Y-82370793D01*
X128558865Y-82390530D01*
X128556385Y-82393727D01*
X128548682Y-82402747D01*
X128518414Y-82434979D01*
X128514595Y-82441925D01*
X128514593Y-82441928D01*
X128508652Y-82452734D01*
X128497801Y-82469253D01*
X128485386Y-82485259D01*
X128482241Y-82492528D01*
X128482238Y-82492532D01*
X128467826Y-82525837D01*
X128462609Y-82536487D01*
X128441305Y-82575240D01*
X128439334Y-82582915D01*
X128439334Y-82582916D01*
X128436267Y-82594862D01*
X128429863Y-82613566D01*
X128421819Y-82632155D01*
X128420580Y-82639978D01*
X128420577Y-82639988D01*
X128414901Y-82675824D01*
X128412495Y-82687444D01*
X128401500Y-82730270D01*
X128401500Y-82750524D01*
X128399949Y-82770234D01*
X128396780Y-82790243D01*
X128397526Y-82798135D01*
X128400941Y-82834261D01*
X128401500Y-82846119D01*
X128401500Y-86393434D01*
X128381498Y-86461555D01*
X128341335Y-86500867D01*
X128149798Y-86618241D01*
X128149792Y-86618245D01*
X128145584Y-86620824D01*
X127965031Y-86775031D01*
X127810824Y-86955584D01*
X127808245Y-86959792D01*
X127808241Y-86959798D01*
X127739642Y-87071742D01*
X127686760Y-87158037D01*
X127684867Y-87162607D01*
X127684865Y-87162611D01*
X127643373Y-87262782D01*
X127595895Y-87377406D01*
X127540465Y-87608289D01*
X127521835Y-87845000D01*
X107188000Y-87845000D01*
X107188000Y-71754000D01*
X107208002Y-71685879D01*
X107261658Y-71639386D01*
X107314000Y-71628000D01*
X177166000Y-71628000D01*
X177234121Y-71648002D01*
G37*
%TD.AperFunction*%
M02*
