G04 #@! TF.GenerationSoftware,KiCad,Pcbnew,(6.0.0)*
G04 #@! TF.CreationDate,2022-02-13T15:34:51+09:00*
G04 #@! TF.ProjectId,8x8_eyes,3878385f-6579-4657-932e-6b696361645f,rev?*
G04 #@! TF.SameCoordinates,PX87a6900PY6486dd0*
G04 #@! TF.FileFunction,Legend,Top*
G04 #@! TF.FilePolarity,Positive*
%FSLAX46Y46*%
G04 Gerber Fmt 4.6, Leading zero omitted, Abs format (unit mm)*
G04 Created by KiCad (PCBNEW (6.0.0)) date 2022-02-13 15:34:51*
%MOMM*%
%LPD*%
G01*
G04 APERTURE LIST*
%ADD10C,0.150000*%
%ADD11C,0.120000*%
G04 APERTURE END LIST*
D10*
X-23320000Y24249048D02*
X-23415239Y24296667D01*
X-23462858Y24344286D01*
X-23510477Y24439524D01*
X-23510477Y24487143D01*
X-23462858Y24582381D01*
X-23415239Y24630000D01*
X-23320000Y24677620D01*
X-23129524Y24677620D01*
X-23034286Y24630000D01*
X-22986667Y24582381D01*
X-22939048Y24487143D01*
X-22939048Y24439524D01*
X-22986667Y24344286D01*
X-23034286Y24296667D01*
X-23129524Y24249048D01*
X-23320000Y24249048D01*
X-23415239Y24201429D01*
X-23462858Y24153810D01*
X-23510477Y24058572D01*
X-23510477Y23868096D01*
X-23462858Y23772858D01*
X-23415239Y23725239D01*
X-23320000Y23677620D01*
X-23129524Y23677620D01*
X-23034286Y23725239D01*
X-22986667Y23772858D01*
X-22939048Y23868096D01*
X-22939048Y24058572D01*
X-22986667Y24153810D01*
X-23034286Y24201429D01*
X-23129524Y24249048D01*
X-22605715Y23677620D02*
X-22081905Y24344286D01*
X-22605715Y24344286D02*
X-22081905Y23677620D01*
X-21558096Y24249048D02*
X-21653334Y24296667D01*
X-21700953Y24344286D01*
X-21748572Y24439524D01*
X-21748572Y24487143D01*
X-21700953Y24582381D01*
X-21653334Y24630000D01*
X-21558096Y24677620D01*
X-21367620Y24677620D01*
X-21272381Y24630000D01*
X-21224762Y24582381D01*
X-21177143Y24487143D01*
X-21177143Y24439524D01*
X-21224762Y24344286D01*
X-21272381Y24296667D01*
X-21367620Y24249048D01*
X-21558096Y24249048D01*
X-21653334Y24201429D01*
X-21700953Y24153810D01*
X-21748572Y24058572D01*
X-21748572Y23868096D01*
X-21700953Y23772858D01*
X-21653334Y23725239D01*
X-21558096Y23677620D01*
X-21367620Y23677620D01*
X-21272381Y23725239D01*
X-21224762Y23772858D01*
X-21177143Y23868096D01*
X-21177143Y24058572D01*
X-21224762Y24153810D01*
X-21272381Y24201429D01*
X-21367620Y24249048D01*
X-19605715Y23725239D02*
X-19700953Y23677620D01*
X-19891429Y23677620D01*
X-19986667Y23725239D01*
X-20034286Y23820477D01*
X-20034286Y24201429D01*
X-19986667Y24296667D01*
X-19891429Y24344286D01*
X-19700953Y24344286D01*
X-19605715Y24296667D01*
X-19558096Y24201429D01*
X-19558096Y24106191D01*
X-20034286Y24010953D01*
X-19224762Y24344286D02*
X-18986667Y23677620D01*
X-18748572Y24344286D02*
X-18986667Y23677620D01*
X-19081905Y23439524D01*
X-19129524Y23391905D01*
X-19224762Y23344286D01*
X-17986667Y23725239D02*
X-18081905Y23677620D01*
X-18272381Y23677620D01*
X-18367620Y23725239D01*
X-18415239Y23820477D01*
X-18415239Y24201429D01*
X-18367620Y24296667D01*
X-18272381Y24344286D01*
X-18081905Y24344286D01*
X-17986667Y24296667D01*
X-17939048Y24201429D01*
X-17939048Y24106191D01*
X-18415239Y24010953D01*
X-17558096Y23725239D02*
X-17462858Y23677620D01*
X-17272381Y23677620D01*
X-17177143Y23725239D01*
X-17129524Y23820477D01*
X-17129524Y23868096D01*
X-17177143Y23963334D01*
X-17272381Y24010953D01*
X-17415239Y24010953D01*
X-17510477Y24058572D01*
X-17558096Y24153810D01*
X-17558096Y24201429D01*
X-17510477Y24296667D01*
X-17415239Y24344286D01*
X-17272381Y24344286D01*
X-17177143Y24296667D01*
X6620952Y-27042380D02*
X6620952Y-26042380D01*
X7192380Y-27042380D02*
X6763809Y-26470952D01*
X7192380Y-26042380D02*
X6620952Y-26613809D01*
X8001904Y-26994761D02*
X7906666Y-27042380D01*
X7716190Y-27042380D01*
X7620952Y-26994761D01*
X7573333Y-26899523D01*
X7573333Y-26518571D01*
X7620952Y-26423333D01*
X7716190Y-26375714D01*
X7906666Y-26375714D01*
X8001904Y-26423333D01*
X8049523Y-26518571D01*
X8049523Y-26613809D01*
X7573333Y-26709047D01*
X8478095Y-26375714D02*
X8478095Y-27042380D01*
X8478095Y-26470952D02*
X8525714Y-26423333D01*
X8620952Y-26375714D01*
X8763809Y-26375714D01*
X8859047Y-26423333D01*
X8906666Y-26518571D01*
X8906666Y-27042380D01*
X9811428Y-26375714D02*
X9811428Y-27185238D01*
X9763809Y-27280476D01*
X9716190Y-27328095D01*
X9620952Y-27375714D01*
X9478095Y-27375714D01*
X9382857Y-27328095D01*
X9811428Y-26994761D02*
X9716190Y-27042380D01*
X9525714Y-27042380D01*
X9430476Y-26994761D01*
X9382857Y-26947142D01*
X9335238Y-26851904D01*
X9335238Y-26566190D01*
X9382857Y-26470952D01*
X9430476Y-26423333D01*
X9525714Y-26375714D01*
X9716190Y-26375714D01*
X9811428Y-26423333D01*
X10430476Y-27042380D02*
X10335238Y-26994761D01*
X10287619Y-26947142D01*
X10240000Y-26851904D01*
X10240000Y-26566190D01*
X10287619Y-26470952D01*
X10335238Y-26423333D01*
X10430476Y-26375714D01*
X10573333Y-26375714D01*
X10668571Y-26423333D01*
X10716190Y-26470952D01*
X10763809Y-26566190D01*
X10763809Y-26851904D01*
X10716190Y-26947142D01*
X10668571Y-26994761D01*
X10573333Y-27042380D01*
X10430476Y-27042380D01*
X11811428Y-26042380D02*
X12382857Y-26042380D01*
X12097142Y-27042380D02*
X12097142Y-26042380D01*
X13144761Y-27042380D02*
X13144761Y-26518571D01*
X13097142Y-26423333D01*
X13001904Y-26375714D01*
X12811428Y-26375714D01*
X12716190Y-26423333D01*
X13144761Y-26994761D02*
X13049523Y-27042380D01*
X12811428Y-27042380D01*
X12716190Y-26994761D01*
X12668571Y-26899523D01*
X12668571Y-26804285D01*
X12716190Y-26709047D01*
X12811428Y-26661428D01*
X13049523Y-26661428D01*
X13144761Y-26613809D01*
X13620952Y-26375714D02*
X13620952Y-27042380D01*
X13620952Y-26470952D02*
X13668571Y-26423333D01*
X13763809Y-26375714D01*
X13906666Y-26375714D01*
X14001904Y-26423333D01*
X14049523Y-26518571D01*
X14049523Y-27042380D01*
X14954285Y-27042380D02*
X14954285Y-26518571D01*
X14906666Y-26423333D01*
X14811428Y-26375714D01*
X14620952Y-26375714D01*
X14525714Y-26423333D01*
X14954285Y-26994761D02*
X14859047Y-27042380D01*
X14620952Y-27042380D01*
X14525714Y-26994761D01*
X14478095Y-26899523D01*
X14478095Y-26804285D01*
X14525714Y-26709047D01*
X14620952Y-26661428D01*
X14859047Y-26661428D01*
X14954285Y-26613809D01*
X15430476Y-27042380D02*
X15430476Y-26042380D01*
X15525714Y-26661428D02*
X15811428Y-27042380D01*
X15811428Y-26375714D02*
X15430476Y-26756666D01*
X16668571Y-27042380D02*
X16668571Y-26518571D01*
X16620952Y-26423333D01*
X16525714Y-26375714D01*
X16335238Y-26375714D01*
X16240000Y-26423333D01*
X16668571Y-26994761D02*
X16573333Y-27042380D01*
X16335238Y-27042380D01*
X16240000Y-26994761D01*
X16192380Y-26899523D01*
X16192380Y-26804285D01*
X16240000Y-26709047D01*
X16335238Y-26661428D01*
X16573333Y-26661428D01*
X16668571Y-26613809D01*
X17906666Y-27042380D02*
X17906666Y-26042380D01*
X18287619Y-26042380D01*
X18382857Y-26090000D01*
X18430476Y-26137619D01*
X18478095Y-26232857D01*
X18478095Y-26375714D01*
X18430476Y-26470952D01*
X18382857Y-26518571D01*
X18287619Y-26566190D01*
X17906666Y-26566190D01*
X18906666Y-27042380D02*
X18906666Y-26375714D01*
X18906666Y-26566190D02*
X18954285Y-26470952D01*
X19001904Y-26423333D01*
X19097142Y-26375714D01*
X19192380Y-26375714D01*
X19906666Y-26994761D02*
X19811428Y-27042380D01*
X19620952Y-27042380D01*
X19525714Y-26994761D01*
X19478095Y-26899523D01*
X19478095Y-26518571D01*
X19525714Y-26423333D01*
X19620952Y-26375714D01*
X19811428Y-26375714D01*
X19906666Y-26423333D01*
X19954285Y-26518571D01*
X19954285Y-26613809D01*
X19478095Y-26709047D01*
X20335238Y-26994761D02*
X20430476Y-27042380D01*
X20620952Y-27042380D01*
X20716190Y-26994761D01*
X20763809Y-26899523D01*
X20763809Y-26851904D01*
X20716190Y-26756666D01*
X20620952Y-26709047D01*
X20478095Y-26709047D01*
X20382857Y-26661428D01*
X20335238Y-26566190D01*
X20335238Y-26518571D01*
X20382857Y-26423333D01*
X20478095Y-26375714D01*
X20620952Y-26375714D01*
X20716190Y-26423333D01*
X21573333Y-26994761D02*
X21478095Y-27042380D01*
X21287619Y-27042380D01*
X21192380Y-26994761D01*
X21144761Y-26899523D01*
X21144761Y-26518571D01*
X21192380Y-26423333D01*
X21287619Y-26375714D01*
X21478095Y-26375714D01*
X21573333Y-26423333D01*
X21620952Y-26518571D01*
X21620952Y-26613809D01*
X21144761Y-26709047D01*
X22049523Y-26375714D02*
X22049523Y-27042380D01*
X22049523Y-26470952D02*
X22097142Y-26423333D01*
X22192380Y-26375714D01*
X22335238Y-26375714D01*
X22430476Y-26423333D01*
X22478095Y-26518571D01*
X22478095Y-27042380D01*
X22811428Y-26375714D02*
X23192380Y-26375714D01*
X22954285Y-26042380D02*
X22954285Y-26899523D01*
X23001904Y-26994761D01*
X23097142Y-27042380D01*
X23192380Y-27042380D01*
X23478095Y-26994761D02*
X23573333Y-27042380D01*
X23763809Y-27042380D01*
X23859047Y-26994761D01*
X23906666Y-26899523D01*
X23906666Y-26851904D01*
X23859047Y-26756666D01*
X23763809Y-26709047D01*
X23620952Y-26709047D01*
X23525714Y-26661428D01*
X23478095Y-26566190D01*
X23478095Y-26518571D01*
X23525714Y-26423333D01*
X23620952Y-26375714D01*
X23763809Y-26375714D01*
X23859047Y-26423333D01*
X-21534286Y18597620D02*
X-21534286Y19597620D01*
X-21296191Y19597620D01*
X-21153334Y19550000D01*
X-21058096Y19454762D01*
X-21010477Y19359524D01*
X-20962858Y19169048D01*
X-20962858Y19026191D01*
X-21010477Y18835715D01*
X-21058096Y18740477D01*
X-21153334Y18645239D01*
X-21296191Y18597620D01*
X-21534286Y18597620D01*
X-20105715Y19597620D02*
X-20296191Y19597620D01*
X-20391429Y19550000D01*
X-20439048Y19502381D01*
X-20534286Y19359524D01*
X-20581905Y19169048D01*
X-20581905Y18788096D01*
X-20534286Y18692858D01*
X-20486667Y18645239D01*
X-20391429Y18597620D01*
X-20200953Y18597620D01*
X-20105715Y18645239D01*
X-20058096Y18692858D01*
X-20010477Y18788096D01*
X-20010477Y19026191D01*
X-20058096Y19121429D01*
X-20105715Y19169048D01*
X-20200953Y19216667D01*
X-20391429Y19216667D01*
X-20486667Y19169048D01*
X-20534286Y19121429D01*
X-20581905Y19026191D01*
X-19105715Y19597620D02*
X-19581905Y19597620D01*
X-19629524Y19121429D01*
X-19581905Y19169048D01*
X-19486667Y19216667D01*
X-19248572Y19216667D01*
X-19153334Y19169048D01*
X-19105715Y19121429D01*
X-19058096Y19026191D01*
X-19058096Y18788096D01*
X-19105715Y18692858D01*
X-19153334Y18645239D01*
X-19248572Y18597620D01*
X-19486667Y18597620D01*
X-19581905Y18645239D01*
X-19629524Y18692858D01*
X-9707620Y1243334D02*
X-10183810Y910000D01*
X-9707620Y671905D02*
X-10707620Y671905D01*
X-10707620Y1052858D01*
X-10660000Y1148096D01*
X-10612381Y1195715D01*
X-10517143Y1243334D01*
X-10374286Y1243334D01*
X-10279048Y1195715D01*
X-10231429Y1148096D01*
X-10183810Y1052858D01*
X-10183810Y671905D01*
X-10612381Y1624286D02*
X-10660000Y1671905D01*
X-10707620Y1767143D01*
X-10707620Y2005239D01*
X-10660000Y2100477D01*
X-10612381Y2148096D01*
X-10517143Y2195715D01*
X-10421905Y2195715D01*
X-10279048Y2148096D01*
X-9707620Y1576667D01*
X-9707620Y2195715D01*
X212380Y1243334D02*
X-263810Y910000D01*
X212380Y671905D02*
X-787620Y671905D01*
X-787620Y1052858D01*
X-740000Y1148096D01*
X-692381Y1195715D01*
X-597143Y1243334D01*
X-454286Y1243334D01*
X-359048Y1195715D01*
X-311429Y1148096D01*
X-263810Y1052858D01*
X-263810Y671905D01*
X-787620Y1576667D02*
X-787620Y2195715D01*
X-406667Y1862381D01*
X-406667Y2005239D01*
X-359048Y2100477D01*
X-311429Y2148096D01*
X-216191Y2195715D01*
X21904Y2195715D01*
X117142Y2148096D01*
X164761Y2100477D01*
X212380Y2005239D01*
X212380Y1719524D01*
X164761Y1624286D01*
X117142Y1576667D01*
X212380Y6243334D02*
X-263810Y5910000D01*
X212380Y5671905D02*
X-787620Y5671905D01*
X-787620Y6052858D01*
X-740000Y6148096D01*
X-692381Y6195715D01*
X-597143Y6243334D01*
X-454286Y6243334D01*
X-359048Y6195715D01*
X-311429Y6148096D01*
X-263810Y6052858D01*
X-263810Y5671905D01*
X-787620Y7100477D02*
X-787620Y6910000D01*
X-740000Y6814762D01*
X-692381Y6767143D01*
X-549524Y6671905D01*
X-359048Y6624286D01*
X21904Y6624286D01*
X117142Y6671905D01*
X164761Y6719524D01*
X212380Y6814762D01*
X212380Y7005239D01*
X164761Y7100477D01*
X117142Y7148096D01*
X21904Y7195715D01*
X-216191Y7195715D01*
X-311429Y7148096D01*
X-359048Y7100477D01*
X-406667Y7005239D01*
X-406667Y6814762D01*
X-359048Y6719524D01*
X-311429Y6671905D01*
X-216191Y6624286D01*
X5252380Y6243334D02*
X4776190Y5910000D01*
X5252380Y5671905D02*
X4252380Y5671905D01*
X4252380Y6052858D01*
X4300000Y6148096D01*
X4347619Y6195715D01*
X4442857Y6243334D01*
X4585714Y6243334D01*
X4680952Y6195715D01*
X4728571Y6148096D01*
X4776190Y6052858D01*
X4776190Y5671905D01*
X4252380Y7148096D02*
X4252380Y6671905D01*
X4728571Y6624286D01*
X4680952Y6671905D01*
X4633333Y6767143D01*
X4633333Y7005239D01*
X4680952Y7100477D01*
X4728571Y7148096D01*
X4823809Y7195715D01*
X5061904Y7195715D01*
X5157142Y7148096D01*
X5204761Y7100477D01*
X5252380Y7005239D01*
X5252380Y6767143D01*
X5204761Y6671905D01*
X5157142Y6624286D01*
X19498095Y-2542380D02*
X19498095Y-3351904D01*
X19545714Y-3447142D01*
X19593333Y-3494761D01*
X19688571Y-3542380D01*
X19879047Y-3542380D01*
X19974285Y-3494761D01*
X20021904Y-3447142D01*
X20069523Y-3351904D01*
X20069523Y-2542380D01*
X21069523Y-3542380D02*
X20498095Y-3542380D01*
X20783809Y-3542380D02*
X20783809Y-2542380D01*
X20688571Y-2685238D01*
X20593333Y-2780476D01*
X20498095Y-2828095D01*
X-4787620Y6243334D02*
X-5263810Y5910000D01*
X-4787620Y5671905D02*
X-5787620Y5671905D01*
X-5787620Y6052858D01*
X-5740000Y6148096D01*
X-5692381Y6195715D01*
X-5597143Y6243334D01*
X-5454286Y6243334D01*
X-5359048Y6195715D01*
X-5311429Y6148096D01*
X-5263810Y6052858D01*
X-5263810Y5671905D01*
X-4787620Y7195715D02*
X-4787620Y6624286D01*
X-4787620Y6910000D02*
X-5787620Y6910000D01*
X-5644762Y6814762D01*
X-5549524Y6719524D01*
X-5501905Y6624286D01*
X-4627620Y1103334D02*
X-5103810Y770000D01*
X-4627620Y531905D02*
X-5627620Y531905D01*
X-5627620Y912858D01*
X-5580000Y1008096D01*
X-5532381Y1055715D01*
X-5437143Y1103334D01*
X-5294286Y1103334D01*
X-5199048Y1055715D01*
X-5151429Y1008096D01*
X-5103810Y912858D01*
X-5103810Y531905D01*
X-5294286Y1960477D02*
X-4627620Y1960477D01*
X-5675239Y1722381D02*
X-4960953Y1484286D01*
X-4960953Y2103334D01*
X-14787620Y6183334D02*
X-15263810Y5850000D01*
X-14787620Y5611905D02*
X-15787620Y5611905D01*
X-15787620Y5992858D01*
X-15740000Y6088096D01*
X-15692381Y6135715D01*
X-15597143Y6183334D01*
X-15454286Y6183334D01*
X-15359048Y6135715D01*
X-15311429Y6088096D01*
X-15263810Y5992858D01*
X-15263810Y5611905D01*
X-15359048Y6754762D02*
X-15406667Y6659524D01*
X-15454286Y6611905D01*
X-15549524Y6564286D01*
X-15597143Y6564286D01*
X-15692381Y6611905D01*
X-15740000Y6659524D01*
X-15787620Y6754762D01*
X-15787620Y6945239D01*
X-15740000Y7040477D01*
X-15692381Y7088096D01*
X-15597143Y7135715D01*
X-15549524Y7135715D01*
X-15454286Y7088096D01*
X-15406667Y7040477D01*
X-15359048Y6945239D01*
X-15359048Y6754762D01*
X-15311429Y6659524D01*
X-15263810Y6611905D01*
X-15168572Y6564286D01*
X-14978096Y6564286D01*
X-14882858Y6611905D01*
X-14835239Y6659524D01*
X-14787620Y6754762D01*
X-14787620Y6945239D01*
X-14835239Y7040477D01*
X-14882858Y7088096D01*
X-14978096Y7135715D01*
X-15168572Y7135715D01*
X-15263810Y7088096D01*
X-15311429Y7040477D01*
X-15359048Y6945239D01*
X19568095Y19457620D02*
X19568095Y18648096D01*
X19615714Y18552858D01*
X19663333Y18505239D01*
X19758571Y18457620D01*
X19949047Y18457620D01*
X20044285Y18505239D01*
X20091904Y18552858D01*
X20139523Y18648096D01*
X20139523Y19457620D01*
X20568095Y19362381D02*
X20615714Y19410000D01*
X20710952Y19457620D01*
X20949047Y19457620D01*
X21044285Y19410000D01*
X21091904Y19362381D01*
X21139523Y19267143D01*
X21139523Y19171905D01*
X21091904Y19029048D01*
X20520476Y18457620D01*
X21139523Y18457620D01*
X-9707620Y6183334D02*
X-10183810Y5850000D01*
X-9707620Y5611905D02*
X-10707620Y5611905D01*
X-10707620Y5992858D01*
X-10660000Y6088096D01*
X-10612381Y6135715D01*
X-10517143Y6183334D01*
X-10374286Y6183334D01*
X-10279048Y6135715D01*
X-10231429Y6088096D01*
X-10183810Y5992858D01*
X-10183810Y5611905D01*
X-10707620Y6516667D02*
X-10707620Y7183334D01*
X-9707620Y6754762D01*
D11*
X14685000Y-15685000D02*
X-23315000Y-15685000D01*
X-23315000Y22315000D02*
X14685000Y22315000D01*
X-23315000Y-15685000D02*
X-23315000Y22315000D01*
X14685000Y22315000D02*
X14685000Y-15685000D01*
X-9240000Y-1890000D02*
X-9240000Y-5730000D01*
X-11080000Y-1890000D02*
X-11080000Y-5730000D01*
X920000Y-1890000D02*
X920000Y-5730000D01*
X-920000Y-1890000D02*
X-920000Y-5730000D01*
X920000Y9510000D02*
X920000Y13350000D01*
X-920000Y9510000D02*
X-920000Y13350000D01*
X6000000Y9510000D02*
X6000000Y13350000D01*
X4160000Y9510000D02*
X4160000Y13350000D01*
X17680000Y3855000D02*
X17680000Y-16585000D01*
X17680000Y-16585000D02*
X22980000Y-16585000D01*
X22980000Y3855000D02*
X21330000Y3855000D01*
X22980000Y-16585000D02*
X22980000Y3855000D01*
X19330000Y3855000D02*
X17680000Y3855000D01*
X19330000Y3855000D02*
G75*
G03*
X21330000Y3855000I1000000J0D01*
G01*
X-6000000Y9510000D02*
X-6000000Y13350000D01*
X-4160000Y9510000D02*
X-4160000Y13350000D01*
X-6000000Y-5730000D02*
X-6000000Y-1890000D01*
X-4160000Y-5730000D02*
X-4160000Y-1890000D01*
G36*
X-14679084Y-22010487D02*
G01*
X-14883285Y-22010998D01*
X-15116465Y-22011347D01*
X-15380667Y-22011567D01*
X-15383773Y-22011568D01*
X-15632981Y-22011666D01*
X-15677934Y-22011684D01*
X-16010310Y-22011730D01*
X-16208075Y-22011736D01*
X-18626149Y-22011736D01*
X-18706282Y-22065039D01*
X-18819703Y-22132291D01*
X-18916481Y-22172596D01*
X-18937641Y-22182626D01*
X-18939520Y-22200832D01*
X-18922523Y-22239164D01*
X-18918962Y-22246221D01*
X-18888713Y-22298950D01*
X-18858605Y-22341452D01*
X-18857054Y-22343252D01*
X-18824786Y-22387963D01*
X-18780636Y-22460029D01*
X-18728538Y-22551881D01*
X-18672423Y-22655947D01*
X-18616224Y-22764658D01*
X-18563873Y-22870443D01*
X-18519304Y-22965730D01*
X-18486447Y-23042951D01*
X-18471630Y-23085245D01*
X-18451722Y-23149305D01*
X-18431642Y-23205662D01*
X-18425989Y-23219434D01*
X-18419116Y-23254268D01*
X-18413054Y-23321862D01*
X-18407853Y-23416642D01*
X-18403567Y-23533035D01*
X-18400249Y-23665469D01*
X-18397951Y-23808371D01*
X-18396725Y-23956167D01*
X-18396624Y-24103286D01*
X-18397701Y-24244153D01*
X-18400009Y-24373197D01*
X-18403599Y-24484843D01*
X-18408525Y-24573520D01*
X-18412782Y-24618830D01*
X-18425164Y-24724528D01*
X-18437948Y-24840414D01*
X-18448752Y-24944756D01*
X-18450616Y-24963887D01*
X-18468847Y-25139513D01*
X-18487485Y-25284043D01*
X-18508130Y-25404701D01*
X-18532381Y-25508713D01*
X-18561837Y-25603303D01*
X-18598099Y-25695696D01*
X-18626748Y-25759434D01*
X-18697019Y-25893903D01*
X-18767051Y-25993405D01*
X-18840382Y-26061127D01*
X-18920547Y-26100255D01*
X-19011083Y-26113977D01*
X-19020281Y-26114075D01*
X-19027213Y-26113291D01*
X-19127104Y-26101995D01*
X-19215525Y-26062344D01*
X-19296679Y-25990007D01*
X-19301072Y-25985070D01*
X-19401236Y-25847879D01*
X-19469031Y-25702342D01*
X-19502100Y-25554095D01*
X-19505075Y-25496980D01*
X-19508921Y-25441320D01*
X-19518427Y-25403260D01*
X-19524240Y-25395338D01*
X-19543648Y-25403745D01*
X-19574186Y-25437627D01*
X-19600295Y-25475679D01*
X-19638578Y-25535923D01*
X-19689006Y-25613304D01*
X-19742097Y-25693304D01*
X-19754336Y-25711509D01*
X-19806869Y-25789866D01*
X-19859400Y-25868960D01*
X-19902328Y-25934316D01*
X-19910206Y-25946461D01*
X-19999723Y-26061398D01*
X-20098250Y-26146901D01*
X-20201645Y-26202218D01*
X-20305765Y-26226598D01*
X-20320783Y-26225508D01*
X-20406467Y-26219288D01*
X-20499609Y-26179538D01*
X-20581047Y-26106596D01*
X-20606248Y-26072744D01*
X-20637599Y-26021391D01*
X-20659597Y-25970601D01*
X-20675101Y-25909988D01*
X-20686971Y-25829165D01*
X-20695132Y-25749849D01*
X-20705612Y-25651709D01*
X-20718829Y-25547077D01*
X-20732035Y-25457593D01*
X-20732844Y-25452717D01*
X-20738682Y-25405934D01*
X-20742816Y-25343227D01*
X-20745253Y-25261223D01*
X-20745999Y-25156544D01*
X-20745894Y-25141921D01*
X-20535762Y-25141921D01*
X-20533885Y-25251126D01*
X-20527537Y-25325623D01*
X-20520966Y-25354691D01*
X-20510388Y-25400341D01*
X-20500216Y-25471938D01*
X-20492059Y-25557106D01*
X-20489480Y-25596490D01*
X-20475200Y-25739687D01*
X-20450353Y-25852882D01*
X-20415776Y-25934270D01*
X-20372307Y-25982041D01*
X-20320783Y-25994388D01*
X-20306395Y-25991634D01*
X-20272286Y-25978979D01*
X-20237998Y-25957711D01*
X-20200516Y-25924239D01*
X-20156826Y-25874971D01*
X-20103914Y-25806316D01*
X-20038764Y-25714682D01*
X-19958363Y-25596477D01*
X-19895124Y-25501627D01*
X-19841443Y-25419743D01*
X-19800406Y-25352453D01*
X-19769381Y-25291963D01*
X-19745733Y-25230478D01*
X-19726832Y-25160202D01*
X-19710043Y-25073342D01*
X-19692736Y-24962102D01*
X-19677896Y-24858453D01*
X-19665157Y-24771969D01*
X-19651917Y-24687799D01*
X-19640873Y-24623031D01*
X-19640096Y-24618830D01*
X-19637169Y-24583189D01*
X-19634802Y-24513648D01*
X-19632975Y-24414640D01*
X-19631668Y-24290601D01*
X-19630863Y-24145966D01*
X-19630539Y-23985169D01*
X-19630676Y-23812644D01*
X-19631256Y-23632827D01*
X-19632257Y-23450152D01*
X-19633662Y-23269053D01*
X-19635448Y-23093966D01*
X-19637598Y-22929325D01*
X-19640092Y-22779564D01*
X-19642909Y-22649119D01*
X-19646030Y-22542424D01*
X-19649435Y-22463913D01*
X-19649685Y-22459562D01*
X-19660689Y-22272127D01*
X-19419019Y-22272127D01*
X-19412222Y-23335252D01*
X-19410597Y-23539077D01*
X-19408417Y-23735673D01*
X-19405767Y-23920899D01*
X-19402736Y-24090613D01*
X-19399409Y-24240676D01*
X-19395875Y-24366945D01*
X-19392219Y-24465281D01*
X-19388530Y-24531542D01*
X-19386653Y-24551736D01*
X-19377945Y-24633467D01*
X-19368526Y-24739181D01*
X-19359592Y-24854568D01*
X-19352989Y-24954302D01*
X-19345620Y-25054776D01*
X-19336371Y-25147254D01*
X-19326390Y-25221844D01*
X-19316828Y-25268655D01*
X-19316256Y-25270477D01*
X-19302930Y-25331517D01*
X-19295198Y-25405988D01*
X-19294415Y-25433961D01*
X-19284054Y-25518522D01*
X-19256021Y-25609048D01*
X-19214888Y-25697834D01*
X-19165229Y-25777179D01*
X-19111617Y-25839379D01*
X-19058626Y-25876730D01*
X-19027213Y-25884037D01*
X-18983666Y-25866279D01*
X-18933947Y-25816166D01*
X-18881554Y-25738446D01*
X-18829986Y-25637864D01*
X-18808183Y-25586905D01*
X-18781740Y-25519060D01*
X-18760650Y-25457246D01*
X-18743224Y-25393771D01*
X-18727774Y-25320942D01*
X-18712612Y-25231067D01*
X-18696050Y-25116451D01*
X-18681982Y-25011811D01*
X-18670163Y-24922417D01*
X-18655718Y-24813209D01*
X-18641055Y-24702379D01*
X-18635072Y-24657170D01*
X-18625999Y-24566578D01*
X-18618250Y-24445425D01*
X-18612161Y-24301480D01*
X-18608068Y-24142507D01*
X-18606368Y-23992872D01*
X-18606157Y-23835770D01*
X-18607332Y-23710235D01*
X-18610256Y-23609511D01*
X-18615295Y-23526838D01*
X-18622813Y-23455459D01*
X-18633176Y-23388615D01*
X-18641291Y-23345982D01*
X-18682189Y-23189067D01*
X-18743904Y-23029424D01*
X-18775292Y-22961980D01*
X-18815381Y-22881718D01*
X-18851184Y-22814483D01*
X-18878594Y-22767710D01*
X-18892844Y-22749159D01*
X-18915098Y-22722616D01*
X-18930623Y-22691121D01*
X-18962830Y-22624104D01*
X-19012850Y-22539925D01*
X-19073052Y-22450103D01*
X-19135806Y-22366156D01*
X-19181772Y-22311996D01*
X-19270412Y-22215562D01*
X-19344716Y-22243845D01*
X-19419019Y-22272127D01*
X-19660689Y-22272127D01*
X-19661096Y-22265201D01*
X-19852091Y-22257633D01*
X-19865944Y-22257084D01*
X-19960133Y-22253772D01*
X-20023861Y-22254880D01*
X-20064990Y-22263653D01*
X-20091380Y-22283338D01*
X-20110894Y-22317182D01*
X-20130598Y-22366377D01*
X-20195510Y-22538603D01*
X-20247465Y-22686750D01*
X-20289974Y-22821363D01*
X-20326548Y-22952985D01*
X-20328533Y-22960641D01*
X-20352560Y-23051185D01*
X-20375392Y-23132920D01*
X-20394131Y-23195707D01*
X-20404225Y-23225474D01*
X-20420299Y-23285189D01*
X-20425434Y-23333290D01*
X-20431993Y-23385167D01*
X-20448405Y-23449927D01*
X-20455411Y-23471024D01*
X-20461618Y-23490904D01*
X-20467239Y-23515697D01*
X-20472408Y-23548093D01*
X-20477264Y-23590784D01*
X-20481942Y-23646460D01*
X-20486579Y-23717811D01*
X-20491312Y-23807528D01*
X-20496278Y-23918302D01*
X-20501613Y-24052823D01*
X-20507454Y-24213783D01*
X-20513938Y-24403871D01*
X-20521202Y-24625778D01*
X-20529382Y-24882196D01*
X-20533099Y-25000050D01*
X-20535762Y-25141921D01*
X-20745894Y-25141921D01*
X-20745060Y-25025817D01*
X-20742443Y-24865666D01*
X-20738154Y-24672717D01*
X-20734591Y-24532566D01*
X-20727208Y-24274511D01*
X-20719451Y-24051357D01*
X-20711015Y-23859666D01*
X-20701596Y-23695999D01*
X-20690887Y-23556919D01*
X-20678585Y-23438986D01*
X-20664384Y-23338762D01*
X-20647980Y-23252808D01*
X-20629067Y-23177687D01*
X-20608771Y-23114000D01*
X-20590636Y-23055116D01*
X-20569691Y-22976330D01*
X-20551660Y-22899944D01*
X-20533559Y-22823316D01*
X-20515039Y-22754454D01*
X-20500107Y-22708261D01*
X-20500102Y-22708246D01*
X-20484845Y-22668056D01*
X-20460364Y-22601852D01*
X-20430366Y-22519716D01*
X-20406088Y-22452641D01*
X-20373848Y-22363927D01*
X-20343724Y-22282310D01*
X-20319646Y-22218366D01*
X-20307999Y-22188569D01*
X-20294651Y-22124011D01*
X-20315710Y-22073680D01*
X-20352111Y-22043583D01*
X-20369923Y-22041494D01*
X-20397425Y-22055460D01*
X-20438695Y-22088719D01*
X-20497812Y-22144506D01*
X-20567860Y-22214831D01*
X-20650046Y-22301825D01*
X-20711468Y-22373589D01*
X-20749219Y-22426535D01*
X-20760389Y-22452641D01*
X-20773353Y-22520152D01*
X-20788412Y-22598572D01*
X-20830784Y-22731571D01*
X-20884282Y-22843623D01*
X-20945678Y-22926715D01*
X-20954795Y-22935651D01*
X-21031625Y-22995605D01*
X-21117190Y-23037052D01*
X-21217508Y-23061124D01*
X-21338595Y-23068951D01*
X-21356584Y-23068065D01*
X-21486469Y-23061664D01*
X-21575622Y-23052316D01*
X-21730419Y-23026880D01*
X-21856921Y-22988596D01*
X-21964230Y-22933072D01*
X-22061449Y-22855915D01*
X-22130150Y-22784679D01*
X-22183190Y-22721693D01*
X-22220618Y-22666051D01*
X-22244849Y-22609057D01*
X-22258297Y-22542013D01*
X-22263377Y-22456221D01*
X-22263011Y-22408861D01*
X-22051288Y-22408861D01*
X-22032464Y-22514715D01*
X-21977883Y-22611198D01*
X-21898498Y-22692079D01*
X-21801602Y-22759995D01*
X-21694772Y-22805238D01*
X-21568906Y-22830765D01*
X-21446083Y-22839036D01*
X-21356584Y-22840373D01*
X-21294546Y-22837970D01*
X-21249136Y-22829988D01*
X-21209524Y-22814593D01*
X-21168227Y-22791914D01*
X-21109873Y-22751605D01*
X-21072341Y-22705649D01*
X-21042880Y-22639546D01*
X-21020293Y-22578295D01*
X-21002099Y-22529050D01*
X-20995092Y-22510151D01*
X-20984467Y-22450258D01*
X-20984883Y-22367582D01*
X-20995713Y-22275858D01*
X-21008499Y-22216123D01*
X-21040772Y-22112245D01*
X-21079589Y-22033529D01*
X-21132380Y-21966809D01*
X-21169307Y-21931139D01*
X-21282126Y-21854048D01*
X-21417473Y-21803560D01*
X-21568011Y-21782240D01*
X-21596772Y-21781698D01*
X-21617127Y-21782550D01*
X-21671012Y-21784804D01*
X-21734786Y-21792935D01*
X-21773373Y-21803979D01*
X-21826870Y-21837490D01*
X-21881187Y-21879359D01*
X-21926943Y-21921348D01*
X-21954758Y-21955219D01*
X-21959019Y-21967019D01*
X-21956387Y-21985999D01*
X-21942546Y-21990314D01*
X-21908582Y-21979642D01*
X-21869798Y-21963811D01*
X-21765205Y-21936553D01*
X-21666574Y-21941498D01*
X-21580499Y-21976642D01*
X-21513571Y-22039977D01*
X-21490428Y-22079283D01*
X-21454334Y-22188797D01*
X-21453174Y-22288382D01*
X-21486169Y-22374857D01*
X-21552539Y-22445042D01*
X-21585207Y-22466138D01*
X-21673555Y-22501867D01*
X-21761933Y-22505365D01*
X-21860733Y-22476899D01*
X-21868930Y-22473450D01*
X-21953380Y-22423445D01*
X-22002860Y-22359969D01*
X-22018796Y-22290225D01*
X-22021064Y-22232188D01*
X-22035698Y-22289698D01*
X-22051288Y-22408861D01*
X-22263011Y-22408861D01*
X-22262502Y-22342983D01*
X-22261677Y-22310846D01*
X-22253806Y-22160442D01*
X-22237682Y-22040184D01*
X-22210634Y-21942285D01*
X-22169993Y-21858961D01*
X-22113089Y-21782426D01*
X-22062011Y-21728586D01*
X-22012564Y-21678578D01*
X-21976533Y-21639312D01*
X-21124867Y-21639312D01*
X-21122357Y-21643424D01*
X-21050240Y-21696548D01*
X-20977571Y-21763876D01*
X-20910734Y-21837779D01*
X-20856111Y-21910628D01*
X-20820083Y-21974794D01*
X-20808830Y-22018212D01*
X-20799121Y-22045895D01*
X-20773353Y-22046024D01*
X-20736566Y-22023061D01*
X-20693799Y-21981465D01*
X-20650092Y-21925696D01*
X-20610485Y-21860213D01*
X-20595722Y-21829622D01*
X-20556650Y-21731876D01*
X-20538036Y-21652002D01*
X-20539917Y-21576913D01*
X-20543139Y-21564924D01*
X-20216436Y-21564924D01*
X-20215642Y-21648169D01*
X-20211053Y-21727859D01*
X-20203032Y-21791870D01*
X-20193648Y-21825164D01*
X-20147242Y-21886168D01*
X-20069931Y-21944719D01*
X-20016246Y-21975371D01*
X-19984607Y-21990424D01*
X-19951566Y-22000664D01*
X-19909826Y-22006689D01*
X-19852091Y-22009095D01*
X-19771067Y-22008483D01*
X-19659457Y-22005448D01*
X-19652020Y-22005214D01*
X-19539167Y-22000416D01*
X-19429578Y-21993564D01*
X-19333816Y-21985466D01*
X-19262446Y-21976927D01*
X-19246490Y-21974234D01*
X-19166352Y-21959970D01*
X-19085970Y-21947118D01*
X-19045879Y-21941481D01*
X-18966781Y-21924023D01*
X-18896132Y-21889515D01*
X-18820950Y-21831140D01*
X-18800792Y-21812825D01*
X-18766136Y-21777277D01*
X-18747436Y-21743540D01*
X-18739840Y-21697773D01*
X-18738490Y-21635066D01*
X-18739646Y-21609352D01*
X-18447817Y-21609352D01*
X-18442095Y-21678032D01*
X-18429424Y-21762528D01*
X-18067547Y-21762528D01*
X-17818339Y-21762528D01*
X-17434943Y-21762528D01*
X-17434943Y-21600681D01*
X-17180412Y-21600681D01*
X-17179245Y-21637924D01*
X-17175514Y-21752943D01*
X-17017682Y-21758511D01*
X-16859849Y-21764079D01*
X-16859849Y-21762528D01*
X-16591471Y-21762528D01*
X-16208075Y-21762528D01*
X-16208075Y-21627738D01*
X-16210822Y-21558225D01*
X-15975080Y-21558225D01*
X-15974095Y-21624676D01*
X-15968453Y-21752943D01*
X-15632981Y-21764021D01*
X-15632981Y-21762528D01*
X-15383773Y-21762528D01*
X-15019547Y-21762528D01*
X-14789509Y-21762528D01*
X-14481180Y-21762528D01*
X-14486778Y-21614463D01*
X-14489614Y-21539466D01*
X-14232699Y-21539466D01*
X-14231705Y-21615411D01*
X-14229925Y-21648534D01*
X-14224000Y-21752943D01*
X-14040363Y-21758390D01*
X-13954594Y-21760365D01*
X-13897865Y-21758952D01*
X-13860909Y-21752347D01*
X-13834457Y-21738744D01*
X-13809243Y-21716338D01*
X-13805533Y-21712644D01*
X-13763508Y-21652712D01*
X-13759420Y-21595540D01*
X-13793317Y-21542127D01*
X-13797471Y-21538227D01*
X-13850462Y-21496682D01*
X-13905546Y-21471522D01*
X-13974704Y-21459111D01*
X-14069016Y-21455811D01*
X-14146663Y-21457573D01*
X-14195967Y-21467481D01*
X-14222716Y-21492467D01*
X-14232699Y-21539466D01*
X-14489614Y-21539466D01*
X-14492377Y-21466398D01*
X-14621785Y-21469565D01*
X-14690250Y-21472830D01*
X-14743851Y-21478303D01*
X-14770351Y-21484573D01*
X-14779912Y-21508357D01*
X-14786779Y-21559538D01*
X-14789506Y-21627193D01*
X-14789509Y-21629471D01*
X-14789509Y-21762528D01*
X-15019547Y-21762528D01*
X-15019547Y-21629471D01*
X-15022695Y-21553727D01*
X-15031349Y-21501875D01*
X-15041664Y-21482744D01*
X-15076988Y-21472099D01*
X-15134990Y-21465149D01*
X-15204187Y-21461999D01*
X-15273095Y-21462753D01*
X-15330233Y-21467515D01*
X-15364116Y-21476389D01*
X-15367979Y-21479785D01*
X-15375780Y-21510239D01*
X-15381367Y-21566558D01*
X-15383480Y-21633132D01*
X-15383773Y-21762528D01*
X-15632981Y-21762528D01*
X-15632981Y-21619501D01*
X-15634130Y-21544990D01*
X-15638762Y-21501066D01*
X-15648658Y-21480011D01*
X-15665598Y-21474112D01*
X-15666528Y-21474079D01*
X-15704050Y-21472609D01*
X-15763788Y-21469821D01*
X-15805509Y-21467722D01*
X-15887923Y-21466343D01*
X-15939152Y-21476774D01*
X-15965952Y-21505305D01*
X-15975080Y-21558225D01*
X-16210822Y-21558225D01*
X-16211379Y-21544134D01*
X-16221424Y-21497109D01*
X-16232038Y-21485466D01*
X-16261141Y-21481105D01*
X-16318154Y-21475914D01*
X-16392684Y-21470783D01*
X-16423736Y-21469019D01*
X-16591471Y-21460054D01*
X-16591471Y-21762528D01*
X-16859849Y-21762528D01*
X-16859849Y-21455811D01*
X-17011916Y-21455811D01*
X-17092133Y-21456821D01*
X-17142496Y-21464635D01*
X-17169600Y-21486431D01*
X-17180040Y-21529387D01*
X-17180412Y-21600681D01*
X-17434943Y-21600681D01*
X-17434943Y-21463885D01*
X-17554755Y-21459064D01*
X-17632719Y-21458416D01*
X-17707074Y-21461836D01*
X-17746453Y-21466297D01*
X-17818339Y-21478351D01*
X-17818339Y-21762528D01*
X-18067547Y-21762528D01*
X-18067547Y-21630687D01*
X-18071663Y-21544157D01*
X-18083710Y-21491159D01*
X-18092854Y-21477842D01*
X-18127263Y-21466981D01*
X-18189798Y-21463363D01*
X-18241420Y-21465314D01*
X-18310890Y-21469851D01*
X-18367998Y-21473152D01*
X-18396703Y-21474385D01*
X-18424590Y-21492380D01*
X-18442207Y-21539964D01*
X-18447817Y-21609352D01*
X-18739646Y-21609352D01*
X-18741706Y-21563523D01*
X-18750031Y-21501711D01*
X-18758853Y-21470433D01*
X-18805792Y-21410867D01*
X-18886281Y-21359719D01*
X-18996062Y-21319059D01*
X-19126956Y-21291532D01*
X-19215713Y-21277255D01*
X-19288856Y-21263784D01*
X-19299436Y-21261836D01*
X-19364225Y-21247900D01*
X-19380679Y-21243626D01*
X-19440827Y-21232467D01*
X-19525451Y-21224253D01*
X-19624203Y-21219157D01*
X-19726733Y-21217354D01*
X-19822695Y-21219016D01*
X-19901739Y-21224318D01*
X-19953516Y-21233433D01*
X-19955200Y-21233990D01*
X-20018710Y-21263952D01*
X-20075568Y-21301495D01*
X-20085766Y-21308229D01*
X-20146178Y-21358578D01*
X-20189758Y-21406754D01*
X-20205205Y-21436256D01*
X-20213078Y-21490245D01*
X-20216436Y-21564924D01*
X-20543139Y-21564924D01*
X-20562326Y-21493520D01*
X-20596862Y-21407887D01*
X-20632099Y-21340630D01*
X-20674007Y-21280384D01*
X-20717503Y-21231727D01*
X-20757500Y-21199233D01*
X-20788913Y-21187479D01*
X-20806658Y-21201040D01*
X-20808830Y-21217140D01*
X-20826193Y-21281842D01*
X-20878296Y-21362559D01*
X-20965165Y-21459325D01*
X-21006596Y-21499650D01*
X-21072402Y-21565122D01*
X-21112455Y-21612457D01*
X-21124867Y-21639312D01*
X-21976533Y-21639312D01*
X-21976090Y-21638829D01*
X-21959399Y-21616824D01*
X-21959019Y-21615407D01*
X-21972393Y-21597188D01*
X-22006762Y-21563360D01*
X-22037226Y-21536320D01*
X-22123007Y-21448932D01*
X-22186767Y-21349769D01*
X-22230619Y-21232977D01*
X-22256674Y-21092699D01*
X-22267047Y-20923081D01*
X-22267354Y-20898477D01*
X-22266701Y-20816654D01*
X-22047433Y-20816654D01*
X-22043442Y-20887893D01*
X-22035254Y-20950280D01*
X-22029542Y-20977944D01*
X-22024346Y-20974242D01*
X-22017705Y-20942533D01*
X-22016263Y-20934438D01*
X-21986596Y-20851584D01*
X-21930273Y-20793381D01*
X-21845591Y-20758739D01*
X-21730845Y-20746568D01*
X-21722847Y-20746528D01*
X-21618486Y-20762003D01*
X-21535675Y-20805300D01*
X-21478240Y-20871733D01*
X-21450007Y-20956610D01*
X-21454801Y-21055244D01*
X-21458492Y-21070512D01*
X-21488441Y-21159050D01*
X-21527603Y-21220641D01*
X-21584426Y-21266674D01*
X-21617805Y-21285243D01*
X-21668226Y-21308331D01*
X-21709172Y-21316355D01*
X-21758283Y-21310873D01*
X-21800531Y-21301384D01*
X-21859107Y-21285050D01*
X-21900686Y-21269204D01*
X-21913119Y-21260837D01*
X-21936674Y-21245291D01*
X-21956470Y-21257529D01*
X-21959019Y-21270111D01*
X-21943475Y-21302809D01*
X-21902719Y-21345282D01*
X-21845568Y-21389639D01*
X-21785006Y-21425882D01*
X-21712709Y-21447684D01*
X-21617127Y-21455664D01*
X-21510451Y-21450531D01*
X-21404874Y-21433000D01*
X-21312588Y-21403780D01*
X-21298646Y-21397486D01*
X-21195130Y-21333198D01*
X-21110478Y-21251374D01*
X-21052865Y-21160583D01*
X-21040034Y-21126420D01*
X-21020791Y-21063336D01*
X-21003506Y-21007695D01*
X-20999714Y-20995736D01*
X-20983977Y-20894678D01*
X-20992845Y-20774921D01*
X-21020427Y-20662367D01*
X-21064873Y-20555563D01*
X-21122238Y-20478309D01*
X-21197252Y-20427956D01*
X-21294646Y-20401853D01*
X-21419153Y-20397348D01*
X-21485673Y-20401696D01*
X-21615093Y-20418215D01*
X-21717926Y-20444475D01*
X-21805502Y-20484528D01*
X-21889148Y-20542426D01*
X-21897172Y-20548897D01*
X-21981133Y-20631844D01*
X-22030147Y-20718610D01*
X-22047433Y-20816654D01*
X-22266701Y-20816654D01*
X-22266415Y-20780857D01*
X-22259085Y-20691607D01*
X-22241742Y-20620855D01*
X-22210767Y-20558732D01*
X-22162537Y-20495369D01*
X-22093431Y-20420894D01*
X-22091353Y-20418751D01*
X-21999624Y-20334703D01*
X-21905804Y-20273233D01*
X-21800274Y-20230093D01*
X-21673414Y-20201034D01*
X-21566038Y-20186718D01*
X-21429260Y-20174173D01*
X-21322402Y-20169734D01*
X-21237807Y-20173901D01*
X-21167816Y-20187177D01*
X-21104772Y-20210062D01*
X-21087810Y-20218021D01*
X-20986543Y-20280915D01*
X-20906598Y-20362359D01*
X-20844878Y-20467293D01*
X-20798286Y-20600657D01*
X-20771293Y-20722934D01*
X-20758188Y-20783781D01*
X-20740374Y-20829713D01*
X-20710813Y-20872455D01*
X-20662468Y-20923731D01*
X-20634324Y-20951159D01*
X-20569915Y-21015809D01*
X-20507449Y-21082771D01*
X-20459315Y-21138711D01*
X-20455078Y-21144066D01*
X-20391664Y-21225301D01*
X-20341455Y-21185806D01*
X-20303873Y-21139921D01*
X-20291265Y-21088390D01*
X-20306730Y-21044685D01*
X-20308527Y-21042702D01*
X-20321478Y-21017776D01*
X-20343663Y-20963610D01*
X-20372548Y-20887452D01*
X-20405594Y-20796550D01*
X-20440266Y-20698152D01*
X-20474026Y-20599504D01*
X-20504339Y-20507856D01*
X-20528667Y-20430455D01*
X-20544475Y-20374548D01*
X-20548231Y-20357802D01*
X-20561505Y-20299680D01*
X-20582063Y-20224194D01*
X-20599674Y-20166104D01*
X-20622426Y-20084521D01*
X-20640843Y-20000143D01*
X-20648464Y-19950981D01*
X-20656858Y-19891768D01*
X-20666295Y-19848149D01*
X-20670860Y-19836163D01*
X-20679990Y-19806899D01*
X-20688635Y-19748637D01*
X-20696873Y-19660042D01*
X-20704778Y-19539779D01*
X-20712427Y-19386513D01*
X-20719895Y-19198910D01*
X-20727259Y-18975635D01*
X-20734580Y-18715920D01*
X-20739906Y-18499477D01*
X-20743507Y-18317948D01*
X-20745377Y-18167950D01*
X-20745506Y-18048653D01*
X-20535666Y-18048653D01*
X-20534763Y-18118962D01*
X-20532816Y-18209622D01*
X-20529784Y-18323558D01*
X-20525627Y-18463693D01*
X-20520306Y-18632954D01*
X-20513781Y-18834263D01*
X-20506012Y-19070546D01*
X-20504792Y-19107509D01*
X-20498368Y-19287545D01*
X-20492015Y-19433073D01*
X-20485447Y-19547921D01*
X-20478378Y-19635919D01*
X-20470522Y-19700897D01*
X-20461594Y-19746683D01*
X-20455622Y-19766485D01*
X-20436800Y-19831020D01*
X-20426253Y-19890927D01*
X-20425434Y-19906082D01*
X-20417873Y-19964389D01*
X-20400307Y-20023483D01*
X-20382269Y-20076937D01*
X-20362490Y-20149100D01*
X-20350555Y-20200188D01*
X-20334357Y-20269859D01*
X-20318162Y-20330046D01*
X-20308587Y-20359241D01*
X-20294429Y-20414664D01*
X-20291245Y-20449167D01*
X-20284869Y-20488818D01*
X-20274184Y-20505602D01*
X-20260808Y-20527520D01*
X-20239770Y-20576956D01*
X-20214806Y-20644824D01*
X-20204764Y-20674469D01*
X-20175351Y-20759318D01*
X-20144677Y-20841229D01*
X-20118481Y-20905008D01*
X-20113987Y-20914888D01*
X-20075568Y-20996984D01*
X-19871897Y-20991567D01*
X-19668226Y-20986151D01*
X-19667805Y-20977203D01*
X-19420748Y-20977203D01*
X-19347638Y-20996890D01*
X-19288856Y-21007033D01*
X-19248721Y-20997672D01*
X-19239263Y-20991779D01*
X-19206578Y-20963330D01*
X-19167290Y-20922158D01*
X-19130942Y-20879248D01*
X-19107078Y-20845585D01*
X-19102717Y-20834601D01*
X-19092813Y-20813875D01*
X-19066811Y-20770738D01*
X-19030278Y-20714408D01*
X-19029179Y-20712764D01*
X-18935425Y-20565551D01*
X-18849893Y-20417811D01*
X-18775904Y-20276145D01*
X-18716779Y-20147159D01*
X-18675838Y-20037456D01*
X-18660574Y-19979736D01*
X-18645177Y-19906049D01*
X-18629744Y-19836098D01*
X-18622982Y-19807207D01*
X-18619196Y-19771613D01*
X-18616301Y-19703919D01*
X-18614262Y-19610351D01*
X-18613045Y-19497139D01*
X-18612617Y-19370509D01*
X-18612943Y-19236690D01*
X-18613991Y-19101910D01*
X-18615725Y-18972396D01*
X-18618111Y-18854376D01*
X-18621117Y-18754079D01*
X-18624709Y-18677731D01*
X-18628851Y-18631561D01*
X-18629398Y-18628264D01*
X-18635753Y-18584930D01*
X-18644383Y-18514681D01*
X-18653951Y-18428769D01*
X-18659879Y-18371466D01*
X-18670081Y-18281130D01*
X-18681394Y-18199065D01*
X-18692146Y-18136665D01*
X-18697851Y-18112674D01*
X-18709609Y-18060195D01*
X-18720745Y-17988365D01*
X-18726451Y-17937418D01*
X-18733503Y-17877981D01*
X-18744763Y-17823219D01*
X-18763198Y-17763979D01*
X-18791776Y-17691110D01*
X-18833467Y-17595460D01*
X-18847448Y-17564339D01*
X-18892856Y-17478855D01*
X-18942329Y-17410893D01*
X-18990292Y-17366997D01*
X-19027039Y-17353471D01*
X-19082917Y-17371524D01*
X-19138912Y-17421556D01*
X-19191512Y-17497381D01*
X-19237206Y-17592810D01*
X-19272481Y-17701655D01*
X-19293825Y-17817730D01*
X-19294596Y-17824885D01*
X-19304008Y-17901766D01*
X-19314483Y-17965119D01*
X-19324168Y-18004293D01*
X-19326773Y-18009944D01*
X-19333631Y-18037495D01*
X-19340991Y-18095106D01*
X-19347998Y-18174523D01*
X-19353796Y-18267491D01*
X-19354101Y-18273622D01*
X-19360878Y-18390276D01*
X-19369902Y-18516345D01*
X-19379845Y-18634321D01*
X-19386882Y-18704943D01*
X-19391077Y-18761552D01*
X-19395230Y-18852164D01*
X-19399244Y-18972442D01*
X-19403023Y-19118050D01*
X-19406469Y-19284651D01*
X-19409487Y-19467908D01*
X-19411979Y-19663485D01*
X-19413850Y-19867045D01*
X-19414325Y-19936922D01*
X-19420748Y-20977203D01*
X-19667805Y-20977203D01*
X-19657175Y-20751452D01*
X-19651871Y-20660113D01*
X-19645508Y-20583055D01*
X-19638870Y-20528183D01*
X-19632743Y-20503402D01*
X-19632517Y-20503146D01*
X-19628635Y-20480337D01*
X-19625695Y-20423552D01*
X-19623645Y-20337143D01*
X-19622433Y-20225461D01*
X-19622005Y-20092858D01*
X-19622309Y-19943684D01*
X-19623293Y-19782292D01*
X-19624903Y-19613032D01*
X-19627087Y-19440256D01*
X-19629793Y-19268315D01*
X-19632967Y-19101561D01*
X-19636558Y-18944344D01*
X-19640512Y-18801016D01*
X-19644776Y-18675929D01*
X-19649299Y-18573433D01*
X-19654027Y-18497880D01*
X-19657181Y-18465320D01*
X-19669053Y-18380499D01*
X-19681440Y-18309629D01*
X-19692653Y-18261539D01*
X-19699184Y-18245826D01*
X-19710772Y-18215532D01*
X-19716111Y-18166361D01*
X-19716151Y-18161786D01*
X-19723186Y-18084592D01*
X-19746260Y-18003819D01*
X-19788322Y-17912358D01*
X-19852324Y-17803100D01*
X-19887893Y-17748016D01*
X-19938900Y-17670538D01*
X-19983402Y-17602693D01*
X-20016411Y-17552100D01*
X-20032453Y-17527166D01*
X-20103582Y-17424477D01*
X-20176318Y-17339651D01*
X-20245112Y-17278387D01*
X-20304414Y-17246383D01*
X-20306395Y-17245823D01*
X-20360306Y-17248676D01*
X-20405898Y-17287782D01*
X-20442590Y-17361845D01*
X-20469799Y-17469568D01*
X-20486944Y-17609654D01*
X-20489896Y-17655127D01*
X-20496364Y-17742014D01*
X-20505246Y-17817684D01*
X-20515165Y-17871852D01*
X-20521376Y-17890400D01*
X-20525904Y-17900017D01*
X-20529627Y-17912438D01*
X-20532505Y-17930588D01*
X-20534497Y-17957390D01*
X-20535564Y-17995771D01*
X-20535666Y-18048653D01*
X-20745506Y-18048653D01*
X-20745509Y-18046094D01*
X-20743896Y-17948996D01*
X-20740531Y-17873271D01*
X-20735408Y-17815531D01*
X-20732722Y-17795769D01*
X-20719875Y-17701610D01*
X-20707287Y-17592293D01*
X-20697612Y-17490926D01*
X-20697347Y-17487660D01*
X-20675902Y-17349869D01*
X-20636676Y-17228454D01*
X-20582634Y-17130400D01*
X-20517108Y-17062951D01*
X-20438398Y-17027975D01*
X-20342178Y-17016564D01*
X-20241017Y-17028517D01*
X-20147488Y-17063629D01*
X-20137887Y-17069085D01*
X-20009707Y-17166707D01*
X-19906221Y-17291065D01*
X-19885203Y-17325228D01*
X-19852532Y-17378829D01*
X-19806853Y-17449865D01*
X-19757170Y-17524379D01*
X-19749174Y-17536096D01*
X-19697299Y-17612907D01*
X-19645501Y-17691393D01*
X-19604093Y-17755905D01*
X-19600396Y-17761830D01*
X-19566409Y-17809768D01*
X-19537788Y-17838345D01*
X-19524240Y-17842171D01*
X-19513656Y-17817892D01*
X-19506775Y-17768073D01*
X-19505283Y-17727053D01*
X-19494509Y-17617774D01*
X-19460018Y-17508593D01*
X-19398559Y-17390544D01*
X-19363082Y-17334901D01*
X-19282698Y-17232881D01*
X-19198834Y-17166176D01*
X-19106086Y-17131807D01*
X-18999050Y-17126799D01*
X-18987192Y-17127814D01*
X-18886940Y-17154444D01*
X-18797963Y-17214858D01*
X-18718512Y-17310538D01*
X-18668171Y-17398215D01*
X-18615782Y-17506819D01*
X-18573846Y-17606398D01*
X-18540467Y-17704594D01*
X-18513751Y-17809046D01*
X-18491801Y-17927394D01*
X-18472723Y-18067280D01*
X-18454622Y-18236343D01*
X-18451019Y-18273622D01*
X-18440354Y-18377978D01*
X-18427324Y-18495006D01*
X-18414748Y-18599394D01*
X-18414733Y-18599509D01*
X-18408376Y-18670704D01*
X-18403134Y-18771346D01*
X-18399027Y-18894782D01*
X-18396076Y-19034357D01*
X-18394301Y-19183417D01*
X-18393723Y-19335307D01*
X-18394361Y-19483373D01*
X-18396238Y-19620961D01*
X-18399373Y-19741417D01*
X-18403786Y-19838087D01*
X-18409498Y-19904316D01*
X-18410690Y-19912641D01*
X-18429883Y-20013319D01*
X-18456458Y-20113183D01*
X-18492503Y-20216719D01*
X-18540106Y-20328409D01*
X-18601357Y-20452738D01*
X-18678343Y-20594189D01*
X-18773153Y-20757248D01*
X-18887875Y-20946398D01*
X-18905414Y-20974844D01*
X-18930737Y-21020186D01*
X-18932984Y-21048343D01*
X-18907710Y-21069360D01*
X-18853509Y-21092112D01*
X-18799124Y-21117708D01*
X-18732059Y-21155462D01*
X-18690822Y-21181449D01*
X-18595229Y-21244943D01*
X-13744070Y-21244943D01*
X-13674484Y-21292227D01*
X-13600502Y-21354427D01*
X-13553727Y-21426127D01*
X-13529875Y-21516437D01*
X-13524420Y-21611432D01*
X-13530137Y-21715465D01*
X-13546409Y-21791495D01*
X-13554502Y-21810410D01*
X-13604219Y-21887960D01*
X-13664912Y-21941208D01*
X-13731966Y-21975880D01*
X-13745359Y-21981152D01*
X-13761171Y-21985881D01*
X-13781445Y-21990097D01*
X-13808225Y-21993828D01*
X-13843552Y-21997105D01*
X-13889472Y-21999957D01*
X-13948025Y-22002413D01*
X-13954594Y-22002600D01*
X-14021257Y-22004503D01*
X-14111209Y-22006255D01*
X-14219924Y-22007701D01*
X-14349446Y-22008868D01*
X-14481180Y-22009663D01*
X-14501819Y-22009787D01*
X-14679084Y-22010487D01*
G37*
X-16160000Y13350000D02*
X-16160000Y9510000D01*
X-14320000Y13350000D02*
X-14320000Y9510000D01*
X19330000Y26715000D02*
X17680000Y26715000D01*
X17680000Y26715000D02*
X17680000Y6275000D01*
X17680000Y6275000D02*
X22980000Y6275000D01*
X22980000Y6275000D02*
X22980000Y26715000D01*
X22980000Y26715000D02*
X21330000Y26715000D01*
X19330000Y26715000D02*
G75*
G03*
X21330000Y26715000I1000000J0D01*
G01*
X-11080000Y9510000D02*
X-11080000Y13350000D01*
X-9240000Y9510000D02*
X-9240000Y13350000D01*
M02*
