%TF.GenerationSoftware,KiCad,Pcbnew,(6.0.0)*%
%TF.CreationDate,2022-02-11T23:13:40+09:00*%
%TF.ProjectId,8x8_eyes,3878385f-6579-4657-932e-6b696361645f,rev?*%
%TF.SameCoordinates,Original*%
%TF.FileFunction,Soldermask,Top*%
%TF.FilePolarity,Negative*%
%FSLAX46Y46*%
G04 Gerber Fmt 4.6, Leading zero omitted, Abs format (unit mm)*
G04 Created by KiCad (PCBNEW (6.0.0)) date 2022-02-11 23:13:40*
%MOMM*%
%LPD*%
G01*
G04 APERTURE LIST*
G04 Aperture macros list*
%AMRoundRect*
0 Rectangle with rounded corners*
0 $1 Rounding radius*
0 $2 $3 $4 $5 $6 $7 $8 $9 X,Y pos of 4 corners*
0 Add a 4 corners polygon primitive as box body*
4,1,4,$2,$3,$4,$5,$6,$7,$8,$9,$2,$3,0*
0 Add four circle primitives for the rounded corners*
1,1,$1+$1,$2,$3*
1,1,$1+$1,$4,$5*
1,1,$1+$1,$6,$7*
1,1,$1+$1,$8,$9*
0 Add four rect primitives between the rounded corners*
20,1,$1+$1,$2,$3,$4,$5,0*
20,1,$1+$1,$4,$5,$6,$7,0*
20,1,$1+$1,$6,$7,$8,$9,0*
20,1,$1+$1,$8,$9,$2,$3,0*%
G04 Aperture macros list end*
%ADD10C,2.000000*%
%ADD11RoundRect,0.250000X-1.050000X0.750000X-1.050000X-0.750000X1.050000X-0.750000X1.050000X0.750000X0*%
%ADD12O,2.600000X2.000000*%
%ADD13C,1.600000*%
%ADD14O,1.600000X1.600000*%
%ADD15C,1.400000*%
%ADD16O,1.400000X1.400000*%
%ADD17R,1.500000X0.600000*%
G04 APERTURE END LIST*
D10*
X129035000Y-87845000D03*
X131575000Y-87845000D03*
X134115000Y-87845000D03*
X136655000Y-87845000D03*
X139195000Y-87845000D03*
X141735000Y-87845000D03*
X144275000Y-87845000D03*
X146815000Y-87845000D03*
X146815000Y-116345000D03*
X144275000Y-116345000D03*
X141735000Y-116345000D03*
X139195000Y-116345000D03*
X136655000Y-116345000D03*
X134115000Y-116345000D03*
X131575000Y-116345000D03*
X129035000Y-116345000D03*
D11*
X170080000Y-114300000D03*
D12*
X170080000Y-117800000D03*
X170080000Y-121300000D03*
X170080000Y-124800000D03*
X170080000Y-128300000D03*
D13*
X160020000Y-130750000D03*
D14*
X160020000Y-123250000D03*
D15*
X134620000Y-124460000D03*
D16*
X134620000Y-129540000D03*
D15*
X142240000Y-124460000D03*
D16*
X142240000Y-129540000D03*
D15*
X142240000Y-81280000D03*
D16*
X142240000Y-76200000D03*
D15*
X144780000Y-81280000D03*
D16*
X144780000Y-76200000D03*
D17*
X161550000Y-99695000D03*
X161550000Y-100965000D03*
X161550000Y-102235000D03*
X161550000Y-103505000D03*
X161550000Y-104775000D03*
X161550000Y-106045000D03*
X161550000Y-107315000D03*
X161550000Y-108585000D03*
X168650000Y-108585000D03*
X168650000Y-107315000D03*
X168650000Y-106045000D03*
X168650000Y-104775000D03*
X168650000Y-103505000D03*
X168650000Y-102235000D03*
X168650000Y-100965000D03*
X168650000Y-99695000D03*
D15*
X137160000Y-81280000D03*
D16*
X137160000Y-76200000D03*
D15*
X137160000Y-129540000D03*
D16*
X137160000Y-124460000D03*
D15*
X129540000Y-76200000D03*
D16*
X129540000Y-81280000D03*
D17*
X161550000Y-84455000D03*
X161550000Y-85725000D03*
X161550000Y-86995000D03*
X161550000Y-88265000D03*
X161550000Y-89535000D03*
X161550000Y-90805000D03*
X161550000Y-92075000D03*
X161550000Y-93345000D03*
X168650000Y-93345000D03*
X168650000Y-92075000D03*
X168650000Y-90805000D03*
X168650000Y-89535000D03*
X168650000Y-88265000D03*
X168650000Y-86995000D03*
X168650000Y-85725000D03*
X168650000Y-84455000D03*
D15*
X132080000Y-81280000D03*
D16*
X132080000Y-76200000D03*
M02*
