M48
; DRILL file {KiCad (6.0.0)} date Fri Feb 11 23:14:07 2022
; FORMAT={-:-/ absolute / inch / decimal}
; #@! TF.CreationDate,2022-02-11T23:14:07+09:00
; #@! TF.GenerationSoftware,Kicad,Pcbnew,(6.0.0)
; #@! TF.FileFunction,Plated,1,2,PTH
FMAT,2
INCH
; #@! TA.AperFunction,Plated,PTH,ViaDrill
T1C0.0157
; #@! TA.AperFunction,Plated,PTH,ComponentDrill
T2C0.0276
; #@! TA.AperFunction,Plated,PTH,ComponentDrill
T3C0.0315
; #@! TA.AperFunction,Plated,PTH,ComponentDrill
T4C0.0394
; #@! TA.AperFunction,Plated,PTH,ComponentDrill
T5C0.0630
%
G90
G05
T1
X4.3898Y-3.0315
X4.3898Y-3.3465
X4.3898Y-3.6811
X4.3898Y-4.0157
X4.3898Y-4.3898
X4.3898Y-4.7441
X4.3898Y-5.0394
X4.7047Y-3.0315
X4.7638Y-5.0394
X4.9381Y-3.0308
X5.0787Y-5.0394
X5.1377Y-2.873
X5.748Y-2.874
X5.7801Y-4.1044
X5.9646Y-5.0197
X6.063Y-2.874
X6.2073Y-3.375
X6.2359Y-3.3109
X6.2685Y-3.4667
X6.2795Y-4.5866
X6.5157Y-2.874
X6.5863Y-4.025
X6.8307Y-3.0512
X6.8504Y-3.4055
X6.8504Y-3.6614
X6.8504Y-4.1535
T2
X5.1Y-3.0
X5.1Y-3.2
X5.2Y-3.0
X5.2Y-3.2
X5.3Y-4.9
X5.3Y-5.1
X5.4Y-3.0
X5.4Y-3.2
X5.4Y-4.9
X5.4Y-5.1
X5.6Y-3.0
X5.6Y-3.2
X5.6Y-4.9
X5.6Y-5.1
X5.7Y-3.0
X5.7Y-3.2
T3
X6.3Y-4.8524
X6.3Y-5.1476
T4
X5.0801Y-3.4585
X5.0801Y-4.5805
X5.1801Y-3.4585
X5.1801Y-4.5805
X5.2801Y-3.4585
X5.2801Y-4.5805
X5.3801Y-3.4585
X5.3801Y-4.5805
X5.4801Y-3.4585
X5.4801Y-4.5805
X5.5801Y-3.4585
X5.5801Y-4.5805
X5.6801Y-3.4585
X5.6801Y-4.5805
X5.7801Y-3.4585
X5.7801Y-4.5805
T5
X6.6961Y-4.5
X6.6961Y-4.6378
X6.6961Y-4.7756
X6.6961Y-4.9134
X6.6961Y-5.0512
T0
M30
