G04 #@! TF.GenerationSoftware,KiCad,Pcbnew,(6.0.0)*
G04 #@! TF.CreationDate,2022-02-13T15:34:51+09:00*
G04 #@! TF.ProjectId,8x8_eyes,3878385f-6579-4657-932e-6b696361645f,rev?*
G04 #@! TF.SameCoordinates,PX87a6900PY6486dd0*
G04 #@! TF.FileFunction,Soldermask,Top*
G04 #@! TF.FilePolarity,Negative*
%FSLAX46Y46*%
G04 Gerber Fmt 4.6, Leading zero omitted, Abs format (unit mm)*
G04 Created by KiCad (PCBNEW (6.0.0)) date 2022-02-13 15:34:51*
%MOMM*%
%LPD*%
G01*
G04 APERTURE LIST*
G04 Aperture macros list*
%AMRoundRect*
0 Rectangle with rounded corners*
0 $1 Rounding radius*
0 $2 $3 $4 $5 $6 $7 $8 $9 X,Y pos of 4 corners*
0 Add a 4 corners polygon primitive as box body*
4,1,4,$2,$3,$4,$5,$6,$7,$8,$9,$2,$3,0*
0 Add four circle primitives for the rounded corners*
1,1,$1+$1,$2,$3*
1,1,$1+$1,$4,$5*
1,1,$1+$1,$6,$7*
1,1,$1+$1,$8,$9*
0 Add four rect primitives between the rounded corners*
20,1,$1+$1,$2,$3,$4,$5,0*
20,1,$1+$1,$4,$5,$6,$7,0*
20,1,$1+$1,$6,$7,$8,$9,0*
20,1,$1+$1,$8,$9,$2,$3,0*%
G04 Aperture macros list end*
%ADD10C,2.000000*%
%ADD11C,1.400000*%
%ADD12O,1.400000X1.400000*%
%ADD13R,1.600000X1.600000*%
%ADD14O,1.600000X1.600000*%
%ADD15RoundRect,0.250000X0.620000X0.845000X-0.620000X0.845000X-0.620000X-0.845000X0.620000X-0.845000X0*%
%ADD16O,1.740000X2.190000*%
%ADD17C,1.600000*%
G04 APERTURE END LIST*
D10*
X-13205000Y-10935000D03*
X-10665000Y-10935000D03*
X-8125000Y-10935000D03*
X-5585000Y-10935000D03*
X-3045000Y-10935000D03*
X-505000Y-10935000D03*
X2035000Y-10935000D03*
X4575000Y-10935000D03*
X4575000Y17565000D03*
X2035000Y17565000D03*
X-505000Y17565000D03*
X-3045000Y17565000D03*
X-5585000Y17565000D03*
X-8125000Y17565000D03*
X-10665000Y17565000D03*
X-13205000Y17565000D03*
D11*
X-10160000Y-1270000D03*
D12*
X-10160000Y-6350000D03*
D11*
X0Y-1270000D03*
D12*
X0Y-6350000D03*
D11*
X0Y8890000D03*
D12*
X0Y13970000D03*
D11*
X5080000Y8890000D03*
D12*
X5080000Y13970000D03*
D13*
X16520000Y2525000D03*
D14*
X16520000Y-15000D03*
X16520000Y-2555000D03*
X16520000Y-5095000D03*
X16520000Y-7635000D03*
X16520000Y-10175000D03*
X16520000Y-12715000D03*
X16520000Y-15255000D03*
X24140000Y-15255000D03*
X24140000Y-12715000D03*
X24140000Y-10175000D03*
X24140000Y-7635000D03*
X24140000Y-5095000D03*
X24140000Y-2555000D03*
X24140000Y-15000D03*
X24140000Y2525000D03*
D11*
X-5080000Y8890000D03*
D12*
X-5080000Y13970000D03*
D11*
X-5080000Y-6350000D03*
D12*
X-5080000Y-1270000D03*
D11*
X-15240000Y13970000D03*
D12*
X-15240000Y8890000D03*
D13*
X16520000Y25385000D03*
D14*
X16520000Y22845000D03*
X16520000Y20305000D03*
X16520000Y17765000D03*
X16520000Y15225000D03*
X16520000Y12685000D03*
X16520000Y10145000D03*
X16520000Y7605000D03*
X24140000Y7605000D03*
X24140000Y10145000D03*
X24140000Y12685000D03*
X24140000Y15225000D03*
X24140000Y17765000D03*
X24140000Y20305000D03*
X24140000Y22845000D03*
X24140000Y25385000D03*
D11*
X-10160000Y8890000D03*
D12*
X-10160000Y13970000D03*
D15*
X22860000Y-21590000D03*
D16*
X20320000Y-21590000D03*
X17780000Y-21590000D03*
X15240000Y-21590000D03*
X12700000Y-21590000D03*
D17*
X10160000Y-10100000D03*
D14*
X10160000Y-2600000D03*
M02*
