G04 #@! TF.GenerationSoftware,KiCad,Pcbnew,(6.0.0)*
G04 #@! TF.CreationDate,2022-02-13T15:34:51+09:00*
G04 #@! TF.ProjectId,8x8_eyes,3878385f-6579-4657-932e-6b696361645f,rev?*
G04 #@! TF.SameCoordinates,PX87a6900PY6486dd0*
G04 #@! TF.FileFunction,Legend,Bot*
G04 #@! TF.FilePolarity,Positive*
%FSLAX46Y46*%
G04 Gerber Fmt 4.6, Leading zero omitted, Abs format (unit mm)*
G04 Created by KiCad (PCBNEW (6.0.0)) date 2022-02-13 15:34:51*
%MOMM*%
%LPD*%
G01*
G04 APERTURE LIST*
%ADD10C,0.150000*%
%ADD11C,0.120000*%
G04 APERTURE END LIST*
D10*
X3521904Y-14590000D02*
X3617142Y-14542380D01*
X3760000Y-14542380D01*
X3902857Y-14590000D01*
X3998095Y-14685238D01*
X4045714Y-14780476D01*
X4093333Y-14970952D01*
X4093333Y-15113809D01*
X4045714Y-15304285D01*
X3998095Y-15399523D01*
X3902857Y-15494761D01*
X3760000Y-15542380D01*
X3664761Y-15542380D01*
X3521904Y-15494761D01*
X3474285Y-15447142D01*
X3474285Y-15113809D01*
X3664761Y-15113809D01*
X3045714Y-15542380D02*
X3045714Y-14542380D01*
X2474285Y-15542380D01*
X2474285Y-14542380D01*
X1998095Y-15542380D02*
X1998095Y-14542380D01*
X1760000Y-14542380D01*
X1617142Y-14590000D01*
X1521904Y-14685238D01*
X1474285Y-14780476D01*
X1426666Y-14970952D01*
X1426666Y-15113809D01*
X1474285Y-15304285D01*
X1521904Y-15399523D01*
X1617142Y-15494761D01*
X1760000Y-15542380D01*
X1998095Y-15542380D01*
X20545714Y-25637619D02*
X20498095Y-25590000D01*
X20402857Y-25542380D01*
X20164761Y-25542380D01*
X20069523Y-25590000D01*
X20021904Y-25637619D01*
X19974285Y-25732857D01*
X19974285Y-25828095D01*
X20021904Y-25970952D01*
X20593333Y-26542380D01*
X19974285Y-26542380D01*
X12521904Y-25542380D02*
X12998095Y-25542380D01*
X13045714Y-26018571D01*
X12998095Y-25970952D01*
X12902857Y-25923333D01*
X12664761Y-25923333D01*
X12569523Y-25970952D01*
X12521904Y-26018571D01*
X12474285Y-26113809D01*
X12474285Y-26351904D01*
X12521904Y-26447142D01*
X12569523Y-26494761D01*
X12664761Y-26542380D01*
X12902857Y-26542380D01*
X12998095Y-26494761D01*
X13045714Y-26447142D01*
X5521904Y-24542380D02*
X5998095Y-24542380D01*
X6045714Y-25018571D01*
X5998095Y-24970952D01*
X5902857Y-24923333D01*
X5664761Y-24923333D01*
X5569523Y-24970952D01*
X5521904Y-25018571D01*
X5474285Y-25113809D01*
X5474285Y-25351904D01*
X5521904Y-25447142D01*
X5569523Y-25494761D01*
X5664761Y-25542380D01*
X5902857Y-25542380D01*
X5998095Y-25494761D01*
X6045714Y-25447142D01*
X4093333Y-24542380D02*
X3760000Y-25542380D01*
X3426666Y-24542380D01*
X2521904Y-25447142D02*
X2569523Y-25494761D01*
X2712380Y-25542380D01*
X2807619Y-25542380D01*
X2950476Y-25494761D01*
X3045714Y-25399523D01*
X3093333Y-25304285D01*
X3140952Y-25113809D01*
X3140952Y-24970952D01*
X3093333Y-24780476D01*
X3045714Y-24685238D01*
X2950476Y-24590000D01*
X2807619Y-24542380D01*
X2712380Y-24542380D01*
X2569523Y-24590000D01*
X2521904Y-24637619D01*
X1521904Y-25447142D02*
X1569523Y-25494761D01*
X1712380Y-25542380D01*
X1807619Y-25542380D01*
X1950476Y-25494761D01*
X2045714Y-25399523D01*
X2093333Y-25304285D01*
X2140952Y-25113809D01*
X2140952Y-24970952D01*
X2093333Y-24780476D01*
X2045714Y-24685238D01*
X1950476Y-24590000D01*
X1807619Y-24542380D01*
X1712380Y-24542380D01*
X1569523Y-24590000D01*
X1521904Y-24637619D01*
X5569523Y-22375714D02*
X5569523Y-23042380D01*
X5807619Y-21994761D02*
X6045714Y-22709047D01*
X5426666Y-22709047D01*
X18093333Y-25542380D02*
X17474285Y-25542380D01*
X17807619Y-25923333D01*
X17664761Y-25923333D01*
X17569523Y-25970952D01*
X17521904Y-26018571D01*
X17474285Y-26113809D01*
X17474285Y-26351904D01*
X17521904Y-26447142D01*
X17569523Y-26494761D01*
X17664761Y-26542380D01*
X17950476Y-26542380D01*
X18045714Y-26494761D01*
X18093333Y-26447142D01*
X6045714Y-17137619D02*
X5998095Y-17090000D01*
X5902857Y-17042380D01*
X5664761Y-17042380D01*
X5569523Y-17090000D01*
X5521904Y-17137619D01*
X5474285Y-17232857D01*
X5474285Y-17328095D01*
X5521904Y-17470952D01*
X6093333Y-18042380D01*
X5474285Y-18042380D01*
X6093333Y-19542380D02*
X5474285Y-19542380D01*
X5807619Y-19923333D01*
X5664761Y-19923333D01*
X5569523Y-19970952D01*
X5521904Y-20018571D01*
X5474285Y-20113809D01*
X5474285Y-20351904D01*
X5521904Y-20447142D01*
X5569523Y-20494761D01*
X5664761Y-20542380D01*
X5950476Y-20542380D01*
X6045714Y-20494761D01*
X6093333Y-20447142D01*
X5474285Y-15542380D02*
X6045714Y-15542380D01*
X5760000Y-15542380D02*
X5760000Y-14542380D01*
X5855238Y-14685238D01*
X5950476Y-14780476D01*
X6045714Y-14828095D01*
X15069523Y-25875714D02*
X15069523Y-26542380D01*
X15307619Y-25494761D02*
X15545714Y-26209047D01*
X14926666Y-26209047D01*
X3998095Y-20494761D02*
X3855238Y-20542380D01*
X3617142Y-20542380D01*
X3521904Y-20494761D01*
X3474285Y-20447142D01*
X3426666Y-20351904D01*
X3426666Y-20256666D01*
X3474285Y-20161428D01*
X3521904Y-20113809D01*
X3617142Y-20066190D01*
X3807619Y-20018571D01*
X3902857Y-19970952D01*
X3950476Y-19923333D01*
X3998095Y-19828095D01*
X3998095Y-19732857D01*
X3950476Y-19637619D01*
X3902857Y-19590000D01*
X3807619Y-19542380D01*
X3569523Y-19542380D01*
X3426666Y-19590000D01*
X2998095Y-20018571D02*
X2664761Y-20018571D01*
X2521904Y-20542380D02*
X2998095Y-20542380D01*
X2998095Y-19542380D01*
X2521904Y-19542380D01*
X1521904Y-20542380D02*
X1855238Y-20066190D01*
X2093333Y-20542380D02*
X2093333Y-19542380D01*
X1712380Y-19542380D01*
X1617142Y-19590000D01*
X1569523Y-19637619D01*
X1521904Y-19732857D01*
X1521904Y-19875714D01*
X1569523Y-19970952D01*
X1617142Y-20018571D01*
X1712380Y-20066190D01*
X2093333Y-20066190D01*
X22474285Y-26542380D02*
X23045714Y-26542380D01*
X22760000Y-26542380D02*
X22760000Y-25542380D01*
X22855238Y-25685238D01*
X22950476Y-25780476D01*
X23045714Y-25828095D01*
X3355238Y-22947142D02*
X3402857Y-22994761D01*
X3545714Y-23042380D01*
X3640952Y-23042380D01*
X3783809Y-22994761D01*
X3879047Y-22899523D01*
X3926666Y-22804285D01*
X3974285Y-22613809D01*
X3974285Y-22470952D01*
X3926666Y-22280476D01*
X3879047Y-22185238D01*
X3783809Y-22090000D01*
X3640952Y-22042380D01*
X3545714Y-22042380D01*
X3402857Y-22090000D01*
X3355238Y-22137619D01*
X2450476Y-23042380D02*
X2926666Y-23042380D01*
X2926666Y-22042380D01*
X1545714Y-23042380D02*
X1879047Y-22566190D01*
X2117142Y-23042380D02*
X2117142Y-22042380D01*
X1736190Y-22042380D01*
X1640952Y-22090000D01*
X1593333Y-22137619D01*
X1545714Y-22232857D01*
X1545714Y-22375714D01*
X1593333Y-22470952D01*
X1640952Y-22518571D01*
X1736190Y-22566190D01*
X2117142Y-22566190D01*
X3355238Y-17947142D02*
X3402857Y-17994761D01*
X3545714Y-18042380D01*
X3640952Y-18042380D01*
X3783809Y-17994761D01*
X3879047Y-17899523D01*
X3926666Y-17804285D01*
X3974285Y-17613809D01*
X3974285Y-17470952D01*
X3926666Y-17280476D01*
X3879047Y-17185238D01*
X3783809Y-17090000D01*
X3640952Y-17042380D01*
X3545714Y-17042380D01*
X3402857Y-17090000D01*
X3355238Y-17137619D01*
X2450476Y-18042380D02*
X2926666Y-18042380D01*
X2926666Y-17042380D01*
X2117142Y-18042380D02*
X2117142Y-17042380D01*
X1545714Y-18042380D02*
X1974285Y-17470952D01*
X1545714Y-17042380D02*
X2117142Y-17613809D01*
X18113333Y-16922380D02*
X18113333Y-17636666D01*
X18160952Y-17779523D01*
X18256190Y-17874761D01*
X18399047Y-17922380D01*
X18494285Y-17922380D01*
X17113333Y-17922380D02*
X17684761Y-17922380D01*
X17399047Y-17922380D02*
X17399047Y-16922380D01*
X17494285Y-17065238D01*
X17589523Y-17160476D01*
X17684761Y-17208095D01*
X7657142Y-6183333D02*
X7704761Y-6135714D01*
X7752380Y-5992857D01*
X7752380Y-5897619D01*
X7704761Y-5754761D01*
X7609523Y-5659523D01*
X7514285Y-5611904D01*
X7323809Y-5564285D01*
X7180952Y-5564285D01*
X6990476Y-5611904D01*
X6895238Y-5659523D01*
X6800000Y-5754761D01*
X6752380Y-5897619D01*
X6752380Y-5992857D01*
X6800000Y-6135714D01*
X6847619Y-6183333D01*
X7752380Y-7135714D02*
X7752380Y-6564285D01*
X7752380Y-6850000D02*
X6752380Y-6850000D01*
X6895238Y-6754761D01*
X6990476Y-6659523D01*
X7038095Y-6564285D01*
D11*
X13500000Y-18560000D02*
X13500000Y-19160000D01*
X22860000Y-23580000D02*
X22610000Y-23050000D01*
X16040000Y-18560000D02*
X16040000Y-19160000D01*
X13500000Y-19160000D02*
X11900000Y-19160000D01*
X23660000Y-19160000D02*
X22060000Y-19160000D01*
X22860000Y-23580000D02*
X12700000Y-23580000D01*
X16980000Y-19160000D02*
X16980000Y-18560000D01*
X22610000Y-24580000D02*
X22610000Y-23580000D01*
X12950000Y-23050000D02*
X12700000Y-23580000D01*
X21120000Y-19160000D02*
X19520000Y-19160000D01*
X11320000Y-24580000D02*
X11320000Y-18560000D01*
X22060000Y-19160000D02*
X22060000Y-18560000D01*
X19520000Y-19160000D02*
X19520000Y-18560000D01*
X12950000Y-24580000D02*
X12950000Y-23580000D01*
X12700000Y-23580000D02*
X12700000Y-24580000D01*
X18580000Y-18560000D02*
X18580000Y-19160000D01*
X11320000Y-18560000D02*
X24240000Y-18560000D01*
X22860000Y-24580000D02*
X22860000Y-23580000D01*
X24240000Y-24580000D02*
X11320000Y-24580000D01*
X18580000Y-19160000D02*
X16980000Y-19160000D01*
X22610000Y-23050000D02*
X12950000Y-23050000D01*
X24240000Y-18560000D02*
X24240000Y-24580000D01*
X11900000Y-19160000D02*
X11900000Y-18560000D01*
X24530000Y-19590000D02*
X24530000Y-23590000D01*
X21120000Y-18560000D02*
X21120000Y-19160000D01*
X16040000Y-19160000D02*
X14440000Y-19160000D01*
X14440000Y-19160000D02*
X14440000Y-18560000D01*
X23660000Y-18560000D02*
X23660000Y-19160000D01*
X11580000Y-8370000D02*
X8740000Y-8370000D01*
X8740000Y-8370000D02*
X8740000Y-4330000D01*
X11580000Y-4330000D02*
X11580000Y-8370000D01*
X10160000Y-3640000D02*
X10160000Y-4330000D01*
X8740000Y-4330000D02*
X11580000Y-4330000D01*
X10160000Y-9060000D02*
X10160000Y-8370000D01*
M02*
