%TF.GenerationSoftware,KiCad,Pcbnew,(6.0.0)*%
%TF.CreationDate,2022-02-11T23:13:40+09:00*%
%TF.ProjectId,8x8_eyes,3878385f-6579-4657-932e-6b696361645f,rev?*%
%TF.SameCoordinates,Original*%
%TF.FileFunction,Copper,L1,Top*%
%TF.FilePolarity,Positive*%
%FSLAX46Y46*%
G04 Gerber Fmt 4.6, Leading zero omitted, Abs format (unit mm)*
G04 Created by KiCad (PCBNEW (6.0.0)) date 2022-02-11 23:13:40*
%MOMM*%
%LPD*%
G01*
G04 APERTURE LIST*
G04 Aperture macros list*
%AMRoundRect*
0 Rectangle with rounded corners*
0 $1 Rounding radius*
0 $2 $3 $4 $5 $6 $7 $8 $9 X,Y pos of 4 corners*
0 Add a 4 corners polygon primitive as box body*
4,1,4,$2,$3,$4,$5,$6,$7,$8,$9,$2,$3,0*
0 Add four circle primitives for the rounded corners*
1,1,$1+$1,$2,$3*
1,1,$1+$1,$4,$5*
1,1,$1+$1,$6,$7*
1,1,$1+$1,$8,$9*
0 Add four rect primitives between the rounded corners*
20,1,$1+$1,$2,$3,$4,$5,0*
20,1,$1+$1,$4,$5,$6,$7,0*
20,1,$1+$1,$6,$7,$8,$9,0*
20,1,$1+$1,$8,$9,$2,$3,0*%
G04 Aperture macros list end*
%TA.AperFunction,ComponentPad*%
%ADD10C,2.000000*%
%TD*%
%TA.AperFunction,ComponentPad*%
%ADD11RoundRect,0.250000X-1.050000X0.750000X-1.050000X-0.750000X1.050000X-0.750000X1.050000X0.750000X0*%
%TD*%
%TA.AperFunction,ComponentPad*%
%ADD12O,2.600000X2.000000*%
%TD*%
%TA.AperFunction,ComponentPad*%
%ADD13C,1.600000*%
%TD*%
%TA.AperFunction,ComponentPad*%
%ADD14O,1.600000X1.600000*%
%TD*%
%TA.AperFunction,ComponentPad*%
%ADD15C,1.400000*%
%TD*%
%TA.AperFunction,ComponentPad*%
%ADD16O,1.400000X1.400000*%
%TD*%
%TA.AperFunction,SMDPad,CuDef*%
%ADD17R,1.500000X0.600000*%
%TD*%
%TA.AperFunction,ViaPad*%
%ADD18C,0.800000*%
%TD*%
%TA.AperFunction,Conductor*%
%ADD19C,0.250000*%
%TD*%
G04 APERTURE END LIST*
D10*
X129035000Y-87845000D03*
X131575000Y-87845000D03*
X134115000Y-87845000D03*
X136655000Y-87845000D03*
X139195000Y-87845000D03*
X141735000Y-87845000D03*
X144275000Y-87845000D03*
X146815000Y-87845000D03*
X146815000Y-116345000D03*
X144275000Y-116345000D03*
X141735000Y-116345000D03*
X139195000Y-116345000D03*
X136655000Y-116345000D03*
X134115000Y-116345000D03*
X131575000Y-116345000D03*
X129035000Y-116345000D03*
D11*
X170080000Y-114300000D03*
D12*
X170080000Y-117800000D03*
X170080000Y-121300000D03*
X170080000Y-124800000D03*
X170080000Y-128300000D03*
D13*
X160020000Y-130750000D03*
D14*
X160020000Y-123250000D03*
D15*
X134620000Y-124460000D03*
D16*
X134620000Y-129540000D03*
D15*
X142240000Y-124460000D03*
D16*
X142240000Y-129540000D03*
D15*
X142240000Y-81280000D03*
D16*
X142240000Y-76200000D03*
D15*
X144780000Y-81280000D03*
D16*
X144780000Y-76200000D03*
D17*
X161550000Y-99695000D03*
X161550000Y-100965000D03*
X161550000Y-102235000D03*
X161550000Y-103505000D03*
X161550000Y-104775000D03*
X161550000Y-106045000D03*
X161550000Y-107315000D03*
X161550000Y-108585000D03*
X168650000Y-108585000D03*
X168650000Y-107315000D03*
X168650000Y-106045000D03*
X168650000Y-104775000D03*
X168650000Y-103505000D03*
X168650000Y-102235000D03*
X168650000Y-100965000D03*
X168650000Y-99695000D03*
D15*
X137160000Y-81280000D03*
D16*
X137160000Y-76200000D03*
D15*
X137160000Y-129540000D03*
D16*
X137160000Y-124460000D03*
D15*
X129540000Y-76200000D03*
D16*
X129540000Y-81280000D03*
D17*
X161550000Y-84455000D03*
X161550000Y-85725000D03*
X161550000Y-86995000D03*
X161550000Y-88265000D03*
X161550000Y-89535000D03*
X161550000Y-90805000D03*
X161550000Y-92075000D03*
X161550000Y-93345000D03*
X168650000Y-93345000D03*
X168650000Y-92075000D03*
X168650000Y-90805000D03*
X168650000Y-89535000D03*
X168650000Y-88265000D03*
X168650000Y-86995000D03*
X168650000Y-85725000D03*
X168650000Y-84455000D03*
D15*
X132080000Y-81280000D03*
D16*
X132080000Y-76200000D03*
D18*
X151500000Y-127500000D03*
X159500000Y-116500000D03*
X174000000Y-105500000D03*
X174000000Y-93000000D03*
X174000000Y-86500000D03*
X173500000Y-77500000D03*
X165500000Y-73000000D03*
X154000000Y-73000000D03*
X146000000Y-73000000D03*
X130496430Y-72975170D03*
X125426552Y-76982009D03*
X119500000Y-77000000D03*
X129000000Y-128000000D03*
X121000000Y-128000000D03*
X111500000Y-128000000D03*
X111500000Y-120500000D03*
X111500000Y-111500000D03*
X111500000Y-102000000D03*
X111500000Y-93500000D03*
X111500000Y-85000000D03*
X111500000Y-77000000D03*
X157665600Y-85725000D03*
X167292900Y-102235000D03*
X146815000Y-104251300D03*
X159219200Y-88053900D03*
X158390900Y-84095900D03*
D19*
X170080000Y-123474700D02*
X170080000Y-124800000D01*
X169430300Y-122825000D02*
X170080000Y-123474700D01*
X162992700Y-122825000D02*
X169430300Y-122825000D01*
X162087700Y-121920000D02*
X162992700Y-122825000D01*
X161550000Y-85725000D02*
X157665600Y-85725000D01*
X154254000Y-95284000D02*
X146815000Y-87845000D01*
X160474600Y-95284000D02*
X154254000Y-95284000D01*
X166155600Y-100965000D02*
X160474600Y-95284000D01*
X168650000Y-100965000D02*
X166155600Y-100965000D01*
X168650000Y-102235000D02*
X167292900Y-102235000D01*
X168225000Y-104775000D02*
X167574700Y-104775000D01*
X168225000Y-104775000D02*
X168650000Y-104775000D01*
X168650000Y-89535000D02*
X169725300Y-89535000D01*
X168650000Y-104775000D02*
X169725300Y-104775000D01*
X170625900Y-103874400D02*
X169725300Y-104775000D01*
X170625900Y-90435600D02*
X170625900Y-103874400D01*
X169725300Y-89535000D02*
X170625900Y-90435600D01*
X166674100Y-110894100D02*
X170080000Y-114300000D01*
X166674100Y-105675600D02*
X166674100Y-110894100D01*
X167574700Y-104775000D02*
X166674100Y-105675600D01*
X170080000Y-117800000D02*
X170080000Y-116474700D01*
X168650000Y-90805000D02*
X169725300Y-90805000D01*
X168650000Y-106045000D02*
X167574700Y-106045000D01*
X169620200Y-116474700D02*
X170080000Y-116474700D01*
X166223800Y-113078300D02*
X169620200Y-116474700D01*
X166223800Y-105413000D02*
X166223800Y-113078300D01*
X167506500Y-104130300D02*
X166223800Y-105413000D01*
X169534800Y-104130300D02*
X167506500Y-104130300D01*
X170175600Y-103489500D02*
X169534800Y-104130300D01*
X170175600Y-91255300D02*
X170175600Y-103489500D01*
X169725300Y-90805000D02*
X170175600Y-91255300D01*
X170581700Y-116474700D02*
X170080000Y-116474700D01*
X171710200Y-115346200D02*
X170581700Y-116474700D01*
X171710200Y-113314600D02*
X171710200Y-115346200D01*
X168727300Y-110331700D02*
X171710200Y-113314600D01*
X168170000Y-110331700D02*
X168727300Y-110331700D01*
X167124400Y-109286100D02*
X168170000Y-110331700D01*
X167124400Y-106495300D02*
X167124400Y-109286100D01*
X167574700Y-106045000D02*
X167124400Y-106495300D01*
X167574700Y-99695000D02*
X167574700Y-92075000D01*
X168650000Y-99695000D02*
X167574700Y-99695000D01*
X168650000Y-92075000D02*
X167574700Y-92075000D01*
X168650000Y-84455000D02*
X169725300Y-84455000D01*
X169727300Y-88781600D02*
X169676500Y-88832400D01*
X169727300Y-87792200D02*
X169727300Y-88781600D01*
X169565100Y-87630000D02*
X169727300Y-87792200D01*
X167709900Y-87630000D02*
X169565100Y-87630000D01*
X167574700Y-87494800D02*
X167709900Y-87630000D01*
X167574700Y-86548400D02*
X167574700Y-87494800D01*
X167772700Y-86350400D02*
X167574700Y-86548400D01*
X169591000Y-86350400D02*
X167772700Y-86350400D01*
X169725300Y-86216100D02*
X169591000Y-86350400D01*
X169725300Y-84455000D02*
X169725300Y-86216100D01*
X167574700Y-89032500D02*
X167574700Y-92075000D01*
X167716800Y-88890400D02*
X167574700Y-89032500D01*
X169618500Y-88890400D02*
X167716800Y-88890400D01*
X169676500Y-88832400D02*
X169618500Y-88890400D01*
X162470000Y-128300000D02*
X170080000Y-128300000D01*
X160020000Y-130750000D02*
X162470000Y-128300000D01*
X171076200Y-105964100D02*
X169725300Y-107315000D01*
X171076200Y-90232100D02*
X171076200Y-105964100D01*
X169676500Y-88832400D02*
X171076200Y-90232100D01*
X169075100Y-107315000D02*
X169725300Y-107315000D01*
X169075100Y-107315000D02*
X168650000Y-107315000D01*
X172186600Y-124868100D02*
X170080000Y-126974700D01*
X172186600Y-113143000D02*
X172186600Y-124868100D01*
X168765700Y-109722100D02*
X172186600Y-113143000D01*
X168276800Y-109722100D02*
X168765700Y-109722100D01*
X167574700Y-109020000D02*
X168276800Y-109722100D01*
X167574700Y-107315000D02*
X167574700Y-109020000D01*
X170080000Y-128300000D02*
X170080000Y-126974700D01*
X168650000Y-107315000D02*
X167574700Y-107315000D01*
X171566400Y-106743900D02*
X169725300Y-108585000D01*
X171566400Y-88836100D02*
X171566400Y-106743900D01*
X169725300Y-86995000D02*
X171566400Y-88836100D01*
X168650000Y-86995000D02*
X169725300Y-86995000D01*
X168650000Y-108585000D02*
X169725300Y-108585000D01*
X161550000Y-93345000D02*
X162625300Y-93345000D01*
X161550000Y-108585000D02*
X162087700Y-108585000D01*
X162087700Y-108585000D02*
X162625300Y-108585000D01*
X162087700Y-108585000D02*
X162087700Y-122825000D01*
X161570300Y-122825000D02*
X162087700Y-122825000D01*
X161145300Y-123250000D02*
X161570300Y-122825000D01*
X160020000Y-123250000D02*
X161145300Y-123250000D01*
X164681700Y-106528600D02*
X162625300Y-108585000D01*
X164681700Y-106238800D02*
X164681700Y-106528600D01*
X167415500Y-103505000D02*
X164681700Y-106238800D01*
X167687300Y-103505000D02*
X167415500Y-103505000D01*
X168168700Y-103505000D02*
X167687300Y-103505000D01*
X168168700Y-103505000D02*
X168650000Y-103505000D01*
X168650000Y-88265000D02*
X167574700Y-88265000D01*
X163060300Y-93345000D02*
X162625300Y-93345000D01*
X163060300Y-92779400D02*
X163060300Y-93345000D01*
X167574700Y-88265000D02*
X163060300Y-92779400D01*
X168955600Y-103505000D02*
X168650000Y-103505000D01*
X169725300Y-102735300D02*
X168955600Y-103505000D01*
X169725300Y-100465200D02*
X169725300Y-102735300D01*
X169590100Y-100330000D02*
X169725300Y-100465200D01*
X167561800Y-100330000D02*
X169590100Y-100330000D01*
X163060300Y-95828500D02*
X167561800Y-100330000D01*
X163060300Y-93345000D02*
X163060300Y-95828500D01*
X148225000Y-107315000D02*
X161550000Y-107315000D01*
X139195000Y-116345000D02*
X148225000Y-107315000D01*
X141875000Y-106045000D02*
X161550000Y-106045000D01*
X131575000Y-116345000D02*
X141875000Y-106045000D01*
X152660400Y-107959600D02*
X144275000Y-116345000D01*
X162483200Y-107959600D02*
X152660400Y-107959600D01*
X162625300Y-107817500D02*
X162483200Y-107959600D01*
X162625300Y-104775000D02*
X162625300Y-107817500D01*
X161550000Y-104775000D02*
X162625300Y-104775000D01*
X141875000Y-103505000D02*
X129035000Y-116345000D01*
X161550000Y-103505000D02*
X141875000Y-103505000D01*
X147084400Y-95734400D02*
X139195000Y-87845000D01*
X159099500Y-95734400D02*
X147084400Y-95734400D01*
X162625300Y-99260200D02*
X159099500Y-95734400D01*
X162625300Y-100206900D02*
X162625300Y-99260200D01*
X162492600Y-100339600D02*
X162625300Y-100206900D01*
X160665300Y-100339600D02*
X162492600Y-100339600D01*
X160474700Y-100530200D02*
X160665300Y-100339600D01*
X160474700Y-102235000D02*
X160474700Y-100530200D01*
X161550000Y-102235000D02*
X160474700Y-102235000D01*
X161550000Y-100965000D02*
X162625300Y-100965000D01*
X146935900Y-104130400D02*
X146815000Y-104251300D01*
X162505600Y-104130400D02*
X146935900Y-104130400D01*
X162625300Y-104010700D02*
X162505600Y-104130400D01*
X162625300Y-100965000D02*
X162625300Y-104010700D01*
X145965000Y-99695000D02*
X134115000Y-87845000D01*
X161550000Y-99695000D02*
X145965000Y-99695000D01*
X130810000Y-77470000D02*
X129540000Y-76200000D01*
X130810000Y-81504600D02*
X130810000Y-77470000D01*
X135549800Y-86244400D02*
X130810000Y-81504600D01*
X148128300Y-86244400D02*
X135549800Y-86244400D01*
X153958900Y-92075000D02*
X148128300Y-86244400D01*
X161550000Y-92075000D02*
X153958900Y-92075000D01*
X159072000Y-90805000D02*
X161550000Y-90805000D01*
X152763300Y-84496300D02*
X159072000Y-90805000D01*
X135296300Y-84496300D02*
X152763300Y-84496300D01*
X132080000Y-81280000D02*
X135296300Y-84496300D01*
X159037700Y-89535000D02*
X161550000Y-89535000D01*
X153548600Y-84045900D02*
X159037700Y-89535000D01*
X145005900Y-84045900D02*
X153548600Y-84045900D01*
X142240000Y-81280000D02*
X145005900Y-84045900D01*
X151738100Y-81280000D02*
X144780000Y-81280000D01*
X157453100Y-86995000D02*
X151738100Y-81280000D01*
X161550000Y-86995000D02*
X157453100Y-86995000D01*
X160263600Y-88053900D02*
X160474700Y-88265000D01*
X159219200Y-88053900D02*
X160263600Y-88053900D01*
X161550000Y-88265000D02*
X160474700Y-88265000D01*
X161550000Y-84455000D02*
X160474700Y-84455000D01*
X160115600Y-84095900D02*
X158390900Y-84095900D01*
X160474700Y-84455000D02*
X160115600Y-84095900D01*
X138191900Y-80248100D02*
X137160000Y-81280000D01*
X159843500Y-80248100D02*
X138191900Y-80248100D01*
X165320400Y-85725000D02*
X159843500Y-80248100D01*
X168650000Y-85725000D02*
X165320400Y-85725000D01*
%TA.AperFunction,Conductor*%
G36*
X177234121Y-71648002D02*
G01*
X177280614Y-71701658D01*
X177292000Y-71754000D01*
X177292000Y-97499492D01*
X177291996Y-97500500D01*
X177029552Y-130306067D01*
X177001000Y-133875008D01*
X176980454Y-133942967D01*
X176926428Y-133989029D01*
X176875004Y-134000000D01*
X107624996Y-134000000D01*
X107556875Y-133979998D01*
X107510382Y-133926342D01*
X107499000Y-133875008D01*
X107470449Y-130306067D01*
X107464320Y-129540000D01*
X133406884Y-129540000D01*
X133425314Y-129750655D01*
X133426738Y-129755968D01*
X133426738Y-129755970D01*
X133440814Y-129808500D01*
X133480044Y-129954910D01*
X133482366Y-129959891D01*
X133482367Y-129959892D01*
X133544554Y-130093251D01*
X133569411Y-130146558D01*
X133690699Y-130319776D01*
X133840224Y-130469301D01*
X134013442Y-130590589D01*
X134018420Y-130592910D01*
X134018423Y-130592912D01*
X134200108Y-130677633D01*
X134205090Y-130679956D01*
X134210398Y-130681378D01*
X134210400Y-130681379D01*
X134404030Y-130733262D01*
X134404032Y-130733262D01*
X134409345Y-130734686D01*
X134620000Y-130753116D01*
X134830655Y-130734686D01*
X134835968Y-130733262D01*
X134835970Y-130733262D01*
X135029600Y-130681379D01*
X135029602Y-130681378D01*
X135034910Y-130679956D01*
X135039892Y-130677633D01*
X135221577Y-130592912D01*
X135221580Y-130592910D01*
X135226558Y-130590589D01*
X135399776Y-130469301D01*
X135549301Y-130319776D01*
X135670589Y-130146558D01*
X135695447Y-130093251D01*
X135757633Y-129959892D01*
X135757634Y-129959891D01*
X135759956Y-129954910D01*
X135768293Y-129923796D01*
X135805245Y-129863173D01*
X135869106Y-129832152D01*
X135939600Y-129840580D01*
X135994347Y-129885783D01*
X136011707Y-129923796D01*
X136020044Y-129954910D01*
X136022366Y-129959891D01*
X136022367Y-129959892D01*
X136084554Y-130093251D01*
X136109411Y-130146558D01*
X136230699Y-130319776D01*
X136380224Y-130469301D01*
X136553442Y-130590589D01*
X136558420Y-130592910D01*
X136558423Y-130592912D01*
X136740108Y-130677633D01*
X136745090Y-130679956D01*
X136750398Y-130681378D01*
X136750400Y-130681379D01*
X136944030Y-130733262D01*
X136944032Y-130733262D01*
X136949345Y-130734686D01*
X137160000Y-130753116D01*
X137370655Y-130734686D01*
X137375968Y-130733262D01*
X137375970Y-130733262D01*
X137569600Y-130681379D01*
X137569602Y-130681378D01*
X137574910Y-130679956D01*
X137579892Y-130677633D01*
X137761577Y-130592912D01*
X137761580Y-130592910D01*
X137766558Y-130590589D01*
X137939776Y-130469301D01*
X138089301Y-130319776D01*
X138210589Y-130146558D01*
X138235447Y-130093251D01*
X138297633Y-129959892D01*
X138297634Y-129959891D01*
X138299956Y-129954910D01*
X138339187Y-129808500D01*
X138353262Y-129755970D01*
X138353262Y-129755968D01*
X138354686Y-129750655D01*
X138373116Y-129540000D01*
X141026884Y-129540000D01*
X141045314Y-129750655D01*
X141046738Y-129755968D01*
X141046738Y-129755970D01*
X141060814Y-129808500D01*
X141100044Y-129954910D01*
X141102366Y-129959891D01*
X141102367Y-129959892D01*
X141164554Y-130093251D01*
X141189411Y-130146558D01*
X141310699Y-130319776D01*
X141460224Y-130469301D01*
X141633442Y-130590589D01*
X141638420Y-130592910D01*
X141638423Y-130592912D01*
X141820108Y-130677633D01*
X141825090Y-130679956D01*
X141830398Y-130681378D01*
X141830400Y-130681379D01*
X142024030Y-130733262D01*
X142024032Y-130733262D01*
X142029345Y-130734686D01*
X142240000Y-130753116D01*
X142450655Y-130734686D01*
X142455968Y-130733262D01*
X142455970Y-130733262D01*
X142649600Y-130681379D01*
X142649602Y-130681378D01*
X142654910Y-130679956D01*
X142659892Y-130677633D01*
X142841577Y-130592912D01*
X142841580Y-130592910D01*
X142846558Y-130590589D01*
X143019776Y-130469301D01*
X143169301Y-130319776D01*
X143290589Y-130146558D01*
X143315447Y-130093251D01*
X143377633Y-129959892D01*
X143377634Y-129959891D01*
X143379956Y-129954910D01*
X143419187Y-129808500D01*
X143433262Y-129755970D01*
X143433262Y-129755968D01*
X143434686Y-129750655D01*
X143453116Y-129540000D01*
X143434686Y-129329345D01*
X143391354Y-129167628D01*
X143381379Y-129130400D01*
X143381378Y-129130398D01*
X143379956Y-129125090D01*
X143343792Y-129047536D01*
X143292912Y-128938423D01*
X143292910Y-128938420D01*
X143290589Y-128933442D01*
X143169301Y-128760224D01*
X143019776Y-128610699D01*
X142846558Y-128489411D01*
X142841580Y-128487090D01*
X142841577Y-128487088D01*
X142659892Y-128402367D01*
X142659891Y-128402366D01*
X142654910Y-128400044D01*
X142649602Y-128398622D01*
X142649600Y-128398621D01*
X142455970Y-128346738D01*
X142455968Y-128346738D01*
X142450655Y-128345314D01*
X142240000Y-128326884D01*
X142029345Y-128345314D01*
X142024032Y-128346738D01*
X142024030Y-128346738D01*
X141830400Y-128398621D01*
X141830398Y-128398622D01*
X141825090Y-128400044D01*
X141820109Y-128402366D01*
X141820108Y-128402367D01*
X141638423Y-128487088D01*
X141638420Y-128487090D01*
X141633442Y-128489411D01*
X141460224Y-128610699D01*
X141310699Y-128760224D01*
X141189411Y-128933442D01*
X141187090Y-128938420D01*
X141187088Y-128938423D01*
X141136208Y-129047536D01*
X141100044Y-129125090D01*
X141098622Y-129130398D01*
X141098621Y-129130400D01*
X141088646Y-129167628D01*
X141045314Y-129329345D01*
X141026884Y-129540000D01*
X138373116Y-129540000D01*
X138354686Y-129329345D01*
X138311354Y-129167628D01*
X138301379Y-129130400D01*
X138301378Y-129130398D01*
X138299956Y-129125090D01*
X138263792Y-129047536D01*
X138212912Y-128938423D01*
X138212910Y-128938420D01*
X138210589Y-128933442D01*
X138089301Y-128760224D01*
X137939776Y-128610699D01*
X137766558Y-128489411D01*
X137761580Y-128487090D01*
X137761577Y-128487088D01*
X137579892Y-128402367D01*
X137579891Y-128402366D01*
X137574910Y-128400044D01*
X137569602Y-128398622D01*
X137569600Y-128398621D01*
X137375970Y-128346738D01*
X137375968Y-128346738D01*
X137370655Y-128345314D01*
X137160000Y-128326884D01*
X136949345Y-128345314D01*
X136944032Y-128346738D01*
X136944030Y-128346738D01*
X136750400Y-128398621D01*
X136750398Y-128398622D01*
X136745090Y-128400044D01*
X136740109Y-128402366D01*
X136740108Y-128402367D01*
X136558423Y-128487088D01*
X136558420Y-128487090D01*
X136553442Y-128489411D01*
X136380224Y-128610699D01*
X136230699Y-128760224D01*
X136109411Y-128933442D01*
X136107090Y-128938420D01*
X136107088Y-128938423D01*
X136056208Y-129047536D01*
X136020044Y-129125090D01*
X136018622Y-129130398D01*
X136018621Y-129130400D01*
X136011707Y-129156204D01*
X135974755Y-129216827D01*
X135910894Y-129247848D01*
X135840400Y-129239420D01*
X135785653Y-129194217D01*
X135768293Y-129156204D01*
X135761379Y-129130400D01*
X135761378Y-129130398D01*
X135759956Y-129125090D01*
X135723792Y-129047536D01*
X135672912Y-128938423D01*
X135672910Y-128938420D01*
X135670589Y-128933442D01*
X135549301Y-128760224D01*
X135399776Y-128610699D01*
X135226558Y-128489411D01*
X135221580Y-128487090D01*
X135221577Y-128487088D01*
X135039892Y-128402367D01*
X135039891Y-128402366D01*
X135034910Y-128400044D01*
X135029602Y-128398622D01*
X135029600Y-128398621D01*
X134835970Y-128346738D01*
X134835968Y-128346738D01*
X134830655Y-128345314D01*
X134620000Y-128326884D01*
X134409345Y-128345314D01*
X134404032Y-128346738D01*
X134404030Y-128346738D01*
X134210400Y-128398621D01*
X134210398Y-128398622D01*
X134205090Y-128400044D01*
X134200109Y-128402366D01*
X134200108Y-128402367D01*
X134018423Y-128487088D01*
X134018420Y-128487090D01*
X134013442Y-128489411D01*
X133840224Y-128610699D01*
X133690699Y-128760224D01*
X133569411Y-128933442D01*
X133567090Y-128938420D01*
X133567088Y-128938423D01*
X133516208Y-129047536D01*
X133480044Y-129125090D01*
X133478622Y-129130398D01*
X133478621Y-129130400D01*
X133468646Y-129167628D01*
X133425314Y-129329345D01*
X133406884Y-129540000D01*
X107464320Y-129540000D01*
X107423680Y-124460000D01*
X133406884Y-124460000D01*
X133425314Y-124670655D01*
X133426738Y-124675968D01*
X133426738Y-124675970D01*
X133468622Y-124832281D01*
X133480044Y-124874910D01*
X133482366Y-124879891D01*
X133482367Y-124879892D01*
X133565484Y-125058136D01*
X133569411Y-125066558D01*
X133690699Y-125239776D01*
X133840224Y-125389301D01*
X134013442Y-125510589D01*
X134018420Y-125512910D01*
X134018423Y-125512912D01*
X134200108Y-125597633D01*
X134205090Y-125599956D01*
X134210398Y-125601378D01*
X134210400Y-125601379D01*
X134404030Y-125653262D01*
X134404032Y-125653262D01*
X134409345Y-125654686D01*
X134620000Y-125673116D01*
X134830655Y-125654686D01*
X134835968Y-125653262D01*
X134835970Y-125653262D01*
X135029600Y-125601379D01*
X135029602Y-125601378D01*
X135034910Y-125599956D01*
X135039892Y-125597633D01*
X135221577Y-125512912D01*
X135221580Y-125512910D01*
X135226558Y-125510589D01*
X135399776Y-125389301D01*
X135549301Y-125239776D01*
X135670589Y-125066558D01*
X135674517Y-125058136D01*
X135757633Y-124879892D01*
X135757634Y-124879891D01*
X135759956Y-124874910D01*
X135768293Y-124843796D01*
X135805245Y-124783173D01*
X135869106Y-124752152D01*
X135939600Y-124760580D01*
X135994347Y-124805783D01*
X136011707Y-124843796D01*
X136020044Y-124874910D01*
X136022366Y-124879891D01*
X136022367Y-124879892D01*
X136105484Y-125058136D01*
X136109411Y-125066558D01*
X136230699Y-125239776D01*
X136380224Y-125389301D01*
X136553442Y-125510589D01*
X136558420Y-125512910D01*
X136558423Y-125512912D01*
X136740108Y-125597633D01*
X136745090Y-125599956D01*
X136750398Y-125601378D01*
X136750400Y-125601379D01*
X136944030Y-125653262D01*
X136944032Y-125653262D01*
X136949345Y-125654686D01*
X137160000Y-125673116D01*
X137370655Y-125654686D01*
X137375968Y-125653262D01*
X137375970Y-125653262D01*
X137569600Y-125601379D01*
X137569602Y-125601378D01*
X137574910Y-125599956D01*
X137579892Y-125597633D01*
X137761577Y-125512912D01*
X137761580Y-125512910D01*
X137766558Y-125510589D01*
X137939776Y-125389301D01*
X138089301Y-125239776D01*
X138210589Y-125066558D01*
X138214517Y-125058136D01*
X138297633Y-124879892D01*
X138297634Y-124879891D01*
X138299956Y-124874910D01*
X138311379Y-124832281D01*
X138353262Y-124675970D01*
X138353262Y-124675968D01*
X138354686Y-124670655D01*
X138373116Y-124460000D01*
X141026884Y-124460000D01*
X141045314Y-124670655D01*
X141046738Y-124675968D01*
X141046738Y-124675970D01*
X141088622Y-124832281D01*
X141100044Y-124874910D01*
X141102366Y-124879891D01*
X141102367Y-124879892D01*
X141185484Y-125058136D01*
X141189411Y-125066558D01*
X141310699Y-125239776D01*
X141460224Y-125389301D01*
X141633442Y-125510589D01*
X141638420Y-125512910D01*
X141638423Y-125512912D01*
X141820108Y-125597633D01*
X141825090Y-125599956D01*
X141830398Y-125601378D01*
X141830400Y-125601379D01*
X142024030Y-125653262D01*
X142024032Y-125653262D01*
X142029345Y-125654686D01*
X142240000Y-125673116D01*
X142450655Y-125654686D01*
X142455968Y-125653262D01*
X142455970Y-125653262D01*
X142649600Y-125601379D01*
X142649602Y-125601378D01*
X142654910Y-125599956D01*
X142659892Y-125597633D01*
X142841577Y-125512912D01*
X142841580Y-125512910D01*
X142846558Y-125510589D01*
X143019776Y-125389301D01*
X143169301Y-125239776D01*
X143290589Y-125066558D01*
X143294517Y-125058136D01*
X143377633Y-124879892D01*
X143377634Y-124879891D01*
X143379956Y-124874910D01*
X143391379Y-124832281D01*
X143433262Y-124675970D01*
X143433262Y-124675968D01*
X143434686Y-124670655D01*
X143453116Y-124460000D01*
X143434686Y-124249345D01*
X143379956Y-124045090D01*
X143290589Y-123853442D01*
X143169301Y-123680224D01*
X143019776Y-123530699D01*
X142999529Y-123516522D01*
X158737273Y-123516522D01*
X158784764Y-123693761D01*
X158788510Y-123704053D01*
X158880586Y-123901511D01*
X158886069Y-123911007D01*
X159011028Y-124089467D01*
X159018084Y-124097875D01*
X159172125Y-124251916D01*
X159180533Y-124258972D01*
X159358993Y-124383931D01*
X159368489Y-124389414D01*
X159565947Y-124481490D01*
X159576239Y-124485236D01*
X159748503Y-124531394D01*
X159762599Y-124531058D01*
X159766000Y-124523116D01*
X159766000Y-124517967D01*
X160274000Y-124517967D01*
X160277973Y-124531498D01*
X160286522Y-124532727D01*
X160303178Y-124528264D01*
X168296179Y-124528264D01*
X168297302Y-124542325D01*
X168307410Y-124546000D01*
X169807885Y-124546000D01*
X169823124Y-124541525D01*
X169824329Y-124540135D01*
X169826000Y-124532452D01*
X169826000Y-123310115D01*
X169821525Y-123294876D01*
X169820135Y-123293671D01*
X169812452Y-123292000D01*
X169721544Y-123292000D01*
X169716512Y-123292202D01*
X169543157Y-123306150D01*
X169533204Y-123307762D01*
X169307367Y-123363233D01*
X169297797Y-123366416D01*
X169083735Y-123457280D01*
X169074793Y-123461955D01*
X168878013Y-123585874D01*
X168869940Y-123591914D01*
X168695500Y-123745703D01*
X168688496Y-123752956D01*
X168540890Y-123932654D01*
X168535134Y-123940936D01*
X168418159Y-124141919D01*
X168413797Y-124151024D01*
X168330463Y-124368115D01*
X168327612Y-124377804D01*
X168296179Y-124528264D01*
X160303178Y-124528264D01*
X160463761Y-124485236D01*
X160474053Y-124481490D01*
X160671511Y-124389414D01*
X160681007Y-124383931D01*
X160859467Y-124258972D01*
X160867875Y-124251916D01*
X161021916Y-124097875D01*
X161028972Y-124089467D01*
X161153931Y-123911007D01*
X161159414Y-123901511D01*
X161251490Y-123704053D01*
X161255236Y-123693761D01*
X161301394Y-123521497D01*
X161301058Y-123507401D01*
X161293116Y-123504000D01*
X160292115Y-123504000D01*
X160276876Y-123508475D01*
X160275671Y-123509865D01*
X160274000Y-123517548D01*
X160274000Y-124517967D01*
X159766000Y-124517967D01*
X159766000Y-123522115D01*
X159761525Y-123506876D01*
X159760135Y-123505671D01*
X159752452Y-123504000D01*
X158752033Y-123504000D01*
X158738502Y-123507973D01*
X158737273Y-123516522D01*
X142999529Y-123516522D01*
X142846558Y-123409411D01*
X142841580Y-123407090D01*
X142841577Y-123407088D01*
X142659892Y-123322367D01*
X142659891Y-123322366D01*
X142654910Y-123320044D01*
X142649602Y-123318622D01*
X142649600Y-123318621D01*
X142455970Y-123266738D01*
X142455968Y-123266738D01*
X142450655Y-123265314D01*
X142240000Y-123246884D01*
X142029345Y-123265314D01*
X142024032Y-123266738D01*
X142024030Y-123266738D01*
X141830400Y-123318621D01*
X141830398Y-123318622D01*
X141825090Y-123320044D01*
X141820109Y-123322366D01*
X141820108Y-123322367D01*
X141638423Y-123407088D01*
X141638420Y-123407090D01*
X141633442Y-123409411D01*
X141460224Y-123530699D01*
X141310699Y-123680224D01*
X141189411Y-123853442D01*
X141100044Y-124045090D01*
X141045314Y-124249345D01*
X141026884Y-124460000D01*
X138373116Y-124460000D01*
X138354686Y-124249345D01*
X138299956Y-124045090D01*
X138210589Y-123853442D01*
X138089301Y-123680224D01*
X137939776Y-123530699D01*
X137766558Y-123409411D01*
X137761580Y-123407090D01*
X137761577Y-123407088D01*
X137579892Y-123322367D01*
X137579891Y-123322366D01*
X137574910Y-123320044D01*
X137569602Y-123318622D01*
X137569600Y-123318621D01*
X137375970Y-123266738D01*
X137375968Y-123266738D01*
X137370655Y-123265314D01*
X137160000Y-123246884D01*
X136949345Y-123265314D01*
X136944032Y-123266738D01*
X136944030Y-123266738D01*
X136750400Y-123318621D01*
X136750398Y-123318622D01*
X136745090Y-123320044D01*
X136740109Y-123322366D01*
X136740108Y-123322367D01*
X136558423Y-123407088D01*
X136558420Y-123407090D01*
X136553442Y-123409411D01*
X136380224Y-123530699D01*
X136230699Y-123680224D01*
X136109411Y-123853442D01*
X136020044Y-124045090D01*
X136018622Y-124050398D01*
X136018621Y-124050400D01*
X136011707Y-124076204D01*
X135974755Y-124136827D01*
X135910894Y-124167848D01*
X135840400Y-124159420D01*
X135785653Y-124114217D01*
X135768293Y-124076204D01*
X135761379Y-124050400D01*
X135761378Y-124050398D01*
X135759956Y-124045090D01*
X135670589Y-123853442D01*
X135549301Y-123680224D01*
X135399776Y-123530699D01*
X135226558Y-123409411D01*
X135221580Y-123407090D01*
X135221577Y-123407088D01*
X135039892Y-123322367D01*
X135039891Y-123322366D01*
X135034910Y-123320044D01*
X135029602Y-123318622D01*
X135029600Y-123318621D01*
X134835970Y-123266738D01*
X134835968Y-123266738D01*
X134830655Y-123265314D01*
X134620000Y-123246884D01*
X134409345Y-123265314D01*
X134404032Y-123266738D01*
X134404030Y-123266738D01*
X134210400Y-123318621D01*
X134210398Y-123318622D01*
X134205090Y-123320044D01*
X134200109Y-123322366D01*
X134200108Y-123322367D01*
X134018423Y-123407088D01*
X134018420Y-123407090D01*
X134013442Y-123409411D01*
X133840224Y-123530699D01*
X133690699Y-123680224D01*
X133569411Y-123853442D01*
X133480044Y-124045090D01*
X133425314Y-124249345D01*
X133406884Y-124460000D01*
X107423680Y-124460000D01*
X107411828Y-122978503D01*
X158738606Y-122978503D01*
X158738942Y-122992599D01*
X158746884Y-122996000D01*
X159747885Y-122996000D01*
X159763124Y-122991525D01*
X159764329Y-122990135D01*
X159766000Y-122982452D01*
X159766000Y-122977885D01*
X160274000Y-122977885D01*
X160278475Y-122993124D01*
X160279865Y-122994329D01*
X160287548Y-122996000D01*
X161287967Y-122996000D01*
X161301498Y-122992027D01*
X161302727Y-122983478D01*
X161255236Y-122806239D01*
X161251490Y-122795947D01*
X161159414Y-122598489D01*
X161153931Y-122588993D01*
X161028972Y-122410533D01*
X161021916Y-122402125D01*
X160867875Y-122248084D01*
X160859467Y-122241028D01*
X160681007Y-122116069D01*
X160671511Y-122110586D01*
X160474053Y-122018510D01*
X160463761Y-122014764D01*
X160291497Y-121968606D01*
X160277401Y-121968942D01*
X160274000Y-121976884D01*
X160274000Y-122977885D01*
X159766000Y-122977885D01*
X159766000Y-121982033D01*
X159762027Y-121968502D01*
X159753478Y-121967273D01*
X159576239Y-122014764D01*
X159565947Y-122018510D01*
X159368489Y-122110586D01*
X159358993Y-122116069D01*
X159180533Y-122241028D01*
X159172125Y-122248084D01*
X159018084Y-122402125D01*
X159011028Y-122410533D01*
X158886069Y-122588993D01*
X158880586Y-122598489D01*
X158788510Y-122795947D01*
X158784764Y-122806239D01*
X158738606Y-122978503D01*
X107411828Y-122978503D01*
X107358760Y-116345000D01*
X127521835Y-116345000D01*
X127540465Y-116581711D01*
X127541619Y-116586518D01*
X127541620Y-116586524D01*
X127562938Y-116675319D01*
X127595895Y-116812594D01*
X127597788Y-116817165D01*
X127597789Y-116817167D01*
X127648936Y-116940646D01*
X127686760Y-117031963D01*
X127689346Y-117036183D01*
X127808241Y-117230202D01*
X127808245Y-117230208D01*
X127810824Y-117234416D01*
X127965031Y-117414969D01*
X128145584Y-117569176D01*
X128149792Y-117571755D01*
X128149798Y-117571759D01*
X128220970Y-117615373D01*
X128348037Y-117693240D01*
X128352607Y-117695133D01*
X128352611Y-117695135D01*
X128562833Y-117782211D01*
X128567406Y-117784105D01*
X128647609Y-117803360D01*
X128793476Y-117838380D01*
X128793482Y-117838381D01*
X128798289Y-117839535D01*
X129035000Y-117858165D01*
X129271711Y-117839535D01*
X129276518Y-117838381D01*
X129276524Y-117838380D01*
X129422391Y-117803360D01*
X129502594Y-117784105D01*
X129507167Y-117782211D01*
X129717389Y-117695135D01*
X129717393Y-117695133D01*
X129721963Y-117693240D01*
X129849030Y-117615373D01*
X129920202Y-117571759D01*
X129920208Y-117571755D01*
X129924416Y-117569176D01*
X130104969Y-117414969D01*
X130108177Y-117411213D01*
X130108182Y-117411208D01*
X130209189Y-117292944D01*
X130268639Y-117254134D01*
X130339634Y-117253628D01*
X130400811Y-117292944D01*
X130501818Y-117411208D01*
X130501823Y-117411213D01*
X130505031Y-117414969D01*
X130685584Y-117569176D01*
X130689792Y-117571755D01*
X130689798Y-117571759D01*
X130760970Y-117615373D01*
X130888037Y-117693240D01*
X130892607Y-117695133D01*
X130892611Y-117695135D01*
X131102833Y-117782211D01*
X131107406Y-117784105D01*
X131187609Y-117803360D01*
X131333476Y-117838380D01*
X131333482Y-117838381D01*
X131338289Y-117839535D01*
X131575000Y-117858165D01*
X131811711Y-117839535D01*
X131816518Y-117838381D01*
X131816524Y-117838380D01*
X131962391Y-117803360D01*
X132042594Y-117784105D01*
X132047167Y-117782211D01*
X132257389Y-117695135D01*
X132257393Y-117695133D01*
X132261963Y-117693240D01*
X132389030Y-117615373D01*
X132460202Y-117571759D01*
X132460208Y-117571755D01*
X132464416Y-117569176D01*
X132644969Y-117414969D01*
X132648177Y-117411213D01*
X132648182Y-117411208D01*
X132749189Y-117292944D01*
X132808639Y-117254134D01*
X132879634Y-117253628D01*
X132940811Y-117292944D01*
X133041818Y-117411208D01*
X133041823Y-117411213D01*
X133045031Y-117414969D01*
X133225584Y-117569176D01*
X133229792Y-117571755D01*
X133229798Y-117571759D01*
X133300970Y-117615373D01*
X133428037Y-117693240D01*
X133432607Y-117695133D01*
X133432611Y-117695135D01*
X133642833Y-117782211D01*
X133647406Y-117784105D01*
X133727609Y-117803360D01*
X133873476Y-117838380D01*
X133873482Y-117838381D01*
X133878289Y-117839535D01*
X134115000Y-117858165D01*
X134351711Y-117839535D01*
X134356518Y-117838381D01*
X134356524Y-117838380D01*
X134502391Y-117803360D01*
X134582594Y-117784105D01*
X134587167Y-117782211D01*
X134797389Y-117695135D01*
X134797393Y-117695133D01*
X134801963Y-117693240D01*
X134929030Y-117615373D01*
X135000202Y-117571759D01*
X135000208Y-117571755D01*
X135004416Y-117569176D01*
X135184969Y-117414969D01*
X135188177Y-117411213D01*
X135188182Y-117411208D01*
X135289189Y-117292944D01*
X135348639Y-117254134D01*
X135419634Y-117253628D01*
X135480811Y-117292944D01*
X135581818Y-117411208D01*
X135581823Y-117411213D01*
X135585031Y-117414969D01*
X135765584Y-117569176D01*
X135769792Y-117571755D01*
X135769798Y-117571759D01*
X135840970Y-117615373D01*
X135968037Y-117693240D01*
X135972607Y-117695133D01*
X135972611Y-117695135D01*
X136182833Y-117782211D01*
X136187406Y-117784105D01*
X136267609Y-117803360D01*
X136413476Y-117838380D01*
X136413482Y-117838381D01*
X136418289Y-117839535D01*
X136655000Y-117858165D01*
X136891711Y-117839535D01*
X136896518Y-117838381D01*
X136896524Y-117838380D01*
X137042391Y-117803360D01*
X137122594Y-117784105D01*
X137127167Y-117782211D01*
X137337389Y-117695135D01*
X137337393Y-117695133D01*
X137341963Y-117693240D01*
X137469030Y-117615373D01*
X137540202Y-117571759D01*
X137540208Y-117571755D01*
X137544416Y-117569176D01*
X137724969Y-117414969D01*
X137728177Y-117411213D01*
X137728182Y-117411208D01*
X137829189Y-117292944D01*
X137888639Y-117254134D01*
X137959634Y-117253628D01*
X138020811Y-117292944D01*
X138121818Y-117411208D01*
X138121823Y-117411213D01*
X138125031Y-117414969D01*
X138305584Y-117569176D01*
X138309792Y-117571755D01*
X138309798Y-117571759D01*
X138380970Y-117615373D01*
X138508037Y-117693240D01*
X138512607Y-117695133D01*
X138512611Y-117695135D01*
X138722833Y-117782211D01*
X138727406Y-117784105D01*
X138807609Y-117803360D01*
X138953476Y-117838380D01*
X138953482Y-117838381D01*
X138958289Y-117839535D01*
X139195000Y-117858165D01*
X139431711Y-117839535D01*
X139436518Y-117838381D01*
X139436524Y-117838380D01*
X139582391Y-117803360D01*
X139662594Y-117784105D01*
X139667167Y-117782211D01*
X139877389Y-117695135D01*
X139877393Y-117695133D01*
X139881963Y-117693240D01*
X140009030Y-117615373D01*
X140080202Y-117571759D01*
X140080208Y-117571755D01*
X140084416Y-117569176D01*
X140264969Y-117414969D01*
X140268177Y-117411213D01*
X140268182Y-117411208D01*
X140369189Y-117292944D01*
X140428639Y-117254134D01*
X140499634Y-117253628D01*
X140560811Y-117292944D01*
X140661818Y-117411208D01*
X140661823Y-117411213D01*
X140665031Y-117414969D01*
X140845584Y-117569176D01*
X140849792Y-117571755D01*
X140849798Y-117571759D01*
X140920970Y-117615373D01*
X141048037Y-117693240D01*
X141052607Y-117695133D01*
X141052611Y-117695135D01*
X141262833Y-117782211D01*
X141267406Y-117784105D01*
X141347609Y-117803360D01*
X141493476Y-117838380D01*
X141493482Y-117838381D01*
X141498289Y-117839535D01*
X141735000Y-117858165D01*
X141971711Y-117839535D01*
X141976518Y-117838381D01*
X141976524Y-117838380D01*
X142122391Y-117803360D01*
X142202594Y-117784105D01*
X142207167Y-117782211D01*
X142417389Y-117695135D01*
X142417393Y-117695133D01*
X142421963Y-117693240D01*
X142549030Y-117615373D01*
X142620202Y-117571759D01*
X142620208Y-117571755D01*
X142624416Y-117569176D01*
X142804969Y-117414969D01*
X142808177Y-117411213D01*
X142808182Y-117411208D01*
X142909189Y-117292944D01*
X142968639Y-117254134D01*
X143039634Y-117253628D01*
X143100811Y-117292944D01*
X143201818Y-117411208D01*
X143201823Y-117411213D01*
X143205031Y-117414969D01*
X143385584Y-117569176D01*
X143389792Y-117571755D01*
X143389798Y-117571759D01*
X143460970Y-117615373D01*
X143588037Y-117693240D01*
X143592607Y-117695133D01*
X143592611Y-117695135D01*
X143802833Y-117782211D01*
X143807406Y-117784105D01*
X143887609Y-117803360D01*
X144033476Y-117838380D01*
X144033482Y-117838381D01*
X144038289Y-117839535D01*
X144275000Y-117858165D01*
X144511711Y-117839535D01*
X144516518Y-117838381D01*
X144516524Y-117838380D01*
X144662391Y-117803360D01*
X144742594Y-117784105D01*
X144747167Y-117782211D01*
X144957389Y-117695135D01*
X144957393Y-117695133D01*
X144961963Y-117693240D01*
X145089030Y-117615373D01*
X145160202Y-117571759D01*
X145160208Y-117571755D01*
X145164416Y-117569176D01*
X145344969Y-117414969D01*
X145348177Y-117411213D01*
X145348182Y-117411208D01*
X145449189Y-117292944D01*
X145508639Y-117254134D01*
X145579634Y-117253628D01*
X145640811Y-117292944D01*
X145741818Y-117411208D01*
X145741823Y-117411213D01*
X145745031Y-117414969D01*
X145925584Y-117569176D01*
X145929792Y-117571755D01*
X145929798Y-117571759D01*
X146000970Y-117615373D01*
X146128037Y-117693240D01*
X146132607Y-117695133D01*
X146132611Y-117695135D01*
X146342833Y-117782211D01*
X146347406Y-117784105D01*
X146427609Y-117803360D01*
X146573476Y-117838380D01*
X146573482Y-117838381D01*
X146578289Y-117839535D01*
X146815000Y-117858165D01*
X147051711Y-117839535D01*
X147056518Y-117838381D01*
X147056524Y-117838380D01*
X147202391Y-117803360D01*
X147282594Y-117784105D01*
X147287167Y-117782211D01*
X147497389Y-117695135D01*
X147497393Y-117695133D01*
X147501963Y-117693240D01*
X147629030Y-117615373D01*
X147700202Y-117571759D01*
X147700208Y-117571755D01*
X147704416Y-117569176D01*
X147884969Y-117414969D01*
X148039176Y-117234416D01*
X148041755Y-117230208D01*
X148041759Y-117230202D01*
X148160654Y-117036183D01*
X148163240Y-117031963D01*
X148201065Y-116940646D01*
X148252211Y-116817167D01*
X148252212Y-116817165D01*
X148254105Y-116812594D01*
X148287062Y-116675319D01*
X148308380Y-116586524D01*
X148308381Y-116586518D01*
X148309535Y-116581711D01*
X148328165Y-116345000D01*
X148309535Y-116108289D01*
X148254105Y-115877406D01*
X148239108Y-115841200D01*
X148165135Y-115662611D01*
X148165133Y-115662607D01*
X148163240Y-115658037D01*
X148160654Y-115653817D01*
X148041759Y-115459798D01*
X148041755Y-115459792D01*
X148039176Y-115455584D01*
X147884969Y-115275031D01*
X147704416Y-115120824D01*
X147700208Y-115118245D01*
X147700202Y-115118241D01*
X147506183Y-114999346D01*
X147501963Y-114996760D01*
X147497393Y-114994867D01*
X147497389Y-114994865D01*
X147287167Y-114907789D01*
X147287165Y-114907788D01*
X147282594Y-114905895D01*
X147202391Y-114886640D01*
X147056524Y-114851620D01*
X147056518Y-114851619D01*
X147051711Y-114850465D01*
X146966093Y-114843727D01*
X146899752Y-114818442D01*
X146857612Y-114761304D01*
X146853053Y-114690454D01*
X146886884Y-114629020D01*
X152885899Y-108630005D01*
X152948211Y-108595979D01*
X152974994Y-108593100D01*
X160166001Y-108593100D01*
X160234122Y-108613102D01*
X160280615Y-108666758D01*
X160292001Y-108719100D01*
X160292001Y-108929669D01*
X160292371Y-108936490D01*
X160297895Y-108987352D01*
X160301521Y-109002604D01*
X160346676Y-109123054D01*
X160355214Y-109138649D01*
X160431715Y-109240724D01*
X160444276Y-109253285D01*
X160546351Y-109329786D01*
X160561946Y-109338324D01*
X160682394Y-109383478D01*
X160697649Y-109387105D01*
X160748514Y-109392631D01*
X160755328Y-109393000D01*
X161277885Y-109393000D01*
X161293124Y-109388525D01*
X161294329Y-109387135D01*
X161296000Y-109379452D01*
X161296000Y-108719100D01*
X161316002Y-108650979D01*
X161369658Y-108604486D01*
X161422000Y-108593100D01*
X161783225Y-108593100D01*
X161851346Y-108613102D01*
X161897839Y-108666758D01*
X161907943Y-108737032D01*
X161878449Y-108801612D01*
X161818723Y-108839996D01*
X161806876Y-108843475D01*
X161805671Y-108844865D01*
X161804000Y-108852548D01*
X161804000Y-109374884D01*
X161808475Y-109390123D01*
X161809865Y-109391328D01*
X161817548Y-109392999D01*
X162344669Y-109392999D01*
X162351490Y-109392629D01*
X162402352Y-109387105D01*
X162417604Y-109383479D01*
X162538054Y-109338324D01*
X162553649Y-109329786D01*
X162655724Y-109253285D01*
X162668285Y-109240724D01*
X162744786Y-109138649D01*
X162753324Y-109123054D01*
X162798478Y-109002606D01*
X162802105Y-108987351D01*
X162807631Y-108936486D01*
X162808000Y-108929672D01*
X162808000Y-108857115D01*
X162803525Y-108841876D01*
X162802135Y-108840671D01*
X162794452Y-108839000D01*
X162607319Y-108839000D01*
X162539198Y-108818998D01*
X162492705Y-108765342D01*
X162482601Y-108695068D01*
X162512095Y-108630488D01*
X162571821Y-108592104D01*
X162579447Y-108590387D01*
X162583089Y-108590273D01*
X162602543Y-108584621D01*
X162621900Y-108580613D01*
X162634130Y-108579068D01*
X162634131Y-108579068D01*
X162641997Y-108578074D01*
X162649368Y-108575155D01*
X162649370Y-108575155D01*
X162683112Y-108561796D01*
X162694342Y-108557951D01*
X162729183Y-108547829D01*
X162729184Y-108547829D01*
X162736793Y-108545618D01*
X162743612Y-108541585D01*
X162743617Y-108541583D01*
X162754228Y-108535307D01*
X162771976Y-108526612D01*
X162790817Y-108519152D01*
X162826587Y-108493164D01*
X162836507Y-108486648D01*
X162867735Y-108468180D01*
X162867738Y-108468178D01*
X162874562Y-108464142D01*
X162888886Y-108449818D01*
X162903913Y-108436983D01*
X162920307Y-108425072D01*
X162948492Y-108391002D01*
X162956482Y-108382222D01*
X163017551Y-108321153D01*
X163025837Y-108313613D01*
X163032318Y-108309500D01*
X163078945Y-108259847D01*
X163081699Y-108257006D01*
X163101435Y-108237270D01*
X163103915Y-108234073D01*
X163111620Y-108225051D01*
X163136459Y-108198600D01*
X163141886Y-108192821D01*
X163145705Y-108185875D01*
X163145707Y-108185872D01*
X163151648Y-108175066D01*
X163162499Y-108158547D01*
X163170058Y-108148801D01*
X163174914Y-108142541D01*
X163178059Y-108135272D01*
X163178062Y-108135268D01*
X163192474Y-108101963D01*
X163197691Y-108091313D01*
X163218995Y-108052560D01*
X163224033Y-108032937D01*
X163230437Y-108014234D01*
X163235333Y-108002920D01*
X163235333Y-108002919D01*
X163238481Y-107995645D01*
X163239720Y-107987822D01*
X163239723Y-107987812D01*
X163245399Y-107951976D01*
X163247805Y-107940356D01*
X163256828Y-107905211D01*
X163256828Y-107905210D01*
X163258800Y-107897530D01*
X163258800Y-107877276D01*
X163260351Y-107857565D01*
X163262280Y-107845386D01*
X163263520Y-107837557D01*
X163259359Y-107793538D01*
X163258800Y-107781681D01*
X163258800Y-104846793D01*
X163261032Y-104823184D01*
X163261090Y-104822881D01*
X163261090Y-104822877D01*
X163262575Y-104815094D01*
X163259049Y-104759049D01*
X163258800Y-104751138D01*
X163258800Y-104735144D01*
X163256794Y-104719270D01*
X163256051Y-104711402D01*
X163253023Y-104663263D01*
X163253023Y-104663262D01*
X163252525Y-104655350D01*
X163249979Y-104647513D01*
X163244806Y-104624369D01*
X163244768Y-104624065D01*
X163244767Y-104624060D01*
X163243774Y-104616203D01*
X163240858Y-104608838D01*
X163240857Y-104608834D01*
X163223101Y-104563989D01*
X163220429Y-104556570D01*
X163203064Y-104503125D01*
X163198814Y-104496428D01*
X163198650Y-104496169D01*
X163187885Y-104475042D01*
X163187771Y-104474754D01*
X163187768Y-104474749D01*
X163184852Y-104467383D01*
X163180195Y-104460973D01*
X163176373Y-104454021D01*
X163179305Y-104452409D01*
X163160606Y-104399932D01*
X163176100Y-104336256D01*
X163174912Y-104335742D01*
X163174913Y-104335741D01*
X163192476Y-104295157D01*
X163197683Y-104284527D01*
X163218995Y-104245760D01*
X163220966Y-104238083D01*
X163220968Y-104238078D01*
X163224032Y-104226142D01*
X163230438Y-104207430D01*
X163235334Y-104196117D01*
X163238481Y-104188845D01*
X163245397Y-104145181D01*
X163247804Y-104133560D01*
X163256828Y-104098411D01*
X163256828Y-104098410D01*
X163258800Y-104090730D01*
X163258800Y-104070469D01*
X163260351Y-104050758D01*
X163262279Y-104038585D01*
X163263519Y-104030757D01*
X163259359Y-103986746D01*
X163258800Y-103974889D01*
X163258800Y-101036793D01*
X163261032Y-101013184D01*
X163261090Y-101012881D01*
X163261090Y-101012877D01*
X163262575Y-101005094D01*
X163259049Y-100949049D01*
X163258800Y-100941138D01*
X163258800Y-100925144D01*
X163256794Y-100909270D01*
X163256051Y-100901402D01*
X163253023Y-100853263D01*
X163253023Y-100853262D01*
X163252525Y-100845350D01*
X163249979Y-100837513D01*
X163244806Y-100814369D01*
X163244768Y-100814065D01*
X163244767Y-100814060D01*
X163243774Y-100806203D01*
X163240858Y-100798838D01*
X163240857Y-100798834D01*
X163223101Y-100753989D01*
X163220429Y-100746570D01*
X163203064Y-100693125D01*
X163198814Y-100686428D01*
X163198650Y-100686169D01*
X163187885Y-100665042D01*
X163187770Y-100664753D01*
X163187769Y-100664752D01*
X163184852Y-100657383D01*
X163180197Y-100650976D01*
X163177803Y-100646621D01*
X163162515Y-100577290D01*
X163176407Y-100532589D01*
X163174912Y-100531942D01*
X163174913Y-100531941D01*
X163192476Y-100491357D01*
X163197683Y-100480727D01*
X163218995Y-100441960D01*
X163220966Y-100434283D01*
X163220968Y-100434278D01*
X163224032Y-100422342D01*
X163230438Y-100403630D01*
X163231322Y-100401589D01*
X163238481Y-100385045D01*
X163239721Y-100377217D01*
X163239723Y-100377210D01*
X163245399Y-100341376D01*
X163247805Y-100329756D01*
X163256828Y-100294611D01*
X163256828Y-100294610D01*
X163258800Y-100286930D01*
X163258800Y-100266676D01*
X163260351Y-100246965D01*
X163262280Y-100234786D01*
X163263520Y-100226957D01*
X163259359Y-100182938D01*
X163258800Y-100171081D01*
X163258800Y-99338967D01*
X163259327Y-99327784D01*
X163261002Y-99320291D01*
X163259512Y-99272903D01*
X163277364Y-99204188D01*
X163329532Y-99156032D01*
X163399453Y-99143725D01*
X163464929Y-99171173D01*
X163474545Y-99179849D01*
X165651943Y-101357247D01*
X165659487Y-101365537D01*
X165663600Y-101372018D01*
X165669377Y-101377443D01*
X165713267Y-101418658D01*
X165716109Y-101421413D01*
X165735830Y-101441134D01*
X165739025Y-101443612D01*
X165748047Y-101451318D01*
X165780279Y-101481586D01*
X165787228Y-101485406D01*
X165798032Y-101491346D01*
X165814556Y-101502199D01*
X165830559Y-101514613D01*
X165871143Y-101532176D01*
X165881773Y-101537383D01*
X165920540Y-101558695D01*
X165928217Y-101560666D01*
X165928222Y-101560668D01*
X165940158Y-101563732D01*
X165958866Y-101570137D01*
X165977455Y-101578181D01*
X165985283Y-101579421D01*
X165985290Y-101579423D01*
X166021124Y-101585099D01*
X166032744Y-101587505D01*
X166067889Y-101596528D01*
X166075570Y-101598500D01*
X166095824Y-101598500D01*
X166115534Y-101600051D01*
X166135543Y-101603220D01*
X166143435Y-101602474D01*
X166179561Y-101599059D01*
X166191419Y-101598500D01*
X166393100Y-101598500D01*
X166461221Y-101618502D01*
X166507714Y-101672158D01*
X166517818Y-101742432D01*
X166502219Y-101787500D01*
X166458373Y-101863444D01*
X166399358Y-102045072D01*
X166398668Y-102051633D01*
X166398668Y-102051635D01*
X166380086Y-102228435D01*
X166379396Y-102235000D01*
X166380086Y-102241565D01*
X166396861Y-102401166D01*
X166399358Y-102424928D01*
X166458373Y-102606556D01*
X166553860Y-102771944D01*
X166558278Y-102776851D01*
X166558279Y-102776852D01*
X166643948Y-102871997D01*
X166681647Y-102913866D01*
X166836148Y-103026118D01*
X166842176Y-103028802D01*
X166842178Y-103028803D01*
X166942806Y-103073605D01*
X167010612Y-103103794D01*
X167104013Y-103123647D01*
X167190956Y-103142128D01*
X167190961Y-103142128D01*
X167197413Y-103143500D01*
X167271432Y-103143500D01*
X167339553Y-103163502D01*
X167386046Y-103217158D01*
X167392328Y-103234002D01*
X167396475Y-103248124D01*
X167397865Y-103249329D01*
X167414461Y-103252939D01*
X167476773Y-103286964D01*
X167510798Y-103349277D01*
X167505734Y-103420092D01*
X167463187Y-103476928D01*
X167409708Y-103499529D01*
X167406611Y-103499626D01*
X167399002Y-103501837D01*
X167398994Y-103501838D01*
X167387159Y-103505277D01*
X167367796Y-103509288D01*
X167347703Y-103511826D01*
X167340336Y-103514743D01*
X167340331Y-103514744D01*
X167306592Y-103528102D01*
X167295365Y-103531946D01*
X167252907Y-103544282D01*
X167246081Y-103548319D01*
X167235472Y-103554593D01*
X167217724Y-103563288D01*
X167198883Y-103570748D01*
X167192467Y-103575410D01*
X167192466Y-103575410D01*
X167163113Y-103596736D01*
X167153193Y-103603252D01*
X167121965Y-103621720D01*
X167121962Y-103621722D01*
X167115138Y-103625758D01*
X167100817Y-103640079D01*
X167085784Y-103652919D01*
X167069393Y-103664828D01*
X167064342Y-103670934D01*
X167041202Y-103698905D01*
X167033212Y-103707684D01*
X165831547Y-104909348D01*
X165823261Y-104916888D01*
X165816782Y-104921000D01*
X165811357Y-104926777D01*
X165770157Y-104970651D01*
X165767402Y-104973493D01*
X165747665Y-104993230D01*
X165745185Y-104996427D01*
X165737482Y-105005447D01*
X165707214Y-105037679D01*
X165703395Y-105044625D01*
X165703393Y-105044628D01*
X165697452Y-105055434D01*
X165686601Y-105071953D01*
X165674186Y-105087959D01*
X165671041Y-105095228D01*
X165671038Y-105095232D01*
X165656626Y-105128537D01*
X165651409Y-105139187D01*
X165630105Y-105177940D01*
X165628134Y-105185615D01*
X165628134Y-105185616D01*
X165625067Y-105197562D01*
X165618663Y-105216266D01*
X165610619Y-105234855D01*
X165609380Y-105242678D01*
X165609377Y-105242688D01*
X165603701Y-105278524D01*
X165601295Y-105290144D01*
X165590300Y-105332970D01*
X165590300Y-105353224D01*
X165588749Y-105372934D01*
X165585580Y-105392943D01*
X165587811Y-105416539D01*
X165589741Y-105436961D01*
X165590300Y-105448819D01*
X165590300Y-112999533D01*
X165589773Y-113010716D01*
X165588098Y-113018209D01*
X165588347Y-113026135D01*
X165588347Y-113026136D01*
X165590238Y-113086286D01*
X165590300Y-113090245D01*
X165590300Y-113118156D01*
X165590797Y-113122090D01*
X165590797Y-113122091D01*
X165590805Y-113122156D01*
X165591738Y-113133993D01*
X165593127Y-113178189D01*
X165598059Y-113195164D01*
X165598778Y-113197639D01*
X165602787Y-113217000D01*
X165605326Y-113237097D01*
X165608245Y-113244468D01*
X165608245Y-113244470D01*
X165621604Y-113278212D01*
X165625449Y-113289442D01*
X165637782Y-113331893D01*
X165641815Y-113338712D01*
X165641817Y-113338717D01*
X165648093Y-113349328D01*
X165656788Y-113367076D01*
X165664248Y-113385917D01*
X165668910Y-113392333D01*
X165668910Y-113392334D01*
X165690236Y-113421687D01*
X165696752Y-113431607D01*
X165719258Y-113469662D01*
X165733579Y-113483983D01*
X165746419Y-113499016D01*
X165758328Y-113515407D01*
X165764434Y-113520458D01*
X165792405Y-113543598D01*
X165801184Y-113551588D01*
X168759598Y-116510003D01*
X168793624Y-116572315D01*
X168788559Y-116643131D01*
X168753828Y-116693612D01*
X168695142Y-116745350D01*
X168695139Y-116745353D01*
X168691345Y-116748698D01*
X168688135Y-116752606D01*
X168688134Y-116752607D01*
X168638861Y-116812594D01*
X168537266Y-116936278D01*
X168415159Y-117146078D01*
X168413346Y-117150801D01*
X168373681Y-117254134D01*
X168328167Y-117372702D01*
X168327133Y-117377652D01*
X168327132Y-117377655D01*
X168320122Y-117411213D01*
X168278526Y-117610320D01*
X168267514Y-117852817D01*
X168268095Y-117857837D01*
X168268095Y-117857841D01*
X168268133Y-117858165D01*
X168295415Y-118093956D01*
X168361510Y-118327532D01*
X168363644Y-118332108D01*
X168363646Y-118332114D01*
X168461962Y-118542954D01*
X168464099Y-118547536D01*
X168600544Y-118748307D01*
X168767332Y-118924681D01*
X168771358Y-118927759D01*
X168771359Y-118927760D01*
X168956154Y-119069047D01*
X168956158Y-119069050D01*
X168960174Y-119072120D01*
X169174109Y-119186831D01*
X169403631Y-119265862D01*
X169502978Y-119283022D01*
X169638926Y-119306504D01*
X169638932Y-119306505D01*
X169642836Y-119307179D01*
X169646797Y-119307359D01*
X169646798Y-119307359D01*
X169670506Y-119308436D01*
X169670525Y-119308436D01*
X169671925Y-119308500D01*
X170441001Y-119308500D01*
X170443509Y-119308298D01*
X170443514Y-119308298D01*
X170616924Y-119294346D01*
X170616929Y-119294345D01*
X170621965Y-119293940D01*
X170626873Y-119292734D01*
X170626876Y-119292734D01*
X170852792Y-119237244D01*
X170857706Y-119236037D01*
X170862358Y-119234062D01*
X170862362Y-119234061D01*
X171076498Y-119143165D01*
X171081156Y-119141188D01*
X171187037Y-119074511D01*
X171282288Y-119014528D01*
X171282291Y-119014526D01*
X171286567Y-119011833D01*
X171343777Y-118961396D01*
X171408101Y-118931353D01*
X171478459Y-118940854D01*
X171532511Y-118986886D01*
X171553100Y-119055912D01*
X171553100Y-120043037D01*
X171533098Y-120111158D01*
X171479442Y-120157651D01*
X171409168Y-120167755D01*
X171350571Y-120143133D01*
X171203846Y-120030953D01*
X171203842Y-120030950D01*
X171199826Y-120027880D01*
X170985891Y-119913169D01*
X170756369Y-119834138D01*
X170657022Y-119816978D01*
X170521074Y-119793496D01*
X170521068Y-119793495D01*
X170517164Y-119792821D01*
X170513203Y-119792641D01*
X170513202Y-119792641D01*
X170489494Y-119791564D01*
X170489475Y-119791564D01*
X170488075Y-119791500D01*
X169718999Y-119791500D01*
X169716491Y-119791702D01*
X169716486Y-119791702D01*
X169543076Y-119805654D01*
X169543071Y-119805655D01*
X169538035Y-119806060D01*
X169533127Y-119807266D01*
X169533124Y-119807266D01*
X169417007Y-119835787D01*
X169302294Y-119863963D01*
X169297642Y-119865938D01*
X169297638Y-119865939D01*
X169190252Y-119911522D01*
X169078844Y-119958812D01*
X169074560Y-119961510D01*
X168877712Y-120085472D01*
X168877709Y-120085474D01*
X168873433Y-120088167D01*
X168869639Y-120091512D01*
X168695142Y-120245350D01*
X168695139Y-120245353D01*
X168691345Y-120248698D01*
X168537266Y-120436278D01*
X168415159Y-120646078D01*
X168328167Y-120872702D01*
X168278526Y-121110320D01*
X168267514Y-121352817D01*
X168295415Y-121593956D01*
X168361510Y-121827532D01*
X168363644Y-121832108D01*
X168363646Y-121832114D01*
X168448817Y-122014764D01*
X168464099Y-122047536D01*
X168600544Y-122248307D01*
X168767332Y-122424681D01*
X168771358Y-122427759D01*
X168771359Y-122427760D01*
X168956154Y-122569047D01*
X168956158Y-122569050D01*
X168960174Y-122572120D01*
X169174109Y-122686831D01*
X169403631Y-122765862D01*
X169502978Y-122783022D01*
X169638926Y-122806504D01*
X169638932Y-122806505D01*
X169642836Y-122807179D01*
X169646797Y-122807359D01*
X169646798Y-122807359D01*
X169670506Y-122808436D01*
X169670525Y-122808436D01*
X169671925Y-122808500D01*
X170441001Y-122808500D01*
X170443509Y-122808298D01*
X170443514Y-122808298D01*
X170616924Y-122794346D01*
X170616929Y-122794345D01*
X170621965Y-122793940D01*
X170626873Y-122792734D01*
X170626876Y-122792734D01*
X170852792Y-122737244D01*
X170857706Y-122736037D01*
X170862358Y-122734062D01*
X170862362Y-122734061D01*
X171076498Y-122643165D01*
X171081156Y-122641188D01*
X171187037Y-122574511D01*
X171282288Y-122514528D01*
X171282291Y-122514526D01*
X171286567Y-122511833D01*
X171343777Y-122461396D01*
X171408101Y-122431353D01*
X171478459Y-122440854D01*
X171532511Y-122486886D01*
X171553100Y-122555912D01*
X171553100Y-123543667D01*
X171533098Y-123611788D01*
X171479442Y-123658281D01*
X171409168Y-123668385D01*
X171350571Y-123643763D01*
X171203574Y-123531375D01*
X171195095Y-123525911D01*
X170990153Y-123416022D01*
X170980901Y-123411980D01*
X170761029Y-123336273D01*
X170751257Y-123333764D01*
X170521029Y-123293996D01*
X170513157Y-123293141D01*
X170489449Y-123292064D01*
X170486616Y-123292000D01*
X170352115Y-123292000D01*
X170336876Y-123296475D01*
X170335671Y-123297865D01*
X170334000Y-123305548D01*
X170334000Y-124928000D01*
X170313998Y-124996121D01*
X170260342Y-125042614D01*
X170208000Y-125054000D01*
X168309410Y-125054000D01*
X168295324Y-125058136D01*
X168293275Y-125071114D01*
X168295325Y-125088830D01*
X168297285Y-125098727D01*
X168360604Y-125322494D01*
X168364116Y-125331938D01*
X168462399Y-125542705D01*
X168467378Y-125551471D01*
X168598087Y-125743802D01*
X168604419Y-125751677D01*
X168764186Y-125920626D01*
X168771695Y-125927387D01*
X168956426Y-126068625D01*
X168964905Y-126074089D01*
X169169847Y-126183978D01*
X169179099Y-126188020D01*
X169398971Y-126263727D01*
X169408743Y-126266236D01*
X169580413Y-126295889D01*
X169644136Y-126327194D01*
X169680817Y-126387980D01*
X169678812Y-126458948D01*
X169650818Y-126506302D01*
X169626358Y-126532350D01*
X169623602Y-126535193D01*
X169603865Y-126554930D01*
X169601385Y-126558127D01*
X169593682Y-126567147D01*
X169563414Y-126599379D01*
X169559595Y-126606325D01*
X169559593Y-126606328D01*
X169553652Y-126617134D01*
X169542801Y-126633653D01*
X169530386Y-126649659D01*
X169527241Y-126656928D01*
X169527238Y-126656932D01*
X169512826Y-126690237D01*
X169507609Y-126700887D01*
X169486305Y-126739640D01*
X169484334Y-126747315D01*
X169484334Y-126747316D01*
X169483375Y-126751052D01*
X169481823Y-126753660D01*
X169481416Y-126754687D01*
X169481250Y-126754621D01*
X169447060Y-126812058D01*
X169391389Y-126842079D01*
X169307208Y-126862756D01*
X169302294Y-126863963D01*
X169297642Y-126865938D01*
X169297638Y-126865939D01*
X169235642Y-126892255D01*
X169078844Y-126958812D01*
X169074560Y-126961510D01*
X168877712Y-127085472D01*
X168877709Y-127085474D01*
X168873433Y-127088167D01*
X168869639Y-127091512D01*
X168695142Y-127245350D01*
X168695139Y-127245353D01*
X168691345Y-127248698D01*
X168537266Y-127436278D01*
X168534721Y-127440650D01*
X168534718Y-127440655D01*
X168439717Y-127603881D01*
X168388164Y-127652694D01*
X168330819Y-127666500D01*
X162548767Y-127666500D01*
X162537584Y-127665973D01*
X162530091Y-127664298D01*
X162522165Y-127664547D01*
X162522164Y-127664547D01*
X162462014Y-127666438D01*
X162458055Y-127666500D01*
X162430144Y-127666500D01*
X162426210Y-127666997D01*
X162426209Y-127666997D01*
X162426144Y-127667005D01*
X162414307Y-127667938D01*
X162382490Y-127668938D01*
X162378029Y-127669078D01*
X162370110Y-127669327D01*
X162352454Y-127674456D01*
X162350658Y-127674978D01*
X162331306Y-127678986D01*
X162324235Y-127679880D01*
X162311203Y-127681526D01*
X162303834Y-127684443D01*
X162303832Y-127684444D01*
X162270097Y-127697800D01*
X162258869Y-127701645D01*
X162216407Y-127713982D01*
X162209585Y-127718016D01*
X162209579Y-127718019D01*
X162198968Y-127724294D01*
X162181218Y-127732990D01*
X162169756Y-127737528D01*
X162169751Y-127737531D01*
X162162383Y-127740448D01*
X162155968Y-127745109D01*
X162126625Y-127766427D01*
X162116707Y-127772943D01*
X162109288Y-127777331D01*
X162078637Y-127795458D01*
X162064313Y-127809782D01*
X162049281Y-127822621D01*
X162032893Y-127834528D01*
X162004712Y-127868593D01*
X161996722Y-127877373D01*
X160433247Y-129440848D01*
X160370935Y-129474874D01*
X160311542Y-129473460D01*
X160248087Y-129456457D01*
X160020000Y-129436502D01*
X159791913Y-129456457D01*
X159786600Y-129457881D01*
X159786598Y-129457881D01*
X159576067Y-129514293D01*
X159576065Y-129514294D01*
X159570757Y-129515716D01*
X159565776Y-129518039D01*
X159565775Y-129518039D01*
X159368238Y-129610151D01*
X159368233Y-129610154D01*
X159363251Y-129612477D01*
X159260479Y-129684439D01*
X159180211Y-129740643D01*
X159180208Y-129740645D01*
X159175700Y-129743802D01*
X159013802Y-129905700D01*
X158882477Y-130093251D01*
X158880154Y-130098233D01*
X158880151Y-130098238D01*
X158855519Y-130151063D01*
X158785716Y-130300757D01*
X158784294Y-130306065D01*
X158784293Y-130306067D01*
X158741598Y-130465406D01*
X158726457Y-130521913D01*
X158706502Y-130750000D01*
X158726457Y-130978087D01*
X158785716Y-131199243D01*
X158788039Y-131204224D01*
X158788039Y-131204225D01*
X158880151Y-131401762D01*
X158880154Y-131401767D01*
X158882477Y-131406749D01*
X159013802Y-131594300D01*
X159175700Y-131756198D01*
X159180208Y-131759355D01*
X159180211Y-131759357D01*
X159258389Y-131814098D01*
X159363251Y-131887523D01*
X159368233Y-131889846D01*
X159368238Y-131889849D01*
X159565775Y-131981961D01*
X159570757Y-131984284D01*
X159576065Y-131985706D01*
X159576067Y-131985707D01*
X159786598Y-132042119D01*
X159786600Y-132042119D01*
X159791913Y-132043543D01*
X160020000Y-132063498D01*
X160248087Y-132043543D01*
X160253400Y-132042119D01*
X160253402Y-132042119D01*
X160463933Y-131985707D01*
X160463935Y-131985706D01*
X160469243Y-131984284D01*
X160474225Y-131981961D01*
X160671762Y-131889849D01*
X160671767Y-131889846D01*
X160676749Y-131887523D01*
X160781611Y-131814098D01*
X160859789Y-131759357D01*
X160859792Y-131759355D01*
X160864300Y-131756198D01*
X161026198Y-131594300D01*
X161157523Y-131406749D01*
X161159846Y-131401767D01*
X161159849Y-131401762D01*
X161251961Y-131204225D01*
X161251961Y-131204224D01*
X161254284Y-131199243D01*
X161313543Y-130978087D01*
X161333498Y-130750000D01*
X161313543Y-130521913D01*
X161312119Y-130516598D01*
X161312118Y-130516591D01*
X161296541Y-130458459D01*
X161298230Y-130387483D01*
X161329152Y-130336752D01*
X162695499Y-128970405D01*
X162757811Y-128936379D01*
X162784594Y-128933500D01*
X168330652Y-128933500D01*
X168398773Y-128953502D01*
X168444847Y-129006250D01*
X168464099Y-129047536D01*
X168600544Y-129248307D01*
X168767332Y-129424681D01*
X168771358Y-129427759D01*
X168771359Y-129427760D01*
X168956154Y-129569047D01*
X168956158Y-129569050D01*
X168960174Y-129572120D01*
X169174109Y-129686831D01*
X169403631Y-129765862D01*
X169502978Y-129783022D01*
X169638926Y-129806504D01*
X169638932Y-129806505D01*
X169642836Y-129807179D01*
X169646797Y-129807359D01*
X169646798Y-129807359D01*
X169670506Y-129808436D01*
X169670525Y-129808436D01*
X169671925Y-129808500D01*
X170441001Y-129808500D01*
X170443509Y-129808298D01*
X170443514Y-129808298D01*
X170616924Y-129794346D01*
X170616929Y-129794345D01*
X170621965Y-129793940D01*
X170626873Y-129792734D01*
X170626876Y-129792734D01*
X170852792Y-129737244D01*
X170857706Y-129736037D01*
X170862358Y-129734062D01*
X170862362Y-129734061D01*
X171076498Y-129643165D01*
X171081156Y-129641188D01*
X171187037Y-129574511D01*
X171282288Y-129514528D01*
X171282291Y-129514526D01*
X171286567Y-129511833D01*
X171385422Y-129424681D01*
X171464858Y-129354650D01*
X171464861Y-129354647D01*
X171468655Y-129351302D01*
X171486691Y-129329345D01*
X171619526Y-129167628D01*
X171619528Y-129167625D01*
X171622734Y-129163722D01*
X171744841Y-128953922D01*
X171752680Y-128933500D01*
X171830020Y-128732022D01*
X171830021Y-128732018D01*
X171831833Y-128727298D01*
X171881474Y-128489680D01*
X171892486Y-128247183D01*
X171864585Y-128006044D01*
X171825691Y-127868593D01*
X171799866Y-127777331D01*
X171798490Y-127772468D01*
X171796356Y-127767892D01*
X171796354Y-127767886D01*
X171698038Y-127557046D01*
X171698036Y-127557042D01*
X171695901Y-127552464D01*
X171559456Y-127351693D01*
X171392668Y-127175319D01*
X171388641Y-127172240D01*
X171203846Y-127030953D01*
X171203842Y-127030950D01*
X171199826Y-127027880D01*
X171168962Y-127011331D01*
X171118381Y-126961513D01*
X171102762Y-126892255D01*
X171127067Y-126825548D01*
X171139411Y-126811193D01*
X172578847Y-125371757D01*
X172587137Y-125364213D01*
X172593618Y-125360100D01*
X172640259Y-125310432D01*
X172643013Y-125307591D01*
X172662734Y-125287870D01*
X172665212Y-125284675D01*
X172672918Y-125275653D01*
X172697758Y-125249201D01*
X172703186Y-125243421D01*
X172712946Y-125225668D01*
X172723799Y-125209145D01*
X172731353Y-125199406D01*
X172736213Y-125193141D01*
X172753776Y-125152557D01*
X172758983Y-125141927D01*
X172780295Y-125103160D01*
X172782266Y-125095483D01*
X172782268Y-125095478D01*
X172785332Y-125083542D01*
X172791738Y-125064830D01*
X172796633Y-125053519D01*
X172799781Y-125046245D01*
X172801021Y-125038417D01*
X172801023Y-125038410D01*
X172806699Y-125002576D01*
X172809105Y-124990956D01*
X172818128Y-124955811D01*
X172818128Y-124955810D01*
X172820100Y-124948130D01*
X172820100Y-124927876D01*
X172821651Y-124908165D01*
X172823580Y-124895986D01*
X172824820Y-124888157D01*
X172820659Y-124844138D01*
X172820100Y-124832281D01*
X172820100Y-113221767D01*
X172820627Y-113210584D01*
X172822302Y-113203091D01*
X172821759Y-113185797D01*
X172820162Y-113135014D01*
X172820100Y-113131055D01*
X172820100Y-113103144D01*
X172819595Y-113099144D01*
X172818662Y-113087301D01*
X172817522Y-113051029D01*
X172817273Y-113043110D01*
X172811622Y-113023658D01*
X172807614Y-113004306D01*
X172806067Y-112992063D01*
X172805074Y-112984203D01*
X172802156Y-112976832D01*
X172788800Y-112943097D01*
X172784955Y-112931870D01*
X172784321Y-112929687D01*
X172772618Y-112889407D01*
X172768584Y-112882585D01*
X172768581Y-112882579D01*
X172762306Y-112871968D01*
X172753610Y-112854218D01*
X172749072Y-112842756D01*
X172749069Y-112842751D01*
X172746152Y-112835383D01*
X172720173Y-112799625D01*
X172713657Y-112789707D01*
X172695175Y-112758457D01*
X172691142Y-112751637D01*
X172676818Y-112737313D01*
X172663976Y-112722278D01*
X172652072Y-112705893D01*
X172618006Y-112677711D01*
X172609227Y-112669722D01*
X169514820Y-109575315D01*
X169480794Y-109513003D01*
X169485859Y-109442188D01*
X169528406Y-109385352D01*
X169559685Y-109368238D01*
X169638297Y-109338767D01*
X169646705Y-109335615D01*
X169763261Y-109248261D01*
X169763916Y-109247387D01*
X169821795Y-109215780D01*
X169825189Y-109215673D01*
X169832799Y-109213462D01*
X169832800Y-109213462D01*
X169836551Y-109212372D01*
X169844643Y-109210021D01*
X169864000Y-109206013D01*
X169876230Y-109204468D01*
X169876231Y-109204468D01*
X169884097Y-109203474D01*
X169891468Y-109200555D01*
X169891470Y-109200555D01*
X169925212Y-109187196D01*
X169936442Y-109183351D01*
X169971283Y-109173229D01*
X169971284Y-109173229D01*
X169978893Y-109171018D01*
X169985712Y-109166985D01*
X169985717Y-109166983D01*
X169996328Y-109160707D01*
X170014076Y-109152012D01*
X170032917Y-109144552D01*
X170068687Y-109118564D01*
X170078607Y-109112048D01*
X170109835Y-109093580D01*
X170109838Y-109093578D01*
X170116662Y-109089542D01*
X170130983Y-109075221D01*
X170146017Y-109062380D01*
X170155994Y-109055131D01*
X170162407Y-109050472D01*
X170190598Y-109016395D01*
X170198588Y-109007616D01*
X171958647Y-107247557D01*
X171966937Y-107240013D01*
X171973418Y-107235900D01*
X172020059Y-107186232D01*
X172022813Y-107183391D01*
X172042535Y-107163669D01*
X172045012Y-107160476D01*
X172052717Y-107151455D01*
X172077559Y-107125000D01*
X172082986Y-107119221D01*
X172086807Y-107112271D01*
X172092746Y-107101468D01*
X172103602Y-107084941D01*
X172111157Y-107075202D01*
X172111158Y-107075200D01*
X172116014Y-107068940D01*
X172133574Y-107028360D01*
X172138791Y-107017712D01*
X172156275Y-106985909D01*
X172156276Y-106985907D01*
X172160095Y-106978960D01*
X172165133Y-106959337D01*
X172171537Y-106940634D01*
X172176433Y-106929320D01*
X172176433Y-106929319D01*
X172179581Y-106922045D01*
X172180820Y-106914222D01*
X172180823Y-106914212D01*
X172186499Y-106878376D01*
X172188905Y-106866756D01*
X172197928Y-106831611D01*
X172197928Y-106831610D01*
X172199900Y-106823930D01*
X172199900Y-106803676D01*
X172201451Y-106783965D01*
X172203380Y-106771786D01*
X172204620Y-106763957D01*
X172200459Y-106719938D01*
X172199900Y-106708081D01*
X172199900Y-88914868D01*
X172200427Y-88903685D01*
X172202102Y-88896192D01*
X172201783Y-88886026D01*
X172199962Y-88828102D01*
X172199900Y-88824144D01*
X172199900Y-88796244D01*
X172199396Y-88792253D01*
X172198463Y-88780411D01*
X172197323Y-88744136D01*
X172197074Y-88736211D01*
X172191421Y-88716752D01*
X172187412Y-88697393D01*
X172187246Y-88696083D01*
X172184874Y-88677303D01*
X172181958Y-88669937D01*
X172181956Y-88669931D01*
X172168600Y-88636198D01*
X172164755Y-88624968D01*
X172154630Y-88590117D01*
X172154630Y-88590116D01*
X172152419Y-88582507D01*
X172142105Y-88565066D01*
X172133408Y-88547313D01*
X172128872Y-88535858D01*
X172125952Y-88528483D01*
X172099963Y-88492712D01*
X172093447Y-88482792D01*
X172074978Y-88451563D01*
X172070942Y-88444738D01*
X172056621Y-88430417D01*
X172043780Y-88415383D01*
X172036531Y-88405406D01*
X172031872Y-88398993D01*
X171997795Y-88370802D01*
X171989016Y-88362812D01*
X170302974Y-86676769D01*
X170268948Y-86614457D01*
X170276432Y-86537634D01*
X170292474Y-86500563D01*
X170297691Y-86489913D01*
X170318995Y-86451160D01*
X170324033Y-86431537D01*
X170330437Y-86412834D01*
X170335333Y-86401520D01*
X170335333Y-86401519D01*
X170338481Y-86394245D01*
X170339720Y-86386422D01*
X170339723Y-86386412D01*
X170345399Y-86350576D01*
X170347805Y-86338956D01*
X170356828Y-86303811D01*
X170356828Y-86303810D01*
X170358800Y-86296130D01*
X170358800Y-86275876D01*
X170360351Y-86256165D01*
X170362280Y-86243986D01*
X170363520Y-86236157D01*
X170359359Y-86192138D01*
X170358800Y-86180281D01*
X170358800Y-84526793D01*
X170361032Y-84503184D01*
X170361090Y-84502881D01*
X170361090Y-84502877D01*
X170362575Y-84495094D01*
X170359049Y-84439049D01*
X170358800Y-84431138D01*
X170358800Y-84415144D01*
X170356794Y-84399270D01*
X170356051Y-84391402D01*
X170353023Y-84343263D01*
X170353023Y-84343262D01*
X170352525Y-84335350D01*
X170349979Y-84327513D01*
X170344806Y-84304369D01*
X170344768Y-84304065D01*
X170344767Y-84304060D01*
X170343774Y-84296203D01*
X170340858Y-84288838D01*
X170340857Y-84288834D01*
X170323101Y-84243989D01*
X170320429Y-84236570D01*
X170303064Y-84183125D01*
X170298814Y-84176428D01*
X170298650Y-84176169D01*
X170287885Y-84155042D01*
X170287771Y-84154754D01*
X170287768Y-84154749D01*
X170284852Y-84147383D01*
X170280196Y-84140975D01*
X170280193Y-84140969D01*
X170251842Y-84101948D01*
X170247392Y-84095401D01*
X170217300Y-84047982D01*
X170211293Y-84042341D01*
X170195612Y-84024554D01*
X170195434Y-84024309D01*
X170195432Y-84024307D01*
X170190772Y-84017893D01*
X170184662Y-84012838D01*
X170147504Y-83982097D01*
X170141570Y-83976866D01*
X170106402Y-83943842D01*
X170106399Y-83943840D01*
X170100621Y-83938414D01*
X170093397Y-83934442D01*
X170073794Y-83921119D01*
X170073554Y-83920920D01*
X170073547Y-83920916D01*
X170067444Y-83915867D01*
X170016624Y-83891953D01*
X170009592Y-83888371D01*
X169960360Y-83861305D01*
X169952685Y-83859335D01*
X169952679Y-83859332D01*
X169952381Y-83859256D01*
X169930072Y-83851224D01*
X169929797Y-83851094D01*
X169929789Y-83851091D01*
X169922618Y-83847717D01*
X169867451Y-83837194D01*
X169859742Y-83835471D01*
X169819734Y-83825198D01*
X169764893Y-83793917D01*
X169763261Y-83791739D01*
X169646705Y-83704385D01*
X169510316Y-83653255D01*
X169448134Y-83646500D01*
X167851866Y-83646500D01*
X167789684Y-83653255D01*
X167653295Y-83704385D01*
X167536739Y-83791739D01*
X167449385Y-83908295D01*
X167398255Y-84044684D01*
X167391500Y-84106866D01*
X167391500Y-84803134D01*
X167398255Y-84865316D01*
X167401027Y-84872712D01*
X167401029Y-84872718D01*
X167419231Y-84921271D01*
X167424414Y-84992078D01*
X167390493Y-85054447D01*
X167328237Y-85088576D01*
X167301249Y-85091500D01*
X165634995Y-85091500D01*
X165566874Y-85071498D01*
X165545900Y-85054595D01*
X160347152Y-79855847D01*
X160339612Y-79847561D01*
X160335500Y-79841082D01*
X160309534Y-79816698D01*
X160285849Y-79794457D01*
X160283007Y-79791702D01*
X160263270Y-79771965D01*
X160260073Y-79769485D01*
X160251051Y-79761780D01*
X160237622Y-79749169D01*
X160218821Y-79731514D01*
X160211875Y-79727695D01*
X160211872Y-79727693D01*
X160201066Y-79721752D01*
X160184547Y-79710901D01*
X160184083Y-79710541D01*
X160168541Y-79698486D01*
X160161272Y-79695341D01*
X160161268Y-79695338D01*
X160127963Y-79680926D01*
X160117313Y-79675709D01*
X160078560Y-79654405D01*
X160058937Y-79649367D01*
X160040234Y-79642963D01*
X160028920Y-79638067D01*
X160028919Y-79638067D01*
X160021645Y-79634919D01*
X160013822Y-79633680D01*
X160013812Y-79633677D01*
X159977976Y-79628001D01*
X159966356Y-79625595D01*
X159931211Y-79616572D01*
X159931210Y-79616572D01*
X159923530Y-79614600D01*
X159903276Y-79614600D01*
X159883565Y-79613049D01*
X159871386Y-79611120D01*
X159863557Y-79609880D01*
X159834286Y-79612647D01*
X159819539Y-79614041D01*
X159807681Y-79614600D01*
X138270667Y-79614600D01*
X138259484Y-79614073D01*
X138251991Y-79612398D01*
X138244065Y-79612647D01*
X138244064Y-79612647D01*
X138183901Y-79614538D01*
X138179943Y-79614600D01*
X138152044Y-79614600D01*
X138148054Y-79615104D01*
X138136220Y-79616036D01*
X138092011Y-79617426D01*
X138084397Y-79619638D01*
X138084392Y-79619639D01*
X138072559Y-79623077D01*
X138053196Y-79627088D01*
X138033103Y-79629626D01*
X138025736Y-79632543D01*
X138025731Y-79632544D01*
X137991992Y-79645902D01*
X137980765Y-79649746D01*
X137938307Y-79662082D01*
X137931481Y-79666119D01*
X137920872Y-79672393D01*
X137903124Y-79681088D01*
X137884283Y-79688548D01*
X137877867Y-79693210D01*
X137877866Y-79693210D01*
X137848513Y-79714536D01*
X137838593Y-79721052D01*
X137807365Y-79739520D01*
X137807362Y-79739522D01*
X137800538Y-79743558D01*
X137786217Y-79757879D01*
X137771184Y-79770719D01*
X137754793Y-79782628D01*
X137749743Y-79788732D01*
X137749738Y-79788737D01*
X137726607Y-79816698D01*
X137718617Y-79825479D01*
X137491537Y-80052558D01*
X137429225Y-80086583D01*
X137380559Y-80087547D01*
X137375965Y-80086737D01*
X137370655Y-80085314D01*
X137365182Y-80084835D01*
X137365181Y-80084835D01*
X137165475Y-80067363D01*
X137160000Y-80066884D01*
X136949345Y-80085314D01*
X136944032Y-80086738D01*
X136944030Y-80086738D01*
X136750400Y-80138621D01*
X136750398Y-80138622D01*
X136745090Y-80140044D01*
X136740109Y-80142366D01*
X136740108Y-80142367D01*
X136558423Y-80227088D01*
X136558420Y-80227090D01*
X136553442Y-80229411D01*
X136380224Y-80350699D01*
X136230699Y-80500224D01*
X136109411Y-80673442D01*
X136020044Y-80865090D01*
X136018622Y-80870398D01*
X136018621Y-80870400D01*
X135993657Y-80963567D01*
X135965314Y-81069345D01*
X135946884Y-81280000D01*
X135965314Y-81490655D01*
X135966738Y-81495968D01*
X135966738Y-81495970D01*
X135997705Y-81611538D01*
X136020044Y-81694910D01*
X136109411Y-81886558D01*
X136230699Y-82059776D01*
X136380224Y-82209301D01*
X136553442Y-82330589D01*
X136558420Y-82332910D01*
X136558423Y-82332912D01*
X136740108Y-82417633D01*
X136745090Y-82419956D01*
X136750398Y-82421378D01*
X136750400Y-82421379D01*
X136944030Y-82473262D01*
X136944032Y-82473262D01*
X136949345Y-82474686D01*
X137160000Y-82493116D01*
X137370655Y-82474686D01*
X137375968Y-82473262D01*
X137375970Y-82473262D01*
X137569600Y-82421379D01*
X137569602Y-82421378D01*
X137574910Y-82419956D01*
X137579892Y-82417633D01*
X137761577Y-82332912D01*
X137761580Y-82332910D01*
X137766558Y-82330589D01*
X137939776Y-82209301D01*
X138089301Y-82059776D01*
X138210589Y-81886558D01*
X138299956Y-81694910D01*
X138322296Y-81611538D01*
X138353262Y-81495970D01*
X138353262Y-81495968D01*
X138354686Y-81490655D01*
X138373116Y-81280000D01*
X138357079Y-81096695D01*
X138355165Y-81074816D01*
X138355164Y-81074812D01*
X138354686Y-81069345D01*
X138353264Y-81064039D01*
X138352453Y-81059439D01*
X138360321Y-80988879D01*
X138387443Y-80948462D01*
X138417400Y-80918505D01*
X138479712Y-80884479D01*
X138506495Y-80881600D01*
X140931413Y-80881600D01*
X140999534Y-80901602D01*
X141046027Y-80955258D01*
X141056131Y-81025532D01*
X141053120Y-81040210D01*
X141047968Y-81059439D01*
X141045314Y-81069345D01*
X141026884Y-81280000D01*
X141045314Y-81490655D01*
X141046738Y-81495968D01*
X141046738Y-81495970D01*
X141077705Y-81611538D01*
X141100044Y-81694910D01*
X141189411Y-81886558D01*
X141310699Y-82059776D01*
X141460224Y-82209301D01*
X141633442Y-82330589D01*
X141638420Y-82332910D01*
X141638423Y-82332912D01*
X141820108Y-82417633D01*
X141825090Y-82419956D01*
X141830398Y-82421378D01*
X141830400Y-82421379D01*
X142024030Y-82473262D01*
X142024032Y-82473262D01*
X142029345Y-82474686D01*
X142240000Y-82493116D01*
X142450655Y-82474686D01*
X142455971Y-82473262D01*
X142460563Y-82472452D01*
X142531123Y-82480321D01*
X142571539Y-82507443D01*
X143711801Y-83647705D01*
X143745827Y-83710017D01*
X143740762Y-83780832D01*
X143698215Y-83837668D01*
X143631695Y-83862479D01*
X143622706Y-83862800D01*
X135610894Y-83862800D01*
X135542773Y-83842798D01*
X135521799Y-83825895D01*
X133307443Y-81611538D01*
X133273417Y-81549226D01*
X133272453Y-81500561D01*
X133273264Y-81495961D01*
X133274686Y-81490655D01*
X133275166Y-81485175D01*
X133292637Y-81285475D01*
X133293116Y-81280000D01*
X133274686Y-81069345D01*
X133246343Y-80963567D01*
X133221379Y-80870400D01*
X133221378Y-80870398D01*
X133219956Y-80865090D01*
X133130589Y-80673442D01*
X133009301Y-80500224D01*
X132859776Y-80350699D01*
X132686558Y-80229411D01*
X132681580Y-80227090D01*
X132681577Y-80227088D01*
X132499892Y-80142367D01*
X132499891Y-80142366D01*
X132494910Y-80140044D01*
X132489602Y-80138622D01*
X132489600Y-80138621D01*
X132295970Y-80086738D01*
X132295968Y-80086738D01*
X132290655Y-80085314D01*
X132080000Y-80066884D01*
X131869345Y-80085314D01*
X131864032Y-80086738D01*
X131864030Y-80086738D01*
X131670400Y-80138621D01*
X131670398Y-80138622D01*
X131665090Y-80140044D01*
X131660108Y-80142367D01*
X131660103Y-80142369D01*
X131622749Y-80159787D01*
X131552557Y-80170448D01*
X131487745Y-80141467D01*
X131448889Y-80082047D01*
X131443500Y-80045592D01*
X131443500Y-77548767D01*
X131444027Y-77537584D01*
X131445702Y-77530091D01*
X131443562Y-77462014D01*
X131443500Y-77458055D01*
X131443500Y-77434408D01*
X131463502Y-77366287D01*
X131517158Y-77319794D01*
X131587432Y-77309690D01*
X131622749Y-77320213D01*
X131660103Y-77337631D01*
X131660108Y-77337633D01*
X131665090Y-77339956D01*
X131670398Y-77341378D01*
X131670400Y-77341379D01*
X131864030Y-77393262D01*
X131864032Y-77393262D01*
X131869345Y-77394686D01*
X132080000Y-77413116D01*
X132290655Y-77394686D01*
X132295968Y-77393262D01*
X132295970Y-77393262D01*
X132489600Y-77341379D01*
X132489602Y-77341378D01*
X132494910Y-77339956D01*
X132656576Y-77264570D01*
X132681577Y-77252912D01*
X132681580Y-77252910D01*
X132686558Y-77250589D01*
X132859776Y-77129301D01*
X133009301Y-76979776D01*
X133130589Y-76806558D01*
X133219956Y-76614910D01*
X133274686Y-76410655D01*
X133293116Y-76200000D01*
X135946884Y-76200000D01*
X135965314Y-76410655D01*
X136020044Y-76614910D01*
X136109411Y-76806558D01*
X136230699Y-76979776D01*
X136380224Y-77129301D01*
X136553442Y-77250589D01*
X136558420Y-77252910D01*
X136558423Y-77252912D01*
X136583424Y-77264570D01*
X136745090Y-77339956D01*
X136750398Y-77341378D01*
X136750400Y-77341379D01*
X136944030Y-77393262D01*
X136944032Y-77393262D01*
X136949345Y-77394686D01*
X137160000Y-77413116D01*
X137370655Y-77394686D01*
X137375968Y-77393262D01*
X137375970Y-77393262D01*
X137569600Y-77341379D01*
X137569602Y-77341378D01*
X137574910Y-77339956D01*
X137736576Y-77264570D01*
X137761577Y-77252912D01*
X137761580Y-77252910D01*
X137766558Y-77250589D01*
X137939776Y-77129301D01*
X138089301Y-76979776D01*
X138210589Y-76806558D01*
X138299956Y-76614910D01*
X138354686Y-76410655D01*
X138373116Y-76200000D01*
X141026884Y-76200000D01*
X141045314Y-76410655D01*
X141100044Y-76614910D01*
X141189411Y-76806558D01*
X141310699Y-76979776D01*
X141460224Y-77129301D01*
X141633442Y-77250589D01*
X141638420Y-77252910D01*
X141638423Y-77252912D01*
X141663424Y-77264570D01*
X141825090Y-77339956D01*
X141830398Y-77341378D01*
X141830400Y-77341379D01*
X142024030Y-77393262D01*
X142024032Y-77393262D01*
X142029345Y-77394686D01*
X142240000Y-77413116D01*
X142450655Y-77394686D01*
X142455968Y-77393262D01*
X142455970Y-77393262D01*
X142649600Y-77341379D01*
X142649602Y-77341378D01*
X142654910Y-77339956D01*
X142816576Y-77264570D01*
X142841577Y-77252912D01*
X142841580Y-77252910D01*
X142846558Y-77250589D01*
X143019776Y-77129301D01*
X143169301Y-76979776D01*
X143290589Y-76806558D01*
X143379956Y-76614910D01*
X143388293Y-76583796D01*
X143425245Y-76523173D01*
X143489106Y-76492152D01*
X143559600Y-76500580D01*
X143614347Y-76545783D01*
X143631707Y-76583796D01*
X143640044Y-76614910D01*
X143729411Y-76806558D01*
X143850699Y-76979776D01*
X144000224Y-77129301D01*
X144173442Y-77250589D01*
X144178420Y-77252910D01*
X144178423Y-77252912D01*
X144203424Y-77264570D01*
X144365090Y-77339956D01*
X144370398Y-77341378D01*
X144370400Y-77341379D01*
X144564030Y-77393262D01*
X144564032Y-77393262D01*
X144569345Y-77394686D01*
X144780000Y-77413116D01*
X144990655Y-77394686D01*
X144995968Y-77393262D01*
X144995970Y-77393262D01*
X145189600Y-77341379D01*
X145189602Y-77341378D01*
X145194910Y-77339956D01*
X145356576Y-77264570D01*
X145381577Y-77252912D01*
X145381580Y-77252910D01*
X145386558Y-77250589D01*
X145559776Y-77129301D01*
X145709301Y-76979776D01*
X145830589Y-76806558D01*
X145919956Y-76614910D01*
X145974686Y-76410655D01*
X145993116Y-76200000D01*
X145974686Y-75989345D01*
X145919956Y-75785090D01*
X145830589Y-75593442D01*
X145709301Y-75420224D01*
X145559776Y-75270699D01*
X145386558Y-75149411D01*
X145381580Y-75147090D01*
X145381577Y-75147088D01*
X145199892Y-75062367D01*
X145199891Y-75062366D01*
X145194910Y-75060044D01*
X145189602Y-75058622D01*
X145189600Y-75058621D01*
X144995970Y-75006738D01*
X144995968Y-75006738D01*
X144990655Y-75005314D01*
X144780000Y-74986884D01*
X144569345Y-75005314D01*
X144564032Y-75006738D01*
X144564030Y-75006738D01*
X144370400Y-75058621D01*
X144370398Y-75058622D01*
X144365090Y-75060044D01*
X144360109Y-75062366D01*
X144360108Y-75062367D01*
X144178423Y-75147088D01*
X144178420Y-75147090D01*
X144173442Y-75149411D01*
X144000224Y-75270699D01*
X143850699Y-75420224D01*
X143729411Y-75593442D01*
X143640044Y-75785090D01*
X143638622Y-75790398D01*
X143638621Y-75790400D01*
X143631707Y-75816204D01*
X143594755Y-75876827D01*
X143530894Y-75907848D01*
X143460400Y-75899420D01*
X143405653Y-75854217D01*
X143388293Y-75816204D01*
X143381379Y-75790400D01*
X143381378Y-75790398D01*
X143379956Y-75785090D01*
X143290589Y-75593442D01*
X143169301Y-75420224D01*
X143019776Y-75270699D01*
X142846558Y-75149411D01*
X142841580Y-75147090D01*
X142841577Y-75147088D01*
X142659892Y-75062367D01*
X142659891Y-75062366D01*
X142654910Y-75060044D01*
X142649602Y-75058622D01*
X142649600Y-75058621D01*
X142455970Y-75006738D01*
X142455968Y-75006738D01*
X142450655Y-75005314D01*
X142240000Y-74986884D01*
X142029345Y-75005314D01*
X142024032Y-75006738D01*
X142024030Y-75006738D01*
X141830400Y-75058621D01*
X141830398Y-75058622D01*
X141825090Y-75060044D01*
X141820109Y-75062366D01*
X141820108Y-75062367D01*
X141638423Y-75147088D01*
X141638420Y-75147090D01*
X141633442Y-75149411D01*
X141460224Y-75270699D01*
X141310699Y-75420224D01*
X141189411Y-75593442D01*
X141100044Y-75785090D01*
X141045314Y-75989345D01*
X141026884Y-76200000D01*
X138373116Y-76200000D01*
X138354686Y-75989345D01*
X138299956Y-75785090D01*
X138210589Y-75593442D01*
X138089301Y-75420224D01*
X137939776Y-75270699D01*
X137766558Y-75149411D01*
X137761580Y-75147090D01*
X137761577Y-75147088D01*
X137579892Y-75062367D01*
X137579891Y-75062366D01*
X137574910Y-75060044D01*
X137569602Y-75058622D01*
X137569600Y-75058621D01*
X137375970Y-75006738D01*
X137375968Y-75006738D01*
X137370655Y-75005314D01*
X137160000Y-74986884D01*
X136949345Y-75005314D01*
X136944032Y-75006738D01*
X136944030Y-75006738D01*
X136750400Y-75058621D01*
X136750398Y-75058622D01*
X136745090Y-75060044D01*
X136740109Y-75062366D01*
X136740108Y-75062367D01*
X136558423Y-75147088D01*
X136558420Y-75147090D01*
X136553442Y-75149411D01*
X136380224Y-75270699D01*
X136230699Y-75420224D01*
X136109411Y-75593442D01*
X136020044Y-75785090D01*
X135965314Y-75989345D01*
X135946884Y-76200000D01*
X133293116Y-76200000D01*
X133274686Y-75989345D01*
X133219956Y-75785090D01*
X133130589Y-75593442D01*
X133009301Y-75420224D01*
X132859776Y-75270699D01*
X132686558Y-75149411D01*
X132681580Y-75147090D01*
X132681577Y-75147088D01*
X132499892Y-75062367D01*
X132499891Y-75062366D01*
X132494910Y-75060044D01*
X132489602Y-75058622D01*
X132489600Y-75058621D01*
X132295970Y-75006738D01*
X132295968Y-75006738D01*
X132290655Y-75005314D01*
X132080000Y-74986884D01*
X131869345Y-75005314D01*
X131864032Y-75006738D01*
X131864030Y-75006738D01*
X131670400Y-75058621D01*
X131670398Y-75058622D01*
X131665090Y-75060044D01*
X131660109Y-75062366D01*
X131660108Y-75062367D01*
X131478423Y-75147088D01*
X131478420Y-75147090D01*
X131473442Y-75149411D01*
X131300224Y-75270699D01*
X131150699Y-75420224D01*
X131029411Y-75593442D01*
X130940044Y-75785090D01*
X130938622Y-75790398D01*
X130938621Y-75790400D01*
X130931707Y-75816204D01*
X130894755Y-75876827D01*
X130830894Y-75907848D01*
X130760400Y-75899420D01*
X130705653Y-75854217D01*
X130688293Y-75816204D01*
X130681379Y-75790400D01*
X130681378Y-75790398D01*
X130679956Y-75785090D01*
X130590589Y-75593442D01*
X130469301Y-75420224D01*
X130319776Y-75270699D01*
X130146558Y-75149411D01*
X130141580Y-75147090D01*
X130141577Y-75147088D01*
X129959892Y-75062367D01*
X129959891Y-75062366D01*
X129954910Y-75060044D01*
X129949602Y-75058622D01*
X129949600Y-75058621D01*
X129755970Y-75006738D01*
X129755968Y-75006738D01*
X129750655Y-75005314D01*
X129540000Y-74986884D01*
X129329345Y-75005314D01*
X129324032Y-75006738D01*
X129324030Y-75006738D01*
X129130400Y-75058621D01*
X129130398Y-75058622D01*
X129125090Y-75060044D01*
X129120109Y-75062366D01*
X129120108Y-75062367D01*
X128938423Y-75147088D01*
X128938420Y-75147090D01*
X128933442Y-75149411D01*
X128760224Y-75270699D01*
X128610699Y-75420224D01*
X128489411Y-75593442D01*
X128400044Y-75785090D01*
X128345314Y-75989345D01*
X128326884Y-76200000D01*
X128345314Y-76410655D01*
X128400044Y-76614910D01*
X128489411Y-76806558D01*
X128610699Y-76979776D01*
X128760224Y-77129301D01*
X128933442Y-77250589D01*
X128938420Y-77252910D01*
X128938423Y-77252912D01*
X128963424Y-77264570D01*
X129125090Y-77339956D01*
X129130398Y-77341378D01*
X129130400Y-77341379D01*
X129324030Y-77393262D01*
X129324032Y-77393262D01*
X129329345Y-77394686D01*
X129540000Y-77413116D01*
X129750655Y-77394686D01*
X129755971Y-77393262D01*
X129760563Y-77392452D01*
X129831123Y-77400321D01*
X129871539Y-77427443D01*
X130139595Y-77695499D01*
X130173621Y-77757811D01*
X130176500Y-77784594D01*
X130176500Y-80045592D01*
X130156498Y-80113713D01*
X130102842Y-80160206D01*
X130032568Y-80170310D01*
X129997251Y-80159787D01*
X129959897Y-80142369D01*
X129959892Y-80142367D01*
X129954910Y-80140044D01*
X129949602Y-80138622D01*
X129949600Y-80138621D01*
X129755970Y-80086738D01*
X129755968Y-80086738D01*
X129750655Y-80085314D01*
X129540000Y-80066884D01*
X129329345Y-80085314D01*
X129324032Y-80086738D01*
X129324030Y-80086738D01*
X129130400Y-80138621D01*
X129130398Y-80138622D01*
X129125090Y-80140044D01*
X129120109Y-80142366D01*
X129120108Y-80142367D01*
X128938423Y-80227088D01*
X128938420Y-80227090D01*
X128933442Y-80229411D01*
X128760224Y-80350699D01*
X128610699Y-80500224D01*
X128489411Y-80673442D01*
X128400044Y-80865090D01*
X128398622Y-80870398D01*
X128398621Y-80870400D01*
X128373657Y-80963567D01*
X128345314Y-81069345D01*
X128326884Y-81280000D01*
X128345314Y-81490655D01*
X128346738Y-81495968D01*
X128346738Y-81495970D01*
X128377705Y-81611538D01*
X128400044Y-81694910D01*
X128489411Y-81886558D01*
X128610699Y-82059776D01*
X128760224Y-82209301D01*
X128933442Y-82330589D01*
X128938420Y-82332910D01*
X128938423Y-82332912D01*
X129120108Y-82417633D01*
X129125090Y-82419956D01*
X129130398Y-82421378D01*
X129130400Y-82421379D01*
X129324030Y-82473262D01*
X129324032Y-82473262D01*
X129329345Y-82474686D01*
X129540000Y-82493116D01*
X129750655Y-82474686D01*
X129755968Y-82473262D01*
X129755970Y-82473262D01*
X129949600Y-82421379D01*
X129949602Y-82421378D01*
X129954910Y-82419956D01*
X129959892Y-82417633D01*
X130141577Y-82332912D01*
X130141580Y-82332910D01*
X130146558Y-82330589D01*
X130276522Y-82239587D01*
X130315269Y-82212457D01*
X130315270Y-82212456D01*
X130319776Y-82209301D01*
X130323665Y-82205412D01*
X130323671Y-82205407D01*
X130380192Y-82148886D01*
X130442504Y-82114860D01*
X130513319Y-82119925D01*
X130558382Y-82148886D01*
X134573029Y-86163533D01*
X134607055Y-86225845D01*
X134601990Y-86296660D01*
X134559443Y-86353496D01*
X134492923Y-86378307D01*
X134454520Y-86375147D01*
X134356524Y-86351620D01*
X134356518Y-86351619D01*
X134351711Y-86350465D01*
X134115000Y-86331835D01*
X133878289Y-86350465D01*
X133873482Y-86351619D01*
X133873476Y-86351620D01*
X133761506Y-86378502D01*
X133647406Y-86405895D01*
X133642835Y-86407788D01*
X133642833Y-86407789D01*
X133432611Y-86494865D01*
X133432607Y-86494867D01*
X133428037Y-86496760D01*
X133423817Y-86499346D01*
X133229798Y-86618241D01*
X133229792Y-86618245D01*
X133225584Y-86620824D01*
X133045031Y-86775031D01*
X133041823Y-86778787D01*
X133041818Y-86778792D01*
X132940811Y-86897056D01*
X132881361Y-86935866D01*
X132810366Y-86936372D01*
X132749189Y-86897056D01*
X132648182Y-86778792D01*
X132648177Y-86778787D01*
X132644969Y-86775031D01*
X132464416Y-86620824D01*
X132460208Y-86618245D01*
X132460202Y-86618241D01*
X132266183Y-86499346D01*
X132261963Y-86496760D01*
X132257393Y-86494867D01*
X132257389Y-86494865D01*
X132047167Y-86407789D01*
X132047165Y-86407788D01*
X132042594Y-86405895D01*
X131928494Y-86378502D01*
X131816524Y-86351620D01*
X131816518Y-86351619D01*
X131811711Y-86350465D01*
X131575000Y-86331835D01*
X131338289Y-86350465D01*
X131333482Y-86351619D01*
X131333476Y-86351620D01*
X131221506Y-86378502D01*
X131107406Y-86405895D01*
X131102835Y-86407788D01*
X131102833Y-86407789D01*
X130892611Y-86494865D01*
X130892607Y-86494867D01*
X130888037Y-86496760D01*
X130883817Y-86499346D01*
X130689798Y-86618241D01*
X130689792Y-86618245D01*
X130685584Y-86620824D01*
X130505031Y-86775031D01*
X130501823Y-86778787D01*
X130501818Y-86778792D01*
X130400811Y-86897056D01*
X130341361Y-86935866D01*
X130270366Y-86936372D01*
X130209189Y-86897056D01*
X130108182Y-86778792D01*
X130108177Y-86778787D01*
X130104969Y-86775031D01*
X129924416Y-86620824D01*
X129920208Y-86618245D01*
X129920202Y-86618241D01*
X129726183Y-86499346D01*
X129721963Y-86496760D01*
X129717393Y-86494867D01*
X129717389Y-86494865D01*
X129507167Y-86407789D01*
X129507165Y-86407788D01*
X129502594Y-86405895D01*
X129388494Y-86378502D01*
X129276524Y-86351620D01*
X129276518Y-86351619D01*
X129271711Y-86350465D01*
X129035000Y-86331835D01*
X128798289Y-86350465D01*
X128793482Y-86351619D01*
X128793476Y-86351620D01*
X128681506Y-86378502D01*
X128567406Y-86405895D01*
X128562835Y-86407788D01*
X128562833Y-86407789D01*
X128352611Y-86494865D01*
X128352607Y-86494867D01*
X128348037Y-86496760D01*
X128343817Y-86499346D01*
X128149798Y-86618241D01*
X128149792Y-86618245D01*
X128145584Y-86620824D01*
X127965031Y-86775031D01*
X127810824Y-86955584D01*
X127808245Y-86959792D01*
X127808241Y-86959798D01*
X127689346Y-87153817D01*
X127686760Y-87158037D01*
X127595895Y-87377406D01*
X127584503Y-87424858D01*
X127541904Y-87602297D01*
X127540465Y-87608289D01*
X127521835Y-87845000D01*
X127540465Y-88081711D01*
X127541619Y-88086518D01*
X127541620Y-88086524D01*
X127546911Y-88108562D01*
X127595895Y-88312594D01*
X127597788Y-88317165D01*
X127597789Y-88317167D01*
X127670502Y-88492712D01*
X127686760Y-88531963D01*
X127689346Y-88536183D01*
X127808241Y-88730202D01*
X127808245Y-88730208D01*
X127810824Y-88734416D01*
X127965031Y-88914969D01*
X128145584Y-89069176D01*
X128149792Y-89071755D01*
X128149798Y-89071759D01*
X128224090Y-89117285D01*
X128348037Y-89193240D01*
X128352607Y-89195133D01*
X128352611Y-89195135D01*
X128562833Y-89282211D01*
X128567406Y-89284105D01*
X128647609Y-89303360D01*
X128793476Y-89338380D01*
X128793482Y-89338381D01*
X128798289Y-89339535D01*
X129035000Y-89358165D01*
X129271711Y-89339535D01*
X129276518Y-89338381D01*
X129276524Y-89338380D01*
X129422391Y-89303360D01*
X129502594Y-89284105D01*
X129507167Y-89282211D01*
X129717389Y-89195135D01*
X129717393Y-89195133D01*
X129721963Y-89193240D01*
X129845910Y-89117285D01*
X129920202Y-89071759D01*
X129920208Y-89071755D01*
X129924416Y-89069176D01*
X130104969Y-88914969D01*
X130108177Y-88911213D01*
X130108182Y-88911208D01*
X130209189Y-88792944D01*
X130268639Y-88754134D01*
X130339634Y-88753628D01*
X130400811Y-88792944D01*
X130501818Y-88911208D01*
X130501823Y-88911213D01*
X130505031Y-88914969D01*
X130685584Y-89069176D01*
X130689792Y-89071755D01*
X130689798Y-89071759D01*
X130764090Y-89117285D01*
X130888037Y-89193240D01*
X130892607Y-89195133D01*
X130892611Y-89195135D01*
X131102833Y-89282211D01*
X131107406Y-89284105D01*
X131187609Y-89303360D01*
X131333476Y-89338380D01*
X131333482Y-89338381D01*
X131338289Y-89339535D01*
X131575000Y-89358165D01*
X131811711Y-89339535D01*
X131816518Y-89338381D01*
X131816524Y-89338380D01*
X131962391Y-89303360D01*
X132042594Y-89284105D01*
X132047167Y-89282211D01*
X132257389Y-89195135D01*
X132257393Y-89195133D01*
X132261963Y-89193240D01*
X132385910Y-89117285D01*
X132460202Y-89071759D01*
X132460208Y-89071755D01*
X132464416Y-89069176D01*
X132644969Y-88914969D01*
X132648177Y-88911213D01*
X132648182Y-88911208D01*
X132749189Y-88792944D01*
X132808639Y-88754134D01*
X132879634Y-88753628D01*
X132940811Y-88792944D01*
X133041818Y-88911208D01*
X133041823Y-88911213D01*
X133045031Y-88914969D01*
X133225584Y-89069176D01*
X133229792Y-89071755D01*
X133229798Y-89071759D01*
X133304090Y-89117285D01*
X133428037Y-89193240D01*
X133432607Y-89195133D01*
X133432611Y-89195135D01*
X133642833Y-89282211D01*
X133647406Y-89284105D01*
X133727609Y-89303360D01*
X133873476Y-89338380D01*
X133873482Y-89338381D01*
X133878289Y-89339535D01*
X134115000Y-89358165D01*
X134351711Y-89339535D01*
X134356518Y-89338381D01*
X134356524Y-89338380D01*
X134574951Y-89285940D01*
X134645859Y-89289487D01*
X134693460Y-89319364D01*
X145461343Y-100087247D01*
X145468887Y-100095537D01*
X145473000Y-100102018D01*
X145478777Y-100107443D01*
X145522667Y-100148658D01*
X145525509Y-100151413D01*
X145545231Y-100171135D01*
X145548373Y-100173572D01*
X145548433Y-100173619D01*
X145557445Y-100181317D01*
X145575534Y-100198303D01*
X145589679Y-100211586D01*
X145607335Y-100221292D01*
X145607431Y-100221345D01*
X145623953Y-100232198D01*
X145639959Y-100244614D01*
X145647237Y-100247764D01*
X145647238Y-100247764D01*
X145680537Y-100262174D01*
X145691187Y-100267391D01*
X145729940Y-100288695D01*
X145737615Y-100290666D01*
X145737616Y-100290666D01*
X145749562Y-100293733D01*
X145768267Y-100300137D01*
X145786855Y-100308181D01*
X145794678Y-100309420D01*
X145794688Y-100309423D01*
X145830524Y-100315099D01*
X145842144Y-100317505D01*
X145877289Y-100326528D01*
X145884970Y-100328500D01*
X145905224Y-100328500D01*
X145924934Y-100330051D01*
X145944943Y-100333220D01*
X145952835Y-100332474D01*
X145988961Y-100329059D01*
X146000819Y-100328500D01*
X159715200Y-100328500D01*
X159783321Y-100348502D01*
X159829814Y-100402158D01*
X159841200Y-100454500D01*
X159841200Y-100470424D01*
X159839649Y-100490134D01*
X159836480Y-100510143D01*
X159837226Y-100518035D01*
X159840641Y-100554161D01*
X159841200Y-100566019D01*
X159841200Y-102163207D01*
X159838968Y-102186816D01*
X159837425Y-102194906D01*
X159840951Y-102250951D01*
X159841200Y-102258862D01*
X159841200Y-102274856D01*
X159843206Y-102290730D01*
X159843948Y-102298590D01*
X159847475Y-102354650D01*
X159849925Y-102362191D01*
X159850021Y-102362487D01*
X159855194Y-102385631D01*
X159855232Y-102385935D01*
X159855233Y-102385940D01*
X159856226Y-102393797D01*
X159859142Y-102401162D01*
X159859143Y-102401166D01*
X159876899Y-102446011D01*
X159879571Y-102453430D01*
X159896936Y-102506875D01*
X159901186Y-102513571D01*
X159901186Y-102513572D01*
X159901350Y-102513831D01*
X159912115Y-102534958D01*
X159912229Y-102535246D01*
X159912232Y-102535251D01*
X159915148Y-102542617D01*
X159919804Y-102549025D01*
X159919807Y-102549031D01*
X159948158Y-102588052D01*
X159952601Y-102594589D01*
X159982700Y-102642018D01*
X159988478Y-102647444D01*
X159988479Y-102647445D01*
X159988707Y-102647659D01*
X160004386Y-102665443D01*
X160008742Y-102671437D01*
X160032601Y-102738303D01*
X160016523Y-102807455D01*
X159965611Y-102856937D01*
X159906807Y-102871500D01*
X141953767Y-102871500D01*
X141942584Y-102870973D01*
X141935091Y-102869298D01*
X141927165Y-102869547D01*
X141927164Y-102869547D01*
X141867014Y-102871438D01*
X141863055Y-102871500D01*
X141835144Y-102871500D01*
X141831210Y-102871997D01*
X141831209Y-102871997D01*
X141831144Y-102872005D01*
X141819307Y-102872938D01*
X141787490Y-102873938D01*
X141783029Y-102874078D01*
X141775110Y-102874327D01*
X141757454Y-102879456D01*
X141755658Y-102879978D01*
X141736306Y-102883986D01*
X141729235Y-102884880D01*
X141716203Y-102886526D01*
X141708834Y-102889443D01*
X141708832Y-102889444D01*
X141675097Y-102902800D01*
X141663869Y-102906645D01*
X141621407Y-102918982D01*
X141614584Y-102923017D01*
X141614582Y-102923018D01*
X141603972Y-102929293D01*
X141586224Y-102937988D01*
X141567383Y-102945448D01*
X141560967Y-102950110D01*
X141560966Y-102950110D01*
X141531613Y-102971436D01*
X141521693Y-102977952D01*
X141490465Y-102996420D01*
X141490462Y-102996422D01*
X141483638Y-103000458D01*
X141469317Y-103014779D01*
X141454284Y-103027619D01*
X141437893Y-103039528D01*
X141432842Y-103045634D01*
X141409702Y-103073605D01*
X141401712Y-103082384D01*
X129613459Y-114870636D01*
X129551147Y-114904662D01*
X129494951Y-114904060D01*
X129442104Y-114891373D01*
X129276524Y-114851620D01*
X129276518Y-114851619D01*
X129271711Y-114850465D01*
X129035000Y-114831835D01*
X128798289Y-114850465D01*
X128793482Y-114851619D01*
X128793476Y-114851620D01*
X128647609Y-114886640D01*
X128567406Y-114905895D01*
X128562835Y-114907788D01*
X128562833Y-114907789D01*
X128352611Y-114994865D01*
X128352607Y-114994867D01*
X128348037Y-114996760D01*
X128343817Y-114999346D01*
X128149798Y-115118241D01*
X128149792Y-115118245D01*
X128145584Y-115120824D01*
X127965031Y-115275031D01*
X127810824Y-115455584D01*
X127808245Y-115459792D01*
X127808241Y-115459798D01*
X127689346Y-115653817D01*
X127686760Y-115658037D01*
X127684867Y-115662607D01*
X127684865Y-115662611D01*
X127610892Y-115841200D01*
X127595895Y-115877406D01*
X127540465Y-116108289D01*
X127521835Y-116345000D01*
X107358760Y-116345000D01*
X107188004Y-95000500D01*
X107188000Y-94999492D01*
X107188000Y-71754000D01*
X107208002Y-71685879D01*
X107261658Y-71639386D01*
X107314000Y-71628000D01*
X177166000Y-71628000D01*
X177234121Y-71648002D01*
G37*
%TD.AperFunction*%
%TA.AperFunction,Conductor*%
G36*
X163017012Y-84317970D02*
G01*
X163023595Y-84324099D01*
X164816743Y-86117247D01*
X164824287Y-86125537D01*
X164828400Y-86132018D01*
X164834177Y-86137443D01*
X164878067Y-86178658D01*
X164880909Y-86181413D01*
X164900630Y-86201134D01*
X164903825Y-86203612D01*
X164912847Y-86211318D01*
X164945079Y-86241586D01*
X164952028Y-86245406D01*
X164962832Y-86251346D01*
X164979356Y-86262199D01*
X164995359Y-86274613D01*
X165035943Y-86292176D01*
X165046573Y-86297383D01*
X165085340Y-86318695D01*
X165093017Y-86320666D01*
X165093022Y-86320668D01*
X165104958Y-86323732D01*
X165123666Y-86330137D01*
X165142255Y-86338181D01*
X165150083Y-86339421D01*
X165150090Y-86339423D01*
X165185924Y-86345099D01*
X165197544Y-86347505D01*
X165232689Y-86356528D01*
X165240370Y-86358500D01*
X165260624Y-86358500D01*
X165280334Y-86360051D01*
X165300343Y-86363220D01*
X165308235Y-86362474D01*
X165344361Y-86359059D01*
X165356219Y-86358500D01*
X166815200Y-86358500D01*
X166883321Y-86378502D01*
X166929814Y-86432158D01*
X166941200Y-86484500D01*
X166941200Y-86488624D01*
X166939649Y-86508334D01*
X166936480Y-86528343D01*
X166937226Y-86536235D01*
X166940641Y-86572361D01*
X166941200Y-86584219D01*
X166941200Y-87416033D01*
X166940673Y-87427216D01*
X166938998Y-87434709D01*
X166939247Y-87442635D01*
X166939247Y-87442636D01*
X166941138Y-87502786D01*
X166941200Y-87506745D01*
X166941200Y-87534656D01*
X166941697Y-87538590D01*
X166941697Y-87538591D01*
X166941705Y-87538656D01*
X166942638Y-87550493D01*
X166944027Y-87594689D01*
X166949412Y-87613223D01*
X166949678Y-87614139D01*
X166953687Y-87633500D01*
X166956226Y-87653597D01*
X166959145Y-87660968D01*
X166959145Y-87660970D01*
X166972504Y-87694712D01*
X166976349Y-87705942D01*
X166986471Y-87740783D01*
X166988682Y-87748393D01*
X166992715Y-87755212D01*
X166992717Y-87755217D01*
X166998993Y-87765828D01*
X167007688Y-87783576D01*
X167015148Y-87802417D01*
X167019810Y-87808833D01*
X167019810Y-87808834D01*
X167041136Y-87838187D01*
X167047652Y-87848107D01*
X167057035Y-87863972D01*
X167070158Y-87886162D01*
X167084479Y-87900483D01*
X167097319Y-87915516D01*
X167109228Y-87931907D01*
X167115334Y-87936958D01*
X167143305Y-87960098D01*
X167152084Y-87968088D01*
X167206243Y-88022247D01*
X167213787Y-88030537D01*
X167217900Y-88037018D01*
X167223677Y-88042443D01*
X167267567Y-88083658D01*
X167270409Y-88086413D01*
X167290131Y-88106135D01*
X167293255Y-88108558D01*
X167293259Y-88108562D01*
X167293324Y-88108612D01*
X167302345Y-88116317D01*
X167334579Y-88146586D01*
X167341528Y-88150406D01*
X167345935Y-88152829D01*
X167395996Y-88203172D01*
X167410892Y-88272588D01*
X167385895Y-88339038D01*
X167349379Y-88371699D01*
X167325438Y-88385858D01*
X167311114Y-88400182D01*
X167296087Y-88413017D01*
X167279693Y-88424928D01*
X167274640Y-88431036D01*
X167274638Y-88431038D01*
X167251508Y-88458998D01*
X167243518Y-88467778D01*
X167182449Y-88528847D01*
X167174163Y-88536387D01*
X167167682Y-88540500D01*
X167162255Y-88546279D01*
X167162254Y-88546280D01*
X167121056Y-88590152D01*
X167118301Y-88592994D01*
X167098565Y-88612730D01*
X167096085Y-88615927D01*
X167088382Y-88624947D01*
X167058114Y-88657179D01*
X167054295Y-88664125D01*
X167054293Y-88664128D01*
X167048352Y-88674934D01*
X167037501Y-88691453D01*
X167025086Y-88707459D01*
X167021941Y-88714728D01*
X167021938Y-88714732D01*
X167007526Y-88748037D01*
X167002309Y-88758687D01*
X166981005Y-88797440D01*
X166979034Y-88805115D01*
X166979034Y-88805116D01*
X166975967Y-88817062D01*
X166969563Y-88835766D01*
X166961519Y-88854355D01*
X166960280Y-88862178D01*
X166960277Y-88862188D01*
X166954601Y-88898024D01*
X166952195Y-88909644D01*
X166943172Y-88944789D01*
X166941200Y-88952470D01*
X166941200Y-88972724D01*
X166939649Y-88992434D01*
X166936480Y-89012443D01*
X166937226Y-89020335D01*
X166940641Y-89056461D01*
X166941200Y-89068319D01*
X166941200Y-92003207D01*
X166938968Y-92026816D01*
X166937425Y-92034906D01*
X166937923Y-92042817D01*
X166940951Y-92090951D01*
X166941200Y-92098862D01*
X166941200Y-99623207D01*
X166938968Y-99646816D01*
X166937425Y-99654906D01*
X166937923Y-99662817D01*
X166940951Y-99710951D01*
X166941200Y-99718862D01*
X166941200Y-99734856D01*
X166943206Y-99750730D01*
X166943948Y-99758590D01*
X166947475Y-99814650D01*
X166949925Y-99822191D01*
X166950021Y-99822487D01*
X166955194Y-99845631D01*
X166955232Y-99845935D01*
X166955233Y-99845940D01*
X166956226Y-99853797D01*
X166959142Y-99861162D01*
X166959143Y-99861166D01*
X166976899Y-99906011D01*
X166979571Y-99913430D01*
X166996936Y-99966875D01*
X167001186Y-99973571D01*
X167001186Y-99973572D01*
X167001350Y-99973831D01*
X167012115Y-99994958D01*
X167012229Y-99995246D01*
X167012232Y-99995251D01*
X167015148Y-100002617D01*
X167019804Y-100009025D01*
X167019807Y-100009031D01*
X167048158Y-100048052D01*
X167052601Y-100054589D01*
X167082700Y-100102018D01*
X167088477Y-100107443D01*
X167088479Y-100107445D01*
X167088707Y-100107659D01*
X167104386Y-100125443D01*
X167108742Y-100131437D01*
X167132601Y-100198303D01*
X167116523Y-100267455D01*
X167065611Y-100316937D01*
X167006807Y-100331500D01*
X166470195Y-100331500D01*
X166402074Y-100311498D01*
X166381100Y-100294595D01*
X160978252Y-94891747D01*
X160970712Y-94883461D01*
X160966600Y-94876982D01*
X160916948Y-94830356D01*
X160914107Y-94827602D01*
X160894370Y-94807865D01*
X160891173Y-94805385D01*
X160882151Y-94797680D01*
X160855700Y-94772841D01*
X160849921Y-94767414D01*
X160842975Y-94763595D01*
X160842972Y-94763593D01*
X160832166Y-94757652D01*
X160815647Y-94746801D01*
X160815183Y-94746441D01*
X160799641Y-94734386D01*
X160792372Y-94731241D01*
X160792368Y-94731238D01*
X160759063Y-94716826D01*
X160748413Y-94711609D01*
X160709660Y-94690305D01*
X160690037Y-94685267D01*
X160671334Y-94678863D01*
X160660020Y-94673967D01*
X160660019Y-94673967D01*
X160652745Y-94670819D01*
X160644922Y-94669580D01*
X160644912Y-94669577D01*
X160609076Y-94663901D01*
X160597456Y-94661495D01*
X160562311Y-94652472D01*
X160562310Y-94652472D01*
X160554630Y-94650500D01*
X160534376Y-94650500D01*
X160514665Y-94648949D01*
X160502486Y-94647020D01*
X160494657Y-94645780D01*
X160486765Y-94646526D01*
X160450639Y-94649941D01*
X160438781Y-94650500D01*
X154568594Y-94650500D01*
X154500473Y-94630498D01*
X154479499Y-94613595D01*
X153555573Y-93689669D01*
X160292001Y-93689669D01*
X160292371Y-93696490D01*
X160297895Y-93747352D01*
X160301521Y-93762604D01*
X160346676Y-93883054D01*
X160355214Y-93898649D01*
X160431715Y-94000724D01*
X160444276Y-94013285D01*
X160546351Y-94089786D01*
X160561946Y-94098324D01*
X160682394Y-94143478D01*
X160697649Y-94147105D01*
X160748514Y-94152631D01*
X160755328Y-94153000D01*
X161277885Y-94153000D01*
X161293124Y-94148525D01*
X161294329Y-94147135D01*
X161296000Y-94139452D01*
X161296000Y-94134884D01*
X161804000Y-94134884D01*
X161808475Y-94150123D01*
X161809865Y-94151328D01*
X161817548Y-94152999D01*
X162344669Y-94152999D01*
X162351490Y-94152629D01*
X162402352Y-94147105D01*
X162417604Y-94143479D01*
X162538054Y-94098324D01*
X162553649Y-94089786D01*
X162655724Y-94013285D01*
X162668285Y-94000724D01*
X162744786Y-93898649D01*
X162753324Y-93883054D01*
X162798478Y-93762606D01*
X162802105Y-93747351D01*
X162807631Y-93696486D01*
X162808000Y-93689672D01*
X162808000Y-93617115D01*
X162803525Y-93601876D01*
X162802135Y-93600671D01*
X162794452Y-93599000D01*
X161822115Y-93599000D01*
X161806876Y-93603475D01*
X161805671Y-93604865D01*
X161804000Y-93612548D01*
X161804000Y-94134884D01*
X161296000Y-94134884D01*
X161296000Y-93617115D01*
X161291525Y-93601876D01*
X161290135Y-93600671D01*
X161282452Y-93599000D01*
X160310116Y-93599000D01*
X160294877Y-93603475D01*
X160293672Y-93604865D01*
X160292001Y-93612548D01*
X160292001Y-93689669D01*
X153555573Y-93689669D01*
X148289364Y-88423459D01*
X148255338Y-88361147D01*
X148255940Y-88304950D01*
X148256077Y-88304382D01*
X148303089Y-88108562D01*
X148308380Y-88086524D01*
X148308381Y-88086518D01*
X148309535Y-88081711D01*
X148328165Y-87845000D01*
X148311836Y-87637527D01*
X148326432Y-87568048D01*
X148376274Y-87517489D01*
X148445539Y-87501902D01*
X148512235Y-87526237D01*
X148526543Y-87538547D01*
X153455243Y-92467247D01*
X153462787Y-92475537D01*
X153466900Y-92482018D01*
X153472677Y-92487443D01*
X153516567Y-92528658D01*
X153519409Y-92531413D01*
X153539131Y-92551135D01*
X153542255Y-92553558D01*
X153542259Y-92553562D01*
X153542324Y-92553612D01*
X153551345Y-92561317D01*
X153583579Y-92591586D01*
X153590527Y-92595405D01*
X153590529Y-92595407D01*
X153601332Y-92601346D01*
X153617859Y-92612202D01*
X153627598Y-92619757D01*
X153627600Y-92619758D01*
X153633860Y-92624614D01*
X153674440Y-92642174D01*
X153685088Y-92647391D01*
X153723840Y-92668695D01*
X153731516Y-92670666D01*
X153731519Y-92670667D01*
X153743462Y-92673733D01*
X153762167Y-92680137D01*
X153780755Y-92688181D01*
X153788578Y-92689420D01*
X153788588Y-92689423D01*
X153824424Y-92695099D01*
X153836044Y-92697505D01*
X153871189Y-92706528D01*
X153878870Y-92708500D01*
X153899124Y-92708500D01*
X153918834Y-92710051D01*
X153938843Y-92713220D01*
X153946735Y-92712474D01*
X153982861Y-92709059D01*
X153994719Y-92708500D01*
X160201783Y-92708500D01*
X160269904Y-92728502D01*
X160316397Y-92782158D01*
X160326501Y-92852432D01*
X160319765Y-92878729D01*
X160301522Y-92927391D01*
X160297895Y-92942649D01*
X160292369Y-92993514D01*
X160292000Y-93000328D01*
X160292000Y-93072885D01*
X160296475Y-93088124D01*
X160297865Y-93089329D01*
X160305548Y-93091000D01*
X162789884Y-93091000D01*
X162805123Y-93086525D01*
X162806328Y-93085135D01*
X162807999Y-93077452D01*
X162807999Y-93000331D01*
X162807629Y-92993510D01*
X162802105Y-92942648D01*
X162798479Y-92927396D01*
X162753324Y-92806946D01*
X162744786Y-92791352D01*
X162740761Y-92785981D01*
X162715914Y-92719474D01*
X162730968Y-92650092D01*
X162740761Y-92634853D01*
X162745230Y-92628891D01*
X162745232Y-92628888D01*
X162750615Y-92621705D01*
X162801745Y-92485316D01*
X162808500Y-92423134D01*
X162808500Y-91726866D01*
X162801745Y-91664684D01*
X162750615Y-91528295D01*
X162741074Y-91515565D01*
X162716226Y-91449061D01*
X162731278Y-91379678D01*
X162741070Y-91364441D01*
X162750615Y-91351705D01*
X162801745Y-91215316D01*
X162808500Y-91153134D01*
X162808500Y-90456866D01*
X162801745Y-90394684D01*
X162750615Y-90258295D01*
X162741074Y-90245565D01*
X162716226Y-90179061D01*
X162731278Y-90109678D01*
X162741070Y-90094441D01*
X162750615Y-90081705D01*
X162801745Y-89945316D01*
X162808500Y-89883134D01*
X162808500Y-89186866D01*
X162801745Y-89124684D01*
X162750615Y-88988295D01*
X162741074Y-88975565D01*
X162716226Y-88909061D01*
X162731278Y-88839678D01*
X162741070Y-88824441D01*
X162750615Y-88811705D01*
X162801745Y-88675316D01*
X162808500Y-88613134D01*
X162808500Y-87916866D01*
X162801745Y-87854684D01*
X162750615Y-87718295D01*
X162741074Y-87705565D01*
X162716226Y-87639061D01*
X162731278Y-87569678D01*
X162741070Y-87554441D01*
X162750615Y-87541705D01*
X162801745Y-87405316D01*
X162808500Y-87343134D01*
X162808500Y-86646866D01*
X162801745Y-86584684D01*
X162750615Y-86448295D01*
X162741074Y-86435565D01*
X162716226Y-86369061D01*
X162731278Y-86299678D01*
X162741070Y-86284441D01*
X162750615Y-86271705D01*
X162801745Y-86135316D01*
X162808500Y-86073134D01*
X162808500Y-85376866D01*
X162801745Y-85314684D01*
X162750615Y-85178295D01*
X162741074Y-85165565D01*
X162716226Y-85099061D01*
X162731278Y-85029678D01*
X162741070Y-85014441D01*
X162750615Y-85001705D01*
X162801745Y-84865316D01*
X162808500Y-84803134D01*
X162808500Y-84413194D01*
X162828502Y-84345073D01*
X162882158Y-84298580D01*
X162952432Y-84288476D01*
X163017012Y-84317970D01*
G37*
%TD.AperFunction*%
M02*
