G04 #@! TF.GenerationSoftware,KiCad,Pcbnew,(6.0.0)*
G04 #@! TF.CreationDate,2022-02-13T15:34:51+09:00*
G04 #@! TF.ProjectId,8x8_eyes,3878385f-6579-4657-932e-6b696361645f,rev?*
G04 #@! TF.SameCoordinates,PX87a6900PY6486dd0*
G04 #@! TF.FileFunction,Copper,L1,Top*
G04 #@! TF.FilePolarity,Positive*
%FSLAX46Y46*%
G04 Gerber Fmt 4.6, Leading zero omitted, Abs format (unit mm)*
G04 Created by KiCad (PCBNEW (6.0.0)) date 2022-02-13 15:34:51*
%MOMM*%
%LPD*%
G01*
G04 APERTURE LIST*
G04 Aperture macros list*
%AMRoundRect*
0 Rectangle with rounded corners*
0 $1 Rounding radius*
0 $2 $3 $4 $5 $6 $7 $8 $9 X,Y pos of 4 corners*
0 Add a 4 corners polygon primitive as box body*
4,1,4,$2,$3,$4,$5,$6,$7,$8,$9,$2,$3,0*
0 Add four circle primitives for the rounded corners*
1,1,$1+$1,$2,$3*
1,1,$1+$1,$4,$5*
1,1,$1+$1,$6,$7*
1,1,$1+$1,$8,$9*
0 Add four rect primitives between the rounded corners*
20,1,$1+$1,$2,$3,$4,$5,0*
20,1,$1+$1,$4,$5,$6,$7,0*
20,1,$1+$1,$6,$7,$8,$9,0*
20,1,$1+$1,$8,$9,$2,$3,0*%
G04 Aperture macros list end*
G04 #@! TA.AperFunction,ComponentPad*
%ADD10C,2.000000*%
G04 #@! TD*
G04 #@! TA.AperFunction,ComponentPad*
%ADD11C,1.400000*%
G04 #@! TD*
G04 #@! TA.AperFunction,ComponentPad*
%ADD12O,1.400000X1.400000*%
G04 #@! TD*
G04 #@! TA.AperFunction,ComponentPad*
%ADD13R,1.600000X1.600000*%
G04 #@! TD*
G04 #@! TA.AperFunction,ComponentPad*
%ADD14O,1.600000X1.600000*%
G04 #@! TD*
G04 #@! TA.AperFunction,ComponentPad*
%ADD15RoundRect,0.250000X0.620000X0.845000X-0.620000X0.845000X-0.620000X-0.845000X0.620000X-0.845000X0*%
G04 #@! TD*
G04 #@! TA.AperFunction,ComponentPad*
%ADD16O,1.740000X2.190000*%
G04 #@! TD*
G04 #@! TA.AperFunction,ComponentPad*
%ADD17C,1.600000*%
G04 #@! TD*
G04 #@! TA.AperFunction,ViaPad*
%ADD18C,0.800000*%
G04 #@! TD*
G04 #@! TA.AperFunction,Conductor*
%ADD19C,0.250000*%
G04 #@! TD*
G04 APERTURE END LIST*
D10*
X-13205000Y-10935000D03*
X-10665000Y-10935000D03*
X-8125000Y-10935000D03*
X-5585000Y-10935000D03*
X-3045000Y-10935000D03*
X-505000Y-10935000D03*
X2035000Y-10935000D03*
X4575000Y-10935000D03*
X4575000Y17565000D03*
X2035000Y17565000D03*
X-505000Y17565000D03*
X-3045000Y17565000D03*
X-5585000Y17565000D03*
X-8125000Y17565000D03*
X-10665000Y17565000D03*
X-13205000Y17565000D03*
D11*
X-10160000Y-1270000D03*
D12*
X-10160000Y-6350000D03*
D11*
X0Y-1270000D03*
D12*
X0Y-6350000D03*
D11*
X0Y8890000D03*
D12*
X0Y13970000D03*
D11*
X5080000Y8890000D03*
D12*
X5080000Y13970000D03*
D13*
X16520000Y2525000D03*
D14*
X16520000Y-15000D03*
X16520000Y-2555000D03*
X16520000Y-5095000D03*
X16520000Y-7635000D03*
X16520000Y-10175000D03*
X16520000Y-12715000D03*
X16520000Y-15255000D03*
X24140000Y-15255000D03*
X24140000Y-12715000D03*
X24140000Y-10175000D03*
X24140000Y-7635000D03*
X24140000Y-5095000D03*
X24140000Y-2555000D03*
X24140000Y-15000D03*
X24140000Y2525000D03*
D11*
X-5080000Y8890000D03*
D12*
X-5080000Y13970000D03*
D11*
X-5080000Y-6350000D03*
D12*
X-5080000Y-1270000D03*
D11*
X-15240000Y13970000D03*
D12*
X-15240000Y8890000D03*
D13*
X16520000Y25385000D03*
D14*
X16520000Y22845000D03*
X16520000Y20305000D03*
X16520000Y17765000D03*
X16520000Y15225000D03*
X16520000Y12685000D03*
X16520000Y10145000D03*
X16520000Y7605000D03*
X24140000Y7605000D03*
X24140000Y10145000D03*
X24140000Y12685000D03*
X24140000Y15225000D03*
X24140000Y17765000D03*
X24140000Y20305000D03*
X24140000Y22845000D03*
X24140000Y25385000D03*
D11*
X-10160000Y8890000D03*
D12*
X-10160000Y13970000D03*
D15*
X22860000Y-21590000D03*
D16*
X20320000Y-21590000D03*
X17780000Y-21590000D03*
X15240000Y-21590000D03*
X12700000Y-21590000D03*
D17*
X10160000Y-10100000D03*
D14*
X10160000Y-2600000D03*
D18*
X2456000Y11834900D03*
X-3635200Y10324300D03*
X1236100Y9704100D03*
X-1304985Y26692851D03*
X-25400000Y26670000D03*
X25400000Y26670000D03*
X-25400000Y-26670000D03*
X-1270000Y-26670000D03*
X25400000Y-26670000D03*
D19*
X16520000Y14099700D02*
X16764900Y14099700D01*
X2743200Y11547700D02*
X2456000Y11834900D01*
X16520000Y15225000D02*
X16520000Y14099700D01*
X16996200Y11547700D02*
X2743200Y11547700D01*
X16764900Y14099700D02*
X17666500Y13198100D01*
X17666500Y13198100D02*
X17666500Y12218000D01*
X17666500Y12218000D02*
X16996200Y11547700D01*
X-505000Y17565000D02*
X0Y17060000D01*
X0Y17060000D02*
X0Y13970000D01*
X16520000Y12685000D02*
X15394700Y12685000D01*
X-6365000Y12685000D02*
X15394700Y12685000D01*
X-10160000Y8890000D02*
X-6365000Y12685000D01*
X-10639900Y7862600D02*
X-9418600Y7862600D01*
X-15240000Y13970000D02*
X-15240000Y12462700D01*
X-6197300Y11083900D02*
X14455800Y11083900D01*
X-15240000Y12462700D02*
X-10639900Y7862600D01*
X16520000Y10145000D02*
X15394700Y10145000D01*
X-9418600Y7862600D02*
X-6197300Y11083900D01*
X14455800Y11083900D02*
X15394700Y10145000D01*
X-3463200Y10496300D02*
X7423400Y10496300D01*
X-3635200Y10324300D02*
X-3463200Y10496300D01*
X16520000Y2525000D02*
X15394700Y2525000D01*
X7423400Y10496300D02*
X15394700Y2525000D01*
X13495200Y-2555000D02*
X1236100Y9704100D01*
X16520000Y-2555000D02*
X13495200Y-2555000D01*
X-7365000Y-5095000D02*
X16520000Y-5095000D01*
X-13205000Y-10935000D02*
X-7365000Y-5095000D01*
X3368200Y-12268200D02*
X10761500Y-12268200D01*
X2035000Y-10935000D02*
X3368200Y-12268200D01*
X10761500Y-12268200D02*
X15394700Y-7635000D01*
X16520000Y-7635000D02*
X15394700Y-7635000D01*
X17645300Y-13221400D02*
X17645300Y-12144200D01*
X-7723500Y-13876500D02*
X16990200Y-13876500D01*
X16520000Y-10175000D02*
X16520000Y-11300300D01*
X17645300Y-12144200D02*
X16801400Y-11300300D01*
X-10665000Y-10935000D02*
X-7723500Y-13876500D01*
X16990200Y-13876500D02*
X17645300Y-13221400D01*
X16801400Y-11300300D02*
X16520000Y-11300300D01*
X-3045000Y-10935000D02*
X-1176600Y-12803400D01*
X-1176600Y-12803400D02*
X15306300Y-12803400D01*
X15306300Y-12803400D02*
X15394700Y-12715000D01*
X16520000Y-12715000D02*
X15394700Y-12715000D01*
X12410600Y-3725300D02*
X11285300Y-2600000D01*
X24140000Y16639700D02*
X23876300Y16639700D01*
X23014700Y-8760300D02*
X16520000Y-15255000D01*
X21645000Y-3725300D02*
X12410600Y-3725300D01*
X23014700Y14099700D02*
X16520000Y7605000D01*
X24140000Y-5095000D02*
X23014700Y-5095000D01*
X23014700Y15778100D02*
X23014700Y14099700D01*
X10160000Y-2600000D02*
X11285300Y-2600000D01*
X23876300Y16639700D02*
X23014700Y15778100D01*
X24140000Y17765000D02*
X24140000Y16639700D01*
X23014700Y-5095000D02*
X23014700Y-8760300D01*
X23014700Y-5095000D02*
X21645000Y-3725300D01*
X24140000Y-13840300D02*
X23858700Y-13840300D01*
X22860000Y-14839000D02*
X22860000Y-21590000D01*
X24140000Y-12715000D02*
X24140000Y-13840300D01*
X23858700Y-13840300D02*
X22860000Y-14839000D01*
X24140000Y-10175000D02*
X24140000Y-11300300D01*
X24140000Y-11300300D02*
X23902800Y-11300300D01*
X20320000Y-14883100D02*
X20320000Y-21590000D01*
X23902800Y-11300300D02*
X20320000Y-14883100D01*
X24140000Y-8760300D02*
X23858600Y-8760300D01*
X23014700Y-9604200D02*
X23014700Y-10931300D01*
X15240000Y-18706000D02*
X15240000Y-21590000D01*
X23858600Y-8760300D02*
X23014700Y-9604200D01*
X23014700Y-10931300D02*
X15240000Y-18706000D01*
X24140000Y-7635000D02*
X24140000Y-8760300D01*
X22546400Y-15000D02*
X15358000Y7173400D01*
X18116800Y15254600D02*
X16876400Y16495000D01*
X16116000Y8875000D02*
X16876900Y8875000D01*
X16876900Y8875000D02*
X18116800Y10114900D01*
X15358000Y8117000D02*
X16116000Y8875000D01*
X5645000Y16495000D02*
X4575000Y17565000D01*
X24140000Y-15000D02*
X22546400Y-15000D01*
X15358000Y7173400D02*
X15358000Y8117000D01*
X18116800Y10114900D02*
X18116800Y15254600D01*
X16876400Y16495000D02*
X5645000Y16495000D01*
G04 #@! TA.AperFunction,Conductor*
G36*
X26612121Y27919998D02*
G01*
X26658614Y27866342D01*
X26670000Y27814000D01*
X26670000Y-27814000D01*
X26649998Y-27882121D01*
X26596342Y-27928614D01*
X26544000Y-27940000D01*
X-26544000Y-27940000D01*
X-26612121Y-27919998D01*
X-26658614Y-27866342D01*
X-26670000Y-27814000D01*
X-26670000Y-21871054D01*
X11322000Y-21871054D01*
X11322225Y-21876363D01*
X11336339Y-22042707D01*
X11338129Y-22053179D01*
X11394198Y-22269202D01*
X11397734Y-22279242D01*
X11489399Y-22482732D01*
X11494568Y-22492018D01*
X11619210Y-22677155D01*
X11625871Y-22685441D01*
X11779924Y-22846930D01*
X11787892Y-22853979D01*
X11966952Y-22987203D01*
X11975982Y-22992802D01*
X12174931Y-23093953D01*
X12184792Y-23097956D01*
X12397929Y-23164138D01*
X12408309Y-23166420D01*
X12428043Y-23169036D01*
X12442207Y-23166840D01*
X12446000Y-23153655D01*
X12446000Y-21862115D01*
X12441525Y-21846876D01*
X12440135Y-21845671D01*
X12432452Y-21844000D01*
X11340115Y-21844000D01*
X11324876Y-21848475D01*
X11323671Y-21849865D01*
X11322000Y-21857548D01*
X11322000Y-21871054D01*
X-26670000Y-21871054D01*
X-26670000Y-21317885D01*
X11322000Y-21317885D01*
X11326475Y-21333124D01*
X11327865Y-21334329D01*
X11335548Y-21336000D01*
X12427885Y-21336000D01*
X12443124Y-21331525D01*
X12444329Y-21330135D01*
X12446000Y-21322452D01*
X12446000Y-20028373D01*
X12442027Y-20014842D01*
X12431420Y-20013317D01*
X12307812Y-20039252D01*
X12297616Y-20042312D01*
X12090048Y-20124284D01*
X12080511Y-20129018D01*
X11889715Y-20244796D01*
X11881122Y-20251062D01*
X11712559Y-20397333D01*
X11705139Y-20404964D01*
X11563632Y-20577542D01*
X11557607Y-20586309D01*
X11447203Y-20780262D01*
X11442738Y-20789926D01*
X11366590Y-20999711D01*
X11363819Y-21009979D01*
X11323894Y-21230766D01*
X11322961Y-21238995D01*
X11322070Y-21257874D01*
X11322000Y-21260849D01*
X11322000Y-21317885D01*
X-26670000Y-21317885D01*
X-26670000Y-2866522D01*
X8877273Y-2866522D01*
X8924764Y-3043761D01*
X8928510Y-3054053D01*
X9020586Y-3251511D01*
X9026069Y-3261007D01*
X9151028Y-3439467D01*
X9158084Y-3447875D01*
X9312125Y-3601916D01*
X9320533Y-3608972D01*
X9498993Y-3733931D01*
X9508489Y-3739414D01*
X9705947Y-3831490D01*
X9716239Y-3835236D01*
X9888503Y-3881394D01*
X9902599Y-3881058D01*
X9906000Y-3873116D01*
X9906000Y-3867967D01*
X10414000Y-3867967D01*
X10417973Y-3881498D01*
X10426522Y-3882727D01*
X10603761Y-3835236D01*
X10614053Y-3831490D01*
X10811511Y-3739414D01*
X10821007Y-3733931D01*
X10999467Y-3608972D01*
X11007875Y-3601916D01*
X11161916Y-3447875D01*
X11168972Y-3439467D01*
X11293931Y-3261007D01*
X11299414Y-3251511D01*
X11391490Y-3054053D01*
X11395236Y-3043761D01*
X11441394Y-2871497D01*
X11441058Y-2857401D01*
X11433116Y-2854000D01*
X10432115Y-2854000D01*
X10416876Y-2858475D01*
X10415671Y-2859865D01*
X10414000Y-2867548D01*
X10414000Y-3867967D01*
X9906000Y-3867967D01*
X9906000Y-2872115D01*
X9901525Y-2856876D01*
X9900135Y-2855671D01*
X9892452Y-2854000D01*
X8892033Y-2854000D01*
X8878502Y-2857973D01*
X8877273Y-2866522D01*
X-26670000Y-2866522D01*
X-26670000Y-1270000D01*
X-11373116Y-1270000D01*
X-11354686Y-1480655D01*
X-11299956Y-1684910D01*
X-11297634Y-1689891D01*
X-11297633Y-1689892D01*
X-11214686Y-1867771D01*
X-11210589Y-1876558D01*
X-11089301Y-2049776D01*
X-10939776Y-2199301D01*
X-10766558Y-2320589D01*
X-10761580Y-2322910D01*
X-10761577Y-2322912D01*
X-10579892Y-2407633D01*
X-10574910Y-2409956D01*
X-10569602Y-2411378D01*
X-10569600Y-2411379D01*
X-10375970Y-2463262D01*
X-10375968Y-2463262D01*
X-10370655Y-2464686D01*
X-10160000Y-2483116D01*
X-9949345Y-2464686D01*
X-9944032Y-2463262D01*
X-9944030Y-2463262D01*
X-9750400Y-2411379D01*
X-9750398Y-2411378D01*
X-9745090Y-2409956D01*
X-9740108Y-2407633D01*
X-9558423Y-2322912D01*
X-9558420Y-2322910D01*
X-9553442Y-2320589D01*
X-9380224Y-2199301D01*
X-9230699Y-2049776D01*
X-9109411Y-1876558D01*
X-9105313Y-1867771D01*
X-9022367Y-1689892D01*
X-9022366Y-1689891D01*
X-9020044Y-1684910D01*
X-8965314Y-1480655D01*
X-8946884Y-1270000D01*
X-6293116Y-1270000D01*
X-6274686Y-1480655D01*
X-6219956Y-1684910D01*
X-6217634Y-1689891D01*
X-6217633Y-1689892D01*
X-6134686Y-1867771D01*
X-6130589Y-1876558D01*
X-6009301Y-2049776D01*
X-5859776Y-2199301D01*
X-5686558Y-2320589D01*
X-5681580Y-2322910D01*
X-5681577Y-2322912D01*
X-5499892Y-2407633D01*
X-5494910Y-2409956D01*
X-5489602Y-2411378D01*
X-5489600Y-2411379D01*
X-5295970Y-2463262D01*
X-5295968Y-2463262D01*
X-5290655Y-2464686D01*
X-5080000Y-2483116D01*
X-4869345Y-2464686D01*
X-4864032Y-2463262D01*
X-4864030Y-2463262D01*
X-4670400Y-2411379D01*
X-4670398Y-2411378D01*
X-4665090Y-2409956D01*
X-4660108Y-2407633D01*
X-4478423Y-2322912D01*
X-4478420Y-2322910D01*
X-4473442Y-2320589D01*
X-4300224Y-2199301D01*
X-4150699Y-2049776D01*
X-4029411Y-1876558D01*
X-4025313Y-1867771D01*
X-3942367Y-1689892D01*
X-3942366Y-1689891D01*
X-3940044Y-1684910D01*
X-3885314Y-1480655D01*
X-3866884Y-1270000D01*
X-1213116Y-1270000D01*
X-1194686Y-1480655D01*
X-1139956Y-1684910D01*
X-1137634Y-1689891D01*
X-1137633Y-1689892D01*
X-1054686Y-1867771D01*
X-1050589Y-1876558D01*
X-929301Y-2049776D01*
X-779776Y-2199301D01*
X-606558Y-2320589D01*
X-601580Y-2322910D01*
X-601577Y-2322912D01*
X-419892Y-2407633D01*
X-414910Y-2409956D01*
X-409602Y-2411378D01*
X-409600Y-2411379D01*
X-215970Y-2463262D01*
X-215968Y-2463262D01*
X-210655Y-2464686D01*
X0Y-2483116D01*
X210655Y-2464686D01*
X215968Y-2463262D01*
X215970Y-2463262D01*
X409600Y-2411379D01*
X409602Y-2411378D01*
X414910Y-2409956D01*
X419892Y-2407633D01*
X589587Y-2328503D01*
X8878606Y-2328503D01*
X8878942Y-2342599D01*
X8886884Y-2346000D01*
X9887885Y-2346000D01*
X9903124Y-2341525D01*
X9904329Y-2340135D01*
X9906000Y-2332452D01*
X9906000Y-2327885D01*
X10414000Y-2327885D01*
X10418475Y-2343124D01*
X10419865Y-2344329D01*
X10427548Y-2346000D01*
X11427967Y-2346000D01*
X11441498Y-2342027D01*
X11442727Y-2333478D01*
X11395236Y-2156239D01*
X11391490Y-2145947D01*
X11299414Y-1948489D01*
X11293931Y-1938993D01*
X11168972Y-1760533D01*
X11161916Y-1752125D01*
X11007875Y-1598084D01*
X10999467Y-1591028D01*
X10821007Y-1466069D01*
X10811511Y-1460586D01*
X10614053Y-1368510D01*
X10603761Y-1364764D01*
X10431497Y-1318606D01*
X10417401Y-1318942D01*
X10414000Y-1326884D01*
X10414000Y-2327885D01*
X9906000Y-2327885D01*
X9906000Y-1332033D01*
X9902027Y-1318502D01*
X9893478Y-1317273D01*
X9716239Y-1364764D01*
X9705947Y-1368510D01*
X9508489Y-1460586D01*
X9498993Y-1466069D01*
X9320533Y-1591028D01*
X9312125Y-1598084D01*
X9158084Y-1752125D01*
X9151028Y-1760533D01*
X9026069Y-1938993D01*
X9020586Y-1948489D01*
X8928510Y-2145947D01*
X8924764Y-2156239D01*
X8878606Y-2328503D01*
X589587Y-2328503D01*
X601577Y-2322912D01*
X601580Y-2322910D01*
X606558Y-2320589D01*
X779776Y-2199301D01*
X929301Y-2049776D01*
X1050589Y-1876558D01*
X1054687Y-1867771D01*
X1137633Y-1689892D01*
X1137634Y-1689891D01*
X1139956Y-1684910D01*
X1194686Y-1480655D01*
X1213116Y-1270000D01*
X1194686Y-1059345D01*
X1139956Y-855090D01*
X1050589Y-663442D01*
X929301Y-490224D01*
X779776Y-340699D01*
X606558Y-219411D01*
X601580Y-217090D01*
X601577Y-217088D01*
X419892Y-132367D01*
X419891Y-132366D01*
X414910Y-130044D01*
X409602Y-128622D01*
X409600Y-128621D01*
X215970Y-76738D01*
X215968Y-76738D01*
X210655Y-75314D01*
X0Y-56884D01*
X-210655Y-75314D01*
X-215968Y-76738D01*
X-215970Y-76738D01*
X-409600Y-128621D01*
X-409602Y-128622D01*
X-414910Y-130044D01*
X-419891Y-132366D01*
X-419892Y-132367D01*
X-601577Y-217088D01*
X-601580Y-217090D01*
X-606558Y-219411D01*
X-779776Y-340699D01*
X-929301Y-490224D01*
X-1050589Y-663442D01*
X-1139956Y-855090D01*
X-1194686Y-1059345D01*
X-1213116Y-1270000D01*
X-3866884Y-1270000D01*
X-3885314Y-1059345D01*
X-3940044Y-855090D01*
X-4029411Y-663442D01*
X-4150699Y-490224D01*
X-4300224Y-340699D01*
X-4473442Y-219411D01*
X-4478420Y-217090D01*
X-4478423Y-217088D01*
X-4660108Y-132367D01*
X-4660109Y-132366D01*
X-4665090Y-130044D01*
X-4670398Y-128622D01*
X-4670400Y-128621D01*
X-4864030Y-76738D01*
X-4864032Y-76738D01*
X-4869345Y-75314D01*
X-5080000Y-56884D01*
X-5290655Y-75314D01*
X-5295968Y-76738D01*
X-5295970Y-76738D01*
X-5489600Y-128621D01*
X-5489602Y-128622D01*
X-5494910Y-130044D01*
X-5499891Y-132366D01*
X-5499892Y-132367D01*
X-5681577Y-217088D01*
X-5681580Y-217090D01*
X-5686558Y-219411D01*
X-5859776Y-340699D01*
X-6009301Y-490224D01*
X-6130589Y-663442D01*
X-6219956Y-855090D01*
X-6274686Y-1059345D01*
X-6293116Y-1270000D01*
X-8946884Y-1270000D01*
X-8965314Y-1059345D01*
X-9020044Y-855090D01*
X-9109411Y-663442D01*
X-9230699Y-490224D01*
X-9380224Y-340699D01*
X-9553442Y-219411D01*
X-9558420Y-217090D01*
X-9558423Y-217088D01*
X-9740108Y-132367D01*
X-9740109Y-132366D01*
X-9745090Y-130044D01*
X-9750398Y-128622D01*
X-9750400Y-128621D01*
X-9944030Y-76738D01*
X-9944032Y-76738D01*
X-9949345Y-75314D01*
X-10160000Y-56884D01*
X-10370655Y-75314D01*
X-10375968Y-76738D01*
X-10375970Y-76738D01*
X-10569600Y-128621D01*
X-10569602Y-128622D01*
X-10574910Y-130044D01*
X-10579891Y-132366D01*
X-10579892Y-132367D01*
X-10761577Y-217088D01*
X-10761580Y-217090D01*
X-10766558Y-219411D01*
X-10939776Y-340699D01*
X-11089301Y-490224D01*
X-11210589Y-663442D01*
X-11299956Y-855090D01*
X-11354686Y-1059345D01*
X-11373116Y-1270000D01*
X-26670000Y-1270000D01*
X-26670000Y8890000D01*
X-16453116Y8890000D01*
X-16434686Y8679345D01*
X-16433262Y8674032D01*
X-16433262Y8674030D01*
X-16397234Y8539574D01*
X-16379956Y8475090D01*
X-16377634Y8470109D01*
X-16377633Y8470108D01*
X-16293172Y8288982D01*
X-16290589Y8283442D01*
X-16169301Y8110224D01*
X-16019776Y7960699D01*
X-15846558Y7839411D01*
X-15841580Y7837090D01*
X-15841577Y7837088D01*
X-15764445Y7801121D01*
X-15654910Y7750044D01*
X-15649602Y7748622D01*
X-15649600Y7748621D01*
X-15455970Y7696738D01*
X-15455968Y7696738D01*
X-15450655Y7695314D01*
X-15240000Y7676884D01*
X-15029345Y7695314D01*
X-15024032Y7696738D01*
X-15024030Y7696738D01*
X-14830400Y7748621D01*
X-14830398Y7748622D01*
X-14825090Y7750044D01*
X-14715555Y7801121D01*
X-14638423Y7837088D01*
X-14638420Y7837090D01*
X-14633442Y7839411D01*
X-14460224Y7960699D01*
X-14310699Y8110224D01*
X-14189411Y8283442D01*
X-14186827Y8288982D01*
X-14102367Y8470108D01*
X-14102366Y8470109D01*
X-14100044Y8475090D01*
X-14082765Y8539574D01*
X-14046738Y8674030D01*
X-14046738Y8674032D01*
X-14045314Y8679345D01*
X-14026884Y8890000D01*
X-14045314Y9100655D01*
X-14100044Y9304910D01*
X-14117364Y9342053D01*
X-14187088Y9491577D01*
X-14187090Y9491580D01*
X-14189411Y9496558D01*
X-14310699Y9669776D01*
X-14460224Y9819301D01*
X-14633442Y9940589D01*
X-14638420Y9942910D01*
X-14638423Y9942912D01*
X-14820108Y10027633D01*
X-14820109Y10027634D01*
X-14825090Y10029956D01*
X-14830398Y10031378D01*
X-14830400Y10031379D01*
X-15024030Y10083262D01*
X-15024032Y10083262D01*
X-15029345Y10084686D01*
X-15240000Y10103116D01*
X-15450655Y10084686D01*
X-15455968Y10083262D01*
X-15455970Y10083262D01*
X-15649600Y10031379D01*
X-15649602Y10031378D01*
X-15654910Y10029956D01*
X-15659891Y10027634D01*
X-15659892Y10027633D01*
X-15841577Y9942912D01*
X-15841580Y9942910D01*
X-15846558Y9940589D01*
X-16019776Y9819301D01*
X-16169301Y9669776D01*
X-16290589Y9496558D01*
X-16292910Y9491580D01*
X-16292912Y9491577D01*
X-16362636Y9342053D01*
X-16379956Y9304910D01*
X-16434686Y9100655D01*
X-16453116Y8890000D01*
X-26670000Y8890000D01*
X-26670000Y13970000D01*
X-16453116Y13970000D01*
X-16434686Y13759345D01*
X-16379956Y13555090D01*
X-16377634Y13550109D01*
X-16377633Y13550108D01*
X-16294686Y13372229D01*
X-16290589Y13363442D01*
X-16169301Y13190224D01*
X-16019776Y13040699D01*
X-16015264Y13037540D01*
X-15927230Y12975898D01*
X-15882901Y12920441D01*
X-15873500Y12872685D01*
X-15873500Y12541467D01*
X-15874027Y12530284D01*
X-15875702Y12522791D01*
X-15875453Y12514865D01*
X-15875453Y12514864D01*
X-15873562Y12454714D01*
X-15873500Y12450755D01*
X-15873500Y12422844D01*
X-15873003Y12418910D01*
X-15873003Y12418909D01*
X-15872995Y12418844D01*
X-15872062Y12407007D01*
X-15870673Y12362811D01*
X-15865022Y12343361D01*
X-15861013Y12324000D01*
X-15858474Y12303903D01*
X-15855555Y12296532D01*
X-15855555Y12296530D01*
X-15842196Y12262788D01*
X-15838351Y12251558D01*
X-15826018Y12209107D01*
X-15821985Y12202288D01*
X-15821983Y12202283D01*
X-15815707Y12191672D01*
X-15807012Y12173924D01*
X-15799552Y12155083D01*
X-15794890Y12148667D01*
X-15794890Y12148666D01*
X-15773564Y12119313D01*
X-15767048Y12109393D01*
X-15744542Y12071338D01*
X-15730221Y12057017D01*
X-15717381Y12041984D01*
X-15705472Y12025593D01*
X-15671395Y11997402D01*
X-15662616Y11989412D01*
X-11143552Y7470347D01*
X-11136012Y7462061D01*
X-11131900Y7455582D01*
X-11126123Y7450157D01*
X-11082249Y7408957D01*
X-11079407Y7406202D01*
X-11059670Y7386465D01*
X-11056473Y7383985D01*
X-11047453Y7376282D01*
X-11015221Y7346014D01*
X-11008275Y7342195D01*
X-11008272Y7342193D01*
X-10997466Y7336252D01*
X-10980947Y7325401D01*
X-10964941Y7312986D01*
X-10957672Y7309841D01*
X-10957668Y7309838D01*
X-10924363Y7295426D01*
X-10913713Y7290209D01*
X-10874960Y7268905D01*
X-10867285Y7266934D01*
X-10867284Y7266934D01*
X-10855338Y7263867D01*
X-10836633Y7257463D01*
X-10818045Y7249419D01*
X-10810222Y7248180D01*
X-10810212Y7248177D01*
X-10774376Y7242501D01*
X-10762756Y7240095D01*
X-10730941Y7231927D01*
X-10719930Y7229100D01*
X-10699676Y7229100D01*
X-10679966Y7227549D01*
X-10659957Y7224380D01*
X-10652065Y7225126D01*
X-10633320Y7226898D01*
X-10615938Y7228541D01*
X-10604081Y7229100D01*
X-9497367Y7229100D01*
X-9486184Y7228573D01*
X-9478691Y7226898D01*
X-9470765Y7227147D01*
X-9470764Y7227147D01*
X-9410614Y7229038D01*
X-9406655Y7229100D01*
X-9378744Y7229100D01*
X-9374809Y7229597D01*
X-9374744Y7229605D01*
X-9362907Y7230538D01*
X-9330649Y7231552D01*
X-9326630Y7231678D01*
X-9318711Y7231927D01*
X-9299257Y7237579D01*
X-9279900Y7241587D01*
X-9267670Y7243132D01*
X-9267669Y7243132D01*
X-9259803Y7244126D01*
X-9252432Y7247045D01*
X-9252430Y7247045D01*
X-9218688Y7260404D01*
X-9207458Y7264249D01*
X-9172617Y7274371D01*
X-9172616Y7274371D01*
X-9165007Y7276582D01*
X-9158188Y7280615D01*
X-9158183Y7280617D01*
X-9147572Y7286893D01*
X-9129824Y7295588D01*
X-9110983Y7303048D01*
X-9075213Y7329036D01*
X-9065293Y7335552D01*
X-9034065Y7354020D01*
X-9034062Y7354022D01*
X-9027238Y7358058D01*
X-9012917Y7372379D01*
X-8997883Y7385220D01*
X-8987906Y7392469D01*
X-8981493Y7397128D01*
X-8953302Y7431205D01*
X-8945312Y7439984D01*
X-5971801Y10413495D01*
X-5909489Y10447521D01*
X-5882706Y10450400D01*
X-4674014Y10450400D01*
X-4605893Y10430398D01*
X-4559400Y10376742D01*
X-4548472Y10326506D01*
X-4548704Y10324300D01*
X-4532661Y10171663D01*
X-4545433Y10101826D01*
X-4593935Y10049980D01*
X-4662768Y10032585D01*
X-4690582Y10036787D01*
X-4864030Y10083262D01*
X-4864032Y10083262D01*
X-4869345Y10084686D01*
X-5080000Y10103116D01*
X-5290655Y10084686D01*
X-5295968Y10083262D01*
X-5295970Y10083262D01*
X-5489600Y10031379D01*
X-5489602Y10031378D01*
X-5494910Y10029956D01*
X-5499891Y10027634D01*
X-5499892Y10027633D01*
X-5681577Y9942912D01*
X-5681580Y9942910D01*
X-5686558Y9940589D01*
X-5859776Y9819301D01*
X-6009301Y9669776D01*
X-6130589Y9496558D01*
X-6132910Y9491580D01*
X-6132912Y9491577D01*
X-6202636Y9342053D01*
X-6219956Y9304910D01*
X-6274686Y9100655D01*
X-6293116Y8890000D01*
X-6274686Y8679345D01*
X-6273262Y8674032D01*
X-6273262Y8674030D01*
X-6237234Y8539574D01*
X-6219956Y8475090D01*
X-6217634Y8470109D01*
X-6217633Y8470108D01*
X-6133172Y8288982D01*
X-6130589Y8283442D01*
X-6009301Y8110224D01*
X-5859776Y7960699D01*
X-5686558Y7839411D01*
X-5681580Y7837090D01*
X-5681577Y7837088D01*
X-5604445Y7801121D01*
X-5494910Y7750044D01*
X-5489602Y7748622D01*
X-5489600Y7748621D01*
X-5295970Y7696738D01*
X-5295968Y7696738D01*
X-5290655Y7695314D01*
X-5080000Y7676884D01*
X-4869345Y7695314D01*
X-4864032Y7696738D01*
X-4864030Y7696738D01*
X-4670400Y7748621D01*
X-4670398Y7748622D01*
X-4665090Y7750044D01*
X-4555555Y7801121D01*
X-4478423Y7837088D01*
X-4478420Y7837090D01*
X-4473442Y7839411D01*
X-4300224Y7960699D01*
X-4150699Y8110224D01*
X-4029411Y8283442D01*
X-4026827Y8288982D01*
X-3942367Y8470108D01*
X-3942366Y8470109D01*
X-3940044Y8475090D01*
X-3922765Y8539574D01*
X-3886738Y8674030D01*
X-3886738Y8674032D01*
X-3885314Y8679345D01*
X-3866884Y8890000D01*
X-3885314Y9100655D01*
X-3930979Y9271079D01*
X-3929289Y9342053D01*
X-3889495Y9400849D01*
X-3824231Y9428797D01*
X-3783076Y9426935D01*
X-3742434Y9418297D01*
X-3730687Y9415800D01*
X-3539713Y9415800D01*
X-3533261Y9417172D01*
X-3533256Y9417172D01*
X-3446313Y9435653D01*
X-3352912Y9455506D01*
X-3321512Y9469486D01*
X-3184478Y9530497D01*
X-3184476Y9530498D01*
X-3178448Y9533182D01*
X-3023947Y9645434D01*
X-2998522Y9673671D01*
X-2900579Y9782448D01*
X-2900578Y9782449D01*
X-2896160Y9787356D01*
X-2892861Y9793071D01*
X-2892856Y9793077D01*
X-2888973Y9799803D01*
X-2837589Y9848795D01*
X-2779856Y9862800D01*
X-1036187Y9862800D01*
X-968066Y9842798D01*
X-921573Y9789142D01*
X-911469Y9718868D01*
X-932973Y9664532D01*
X-1050589Y9496558D01*
X-1052910Y9491580D01*
X-1052912Y9491577D01*
X-1122636Y9342053D01*
X-1139956Y9304910D01*
X-1194686Y9100655D01*
X-1213116Y8890000D01*
X-1194686Y8679345D01*
X-1193262Y8674032D01*
X-1193262Y8674030D01*
X-1157234Y8539574D01*
X-1139956Y8475090D01*
X-1137634Y8470109D01*
X-1137633Y8470108D01*
X-1053172Y8288982D01*
X-1050589Y8283442D01*
X-929301Y8110224D01*
X-779776Y7960699D01*
X-606558Y7839411D01*
X-601580Y7837090D01*
X-601577Y7837088D01*
X-524445Y7801121D01*
X-414910Y7750044D01*
X-409602Y7748622D01*
X-409600Y7748621D01*
X-215970Y7696738D01*
X-215968Y7696738D01*
X-210655Y7695314D01*
X0Y7676884D01*
X210655Y7695314D01*
X215968Y7696738D01*
X215970Y7696738D01*
X409600Y7748621D01*
X409602Y7748622D01*
X414910Y7750044D01*
X524445Y7801121D01*
X601577Y7837088D01*
X601580Y7837090D01*
X606558Y7839411D01*
X779776Y7960699D01*
X929301Y8110224D01*
X1050589Y8283442D01*
X1053173Y8288982D01*
X1137633Y8470108D01*
X1137634Y8470109D01*
X1139956Y8475090D01*
X1157235Y8539574D01*
X1174183Y8602827D01*
X1211135Y8663450D01*
X1274995Y8694471D01*
X1345490Y8686043D01*
X1384985Y8659311D01*
X12991543Y-2947247D01*
X12999087Y-2955537D01*
X13003200Y-2962018D01*
X13008977Y-2967443D01*
X13052867Y-3008658D01*
X13055709Y-3011413D01*
X13075430Y-3031134D01*
X13078625Y-3033612D01*
X13087647Y-3041318D01*
X13119879Y-3071586D01*
X13126828Y-3075406D01*
X13137632Y-3081346D01*
X13154156Y-3092199D01*
X13170159Y-3104613D01*
X13210743Y-3122176D01*
X13221373Y-3127383D01*
X13260140Y-3148695D01*
X13267817Y-3150666D01*
X13267822Y-3150668D01*
X13279758Y-3153732D01*
X13298466Y-3160137D01*
X13317055Y-3168181D01*
X13324880Y-3169420D01*
X13324882Y-3169421D01*
X13360719Y-3175097D01*
X13372340Y-3177504D01*
X13407489Y-3186528D01*
X13415170Y-3188500D01*
X13435431Y-3188500D01*
X13455140Y-3190051D01*
X13475143Y-3193219D01*
X13483035Y-3192473D01*
X13488262Y-3191979D01*
X13519154Y-3189059D01*
X13531011Y-3188500D01*
X15300606Y-3188500D01*
X15368727Y-3208502D01*
X15403819Y-3242229D01*
X15416968Y-3261007D01*
X15513802Y-3399300D01*
X15675700Y-3561198D01*
X15680208Y-3564355D01*
X15680211Y-3564357D01*
X15733851Y-3601916D01*
X15863251Y-3692523D01*
X15868233Y-3694846D01*
X15868238Y-3694849D01*
X15902457Y-3710805D01*
X15955742Y-3757722D01*
X15975203Y-3825999D01*
X15954661Y-3893959D01*
X15902457Y-3939195D01*
X15868238Y-3955151D01*
X15868233Y-3955154D01*
X15863251Y-3957477D01*
X15758389Y-4030902D01*
X15680211Y-4085643D01*
X15680208Y-4085645D01*
X15675700Y-4088802D01*
X15513802Y-4250700D01*
X15510645Y-4255208D01*
X15510643Y-4255211D01*
X15403819Y-4407771D01*
X15348362Y-4452099D01*
X15300606Y-4461500D01*
X-7286233Y-4461500D01*
X-7297416Y-4460973D01*
X-7304909Y-4459298D01*
X-7312835Y-4459547D01*
X-7312836Y-4459547D01*
X-7372986Y-4461438D01*
X-7376945Y-4461500D01*
X-7404856Y-4461500D01*
X-7408790Y-4461997D01*
X-7408791Y-4461997D01*
X-7408856Y-4462005D01*
X-7420693Y-4462938D01*
X-7452510Y-4463938D01*
X-7456971Y-4464078D01*
X-7464890Y-4464327D01*
X-7482546Y-4469456D01*
X-7484342Y-4469978D01*
X-7503694Y-4473986D01*
X-7510765Y-4474880D01*
X-7523797Y-4476526D01*
X-7531166Y-4479443D01*
X-7531168Y-4479444D01*
X-7564903Y-4492800D01*
X-7576131Y-4496645D01*
X-7618593Y-4508982D01*
X-7625415Y-4513016D01*
X-7625421Y-4513019D01*
X-7636032Y-4519294D01*
X-7653782Y-4527990D01*
X-7665244Y-4532528D01*
X-7665249Y-4532531D01*
X-7672617Y-4535448D01*
X-7679032Y-4540109D01*
X-7708375Y-4561427D01*
X-7718293Y-4567943D01*
X-7736981Y-4578995D01*
X-7756363Y-4590458D01*
X-7770687Y-4604782D01*
X-7785719Y-4617621D01*
X-7802107Y-4629528D01*
X-7820068Y-4651239D01*
X-7830288Y-4663593D01*
X-7838278Y-4672373D01*
X-8920838Y-5754933D01*
X-8983150Y-5788959D01*
X-9053965Y-5783894D01*
X-9113146Y-5738108D01*
X-9117858Y-5731379D01*
X-9230699Y-5570224D01*
X-9380224Y-5420699D01*
X-9553442Y-5299411D01*
X-9558420Y-5297090D01*
X-9558423Y-5297088D01*
X-9740108Y-5212367D01*
X-9740109Y-5212366D01*
X-9745090Y-5210044D01*
X-9750398Y-5208622D01*
X-9750400Y-5208621D01*
X-9944030Y-5156738D01*
X-9944032Y-5156738D01*
X-9949345Y-5155314D01*
X-10160000Y-5136884D01*
X-10370655Y-5155314D01*
X-10375968Y-5156738D01*
X-10375970Y-5156738D01*
X-10569600Y-5208621D01*
X-10569602Y-5208622D01*
X-10574910Y-5210044D01*
X-10579891Y-5212366D01*
X-10579892Y-5212367D01*
X-10761577Y-5297088D01*
X-10761580Y-5297090D01*
X-10766558Y-5299411D01*
X-10939776Y-5420699D01*
X-11089301Y-5570224D01*
X-11210589Y-5743442D01*
X-11212910Y-5748420D01*
X-11212912Y-5748423D01*
X-11216448Y-5756007D01*
X-11299956Y-5935090D01*
X-11354686Y-6139345D01*
X-11373116Y-6350000D01*
X-11354686Y-6560655D01*
X-11299956Y-6764910D01*
X-11297634Y-6769891D01*
X-11297633Y-6769892D01*
X-11213455Y-6950411D01*
X-11210589Y-6956558D01*
X-11089301Y-7129776D01*
X-10939776Y-7279301D01*
X-10935264Y-7282460D01*
X-10771892Y-7396854D01*
X-10727563Y-7452311D01*
X-10720254Y-7522930D01*
X-10755067Y-7589162D01*
X-12626541Y-9460636D01*
X-12688853Y-9494662D01*
X-12745049Y-9494060D01*
X-12798015Y-9481344D01*
X-12963476Y-9441620D01*
X-12963482Y-9441619D01*
X-12968289Y-9440465D01*
X-13205000Y-9421835D01*
X-13441711Y-9440465D01*
X-13446518Y-9441619D01*
X-13446524Y-9441620D01*
X-13563584Y-9469724D01*
X-13672594Y-9495895D01*
X-13677165Y-9497788D01*
X-13677167Y-9497789D01*
X-13887389Y-9584865D01*
X-13887393Y-9584867D01*
X-13891963Y-9586760D01*
X-13896183Y-9589346D01*
X-14090202Y-9708241D01*
X-14090208Y-9708245D01*
X-14094416Y-9710824D01*
X-14274969Y-9865031D01*
X-14429176Y-10045584D01*
X-14431755Y-10049792D01*
X-14431759Y-10049798D01*
X-14505128Y-10169525D01*
X-14553240Y-10248037D01*
X-14555133Y-10252607D01*
X-14555135Y-10252611D01*
X-14619665Y-10408402D01*
X-14644105Y-10467406D01*
X-14645260Y-10472218D01*
X-14692478Y-10668895D01*
X-14699535Y-10698289D01*
X-14718165Y-10935000D01*
X-14699535Y-11171711D01*
X-14698381Y-11176518D01*
X-14698380Y-11176524D01*
X-14696499Y-11184357D01*
X-14644105Y-11402594D01*
X-14642212Y-11407165D01*
X-14642211Y-11407167D01*
X-14556249Y-11614698D01*
X-14553240Y-11621963D01*
X-14550654Y-11626183D01*
X-14431759Y-11820202D01*
X-14431755Y-11820208D01*
X-14429176Y-11824416D01*
X-14274969Y-12004969D01*
X-14094416Y-12159176D01*
X-14090208Y-12161755D01*
X-14090202Y-12161759D01*
X-13896183Y-12280654D01*
X-13891963Y-12283240D01*
X-13887393Y-12285133D01*
X-13887389Y-12285135D01*
X-13677167Y-12372211D01*
X-13672594Y-12374105D01*
X-13592391Y-12393360D01*
X-13446524Y-12428380D01*
X-13446518Y-12428381D01*
X-13441711Y-12429535D01*
X-13205000Y-12448165D01*
X-12968289Y-12429535D01*
X-12963482Y-12428381D01*
X-12963476Y-12428380D01*
X-12817609Y-12393360D01*
X-12737406Y-12374105D01*
X-12732833Y-12372211D01*
X-12522611Y-12285135D01*
X-12522607Y-12285133D01*
X-12518037Y-12283240D01*
X-12513817Y-12280654D01*
X-12319798Y-12161759D01*
X-12319792Y-12161755D01*
X-12315584Y-12159176D01*
X-12135031Y-12004969D01*
X-12131823Y-12001213D01*
X-12131818Y-12001208D01*
X-12030811Y-11882944D01*
X-11971361Y-11844134D01*
X-11900366Y-11843628D01*
X-11839189Y-11882944D01*
X-11738182Y-12001208D01*
X-11738177Y-12001213D01*
X-11734969Y-12004969D01*
X-11554416Y-12159176D01*
X-11550208Y-12161755D01*
X-11550202Y-12161759D01*
X-11356183Y-12280654D01*
X-11351963Y-12283240D01*
X-11347393Y-12285133D01*
X-11347389Y-12285135D01*
X-11137167Y-12372211D01*
X-11132594Y-12374105D01*
X-11052391Y-12393360D01*
X-10906524Y-12428380D01*
X-10906518Y-12428381D01*
X-10901711Y-12429535D01*
X-10665000Y-12448165D01*
X-10428289Y-12429535D01*
X-10423482Y-12428381D01*
X-10423476Y-12428380D01*
X-10205049Y-12375940D01*
X-10134141Y-12379487D01*
X-10086540Y-12409364D01*
X-8227157Y-14268747D01*
X-8219613Y-14277037D01*
X-8215500Y-14283518D01*
X-8209723Y-14288943D01*
X-8165833Y-14330158D01*
X-8162991Y-14332913D01*
X-8143270Y-14352634D01*
X-8140075Y-14355112D01*
X-8131053Y-14362818D01*
X-8098821Y-14393086D01*
X-8087642Y-14399232D01*
X-8081068Y-14402846D01*
X-8064544Y-14413699D01*
X-8048541Y-14426113D01*
X-8007957Y-14443676D01*
X-7997327Y-14448883D01*
X-7958560Y-14470195D01*
X-7950883Y-14472166D01*
X-7950878Y-14472168D01*
X-7938942Y-14475232D01*
X-7920234Y-14481637D01*
X-7901645Y-14489681D01*
X-7893817Y-14490921D01*
X-7893810Y-14490923D01*
X-7857976Y-14496599D01*
X-7846356Y-14499005D01*
X-7814541Y-14507173D01*
X-7803530Y-14510000D01*
X-7783276Y-14510000D01*
X-7763566Y-14511551D01*
X-7743557Y-14514720D01*
X-7735665Y-14513974D01*
X-7699539Y-14510559D01*
X-7687681Y-14510000D01*
X15226400Y-14510000D01*
X15294521Y-14530002D01*
X15341014Y-14583658D01*
X15351118Y-14653932D01*
X15340595Y-14689250D01*
X15288510Y-14800947D01*
X15284764Y-14811239D01*
X15238606Y-14983503D01*
X15238942Y-14997599D01*
X15246884Y-15001000D01*
X16648000Y-15001000D01*
X16716121Y-15021002D01*
X16762614Y-15074658D01*
X16774000Y-15127000D01*
X16774000Y-15383000D01*
X16753998Y-15451121D01*
X16700342Y-15497614D01*
X16648000Y-15509000D01*
X15252033Y-15509000D01*
X15238502Y-15512973D01*
X15237273Y-15521522D01*
X15284764Y-15698761D01*
X15288510Y-15709053D01*
X15380586Y-15906511D01*
X15386069Y-15916007D01*
X15511028Y-16094467D01*
X15518084Y-16102875D01*
X15672125Y-16256916D01*
X15680533Y-16263972D01*
X15858993Y-16388931D01*
X15868489Y-16394414D01*
X16065947Y-16486490D01*
X16076236Y-16490235D01*
X16246857Y-16535953D01*
X16307479Y-16572905D01*
X16338501Y-16636766D01*
X16330072Y-16707260D01*
X16303340Y-16746755D01*
X14847747Y-18202348D01*
X14839461Y-18209888D01*
X14832982Y-18214000D01*
X14827557Y-18219777D01*
X14786357Y-18263651D01*
X14783602Y-18266493D01*
X14763865Y-18286230D01*
X14761385Y-18289427D01*
X14753682Y-18298447D01*
X14723414Y-18330679D01*
X14719595Y-18337625D01*
X14719593Y-18337628D01*
X14713652Y-18348434D01*
X14702801Y-18364953D01*
X14690386Y-18380959D01*
X14687241Y-18388228D01*
X14687238Y-18388232D01*
X14672826Y-18421537D01*
X14667609Y-18432187D01*
X14646305Y-18470940D01*
X14644334Y-18478615D01*
X14644334Y-18478616D01*
X14641267Y-18490562D01*
X14634863Y-18509266D01*
X14626819Y-18527855D01*
X14625580Y-18535678D01*
X14625577Y-18535688D01*
X14619901Y-18571524D01*
X14617495Y-18583144D01*
X14606500Y-18625970D01*
X14606500Y-18646224D01*
X14604949Y-18665934D01*
X14601780Y-18685943D01*
X14602526Y-18693835D01*
X14605941Y-18729961D01*
X14606500Y-18741819D01*
X14606500Y-20066010D01*
X14586498Y-20134131D01*
X14545865Y-20173729D01*
X14429420Y-20244389D01*
X14429416Y-20244392D01*
X14424856Y-20247159D01*
X14248166Y-20400483D01*
X14099835Y-20581386D01*
X14097197Y-20586021D01*
X14097194Y-20586025D01*
X14078423Y-20619001D01*
X14027341Y-20668307D01*
X13957711Y-20682169D01*
X13891640Y-20656186D01*
X13864401Y-20627036D01*
X13780790Y-20502845D01*
X13774129Y-20494559D01*
X13620076Y-20333070D01*
X13612108Y-20326021D01*
X13433048Y-20192797D01*
X13424018Y-20187198D01*
X13225069Y-20086047D01*
X13215208Y-20082044D01*
X13002071Y-20015862D01*
X12991691Y-20013580D01*
X12971957Y-20010964D01*
X12957793Y-20013160D01*
X12954000Y-20026345D01*
X12954000Y-23151627D01*
X12957973Y-23165158D01*
X12968580Y-23166683D01*
X13092188Y-23140748D01*
X13102384Y-23137688D01*
X13309952Y-23055716D01*
X13319489Y-23050982D01*
X13510285Y-22935204D01*
X13518878Y-22928938D01*
X13687441Y-22782667D01*
X13694861Y-22775036D01*
X13836368Y-22602458D01*
X13842393Y-22593691D01*
X13860989Y-22561022D01*
X13912071Y-22511715D01*
X13981702Y-22497854D01*
X14047773Y-22523837D01*
X14075011Y-22552987D01*
X14161798Y-22681896D01*
X14323276Y-22851168D01*
X14510965Y-22990813D01*
X14515716Y-22993229D01*
X14515720Y-22993231D01*
X14714744Y-23094420D01*
X14719500Y-23096838D01*
X14942917Y-23166210D01*
X14948204Y-23166911D01*
X14948205Y-23166911D01*
X15169545Y-23196248D01*
X15169549Y-23196248D01*
X15174829Y-23196948D01*
X15180158Y-23196748D01*
X15180160Y-23196748D01*
X15291717Y-23192560D01*
X15408604Y-23188172D01*
X15511019Y-23166683D01*
X15632332Y-23141229D01*
X15632335Y-23141228D01*
X15637559Y-23140132D01*
X15855146Y-23054203D01*
X15964860Y-22987627D01*
X16050583Y-22935609D01*
X16050586Y-22935607D01*
X16055144Y-22932841D01*
X16231834Y-22779517D01*
X16380165Y-22598614D01*
X16382801Y-22593984D01*
X16382804Y-22593979D01*
X16401301Y-22561484D01*
X16452384Y-22512178D01*
X16522015Y-22498317D01*
X16588085Y-22524301D01*
X16615323Y-22553450D01*
X16701798Y-22681896D01*
X16863276Y-22851168D01*
X17050965Y-22990813D01*
X17055716Y-22993229D01*
X17055720Y-22993231D01*
X17254744Y-23094420D01*
X17259500Y-23096838D01*
X17482917Y-23166210D01*
X17488204Y-23166911D01*
X17488205Y-23166911D01*
X17709545Y-23196248D01*
X17709549Y-23196248D01*
X17714829Y-23196948D01*
X17720158Y-23196748D01*
X17720160Y-23196748D01*
X17831717Y-23192560D01*
X17948604Y-23188172D01*
X18051019Y-23166683D01*
X18172332Y-23141229D01*
X18172335Y-23141228D01*
X18177559Y-23140132D01*
X18395146Y-23054203D01*
X18504860Y-22987627D01*
X18590583Y-22935609D01*
X18590586Y-22935607D01*
X18595144Y-22932841D01*
X18771834Y-22779517D01*
X18920165Y-22598614D01*
X18922801Y-22593984D01*
X18922804Y-22593979D01*
X18941301Y-22561484D01*
X18992384Y-22512178D01*
X19062015Y-22498317D01*
X19128085Y-22524301D01*
X19155323Y-22553450D01*
X19241798Y-22681896D01*
X19403276Y-22851168D01*
X19590965Y-22990813D01*
X19595716Y-22993229D01*
X19595720Y-22993231D01*
X19794744Y-23094420D01*
X19799500Y-23096838D01*
X20022917Y-23166210D01*
X20028204Y-23166911D01*
X20028205Y-23166911D01*
X20249545Y-23196248D01*
X20249549Y-23196248D01*
X20254829Y-23196948D01*
X20260158Y-23196748D01*
X20260160Y-23196748D01*
X20371717Y-23192560D01*
X20488604Y-23188172D01*
X20591019Y-23166683D01*
X20712332Y-23141229D01*
X20712335Y-23141228D01*
X20717559Y-23140132D01*
X20935146Y-23054203D01*
X21044860Y-22987627D01*
X21130583Y-22935609D01*
X21130586Y-22935607D01*
X21135144Y-22932841D01*
X21311834Y-22779517D01*
X21342408Y-22742229D01*
X21401067Y-22702236D01*
X21472038Y-22700305D01*
X21532786Y-22737050D01*
X21547733Y-22759390D01*
X21548450Y-22758946D01*
X21641522Y-22909348D01*
X21766697Y-23034305D01*
X21772927Y-23038145D01*
X21772928Y-23038146D01*
X21910090Y-23122694D01*
X21917262Y-23127115D01*
X21959815Y-23141229D01*
X22078611Y-23180632D01*
X22078613Y-23180632D01*
X22085139Y-23182797D01*
X22091975Y-23183497D01*
X22091978Y-23183498D01*
X22135031Y-23187909D01*
X22189600Y-23193500D01*
X23530400Y-23193500D01*
X23533646Y-23193163D01*
X23533650Y-23193163D01*
X23629308Y-23183238D01*
X23629312Y-23183237D01*
X23636166Y-23182526D01*
X23642702Y-23180345D01*
X23642704Y-23180345D01*
X23774806Y-23136272D01*
X23803946Y-23126550D01*
X23954348Y-23033478D01*
X24079305Y-22908303D01*
X24156530Y-22783021D01*
X24168275Y-22763968D01*
X24168276Y-22763966D01*
X24172115Y-22757738D01*
X24227797Y-22589861D01*
X24230705Y-22561484D01*
X24235804Y-22511715D01*
X24238500Y-22485400D01*
X24238500Y-20694600D01*
X24235722Y-20667822D01*
X24228238Y-20595692D01*
X24228237Y-20595688D01*
X24227526Y-20588834D01*
X24223665Y-20577259D01*
X24173868Y-20428002D01*
X24171550Y-20421054D01*
X24078478Y-20270652D01*
X23953303Y-20145695D01*
X23917840Y-20123835D01*
X23808968Y-20056725D01*
X23808966Y-20056724D01*
X23802738Y-20052885D01*
X23722722Y-20026345D01*
X23641389Y-19999368D01*
X23641387Y-19999368D01*
X23634861Y-19997203D01*
X23628025Y-19996503D01*
X23628022Y-19996502D01*
X23606656Y-19994313D01*
X23540929Y-19967471D01*
X23500148Y-19909356D01*
X23493500Y-19868969D01*
X23493500Y-16595082D01*
X23513502Y-16526961D01*
X23567158Y-16480468D01*
X23637432Y-16470364D01*
X23672751Y-16480888D01*
X23685770Y-16486959D01*
X23685775Y-16486961D01*
X23690757Y-16489284D01*
X23696065Y-16490706D01*
X23696067Y-16490707D01*
X23906598Y-16547119D01*
X23906600Y-16547119D01*
X23911913Y-16548543D01*
X24140000Y-16568498D01*
X24368087Y-16548543D01*
X24373400Y-16547119D01*
X24373402Y-16547119D01*
X24583933Y-16490707D01*
X24583935Y-16490706D01*
X24589243Y-16489284D01*
X24595235Y-16486490D01*
X24791762Y-16394849D01*
X24791767Y-16394846D01*
X24796749Y-16392523D01*
X24901611Y-16319098D01*
X24979789Y-16264357D01*
X24979792Y-16264355D01*
X24984300Y-16261198D01*
X25146198Y-16099300D01*
X25277523Y-15911749D01*
X25279846Y-15906767D01*
X25279849Y-15906762D01*
X25371961Y-15709225D01*
X25371961Y-15709224D01*
X25374284Y-15704243D01*
X25429651Y-15497614D01*
X25432119Y-15488402D01*
X25432119Y-15488400D01*
X25433543Y-15483087D01*
X25453498Y-15255000D01*
X25433543Y-15026913D01*
X25375752Y-14811236D01*
X25375707Y-14811067D01*
X25375706Y-14811065D01*
X25374284Y-14805757D01*
X25371103Y-14798935D01*
X25279849Y-14603238D01*
X25279846Y-14603233D01*
X25277523Y-14598251D01*
X25199297Y-14486533D01*
X25149357Y-14415211D01*
X25149355Y-14415208D01*
X25146198Y-14410700D01*
X24984300Y-14248802D01*
X24979792Y-14245645D01*
X24979789Y-14245643D01*
X24806444Y-14124265D01*
X24762116Y-14068808D01*
X24754945Y-13997449D01*
X24757812Y-13982424D01*
X24759532Y-13974729D01*
X24773500Y-13920330D01*
X24773500Y-13917773D01*
X24800928Y-13854887D01*
X24825280Y-13832545D01*
X24979789Y-13724357D01*
X24979792Y-13724355D01*
X24984300Y-13721198D01*
X25146198Y-13559300D01*
X25150816Y-13552706D01*
X25213345Y-13463405D01*
X25277523Y-13371749D01*
X25279848Y-13366764D01*
X25279849Y-13366762D01*
X25371961Y-13169225D01*
X25371961Y-13169224D01*
X25374284Y-13164243D01*
X25394120Y-13090217D01*
X25432119Y-12948402D01*
X25432119Y-12948400D01*
X25433543Y-12943087D01*
X25453498Y-12715000D01*
X25433543Y-12486913D01*
X25426604Y-12461017D01*
X25375707Y-12271067D01*
X25375706Y-12271065D01*
X25374284Y-12265757D01*
X25350216Y-12214142D01*
X25279849Y-12063238D01*
X25279846Y-12063233D01*
X25277523Y-12058251D01*
X25160137Y-11890607D01*
X25149357Y-11875211D01*
X25149355Y-11875208D01*
X25146198Y-11870700D01*
X24984300Y-11708802D01*
X24979792Y-11705645D01*
X24979789Y-11705643D01*
X24806444Y-11584265D01*
X24762116Y-11528808D01*
X24754945Y-11457449D01*
X24757812Y-11442424D01*
X24759532Y-11434729D01*
X24773500Y-11380330D01*
X24773500Y-11377773D01*
X24800928Y-11314887D01*
X24825280Y-11292545D01*
X24979789Y-11184357D01*
X24979792Y-11184355D01*
X24984300Y-11181198D01*
X25146198Y-11019300D01*
X25161583Y-10997329D01*
X25274366Y-10836257D01*
X25277523Y-10831749D01*
X25279846Y-10826767D01*
X25279849Y-10826762D01*
X25371961Y-10629225D01*
X25371961Y-10629224D01*
X25374284Y-10624243D01*
X25393046Y-10554225D01*
X25432119Y-10408402D01*
X25432119Y-10408400D01*
X25433543Y-10403087D01*
X25453498Y-10175000D01*
X25433543Y-9946913D01*
X25413447Y-9871913D01*
X25375707Y-9731067D01*
X25375706Y-9731065D01*
X25374284Y-9725757D01*
X25334304Y-9640019D01*
X25279849Y-9523238D01*
X25279846Y-9523233D01*
X25277523Y-9518251D01*
X25146198Y-9330700D01*
X24984300Y-9168802D01*
X24979792Y-9165645D01*
X24979789Y-9165643D01*
X24806444Y-9044265D01*
X24762116Y-8988808D01*
X24754945Y-8917449D01*
X24757812Y-8902424D01*
X24759532Y-8894729D01*
X24773500Y-8840330D01*
X24773500Y-8837773D01*
X24800928Y-8774887D01*
X24825280Y-8752545D01*
X24979789Y-8644357D01*
X24979792Y-8644355D01*
X24984300Y-8641198D01*
X25146198Y-8479300D01*
X25161583Y-8457329D01*
X25274366Y-8296257D01*
X25277523Y-8291749D01*
X25279846Y-8286767D01*
X25279849Y-8286762D01*
X25371961Y-8089225D01*
X25371961Y-8089224D01*
X25374284Y-8084243D01*
X25433543Y-7863087D01*
X25453498Y-7635000D01*
X25433543Y-7406913D01*
X25432119Y-7401598D01*
X25375707Y-7191067D01*
X25375706Y-7191065D01*
X25374284Y-7185757D01*
X25364544Y-7164870D01*
X25279849Y-6983238D01*
X25279846Y-6983233D01*
X25277523Y-6978251D01*
X25146198Y-6790700D01*
X24984300Y-6628802D01*
X24979792Y-6625645D01*
X24979789Y-6625643D01*
X24879150Y-6555175D01*
X24796749Y-6497477D01*
X24791767Y-6495154D01*
X24791762Y-6495151D01*
X24756951Y-6478919D01*
X24703666Y-6432002D01*
X24684205Y-6363725D01*
X24704747Y-6295765D01*
X24756951Y-6250529D01*
X24791511Y-6234414D01*
X24801007Y-6228931D01*
X24979467Y-6103972D01*
X24987875Y-6096916D01*
X25141916Y-5942875D01*
X25148972Y-5934467D01*
X25273931Y-5756007D01*
X25279414Y-5746511D01*
X25371490Y-5549053D01*
X25375236Y-5538761D01*
X25421394Y-5366497D01*
X25421058Y-5352401D01*
X25413116Y-5349000D01*
X22872033Y-5349000D01*
X22858502Y-5352973D01*
X22857273Y-5361522D01*
X22904764Y-5538761D01*
X22908510Y-5549053D01*
X23000586Y-5746511D01*
X23006069Y-5756007D01*
X23131028Y-5934467D01*
X23138084Y-5942875D01*
X23292125Y-6096916D01*
X23300533Y-6103972D01*
X23478993Y-6228931D01*
X23488489Y-6234414D01*
X23523049Y-6250529D01*
X23576334Y-6297446D01*
X23595795Y-6365723D01*
X23575253Y-6433683D01*
X23523049Y-6478919D01*
X23488238Y-6495151D01*
X23488233Y-6495154D01*
X23483251Y-6497477D01*
X23400850Y-6555175D01*
X23300211Y-6625643D01*
X23300208Y-6625645D01*
X23295700Y-6628802D01*
X23133802Y-6790700D01*
X23002477Y-6978251D01*
X23000154Y-6983233D01*
X23000151Y-6983238D01*
X22915456Y-7164870D01*
X22905716Y-7185757D01*
X22904294Y-7191065D01*
X22904293Y-7191067D01*
X22847881Y-7401598D01*
X22846457Y-7406913D01*
X22826502Y-7635000D01*
X22846457Y-7863087D01*
X22905716Y-8084243D01*
X22908039Y-8089224D01*
X22908039Y-8089225D01*
X23000151Y-8286762D01*
X23000154Y-8286767D01*
X23002477Y-8291749D01*
X23005634Y-8296257D01*
X23118418Y-8457329D01*
X23141106Y-8524603D01*
X23123821Y-8593463D01*
X23104301Y-8618695D01*
X22858702Y-8864293D01*
X22622442Y-9100553D01*
X22614163Y-9108087D01*
X22607682Y-9112200D01*
X22561057Y-9161851D01*
X22558302Y-9164693D01*
X22538565Y-9184430D01*
X22536085Y-9187627D01*
X22528382Y-9196647D01*
X22498114Y-9228879D01*
X22494295Y-9235825D01*
X22494293Y-9235828D01*
X22488352Y-9246634D01*
X22477501Y-9263153D01*
X22465086Y-9279159D01*
X22461941Y-9286428D01*
X22461938Y-9286432D01*
X22447526Y-9319737D01*
X22442309Y-9330387D01*
X22421005Y-9369140D01*
X22419034Y-9376815D01*
X22419034Y-9376816D01*
X22415967Y-9388762D01*
X22409563Y-9407466D01*
X22401519Y-9426055D01*
X22400280Y-9433878D01*
X22400277Y-9433888D01*
X22394601Y-9469724D01*
X22392195Y-9481344D01*
X22387973Y-9497789D01*
X22381200Y-9524170D01*
X22381200Y-9544424D01*
X22379649Y-9564134D01*
X22376480Y-9584143D01*
X22377226Y-9592035D01*
X22380641Y-9628161D01*
X22381200Y-9640019D01*
X22381200Y-10616705D01*
X22361198Y-10684826D01*
X22344295Y-10705800D01*
X18011755Y-15038340D01*
X17949443Y-15072366D01*
X17878628Y-15067301D01*
X17821792Y-15024754D01*
X17800953Y-14981857D01*
X17755235Y-14811236D01*
X17751490Y-14800947D01*
X17659414Y-14603489D01*
X17653931Y-14593993D01*
X17528971Y-14415532D01*
X17520197Y-14405077D01*
X17491729Y-14340038D01*
X17502942Y-14269933D01*
X17527619Y-14234985D01*
X18037547Y-13725057D01*
X18045837Y-13717513D01*
X18052318Y-13713400D01*
X18066071Y-13698755D01*
X18098958Y-13663733D01*
X18101713Y-13660891D01*
X18121434Y-13641170D01*
X18123912Y-13637975D01*
X18131618Y-13628953D01*
X18156458Y-13602501D01*
X18161886Y-13596721D01*
X18171646Y-13578968D01*
X18182499Y-13562445D01*
X18184938Y-13559300D01*
X18194913Y-13546441D01*
X18212476Y-13505857D01*
X18217683Y-13495227D01*
X18238995Y-13456460D01*
X18240966Y-13448783D01*
X18240968Y-13448778D01*
X18244032Y-13436842D01*
X18250438Y-13418130D01*
X18255333Y-13406819D01*
X18258481Y-13399545D01*
X18259721Y-13391717D01*
X18259723Y-13391710D01*
X18265399Y-13355876D01*
X18267805Y-13344256D01*
X18276828Y-13309111D01*
X18276828Y-13309110D01*
X18278800Y-13301430D01*
X18278800Y-13281176D01*
X18280351Y-13261465D01*
X18282280Y-13249286D01*
X18283520Y-13241457D01*
X18279359Y-13197438D01*
X18278800Y-13185581D01*
X18278800Y-12222967D01*
X18279327Y-12211784D01*
X18281002Y-12204291D01*
X18279293Y-12149898D01*
X18278862Y-12136201D01*
X18278800Y-12132243D01*
X18278800Y-12104344D01*
X18278296Y-12100353D01*
X18277363Y-12088511D01*
X18276931Y-12074740D01*
X18275974Y-12044311D01*
X18273762Y-12036697D01*
X18273761Y-12036692D01*
X18270323Y-12024859D01*
X18266312Y-12005495D01*
X18265771Y-12001208D01*
X18263774Y-11985403D01*
X18260857Y-11978036D01*
X18260856Y-11978031D01*
X18247498Y-11944292D01*
X18243654Y-11933065D01*
X18233530Y-11898222D01*
X18231318Y-11890607D01*
X18221007Y-11873172D01*
X18212312Y-11855424D01*
X18204852Y-11836583D01*
X18178864Y-11800813D01*
X18172348Y-11790893D01*
X18153880Y-11759665D01*
X18153878Y-11759662D01*
X18149842Y-11752838D01*
X18135521Y-11738517D01*
X18122680Y-11723483D01*
X18115431Y-11713506D01*
X18110772Y-11707093D01*
X18104667Y-11702042D01*
X18104662Y-11702037D01*
X18076702Y-11678906D01*
X18067924Y-11670919D01*
X17816955Y-11419950D01*
X17555700Y-11158696D01*
X17521675Y-11096383D01*
X17526739Y-11025568D01*
X17541582Y-10997329D01*
X17575985Y-10948197D01*
X17657523Y-10831749D01*
X17659846Y-10826767D01*
X17659849Y-10826762D01*
X17751961Y-10629225D01*
X17751961Y-10629224D01*
X17754284Y-10624243D01*
X17773046Y-10554225D01*
X17812119Y-10408402D01*
X17812119Y-10408400D01*
X17813543Y-10403087D01*
X17833498Y-10175000D01*
X17813543Y-9946913D01*
X17793447Y-9871913D01*
X17755707Y-9731067D01*
X17755706Y-9731065D01*
X17754284Y-9725757D01*
X17714304Y-9640019D01*
X17659849Y-9523238D01*
X17659846Y-9523233D01*
X17657523Y-9518251D01*
X17526198Y-9330700D01*
X17364300Y-9168802D01*
X17359792Y-9165645D01*
X17359789Y-9165643D01*
X17186443Y-9044265D01*
X17176749Y-9037477D01*
X17171767Y-9035154D01*
X17171762Y-9035151D01*
X17137543Y-9019195D01*
X17084258Y-8972278D01*
X17064797Y-8904001D01*
X17085339Y-8836041D01*
X17137543Y-8790805D01*
X17171762Y-8774849D01*
X17171767Y-8774846D01*
X17176749Y-8772523D01*
X17281611Y-8699098D01*
X17359789Y-8644357D01*
X17359792Y-8644355D01*
X17364300Y-8641198D01*
X17526198Y-8479300D01*
X17541583Y-8457329D01*
X17654366Y-8296257D01*
X17657523Y-8291749D01*
X17659846Y-8286767D01*
X17659849Y-8286762D01*
X17751961Y-8089225D01*
X17751961Y-8089224D01*
X17754284Y-8084243D01*
X17813543Y-7863087D01*
X17833498Y-7635000D01*
X17813543Y-7406913D01*
X17812119Y-7401598D01*
X17755707Y-7191067D01*
X17755706Y-7191065D01*
X17754284Y-7185757D01*
X17744544Y-7164870D01*
X17659849Y-6983238D01*
X17659846Y-6983233D01*
X17657523Y-6978251D01*
X17526198Y-6790700D01*
X17364300Y-6628802D01*
X17359792Y-6625645D01*
X17359789Y-6625643D01*
X17259150Y-6555175D01*
X17176749Y-6497477D01*
X17171767Y-6495154D01*
X17171762Y-6495151D01*
X17137543Y-6479195D01*
X17084258Y-6432278D01*
X17064797Y-6364001D01*
X17085339Y-6296041D01*
X17137543Y-6250805D01*
X17171762Y-6234849D01*
X17171767Y-6234846D01*
X17176749Y-6232523D01*
X17317411Y-6134030D01*
X17359789Y-6104357D01*
X17359792Y-6104355D01*
X17364300Y-6101198D01*
X17526198Y-5939300D01*
X17532635Y-5930108D01*
X17631468Y-5788959D01*
X17657523Y-5751749D01*
X17659846Y-5746767D01*
X17659849Y-5746762D01*
X17751961Y-5549225D01*
X17751961Y-5549224D01*
X17754284Y-5544243D01*
X17813543Y-5323087D01*
X17833498Y-5095000D01*
X17813543Y-4866913D01*
X17754284Y-4645757D01*
X17744544Y-4624870D01*
X17659849Y-4443238D01*
X17659846Y-4443233D01*
X17657523Y-4438251D01*
X17526198Y-4250700D01*
X17364300Y-4088802D01*
X17359792Y-4085645D01*
X17359789Y-4085643D01*
X17281611Y-4030902D01*
X17176749Y-3957477D01*
X17171767Y-3955154D01*
X17171762Y-3955151D01*
X17137543Y-3939195D01*
X17084258Y-3892278D01*
X17064797Y-3824001D01*
X17085339Y-3756041D01*
X17137543Y-3710805D01*
X17171762Y-3694849D01*
X17171767Y-3694846D01*
X17176749Y-3692523D01*
X17306149Y-3601916D01*
X17359789Y-3564357D01*
X17359792Y-3564355D01*
X17364300Y-3561198D01*
X17526198Y-3399300D01*
X17657523Y-3211749D01*
X17659846Y-3206767D01*
X17659849Y-3206762D01*
X17751961Y-3009225D01*
X17751961Y-3009224D01*
X17754284Y-3004243D01*
X17789854Y-2871497D01*
X17812119Y-2788402D01*
X17812119Y-2788400D01*
X17813543Y-2783087D01*
X17833498Y-2555000D01*
X17813543Y-2326913D01*
X17812119Y-2321598D01*
X17755707Y-2111067D01*
X17755706Y-2111065D01*
X17754284Y-2105757D01*
X17726076Y-2045264D01*
X17659849Y-1903238D01*
X17659846Y-1903233D01*
X17657523Y-1898251D01*
X17526198Y-1710700D01*
X17364300Y-1548802D01*
X17359792Y-1545645D01*
X17359789Y-1545643D01*
X17238315Y-1460586D01*
X17176749Y-1417477D01*
X17171767Y-1415154D01*
X17171762Y-1415151D01*
X17137543Y-1399195D01*
X17084258Y-1352278D01*
X17064797Y-1284001D01*
X17085339Y-1216041D01*
X17137543Y-1170805D01*
X17171762Y-1154849D01*
X17171767Y-1154846D01*
X17176749Y-1152523D01*
X17317411Y-1054030D01*
X17359789Y-1024357D01*
X17359792Y-1024355D01*
X17364300Y-1021198D01*
X17526198Y-859300D01*
X17532635Y-850108D01*
X17584098Y-776611D01*
X17657523Y-671749D01*
X17659846Y-666767D01*
X17659849Y-666762D01*
X17751961Y-469225D01*
X17751961Y-469224D01*
X17754284Y-464243D01*
X17813543Y-243087D01*
X17833498Y-15000D01*
X17813543Y213087D01*
X17754284Y434243D01*
X17751961Y439225D01*
X17659849Y636762D01*
X17659846Y636767D01*
X17657523Y641749D01*
X17526198Y829300D01*
X17364300Y991198D01*
X17359789Y994357D01*
X17355576Y997892D01*
X17356527Y999026D01*
X17316529Y1049071D01*
X17309224Y1119690D01*
X17341258Y1183049D01*
X17402462Y1219030D01*
X17419517Y1222082D01*
X17430316Y1223255D01*
X17566705Y1274385D01*
X17683261Y1361739D01*
X17770615Y1478295D01*
X17821745Y1614684D01*
X17828500Y1676866D01*
X17828500Y3373134D01*
X17821745Y3435316D01*
X17818973Y3442712D01*
X17818971Y3442718D01*
X17798937Y3496158D01*
X17793754Y3566965D01*
X17827675Y3629334D01*
X17889931Y3663463D01*
X17960755Y3658516D01*
X18006013Y3629483D01*
X20028210Y1607285D01*
X22042748Y-407253D01*
X22050288Y-415539D01*
X22054400Y-422018D01*
X22060177Y-427443D01*
X22104051Y-468643D01*
X22106893Y-471398D01*
X22126630Y-491135D01*
X22129827Y-493615D01*
X22138847Y-501318D01*
X22171079Y-531586D01*
X22178025Y-535405D01*
X22178028Y-535407D01*
X22188834Y-541348D01*
X22205353Y-552199D01*
X22221359Y-564614D01*
X22228628Y-567759D01*
X22228632Y-567762D01*
X22261937Y-582174D01*
X22272587Y-587391D01*
X22311340Y-608695D01*
X22319015Y-610666D01*
X22319016Y-610666D01*
X22330962Y-613733D01*
X22349667Y-620137D01*
X22368255Y-628181D01*
X22376078Y-629420D01*
X22376088Y-629423D01*
X22411924Y-635099D01*
X22423544Y-637505D01*
X22458689Y-646528D01*
X22466370Y-648500D01*
X22486624Y-648500D01*
X22506334Y-650051D01*
X22526343Y-653220D01*
X22534235Y-652474D01*
X22570361Y-649059D01*
X22582219Y-648500D01*
X22920606Y-648500D01*
X22988727Y-668502D01*
X23023819Y-702229D01*
X23130643Y-854789D01*
X23133802Y-859300D01*
X23295700Y-1021198D01*
X23300208Y-1024355D01*
X23300211Y-1024357D01*
X23342589Y-1054030D01*
X23483251Y-1152523D01*
X23488233Y-1154846D01*
X23488238Y-1154849D01*
X23522457Y-1170805D01*
X23575742Y-1217722D01*
X23595203Y-1285999D01*
X23574661Y-1353959D01*
X23522457Y-1399195D01*
X23488238Y-1415151D01*
X23488233Y-1415154D01*
X23483251Y-1417477D01*
X23421685Y-1460586D01*
X23300211Y-1545643D01*
X23300208Y-1545645D01*
X23295700Y-1548802D01*
X23133802Y-1710700D01*
X23002477Y-1898251D01*
X23000154Y-1903233D01*
X23000151Y-1903238D01*
X22933924Y-2045264D01*
X22905716Y-2105757D01*
X22904294Y-2111065D01*
X22904293Y-2111067D01*
X22847881Y-2321598D01*
X22846457Y-2326913D01*
X22826502Y-2555000D01*
X22846457Y-2783087D01*
X22847881Y-2788400D01*
X22847881Y-2788402D01*
X22870147Y-2871497D01*
X22905716Y-3004243D01*
X22908039Y-3009224D01*
X22908039Y-3009225D01*
X23000151Y-3206762D01*
X23000154Y-3206767D01*
X23002477Y-3211749D01*
X23133802Y-3399300D01*
X23295700Y-3561198D01*
X23300208Y-3564355D01*
X23300211Y-3564357D01*
X23353851Y-3601916D01*
X23483251Y-3692523D01*
X23488233Y-3694846D01*
X23488238Y-3694849D01*
X23523049Y-3711081D01*
X23576334Y-3757998D01*
X23595795Y-3826275D01*
X23575253Y-3894235D01*
X23523049Y-3939471D01*
X23488489Y-3955586D01*
X23478993Y-3961069D01*
X23300533Y-4086028D01*
X23292125Y-4093084D01*
X23138084Y-4247125D01*
X23131028Y-4255533D01*
X23006069Y-4433993D01*
X23000586Y-4443489D01*
X22908510Y-4640947D01*
X22904764Y-4651239D01*
X22858606Y-4823503D01*
X22858942Y-4837599D01*
X22866884Y-4841000D01*
X25407967Y-4841000D01*
X25421498Y-4837027D01*
X25422727Y-4828478D01*
X25375236Y-4651239D01*
X25371490Y-4640947D01*
X25279414Y-4443489D01*
X25273931Y-4433993D01*
X25148972Y-4255533D01*
X25141916Y-4247125D01*
X24987875Y-4093084D01*
X24979467Y-4086028D01*
X24801007Y-3961069D01*
X24791511Y-3955586D01*
X24756951Y-3939471D01*
X24703666Y-3892554D01*
X24684205Y-3824277D01*
X24704747Y-3756317D01*
X24756951Y-3711081D01*
X24791762Y-3694849D01*
X24791767Y-3694846D01*
X24796749Y-3692523D01*
X24926149Y-3601916D01*
X24979789Y-3564357D01*
X24979792Y-3564355D01*
X24984300Y-3561198D01*
X25146198Y-3399300D01*
X25277523Y-3211749D01*
X25279846Y-3206767D01*
X25279849Y-3206762D01*
X25371961Y-3009225D01*
X25371961Y-3009224D01*
X25374284Y-3004243D01*
X25409854Y-2871497D01*
X25432119Y-2788402D01*
X25432119Y-2788400D01*
X25433543Y-2783087D01*
X25453498Y-2555000D01*
X25433543Y-2326913D01*
X25432119Y-2321598D01*
X25375707Y-2111067D01*
X25375706Y-2111065D01*
X25374284Y-2105757D01*
X25346076Y-2045264D01*
X25279849Y-1903238D01*
X25279846Y-1903233D01*
X25277523Y-1898251D01*
X25146198Y-1710700D01*
X24984300Y-1548802D01*
X24979792Y-1545645D01*
X24979789Y-1545643D01*
X24858315Y-1460586D01*
X24796749Y-1417477D01*
X24791767Y-1415154D01*
X24791762Y-1415151D01*
X24757543Y-1399195D01*
X24704258Y-1352278D01*
X24684797Y-1284001D01*
X24705339Y-1216041D01*
X24757543Y-1170805D01*
X24791762Y-1154849D01*
X24791767Y-1154846D01*
X24796749Y-1152523D01*
X24937411Y-1054030D01*
X24979789Y-1024357D01*
X24979792Y-1024355D01*
X24984300Y-1021198D01*
X25146198Y-859300D01*
X25152635Y-850108D01*
X25204098Y-776611D01*
X25277523Y-671749D01*
X25279846Y-666767D01*
X25279849Y-666762D01*
X25371961Y-469225D01*
X25371961Y-469224D01*
X25374284Y-464243D01*
X25433543Y-243087D01*
X25453498Y-15000D01*
X25433543Y213087D01*
X25374284Y434243D01*
X25371961Y439225D01*
X25279849Y636762D01*
X25279846Y636767D01*
X25277523Y641749D01*
X25146198Y829300D01*
X24984300Y991198D01*
X24979792Y994355D01*
X24979789Y994357D01*
X24901611Y1049098D01*
X24796749Y1122523D01*
X24791767Y1124846D01*
X24791762Y1124849D01*
X24757543Y1140805D01*
X24704258Y1187722D01*
X24684797Y1255999D01*
X24705339Y1323959D01*
X24757543Y1369195D01*
X24791762Y1385151D01*
X24791767Y1385154D01*
X24796749Y1387477D01*
X24938458Y1486703D01*
X24979789Y1515643D01*
X24979792Y1515645D01*
X24984300Y1518802D01*
X25146198Y1680700D01*
X25277523Y1868251D01*
X25279846Y1873233D01*
X25279849Y1873238D01*
X25371961Y2070775D01*
X25371961Y2070776D01*
X25374284Y2075757D01*
X25433543Y2296913D01*
X25453498Y2525000D01*
X25433543Y2753087D01*
X25374284Y2974243D01*
X25371961Y2979225D01*
X25279849Y3176762D01*
X25279846Y3176767D01*
X25277523Y3181749D01*
X25146198Y3369300D01*
X24984300Y3531198D01*
X24979792Y3534355D01*
X24979789Y3534357D01*
X24901611Y3589098D01*
X24796749Y3662523D01*
X24791767Y3664846D01*
X24791762Y3664849D01*
X24594225Y3756961D01*
X24594224Y3756961D01*
X24589243Y3759284D01*
X24583935Y3760706D01*
X24583933Y3760707D01*
X24373402Y3817119D01*
X24373400Y3817119D01*
X24368087Y3818543D01*
X24140000Y3838498D01*
X23911913Y3818543D01*
X23906600Y3817119D01*
X23906598Y3817119D01*
X23696067Y3760707D01*
X23696065Y3760706D01*
X23690757Y3759284D01*
X23685776Y3756961D01*
X23685775Y3756961D01*
X23488238Y3664849D01*
X23488233Y3664846D01*
X23483251Y3662523D01*
X23378389Y3589098D01*
X23300211Y3534357D01*
X23300208Y3534355D01*
X23295700Y3531198D01*
X23133802Y3369300D01*
X23002477Y3181749D01*
X23000154Y3176767D01*
X23000151Y3176762D01*
X22908039Y2979225D01*
X22905716Y2974243D01*
X22846457Y2753087D01*
X22826502Y2525000D01*
X22846457Y2296913D01*
X22905716Y2075757D01*
X22908039Y2070776D01*
X22908039Y2070775D01*
X23000151Y1873238D01*
X23000154Y1873233D01*
X23002477Y1868251D01*
X23133802Y1680700D01*
X23295700Y1518802D01*
X23300208Y1515645D01*
X23300211Y1515643D01*
X23341542Y1486703D01*
X23483251Y1387477D01*
X23488233Y1385154D01*
X23488238Y1385151D01*
X23522457Y1369195D01*
X23575742Y1322278D01*
X23595203Y1254001D01*
X23574661Y1186041D01*
X23522457Y1140805D01*
X23488238Y1124849D01*
X23488233Y1124846D01*
X23483251Y1122523D01*
X23378389Y1049098D01*
X23300211Y994357D01*
X23300208Y994355D01*
X23295700Y991198D01*
X23133802Y829300D01*
X23130645Y824792D01*
X23130643Y824789D01*
X23023819Y672229D01*
X22968362Y627901D01*
X22920606Y618500D01*
X22860994Y618500D01*
X22792873Y638502D01*
X22771899Y655405D01*
X17154619Y6272686D01*
X17120593Y6334998D01*
X17125658Y6405813D01*
X17168205Y6462649D01*
X17180722Y6470905D01*
X17181009Y6471071D01*
X17359467Y6596028D01*
X17367875Y6603084D01*
X17521916Y6757125D01*
X17528972Y6765533D01*
X17653931Y6943993D01*
X17659414Y6953489D01*
X17751490Y7150947D01*
X17755236Y7161239D01*
X17801394Y7333503D01*
X17801058Y7347599D01*
X17793116Y7351000D01*
X16392000Y7351000D01*
X16323879Y7371002D01*
X16277386Y7424658D01*
X16266000Y7477000D01*
X16266000Y7605000D01*
X22826502Y7605000D01*
X22846457Y7376913D01*
X22847881Y7371600D01*
X22847881Y7371598D01*
X22886064Y7229100D01*
X22905716Y7155757D01*
X22908039Y7150776D01*
X22908039Y7150775D01*
X23000151Y6953238D01*
X23000154Y6953233D01*
X23002477Y6948251D01*
X23022394Y6919807D01*
X23128889Y6767717D01*
X23133802Y6760700D01*
X23295700Y6598802D01*
X23300208Y6595645D01*
X23300211Y6595643D01*
X23378389Y6540902D01*
X23483251Y6467477D01*
X23488233Y6465154D01*
X23488238Y6465151D01*
X23685775Y6373039D01*
X23690757Y6370716D01*
X23696065Y6369294D01*
X23696067Y6369293D01*
X23906598Y6312881D01*
X23906600Y6312881D01*
X23911913Y6311457D01*
X24140000Y6291502D01*
X24368087Y6311457D01*
X24373400Y6312881D01*
X24373402Y6312881D01*
X24583933Y6369293D01*
X24583935Y6369294D01*
X24589243Y6370716D01*
X24594225Y6373039D01*
X24791762Y6465151D01*
X24791767Y6465154D01*
X24796749Y6467477D01*
X24901611Y6540902D01*
X24979789Y6595643D01*
X24979792Y6595645D01*
X24984300Y6598802D01*
X25146198Y6760700D01*
X25151112Y6767717D01*
X25257606Y6919807D01*
X25277523Y6948251D01*
X25279846Y6953233D01*
X25279849Y6953238D01*
X25371961Y7150775D01*
X25371961Y7150776D01*
X25374284Y7155757D01*
X25393937Y7229100D01*
X25432119Y7371598D01*
X25432119Y7371600D01*
X25433543Y7376913D01*
X25453498Y7605000D01*
X25433543Y7833087D01*
X25432119Y7838402D01*
X25375707Y8048933D01*
X25375706Y8048935D01*
X25374284Y8054243D01*
X25339348Y8129165D01*
X25279849Y8256762D01*
X25279846Y8256767D01*
X25277523Y8261749D01*
X25186465Y8391793D01*
X25149357Y8444789D01*
X25149355Y8444792D01*
X25146198Y8449300D01*
X24984300Y8611198D01*
X24979792Y8614355D01*
X24979789Y8614357D01*
X24879150Y8684825D01*
X24796749Y8742523D01*
X24791767Y8744846D01*
X24791762Y8744849D01*
X24757543Y8760805D01*
X24704258Y8807722D01*
X24684797Y8875999D01*
X24705339Y8943959D01*
X24757543Y8989195D01*
X24791762Y9005151D01*
X24791767Y9005154D01*
X24796749Y9007477D01*
X24937411Y9105970D01*
X24979789Y9135643D01*
X24979792Y9135645D01*
X24984300Y9138802D01*
X25146198Y9300700D01*
X25152635Y9309892D01*
X25227753Y9417172D01*
X25277523Y9488251D01*
X25279846Y9493233D01*
X25279849Y9493238D01*
X25371961Y9690775D01*
X25371961Y9690776D01*
X25374284Y9695757D01*
X25384478Y9733799D01*
X25432119Y9911598D01*
X25432119Y9911600D01*
X25433543Y9916913D01*
X25453498Y10145000D01*
X25433543Y10373087D01*
X25419561Y10425268D01*
X25375707Y10588933D01*
X25375706Y10588935D01*
X25374284Y10594243D01*
X25371961Y10599225D01*
X25279849Y10796762D01*
X25279846Y10796767D01*
X25277523Y10801749D01*
X25146198Y10989300D01*
X24984300Y11151198D01*
X24979792Y11154355D01*
X24979789Y11154357D01*
X24901611Y11209098D01*
X24796749Y11282523D01*
X24791767Y11284846D01*
X24791762Y11284849D01*
X24757543Y11300805D01*
X24704258Y11347722D01*
X24684797Y11415999D01*
X24705339Y11483959D01*
X24757543Y11529195D01*
X24791762Y11545151D01*
X24791767Y11545154D01*
X24796749Y11547477D01*
X24901611Y11620902D01*
X24979789Y11675643D01*
X24979792Y11675645D01*
X24984300Y11678802D01*
X25146198Y11840700D01*
X25277523Y12028251D01*
X25279846Y12033233D01*
X25279849Y12033238D01*
X25371961Y12230775D01*
X25371961Y12230776D01*
X25374284Y12235757D01*
X25421761Y12412940D01*
X25432119Y12451598D01*
X25432119Y12451600D01*
X25433543Y12456913D01*
X25453498Y12685000D01*
X25433543Y12913087D01*
X25432119Y12918402D01*
X25375707Y13128933D01*
X25375706Y13128935D01*
X25374284Y13134243D01*
X25364544Y13155130D01*
X25279849Y13336762D01*
X25279846Y13336767D01*
X25277523Y13341749D01*
X25146198Y13529300D01*
X24984300Y13691198D01*
X24979792Y13694355D01*
X24979789Y13694357D01*
X24801690Y13819063D01*
X24796749Y13822523D01*
X24791767Y13824846D01*
X24791762Y13824849D01*
X24757543Y13840805D01*
X24704258Y13887722D01*
X24684797Y13955999D01*
X24705339Y14023959D01*
X24757543Y14069195D01*
X24791762Y14085151D01*
X24791767Y14085154D01*
X24796749Y14087477D01*
X24937411Y14185970D01*
X24979789Y14215643D01*
X24979792Y14215645D01*
X24984300Y14218802D01*
X25146198Y14380700D01*
X25152635Y14389892D01*
X25274366Y14563743D01*
X25277523Y14568251D01*
X25279846Y14573233D01*
X25279849Y14573238D01*
X25371961Y14770775D01*
X25371961Y14770776D01*
X25374284Y14775757D01*
X25433543Y14996913D01*
X25453498Y15225000D01*
X25433543Y15453087D01*
X25430155Y15465732D01*
X25375707Y15668933D01*
X25375706Y15668935D01*
X25374284Y15674243D01*
X25369131Y15685294D01*
X25279849Y15876762D01*
X25279846Y15876767D01*
X25277523Y15881749D01*
X25185796Y16012749D01*
X25149357Y16064789D01*
X25149355Y16064792D01*
X25146198Y16069300D01*
X24984300Y16231198D01*
X24979792Y16234355D01*
X24979789Y16234357D01*
X24827738Y16340824D01*
X24796749Y16362523D01*
X24791767Y16364846D01*
X24791762Y16364849D01*
X24756951Y16381081D01*
X24703666Y16427998D01*
X24684205Y16496275D01*
X24704747Y16564235D01*
X24756951Y16609471D01*
X24791511Y16625586D01*
X24801007Y16631069D01*
X24979467Y16756028D01*
X24987875Y16763084D01*
X25141916Y16917125D01*
X25148972Y16925533D01*
X25273931Y17103993D01*
X25279414Y17113489D01*
X25371490Y17310947D01*
X25375236Y17321239D01*
X25421394Y17493503D01*
X25421058Y17507599D01*
X25413116Y17511000D01*
X22872033Y17511000D01*
X22858502Y17507027D01*
X22857273Y17498478D01*
X22904764Y17321239D01*
X22908510Y17310947D01*
X23000586Y17113489D01*
X23006069Y17103993D01*
X23131028Y16925533D01*
X23138084Y16917125D01*
X23292125Y16763084D01*
X23300533Y16756028D01*
X23478993Y16631069D01*
X23488489Y16625586D01*
X23523049Y16609471D01*
X23576334Y16562554D01*
X23595795Y16494277D01*
X23575253Y16426317D01*
X23523049Y16381081D01*
X23488238Y16364849D01*
X23488233Y16364846D01*
X23483251Y16362523D01*
X23452262Y16340824D01*
X23300211Y16234357D01*
X23300208Y16234355D01*
X23295700Y16231198D01*
X23133802Y16069300D01*
X23130645Y16064792D01*
X23130643Y16064789D01*
X23094204Y16012749D01*
X23002477Y15881749D01*
X23000154Y15876767D01*
X23000151Y15876762D01*
X22910869Y15685294D01*
X22905716Y15674243D01*
X22904294Y15668935D01*
X22904293Y15668933D01*
X22849845Y15465732D01*
X22846457Y15453087D01*
X22826502Y15225000D01*
X22846457Y14996913D01*
X22905716Y14775757D01*
X22908039Y14770776D01*
X22908039Y14770775D01*
X23000151Y14573238D01*
X23000154Y14573233D01*
X23002477Y14568251D01*
X23005634Y14563743D01*
X23127366Y14389892D01*
X23133802Y14380700D01*
X23295700Y14218802D01*
X23300208Y14215645D01*
X23300211Y14215643D01*
X23342589Y14185970D01*
X23483251Y14087477D01*
X23488233Y14085154D01*
X23488238Y14085151D01*
X23522457Y14069195D01*
X23575742Y14022278D01*
X23595203Y13954001D01*
X23574661Y13886041D01*
X23522457Y13840805D01*
X23488238Y13824849D01*
X23488233Y13824846D01*
X23483251Y13822523D01*
X23478310Y13819063D01*
X23300211Y13694357D01*
X23300208Y13694355D01*
X23295700Y13691198D01*
X23133802Y13529300D01*
X23002477Y13341749D01*
X23000154Y13336767D01*
X23000151Y13336762D01*
X22915456Y13155130D01*
X22905716Y13134243D01*
X22904294Y13128935D01*
X22904293Y13128933D01*
X22847881Y12918402D01*
X22846457Y12913087D01*
X22826502Y12685000D01*
X22846457Y12456913D01*
X22847881Y12451600D01*
X22847881Y12451598D01*
X22858240Y12412940D01*
X22905716Y12235757D01*
X22908039Y12230776D01*
X22908039Y12230775D01*
X23000151Y12033238D01*
X23000154Y12033233D01*
X23002477Y12028251D01*
X23133802Y11840700D01*
X23295700Y11678802D01*
X23300208Y11675645D01*
X23300211Y11675643D01*
X23378389Y11620902D01*
X23483251Y11547477D01*
X23488233Y11545154D01*
X23488238Y11545151D01*
X23522457Y11529195D01*
X23575742Y11482278D01*
X23595203Y11414001D01*
X23574661Y11346041D01*
X23522457Y11300805D01*
X23488238Y11284849D01*
X23488233Y11284846D01*
X23483251Y11282523D01*
X23378389Y11209098D01*
X23300211Y11154357D01*
X23300208Y11154355D01*
X23295700Y11151198D01*
X23133802Y10989300D01*
X23002477Y10801749D01*
X23000154Y10796767D01*
X23000151Y10796762D01*
X22908039Y10599225D01*
X22905716Y10594243D01*
X22904294Y10588935D01*
X22904293Y10588933D01*
X22860439Y10425268D01*
X22846457Y10373087D01*
X22826502Y10145000D01*
X22846457Y9916913D01*
X22847881Y9911600D01*
X22847881Y9911598D01*
X22895523Y9733799D01*
X22905716Y9695757D01*
X22908039Y9690776D01*
X22908039Y9690775D01*
X23000151Y9493238D01*
X23000154Y9493233D01*
X23002477Y9488251D01*
X23052247Y9417172D01*
X23127366Y9309892D01*
X23133802Y9300700D01*
X23295700Y9138802D01*
X23300208Y9135645D01*
X23300211Y9135643D01*
X23342589Y9105970D01*
X23483251Y9007477D01*
X23488233Y9005154D01*
X23488238Y9005151D01*
X23522457Y8989195D01*
X23575742Y8942278D01*
X23595203Y8874001D01*
X23574661Y8806041D01*
X23522457Y8760805D01*
X23488238Y8744849D01*
X23488233Y8744846D01*
X23483251Y8742523D01*
X23400850Y8684825D01*
X23300211Y8614357D01*
X23300208Y8614355D01*
X23295700Y8611198D01*
X23133802Y8449300D01*
X23130645Y8444792D01*
X23130643Y8444789D01*
X23093535Y8391793D01*
X23002477Y8261749D01*
X23000154Y8256767D01*
X23000151Y8256762D01*
X22940652Y8129165D01*
X22905716Y8054243D01*
X22904294Y8048935D01*
X22904293Y8048933D01*
X22847881Y7838402D01*
X22846457Y7833087D01*
X22826502Y7605000D01*
X16266000Y7605000D01*
X16266000Y7733000D01*
X16286002Y7801121D01*
X16339658Y7847614D01*
X16392000Y7859000D01*
X17787967Y7859000D01*
X17801498Y7862973D01*
X17802727Y7871522D01*
X17755236Y8048761D01*
X17751490Y8059053D01*
X17659414Y8256511D01*
X17653931Y8266007D01*
X17528972Y8444467D01*
X17518389Y8457078D01*
X17520316Y8458695D01*
X17491367Y8511710D01*
X17496432Y8582525D01*
X17525393Y8627588D01*
X18509047Y9611243D01*
X18517337Y9618787D01*
X18523818Y9622900D01*
X18570459Y9672568D01*
X18573213Y9675409D01*
X18592934Y9695130D01*
X18595412Y9698325D01*
X18603118Y9707347D01*
X18627958Y9733799D01*
X18633386Y9739579D01*
X18643146Y9757332D01*
X18653999Y9773855D01*
X18661553Y9783594D01*
X18666413Y9789859D01*
X18683976Y9830443D01*
X18689183Y9841073D01*
X18710495Y9879840D01*
X18712466Y9887517D01*
X18712468Y9887522D01*
X18715532Y9899458D01*
X18721938Y9918170D01*
X18726834Y9929483D01*
X18729981Y9936755D01*
X18732514Y9952744D01*
X18736897Y9980419D01*
X18739304Y9992040D01*
X18748328Y10027189D01*
X18748328Y10027190D01*
X18750300Y10034870D01*
X18750300Y10055131D01*
X18751851Y10074842D01*
X18753057Y10082453D01*
X18755019Y10094843D01*
X18750859Y10138854D01*
X18750300Y10150711D01*
X18750300Y15175832D01*
X18750827Y15187015D01*
X18752502Y15194508D01*
X18750362Y15262599D01*
X18750300Y15266556D01*
X18750300Y15294456D01*
X18749796Y15298447D01*
X18748863Y15310289D01*
X18747723Y15346564D01*
X18747474Y15354489D01*
X18741821Y15373948D01*
X18737812Y15393307D01*
X18737646Y15394617D01*
X18735274Y15413397D01*
X18732358Y15420763D01*
X18732356Y15420769D01*
X18719000Y15454502D01*
X18715155Y15465732D01*
X18705030Y15500583D01*
X18705030Y15500584D01*
X18702819Y15508193D01*
X18692505Y15525634D01*
X18683808Y15543387D01*
X18679272Y15554842D01*
X18676352Y15562217D01*
X18650363Y15597988D01*
X18643847Y15607908D01*
X18625378Y15639137D01*
X18621342Y15645962D01*
X18607021Y15660283D01*
X18594180Y15675317D01*
X18586931Y15685294D01*
X18582272Y15691707D01*
X18548195Y15719898D01*
X18539416Y15727888D01*
X17525496Y16741808D01*
X17491470Y16804120D01*
X17496535Y16874935D01*
X17520052Y16911527D01*
X17518774Y16912600D01*
X17522302Y16916804D01*
X17526198Y16920700D01*
X17657523Y17108251D01*
X17659846Y17113233D01*
X17659849Y17113238D01*
X17751961Y17310775D01*
X17751961Y17310776D01*
X17754284Y17315757D01*
X17813543Y17536913D01*
X17833498Y17765000D01*
X17813543Y17993087D01*
X17805535Y18022973D01*
X17755707Y18208933D01*
X17755706Y18208935D01*
X17754284Y18214243D01*
X17659966Y18416511D01*
X17659849Y18416762D01*
X17659846Y18416767D01*
X17657523Y18421749D01*
X17526198Y18609300D01*
X17364300Y18771198D01*
X17359792Y18774355D01*
X17359789Y18774357D01*
X17281611Y18829098D01*
X17176749Y18902523D01*
X17171767Y18904846D01*
X17171762Y18904849D01*
X17137543Y18920805D01*
X17084258Y18967722D01*
X17064797Y19035999D01*
X17085339Y19103959D01*
X17137543Y19149195D01*
X17171762Y19165151D01*
X17171767Y19165154D01*
X17176749Y19167477D01*
X17281611Y19240902D01*
X17359789Y19295643D01*
X17359792Y19295645D01*
X17364300Y19298802D01*
X17526198Y19460700D01*
X17657523Y19648251D01*
X17659846Y19653233D01*
X17659849Y19653238D01*
X17751961Y19850775D01*
X17751961Y19850776D01*
X17754284Y19855757D01*
X17813543Y20076913D01*
X17833498Y20305000D01*
X22826502Y20305000D01*
X22846457Y20076913D01*
X22905716Y19855757D01*
X22908039Y19850776D01*
X22908039Y19850775D01*
X23000151Y19653238D01*
X23000154Y19653233D01*
X23002477Y19648251D01*
X23133802Y19460700D01*
X23295700Y19298802D01*
X23300208Y19295645D01*
X23300211Y19295643D01*
X23378389Y19240902D01*
X23483251Y19167477D01*
X23488233Y19165154D01*
X23488238Y19165151D01*
X23523049Y19148919D01*
X23576334Y19102002D01*
X23595795Y19033725D01*
X23575253Y18965765D01*
X23523049Y18920529D01*
X23488489Y18904414D01*
X23478993Y18898931D01*
X23300533Y18773972D01*
X23292125Y18766916D01*
X23138084Y18612875D01*
X23131028Y18604467D01*
X23006069Y18426007D01*
X23000586Y18416511D01*
X22908510Y18219053D01*
X22904764Y18208761D01*
X22858606Y18036497D01*
X22858942Y18022401D01*
X22866884Y18019000D01*
X25407967Y18019000D01*
X25421498Y18022973D01*
X25422727Y18031522D01*
X25375236Y18208761D01*
X25371490Y18219053D01*
X25279414Y18416511D01*
X25273931Y18426007D01*
X25148972Y18604467D01*
X25141916Y18612875D01*
X24987875Y18766916D01*
X24979467Y18773972D01*
X24801007Y18898931D01*
X24791511Y18904414D01*
X24756951Y18920529D01*
X24703666Y18967446D01*
X24684205Y19035723D01*
X24704747Y19103683D01*
X24756951Y19148919D01*
X24791762Y19165151D01*
X24791767Y19165154D01*
X24796749Y19167477D01*
X24901611Y19240902D01*
X24979789Y19295643D01*
X24979792Y19295645D01*
X24984300Y19298802D01*
X25146198Y19460700D01*
X25277523Y19648251D01*
X25279846Y19653233D01*
X25279849Y19653238D01*
X25371961Y19850775D01*
X25371961Y19850776D01*
X25374284Y19855757D01*
X25433543Y20076913D01*
X25453498Y20305000D01*
X25433543Y20533087D01*
X25374284Y20754243D01*
X25371961Y20759225D01*
X25279849Y20956762D01*
X25279846Y20956767D01*
X25277523Y20961749D01*
X25146198Y21149300D01*
X24984300Y21311198D01*
X24979792Y21314355D01*
X24979789Y21314357D01*
X24901611Y21369098D01*
X24796749Y21442523D01*
X24791767Y21444846D01*
X24791762Y21444849D01*
X24757543Y21460805D01*
X24704258Y21507722D01*
X24684797Y21575999D01*
X24705339Y21643959D01*
X24757543Y21689195D01*
X24791762Y21705151D01*
X24791767Y21705154D01*
X24796749Y21707477D01*
X24901611Y21780902D01*
X24979789Y21835643D01*
X24979792Y21835645D01*
X24984300Y21838802D01*
X25146198Y22000700D01*
X25277523Y22188251D01*
X25279846Y22193233D01*
X25279849Y22193238D01*
X25371961Y22390775D01*
X25371961Y22390776D01*
X25374284Y22395757D01*
X25433543Y22616913D01*
X25453498Y22845000D01*
X25433543Y23073087D01*
X25374284Y23294243D01*
X25371961Y23299225D01*
X25279849Y23496762D01*
X25279846Y23496767D01*
X25277523Y23501749D01*
X25146198Y23689300D01*
X24984300Y23851198D01*
X24979792Y23854355D01*
X24979789Y23854357D01*
X24901611Y23909098D01*
X24796749Y23982523D01*
X24791767Y23984846D01*
X24791762Y23984849D01*
X24757543Y24000805D01*
X24704258Y24047722D01*
X24684797Y24115999D01*
X24705339Y24183959D01*
X24757543Y24229195D01*
X24791762Y24245151D01*
X24791767Y24245154D01*
X24796749Y24247477D01*
X24938458Y24346703D01*
X24979789Y24375643D01*
X24979792Y24375645D01*
X24984300Y24378802D01*
X25146198Y24540700D01*
X25277523Y24728251D01*
X25279846Y24733233D01*
X25279849Y24733238D01*
X25371961Y24930775D01*
X25371961Y24930776D01*
X25374284Y24935757D01*
X25433543Y25156913D01*
X25453498Y25385000D01*
X25433543Y25613087D01*
X25374284Y25834243D01*
X25371961Y25839225D01*
X25279849Y26036762D01*
X25279846Y26036767D01*
X25277523Y26041749D01*
X25146198Y26229300D01*
X24984300Y26391198D01*
X24979792Y26394355D01*
X24979789Y26394357D01*
X24901611Y26449098D01*
X24796749Y26522523D01*
X24791767Y26524846D01*
X24791762Y26524849D01*
X24594225Y26616961D01*
X24594224Y26616961D01*
X24589243Y26619284D01*
X24583935Y26620706D01*
X24583933Y26620707D01*
X24373402Y26677119D01*
X24373400Y26677119D01*
X24368087Y26678543D01*
X24140000Y26698498D01*
X23911913Y26678543D01*
X23906600Y26677119D01*
X23906598Y26677119D01*
X23696067Y26620707D01*
X23696065Y26620706D01*
X23690757Y26619284D01*
X23685776Y26616961D01*
X23685775Y26616961D01*
X23488238Y26524849D01*
X23488233Y26524846D01*
X23483251Y26522523D01*
X23378389Y26449098D01*
X23300211Y26394357D01*
X23300208Y26394355D01*
X23295700Y26391198D01*
X23133802Y26229300D01*
X23002477Y26041749D01*
X23000154Y26036767D01*
X23000151Y26036762D01*
X22908039Y25839225D01*
X22905716Y25834243D01*
X22846457Y25613087D01*
X22826502Y25385000D01*
X22846457Y25156913D01*
X22905716Y24935757D01*
X22908039Y24930776D01*
X22908039Y24930775D01*
X23000151Y24733238D01*
X23000154Y24733233D01*
X23002477Y24728251D01*
X23133802Y24540700D01*
X23295700Y24378802D01*
X23300208Y24375645D01*
X23300211Y24375643D01*
X23341542Y24346703D01*
X23483251Y24247477D01*
X23488233Y24245154D01*
X23488238Y24245151D01*
X23522457Y24229195D01*
X23575742Y24182278D01*
X23595203Y24114001D01*
X23574661Y24046041D01*
X23522457Y24000805D01*
X23488238Y23984849D01*
X23488233Y23984846D01*
X23483251Y23982523D01*
X23378389Y23909098D01*
X23300211Y23854357D01*
X23300208Y23854355D01*
X23295700Y23851198D01*
X23133802Y23689300D01*
X23002477Y23501749D01*
X23000154Y23496767D01*
X23000151Y23496762D01*
X22908039Y23299225D01*
X22905716Y23294243D01*
X22846457Y23073087D01*
X22826502Y22845000D01*
X22846457Y22616913D01*
X22905716Y22395757D01*
X22908039Y22390776D01*
X22908039Y22390775D01*
X23000151Y22193238D01*
X23000154Y22193233D01*
X23002477Y22188251D01*
X23133802Y22000700D01*
X23295700Y21838802D01*
X23300208Y21835645D01*
X23300211Y21835643D01*
X23378389Y21780902D01*
X23483251Y21707477D01*
X23488233Y21705154D01*
X23488238Y21705151D01*
X23522457Y21689195D01*
X23575742Y21642278D01*
X23595203Y21574001D01*
X23574661Y21506041D01*
X23522457Y21460805D01*
X23488238Y21444849D01*
X23488233Y21444846D01*
X23483251Y21442523D01*
X23378389Y21369098D01*
X23300211Y21314357D01*
X23300208Y21314355D01*
X23295700Y21311198D01*
X23133802Y21149300D01*
X23002477Y20961749D01*
X23000154Y20956767D01*
X23000151Y20956762D01*
X22908039Y20759225D01*
X22905716Y20754243D01*
X22846457Y20533087D01*
X22826502Y20305000D01*
X17833498Y20305000D01*
X17813543Y20533087D01*
X17754284Y20754243D01*
X17751961Y20759225D01*
X17659849Y20956762D01*
X17659846Y20956767D01*
X17657523Y20961749D01*
X17526198Y21149300D01*
X17364300Y21311198D01*
X17359792Y21314355D01*
X17359789Y21314357D01*
X17281611Y21369098D01*
X17176749Y21442523D01*
X17171767Y21444846D01*
X17171762Y21444849D01*
X17137543Y21460805D01*
X17084258Y21507722D01*
X17064797Y21575999D01*
X17085339Y21643959D01*
X17137543Y21689195D01*
X17171762Y21705151D01*
X17171767Y21705154D01*
X17176749Y21707477D01*
X17281611Y21780902D01*
X17359789Y21835643D01*
X17359792Y21835645D01*
X17364300Y21838802D01*
X17526198Y22000700D01*
X17657523Y22188251D01*
X17659846Y22193233D01*
X17659849Y22193238D01*
X17751961Y22390775D01*
X17751961Y22390776D01*
X17754284Y22395757D01*
X17813543Y22616913D01*
X17833498Y22845000D01*
X17813543Y23073087D01*
X17754284Y23294243D01*
X17751961Y23299225D01*
X17659849Y23496762D01*
X17659846Y23496767D01*
X17657523Y23501749D01*
X17526198Y23689300D01*
X17364300Y23851198D01*
X17359789Y23854357D01*
X17355576Y23857892D01*
X17356527Y23859026D01*
X17316529Y23909071D01*
X17309224Y23979690D01*
X17341258Y24043049D01*
X17402462Y24079030D01*
X17419517Y24082082D01*
X17430316Y24083255D01*
X17566705Y24134385D01*
X17683261Y24221739D01*
X17770615Y24338295D01*
X17821745Y24474684D01*
X17828500Y24536866D01*
X17828500Y26233134D01*
X17821745Y26295316D01*
X17770615Y26431705D01*
X17683261Y26548261D01*
X17566705Y26635615D01*
X17430316Y26686745D01*
X17368134Y26693500D01*
X15671866Y26693500D01*
X15609684Y26686745D01*
X15473295Y26635615D01*
X15356739Y26548261D01*
X15269385Y26431705D01*
X15218255Y26295316D01*
X15211500Y26233134D01*
X15211500Y24536866D01*
X15218255Y24474684D01*
X15269385Y24338295D01*
X15356739Y24221739D01*
X15473295Y24134385D01*
X15609684Y24083255D01*
X15620474Y24082083D01*
X15622606Y24081197D01*
X15625222Y24080575D01*
X15625121Y24080152D01*
X15686035Y24054845D01*
X15726463Y23996483D01*
X15728922Y23925529D01*
X15692629Y23864510D01*
X15683969Y23857511D01*
X15680207Y23854354D01*
X15675700Y23851198D01*
X15513802Y23689300D01*
X15382477Y23501749D01*
X15380154Y23496767D01*
X15380151Y23496762D01*
X15288039Y23299225D01*
X15285716Y23294243D01*
X15226457Y23073087D01*
X15206502Y22845000D01*
X15226457Y22616913D01*
X15285716Y22395757D01*
X15288039Y22390776D01*
X15288039Y22390775D01*
X15380151Y22193238D01*
X15380154Y22193233D01*
X15382477Y22188251D01*
X15513802Y22000700D01*
X15675700Y21838802D01*
X15680208Y21835645D01*
X15680211Y21835643D01*
X15758389Y21780902D01*
X15863251Y21707477D01*
X15868233Y21705154D01*
X15868238Y21705151D01*
X15902457Y21689195D01*
X15955742Y21642278D01*
X15975203Y21574001D01*
X15954661Y21506041D01*
X15902457Y21460805D01*
X15868238Y21444849D01*
X15868233Y21444846D01*
X15863251Y21442523D01*
X15758389Y21369098D01*
X15680211Y21314357D01*
X15680208Y21314355D01*
X15675700Y21311198D01*
X15513802Y21149300D01*
X15382477Y20961749D01*
X15380154Y20956767D01*
X15380151Y20956762D01*
X15288039Y20759225D01*
X15285716Y20754243D01*
X15226457Y20533087D01*
X15206502Y20305000D01*
X15226457Y20076913D01*
X15285716Y19855757D01*
X15288039Y19850776D01*
X15288039Y19850775D01*
X15380151Y19653238D01*
X15380154Y19653233D01*
X15382477Y19648251D01*
X15513802Y19460700D01*
X15675700Y19298802D01*
X15680208Y19295645D01*
X15680211Y19295643D01*
X15758389Y19240902D01*
X15863251Y19167477D01*
X15868233Y19165154D01*
X15868238Y19165151D01*
X15902457Y19149195D01*
X15955742Y19102278D01*
X15975203Y19034001D01*
X15954661Y18966041D01*
X15902457Y18920805D01*
X15868238Y18904849D01*
X15868233Y18904846D01*
X15863251Y18902523D01*
X15758389Y18829098D01*
X15680211Y18774357D01*
X15680208Y18774355D01*
X15675700Y18771198D01*
X15513802Y18609300D01*
X15382477Y18421749D01*
X15380154Y18416767D01*
X15380151Y18416762D01*
X15380034Y18416511D01*
X15285716Y18214243D01*
X15284294Y18208935D01*
X15284293Y18208933D01*
X15234465Y18022973D01*
X15226457Y17993087D01*
X15206502Y17765000D01*
X15226457Y17536913D01*
X15285716Y17315757D01*
X15288039Y17310775D01*
X15288041Y17310770D01*
X15289448Y17307753D01*
X15289669Y17306296D01*
X15289922Y17305602D01*
X15289782Y17305551D01*
X15300111Y17237562D01*
X15271133Y17172748D01*
X15211715Y17133890D01*
X15175255Y17128500D01*
X6181401Y17128500D01*
X6113280Y17148502D01*
X6066787Y17202158D01*
X6056683Y17272432D01*
X6058882Y17283913D01*
X6068379Y17323473D01*
X6068379Y17323476D01*
X6069535Y17328289D01*
X6088165Y17565000D01*
X6069535Y17801711D01*
X6014105Y18032594D01*
X5941135Y18208761D01*
X5925135Y18247389D01*
X5925133Y18247393D01*
X5923240Y18251963D01*
X5920654Y18256183D01*
X5801759Y18450202D01*
X5801755Y18450208D01*
X5799176Y18454416D01*
X5644969Y18634969D01*
X5464416Y18789176D01*
X5460208Y18791755D01*
X5460202Y18791759D01*
X5266183Y18910654D01*
X5261963Y18913240D01*
X5257393Y18915133D01*
X5257389Y18915135D01*
X5047167Y19002211D01*
X5047165Y19002212D01*
X5042594Y19004105D01*
X4919218Y19033725D01*
X4816524Y19058380D01*
X4816518Y19058381D01*
X4811711Y19059535D01*
X4575000Y19078165D01*
X4338289Y19059535D01*
X4333482Y19058381D01*
X4333476Y19058380D01*
X4230782Y19033725D01*
X4107406Y19004105D01*
X4102835Y19002212D01*
X4102833Y19002211D01*
X3892611Y18915135D01*
X3892607Y18915133D01*
X3888037Y18913240D01*
X3883817Y18910654D01*
X3689798Y18791759D01*
X3689792Y18791755D01*
X3685584Y18789176D01*
X3505031Y18634969D01*
X3501823Y18631213D01*
X3501818Y18631208D01*
X3400811Y18512944D01*
X3341361Y18474134D01*
X3270366Y18473628D01*
X3209189Y18512944D01*
X3108182Y18631208D01*
X3108177Y18631213D01*
X3104969Y18634969D01*
X2924416Y18789176D01*
X2920208Y18791755D01*
X2920202Y18791759D01*
X2726183Y18910654D01*
X2721963Y18913240D01*
X2717393Y18915133D01*
X2717389Y18915135D01*
X2507167Y19002211D01*
X2507165Y19002212D01*
X2502594Y19004105D01*
X2379218Y19033725D01*
X2276524Y19058380D01*
X2276518Y19058381D01*
X2271711Y19059535D01*
X2035000Y19078165D01*
X1798289Y19059535D01*
X1793482Y19058381D01*
X1793476Y19058380D01*
X1690782Y19033725D01*
X1567406Y19004105D01*
X1562835Y19002212D01*
X1562833Y19002211D01*
X1352611Y18915135D01*
X1352607Y18915133D01*
X1348037Y18913240D01*
X1343817Y18910654D01*
X1149798Y18791759D01*
X1149792Y18791755D01*
X1145584Y18789176D01*
X965031Y18634969D01*
X961823Y18631213D01*
X961818Y18631208D01*
X860811Y18512944D01*
X801361Y18474134D01*
X730366Y18473628D01*
X669189Y18512944D01*
X568182Y18631208D01*
X568177Y18631213D01*
X564969Y18634969D01*
X384416Y18789176D01*
X380208Y18791755D01*
X380202Y18791759D01*
X186183Y18910654D01*
X181963Y18913240D01*
X177393Y18915133D01*
X177389Y18915135D01*
X-32833Y19002211D01*
X-32835Y19002212D01*
X-37406Y19004105D01*
X-160782Y19033725D01*
X-263476Y19058380D01*
X-263482Y19058381D01*
X-268289Y19059535D01*
X-505000Y19078165D01*
X-741711Y19059535D01*
X-746518Y19058381D01*
X-746524Y19058380D01*
X-849218Y19033725D01*
X-972594Y19004105D01*
X-977165Y19002212D01*
X-977167Y19002211D01*
X-1187389Y18915135D01*
X-1187393Y18915133D01*
X-1191963Y18913240D01*
X-1196183Y18910654D01*
X-1390202Y18791759D01*
X-1390208Y18791755D01*
X-1394416Y18789176D01*
X-1574969Y18634969D01*
X-1578177Y18631213D01*
X-1578182Y18631208D01*
X-1679189Y18512944D01*
X-1738639Y18474134D01*
X-1809634Y18473628D01*
X-1870811Y18512944D01*
X-1971818Y18631208D01*
X-1971823Y18631213D01*
X-1975031Y18634969D01*
X-2155584Y18789176D01*
X-2159792Y18791755D01*
X-2159798Y18791759D01*
X-2353817Y18910654D01*
X-2358037Y18913240D01*
X-2362607Y18915133D01*
X-2362611Y18915135D01*
X-2572833Y19002211D01*
X-2572835Y19002212D01*
X-2577406Y19004105D01*
X-2700782Y19033725D01*
X-2803476Y19058380D01*
X-2803482Y19058381D01*
X-2808289Y19059535D01*
X-3045000Y19078165D01*
X-3281711Y19059535D01*
X-3286518Y19058381D01*
X-3286524Y19058380D01*
X-3389218Y19033725D01*
X-3512594Y19004105D01*
X-3517165Y19002212D01*
X-3517167Y19002211D01*
X-3727389Y18915135D01*
X-3727393Y18915133D01*
X-3731963Y18913240D01*
X-3736183Y18910654D01*
X-3930202Y18791759D01*
X-3930208Y18791755D01*
X-3934416Y18789176D01*
X-4114969Y18634969D01*
X-4118177Y18631213D01*
X-4118182Y18631208D01*
X-4219189Y18512944D01*
X-4278639Y18474134D01*
X-4349634Y18473628D01*
X-4410811Y18512944D01*
X-4511818Y18631208D01*
X-4511823Y18631213D01*
X-4515031Y18634969D01*
X-4695584Y18789176D01*
X-4699792Y18791755D01*
X-4699798Y18791759D01*
X-4893817Y18910654D01*
X-4898037Y18913240D01*
X-4902607Y18915133D01*
X-4902611Y18915135D01*
X-5112833Y19002211D01*
X-5112835Y19002212D01*
X-5117406Y19004105D01*
X-5240782Y19033725D01*
X-5343476Y19058380D01*
X-5343482Y19058381D01*
X-5348289Y19059535D01*
X-5585000Y19078165D01*
X-5821711Y19059535D01*
X-5826518Y19058381D01*
X-5826524Y19058380D01*
X-5929218Y19033725D01*
X-6052594Y19004105D01*
X-6057165Y19002212D01*
X-6057167Y19002211D01*
X-6267389Y18915135D01*
X-6267393Y18915133D01*
X-6271963Y18913240D01*
X-6276183Y18910654D01*
X-6470202Y18791759D01*
X-6470208Y18791755D01*
X-6474416Y18789176D01*
X-6654969Y18634969D01*
X-6658177Y18631213D01*
X-6658182Y18631208D01*
X-6759189Y18512944D01*
X-6818639Y18474134D01*
X-6889634Y18473628D01*
X-6950811Y18512944D01*
X-7051818Y18631208D01*
X-7051823Y18631213D01*
X-7055031Y18634969D01*
X-7235584Y18789176D01*
X-7239792Y18791755D01*
X-7239798Y18791759D01*
X-7433817Y18910654D01*
X-7438037Y18913240D01*
X-7442607Y18915133D01*
X-7442611Y18915135D01*
X-7652833Y19002211D01*
X-7652835Y19002212D01*
X-7657406Y19004105D01*
X-7780782Y19033725D01*
X-7883476Y19058380D01*
X-7883482Y19058381D01*
X-7888289Y19059535D01*
X-8125000Y19078165D01*
X-8361711Y19059535D01*
X-8366518Y19058381D01*
X-8366524Y19058380D01*
X-8469218Y19033725D01*
X-8592594Y19004105D01*
X-8597165Y19002212D01*
X-8597167Y19002211D01*
X-8807389Y18915135D01*
X-8807393Y18915133D01*
X-8811963Y18913240D01*
X-8816183Y18910654D01*
X-9010202Y18791759D01*
X-9010208Y18791755D01*
X-9014416Y18789176D01*
X-9194969Y18634969D01*
X-9198177Y18631213D01*
X-9198182Y18631208D01*
X-9299189Y18512944D01*
X-9358639Y18474134D01*
X-9429634Y18473628D01*
X-9490811Y18512944D01*
X-9591818Y18631208D01*
X-9591823Y18631213D01*
X-9595031Y18634969D01*
X-9775584Y18789176D01*
X-9779792Y18791755D01*
X-9779798Y18791759D01*
X-9973817Y18910654D01*
X-9978037Y18913240D01*
X-9982607Y18915133D01*
X-9982611Y18915135D01*
X-10192833Y19002211D01*
X-10192835Y19002212D01*
X-10197406Y19004105D01*
X-10320782Y19033725D01*
X-10423476Y19058380D01*
X-10423482Y19058381D01*
X-10428289Y19059535D01*
X-10665000Y19078165D01*
X-10901711Y19059535D01*
X-10906518Y19058381D01*
X-10906524Y19058380D01*
X-11009218Y19033725D01*
X-11132594Y19004105D01*
X-11137165Y19002212D01*
X-11137167Y19002211D01*
X-11347389Y18915135D01*
X-11347393Y18915133D01*
X-11351963Y18913240D01*
X-11356183Y18910654D01*
X-11550202Y18791759D01*
X-11550208Y18791755D01*
X-11554416Y18789176D01*
X-11734969Y18634969D01*
X-11738177Y18631213D01*
X-11738182Y18631208D01*
X-11839189Y18512944D01*
X-11898639Y18474134D01*
X-11969634Y18473628D01*
X-12030811Y18512944D01*
X-12131818Y18631208D01*
X-12131823Y18631213D01*
X-12135031Y18634969D01*
X-12315584Y18789176D01*
X-12319792Y18791755D01*
X-12319798Y18791759D01*
X-12513817Y18910654D01*
X-12518037Y18913240D01*
X-12522607Y18915133D01*
X-12522611Y18915135D01*
X-12732833Y19002211D01*
X-12732835Y19002212D01*
X-12737406Y19004105D01*
X-12860782Y19033725D01*
X-12963476Y19058380D01*
X-12963482Y19058381D01*
X-12968289Y19059535D01*
X-13205000Y19078165D01*
X-13441711Y19059535D01*
X-13446518Y19058381D01*
X-13446524Y19058380D01*
X-13549218Y19033725D01*
X-13672594Y19004105D01*
X-13677165Y19002212D01*
X-13677167Y19002211D01*
X-13887389Y18915135D01*
X-13887393Y18915133D01*
X-13891963Y18913240D01*
X-13896183Y18910654D01*
X-14090202Y18791759D01*
X-14090208Y18791755D01*
X-14094416Y18789176D01*
X-14274969Y18634969D01*
X-14429176Y18454416D01*
X-14431755Y18450208D01*
X-14431759Y18450202D01*
X-14550654Y18256183D01*
X-14553240Y18251963D01*
X-14555133Y18247393D01*
X-14555135Y18247389D01*
X-14571135Y18208761D01*
X-14644105Y18032594D01*
X-14699535Y17801711D01*
X-14718165Y17565000D01*
X-14699535Y17328289D01*
X-14698381Y17323482D01*
X-14698380Y17323476D01*
X-14669254Y17202158D01*
X-14644105Y17097406D01*
X-14642212Y17092835D01*
X-14642211Y17092833D01*
X-14567556Y16912600D01*
X-14553240Y16878037D01*
X-14550654Y16873817D01*
X-14431759Y16679798D01*
X-14431755Y16679792D01*
X-14429176Y16675584D01*
X-14274969Y16495031D01*
X-14094416Y16340824D01*
X-14090208Y16338245D01*
X-14090202Y16338241D01*
X-13920679Y16234357D01*
X-13891963Y16216760D01*
X-13887393Y16214867D01*
X-13887389Y16214865D01*
X-13677167Y16127789D01*
X-13672594Y16125895D01*
X-13592391Y16106640D01*
X-13446524Y16071620D01*
X-13446518Y16071619D01*
X-13441711Y16070465D01*
X-13205000Y16051835D01*
X-12968289Y16070465D01*
X-12963482Y16071619D01*
X-12963476Y16071620D01*
X-12817609Y16106640D01*
X-12737406Y16125895D01*
X-12732833Y16127789D01*
X-12522611Y16214865D01*
X-12522607Y16214867D01*
X-12518037Y16216760D01*
X-12489321Y16234357D01*
X-12319798Y16338241D01*
X-12319792Y16338245D01*
X-12315584Y16340824D01*
X-12135031Y16495031D01*
X-12131823Y16498787D01*
X-12131818Y16498792D01*
X-12030811Y16617056D01*
X-11971361Y16655866D01*
X-11900366Y16656372D01*
X-11839189Y16617056D01*
X-11738182Y16498792D01*
X-11738177Y16498787D01*
X-11734969Y16495031D01*
X-11554416Y16340824D01*
X-11550208Y16338245D01*
X-11550202Y16338241D01*
X-11380679Y16234357D01*
X-11351963Y16216760D01*
X-11347393Y16214867D01*
X-11347389Y16214865D01*
X-11137167Y16127789D01*
X-11132594Y16125895D01*
X-11052391Y16106640D01*
X-10906524Y16071620D01*
X-10906518Y16071619D01*
X-10901711Y16070465D01*
X-10665000Y16051835D01*
X-10428289Y16070465D01*
X-10423482Y16071619D01*
X-10423476Y16071620D01*
X-10277609Y16106640D01*
X-10197406Y16125895D01*
X-10192833Y16127789D01*
X-9982611Y16214865D01*
X-9982607Y16214867D01*
X-9978037Y16216760D01*
X-9949321Y16234357D01*
X-9779798Y16338241D01*
X-9779792Y16338245D01*
X-9775584Y16340824D01*
X-9595031Y16495031D01*
X-9591823Y16498787D01*
X-9591818Y16498792D01*
X-9490811Y16617056D01*
X-9431361Y16655866D01*
X-9360366Y16656372D01*
X-9299189Y16617056D01*
X-9198182Y16498792D01*
X-9198177Y16498787D01*
X-9194969Y16495031D01*
X-9014416Y16340824D01*
X-9010208Y16338245D01*
X-9010202Y16338241D01*
X-8840679Y16234357D01*
X-8811963Y16216760D01*
X-8807393Y16214867D01*
X-8807389Y16214865D01*
X-8597167Y16127789D01*
X-8592594Y16125895D01*
X-8512391Y16106640D01*
X-8366524Y16071620D01*
X-8366518Y16071619D01*
X-8361711Y16070465D01*
X-8125000Y16051835D01*
X-7888289Y16070465D01*
X-7883482Y16071619D01*
X-7883476Y16071620D01*
X-7737609Y16106640D01*
X-7657406Y16125895D01*
X-7652833Y16127789D01*
X-7442611Y16214865D01*
X-7442607Y16214867D01*
X-7438037Y16216760D01*
X-7409321Y16234357D01*
X-7239798Y16338241D01*
X-7239792Y16338245D01*
X-7235584Y16340824D01*
X-7055031Y16495031D01*
X-7051823Y16498787D01*
X-7051818Y16498792D01*
X-6950811Y16617056D01*
X-6891361Y16655866D01*
X-6820366Y16656372D01*
X-6759189Y16617056D01*
X-6658182Y16498792D01*
X-6658177Y16498787D01*
X-6654969Y16495031D01*
X-6474416Y16340824D01*
X-6470208Y16338245D01*
X-6470202Y16338241D01*
X-6300679Y16234357D01*
X-6271963Y16216760D01*
X-6267393Y16214867D01*
X-6267389Y16214865D01*
X-6057167Y16127789D01*
X-6052594Y16125895D01*
X-5972391Y16106640D01*
X-5826524Y16071620D01*
X-5826518Y16071619D01*
X-5821711Y16070465D01*
X-5585000Y16051835D01*
X-5348289Y16070465D01*
X-5343482Y16071619D01*
X-5343476Y16071620D01*
X-5197609Y16106640D01*
X-5117406Y16125895D01*
X-5112833Y16127789D01*
X-4902611Y16214865D01*
X-4902607Y16214867D01*
X-4898037Y16216760D01*
X-4869321Y16234357D01*
X-4699798Y16338241D01*
X-4699792Y16338245D01*
X-4695584Y16340824D01*
X-4515031Y16495031D01*
X-4511823Y16498787D01*
X-4511818Y16498792D01*
X-4410811Y16617056D01*
X-4351361Y16655866D01*
X-4280366Y16656372D01*
X-4219189Y16617056D01*
X-4118182Y16498792D01*
X-4118177Y16498787D01*
X-4114969Y16495031D01*
X-3934416Y16340824D01*
X-3930208Y16338245D01*
X-3930202Y16338241D01*
X-3760679Y16234357D01*
X-3731963Y16216760D01*
X-3727393Y16214867D01*
X-3727389Y16214865D01*
X-3517167Y16127789D01*
X-3512594Y16125895D01*
X-3432391Y16106640D01*
X-3286524Y16071620D01*
X-3286518Y16071619D01*
X-3281711Y16070465D01*
X-3045000Y16051835D01*
X-2808289Y16070465D01*
X-2803482Y16071619D01*
X-2803476Y16071620D01*
X-2657609Y16106640D01*
X-2577406Y16125895D01*
X-2572833Y16127789D01*
X-2362611Y16214865D01*
X-2362607Y16214867D01*
X-2358037Y16216760D01*
X-2329321Y16234357D01*
X-2159798Y16338241D01*
X-2159792Y16338245D01*
X-2155584Y16340824D01*
X-1975031Y16495031D01*
X-1971823Y16498787D01*
X-1971818Y16498792D01*
X-1870811Y16617056D01*
X-1811361Y16655866D01*
X-1740366Y16656372D01*
X-1679189Y16617056D01*
X-1578182Y16498792D01*
X-1578177Y16498787D01*
X-1574969Y16495031D01*
X-1394416Y16340824D01*
X-1390208Y16338245D01*
X-1390202Y16338241D01*
X-1220679Y16234357D01*
X-1191963Y16216760D01*
X-1187393Y16214867D01*
X-1187389Y16214865D01*
X-977167Y16127789D01*
X-972594Y16125895D01*
X-865085Y16100085D01*
X-746519Y16071619D01*
X-746515Y16071618D01*
X-741711Y16070465D01*
X-739185Y16070266D01*
X-675638Y16040143D01*
X-638110Y15979876D01*
X-633500Y15946105D01*
X-633500Y15067315D01*
X-653502Y14999194D01*
X-687230Y14964102D01*
X-779776Y14899301D01*
X-929301Y14749776D01*
X-1050589Y14576558D01*
X-1139956Y14384910D01*
X-1141378Y14379602D01*
X-1141379Y14379600D01*
X-1183420Y14222699D01*
X-1194686Y14180655D01*
X-1213116Y13970000D01*
X-1194686Y13759345D01*
X-1139956Y13555090D01*
X-1137634Y13550109D01*
X-1137633Y13550108D01*
X-1113218Y13497750D01*
X-1102557Y13427558D01*
X-1131537Y13362745D01*
X-1190957Y13323889D01*
X-1227413Y13318500D01*
X-3852587Y13318500D01*
X-3920708Y13338502D01*
X-3967201Y13392158D01*
X-3977305Y13462432D01*
X-3966782Y13497750D01*
X-3942367Y13550108D01*
X-3942366Y13550109D01*
X-3940044Y13555090D01*
X-3885314Y13759345D01*
X-3866884Y13970000D01*
X-3885314Y14180655D01*
X-3896580Y14222699D01*
X-3938621Y14379600D01*
X-3938622Y14379602D01*
X-3940044Y14384910D01*
X-4029411Y14576558D01*
X-4150699Y14749776D01*
X-4300224Y14899301D01*
X-4473442Y15020589D01*
X-4478420Y15022910D01*
X-4478423Y15022912D01*
X-4660108Y15107633D01*
X-4660109Y15107634D01*
X-4665090Y15109956D01*
X-4670398Y15111378D01*
X-4670400Y15111379D01*
X-4864030Y15163262D01*
X-4864032Y15163262D01*
X-4869345Y15164686D01*
X-5080000Y15183116D01*
X-5290655Y15164686D01*
X-5295968Y15163262D01*
X-5295970Y15163262D01*
X-5489600Y15111379D01*
X-5489602Y15111378D01*
X-5494910Y15109956D01*
X-5499891Y15107634D01*
X-5499892Y15107633D01*
X-5681577Y15022912D01*
X-5681580Y15022910D01*
X-5686558Y15020589D01*
X-5859776Y14899301D01*
X-6009301Y14749776D01*
X-6130589Y14576558D01*
X-6219956Y14384910D01*
X-6221378Y14379602D01*
X-6221379Y14379600D01*
X-6263420Y14222699D01*
X-6274686Y14180655D01*
X-6293116Y13970000D01*
X-6274686Y13759345D01*
X-6219956Y13555090D01*
X-6217633Y13550108D01*
X-6217631Y13550103D01*
X-6194195Y13499845D01*
X-6183533Y13429653D01*
X-6212513Y13364840D01*
X-6271932Y13325984D01*
X-6304971Y13322674D01*
X-6304909Y13320701D01*
X-6372967Y13318562D01*
X-6376925Y13318500D01*
X-6404856Y13318500D01*
X-6408771Y13318005D01*
X-6408775Y13318005D01*
X-6408833Y13317997D01*
X-6408862Y13317994D01*
X-6420704Y13317061D01*
X-6464890Y13315673D01*
X-6482256Y13310628D01*
X-6484342Y13310022D01*
X-6503694Y13306014D01*
X-6515932Y13304468D01*
X-6515934Y13304467D01*
X-6523797Y13303474D01*
X-6564914Y13287194D01*
X-6576115Y13283359D01*
X-6618594Y13271018D01*
X-6625413Y13266985D01*
X-6625418Y13266983D01*
X-6636029Y13260707D01*
X-6653779Y13252010D01*
X-6672617Y13244552D01*
X-6679033Y13239891D01*
X-6679034Y13239890D01*
X-6708375Y13218572D01*
X-6718299Y13212053D01*
X-6749540Y13193578D01*
X-6749545Y13193574D01*
X-6756363Y13189542D01*
X-6770687Y13175218D01*
X-6785719Y13162379D01*
X-6802107Y13150472D01*
X-6830288Y13116407D01*
X-6838278Y13107627D01*
X-9828462Y10117443D01*
X-9890774Y10083417D01*
X-9939439Y10082453D01*
X-9944039Y10083264D01*
X-9949345Y10084686D01*
X-9954812Y10085164D01*
X-9954816Y10085165D01*
X-10154525Y10102637D01*
X-10160000Y10103116D01*
X-10370655Y10084686D01*
X-10375968Y10083262D01*
X-10375970Y10083262D01*
X-10569600Y10031379D01*
X-10569602Y10031378D01*
X-10574910Y10029956D01*
X-10579891Y10027634D01*
X-10579892Y10027633D01*
X-10761577Y9942912D01*
X-10761580Y9942910D01*
X-10766558Y9940589D01*
X-10939776Y9819301D01*
X-11089301Y9669776D01*
X-11193390Y9521121D01*
X-11248843Y9476795D01*
X-11319463Y9469486D01*
X-11385695Y9504299D01*
X-12963607Y11082212D01*
X-14569595Y12688200D01*
X-14603621Y12750512D01*
X-14606500Y12777295D01*
X-14606500Y12872685D01*
X-14586498Y12940806D01*
X-14552770Y12975898D01*
X-14464736Y13037540D01*
X-14460224Y13040699D01*
X-14310699Y13190224D01*
X-14189411Y13363442D01*
X-14185313Y13372229D01*
X-14102367Y13550108D01*
X-14102366Y13550109D01*
X-14100044Y13555090D01*
X-14045314Y13759345D01*
X-14026884Y13970000D01*
X-11373116Y13970000D01*
X-11354686Y13759345D01*
X-11299956Y13555090D01*
X-11297634Y13550109D01*
X-11297633Y13550108D01*
X-11214686Y13372229D01*
X-11210589Y13363442D01*
X-11089301Y13190224D01*
X-10939776Y13040699D01*
X-10766558Y12919411D01*
X-10761580Y12917090D01*
X-10761577Y12917088D01*
X-10666354Y12872685D01*
X-10574910Y12830044D01*
X-10569602Y12828622D01*
X-10569600Y12828621D01*
X-10375970Y12776738D01*
X-10375968Y12776738D01*
X-10370655Y12775314D01*
X-10160000Y12756884D01*
X-9949345Y12775314D01*
X-9944032Y12776738D01*
X-9944030Y12776738D01*
X-9750400Y12828621D01*
X-9750398Y12828622D01*
X-9745090Y12830044D01*
X-9653646Y12872685D01*
X-9558423Y12917088D01*
X-9558420Y12917090D01*
X-9553442Y12919411D01*
X-9380224Y13040699D01*
X-9230699Y13190224D01*
X-9109411Y13363442D01*
X-9105313Y13372229D01*
X-9022367Y13550108D01*
X-9022366Y13550109D01*
X-9020044Y13555090D01*
X-8965314Y13759345D01*
X-8946884Y13970000D01*
X-8965314Y14180655D01*
X-8976580Y14222699D01*
X-9018621Y14379600D01*
X-9018622Y14379602D01*
X-9020044Y14384910D01*
X-9109411Y14576558D01*
X-9230699Y14749776D01*
X-9380224Y14899301D01*
X-9553442Y15020589D01*
X-9558420Y15022910D01*
X-9558423Y15022912D01*
X-9740108Y15107633D01*
X-9740109Y15107634D01*
X-9745090Y15109956D01*
X-9750398Y15111378D01*
X-9750400Y15111379D01*
X-9944030Y15163262D01*
X-9944032Y15163262D01*
X-9949345Y15164686D01*
X-10160000Y15183116D01*
X-10370655Y15164686D01*
X-10375968Y15163262D01*
X-10375970Y15163262D01*
X-10569600Y15111379D01*
X-10569602Y15111378D01*
X-10574910Y15109956D01*
X-10579891Y15107634D01*
X-10579892Y15107633D01*
X-10761577Y15022912D01*
X-10761580Y15022910D01*
X-10766558Y15020589D01*
X-10939776Y14899301D01*
X-11089301Y14749776D01*
X-11210589Y14576558D01*
X-11299956Y14384910D01*
X-11301378Y14379602D01*
X-11301379Y14379600D01*
X-11343420Y14222699D01*
X-11354686Y14180655D01*
X-11373116Y13970000D01*
X-14026884Y13970000D01*
X-14045314Y14180655D01*
X-14056580Y14222699D01*
X-14098621Y14379600D01*
X-14098622Y14379602D01*
X-14100044Y14384910D01*
X-14189411Y14576558D01*
X-14310699Y14749776D01*
X-14460224Y14899301D01*
X-14633442Y15020589D01*
X-14638420Y15022910D01*
X-14638423Y15022912D01*
X-14820108Y15107633D01*
X-14820109Y15107634D01*
X-14825090Y15109956D01*
X-14830398Y15111378D01*
X-14830400Y15111379D01*
X-15024030Y15163262D01*
X-15024032Y15163262D01*
X-15029345Y15164686D01*
X-15240000Y15183116D01*
X-15450655Y15164686D01*
X-15455968Y15163262D01*
X-15455970Y15163262D01*
X-15649600Y15111379D01*
X-15649602Y15111378D01*
X-15654910Y15109956D01*
X-15659891Y15107634D01*
X-15659892Y15107633D01*
X-15841577Y15022912D01*
X-15841580Y15022910D01*
X-15846558Y15020589D01*
X-16019776Y14899301D01*
X-16169301Y14749776D01*
X-16290589Y14576558D01*
X-16379956Y14384910D01*
X-16381378Y14379602D01*
X-16381379Y14379600D01*
X-16423420Y14222699D01*
X-16434686Y14180655D01*
X-16453116Y13970000D01*
X-26670000Y13970000D01*
X-26670000Y27814000D01*
X-26649998Y27882121D01*
X-26596342Y27928614D01*
X-26544000Y27940000D01*
X26544000Y27940000D01*
X26612121Y27919998D01*
G37*
G04 #@! TD.AperFunction*
M02*
