M48
; DRILL file {KiCad (6.0.0)} date Sun Feb 13 15:35:11 2022
; FORMAT={-:-/ absolute / inch / decimal}
; #@! TF.CreationDate,2022-02-13T15:35:11+09:00
; #@! TF.GenerationSoftware,Kicad,Pcbnew,(6.0.0)
; #@! TF.FileFunction,MixedPlating,1,2
FMAT,2
INCH
; #@! TA.AperFunction,Plated,PTH,ViaDrill
T1C0.0157
; #@! TA.AperFunction,Plated,PTH,ComponentDrill
T2C0.0276
; #@! TA.AperFunction,Plated,PTH,ComponentDrill
T3C0.0315
; #@! TA.AperFunction,Plated,PTH,ComponentDrill
T4C0.0394
; #@! TA.AperFunction,Plated,PTH,ComponentDrill
T5C0.0469
%
G90
G05
T1
X-1.0Y1.05
X-1.0Y-1.05
X-0.1431Y0.4065
X-0.0514Y1.0509
X-0.05Y-1.05
X0.0487Y0.3821
X0.0967Y0.4659
X1.0Y1.05
X1.0Y-1.05
T2
X-0.6Y0.55
X-0.6Y0.35
X-0.4Y0.55
X-0.4Y0.35
X-0.4Y-0.05
X-0.4Y-0.25
X-0.2Y0.55
X-0.2Y0.35
X-0.2Y-0.05
X-0.2Y-0.25
X0.0Y0.55
X0.0Y0.35
X0.0Y-0.05
X0.0Y-0.25
X0.2Y0.55
X0.2Y0.35
T3
X0.4Y-0.1024
X0.4Y-0.3976
X0.6504Y0.9994
X0.6504Y0.8994
X0.6504Y0.7994
X0.6504Y0.6994
X0.6504Y0.5994
X0.6504Y0.4994
X0.6504Y0.3994
X0.6504Y0.2994
X0.6504Y0.0994
X0.6504Y-0.0006
X0.6504Y-0.1006
X0.6504Y-0.2006
X0.6504Y-0.3006
X0.6504Y-0.4006
X0.6504Y-0.5006
X0.6504Y-0.6006
X0.9504Y0.9994
X0.9504Y0.8994
X0.9504Y0.7994
X0.9504Y0.6994
X0.9504Y0.5994
X0.9504Y0.4994
X0.9504Y0.3994
X0.9504Y0.2994
X0.9504Y0.0994
X0.9504Y-0.0006
X0.9504Y-0.1006
X0.9504Y-0.2006
X0.9504Y-0.3006
X0.9504Y-0.4006
X0.9504Y-0.5006
X0.9504Y-0.6006
T4
X-0.5199Y0.6915
X-0.5199Y-0.4305
X-0.4199Y0.6915
X-0.4199Y-0.4305
X-0.3199Y0.6915
X-0.3199Y-0.4305
X-0.2199Y0.6915
X-0.2199Y-0.4305
X-0.1199Y0.6915
X-0.1199Y-0.4305
X-0.0199Y0.6915
X-0.0199Y-0.4305
X0.0801Y0.6915
X0.0801Y-0.4305
X0.1801Y0.6915
X0.1801Y-0.4305
T5
X0.5Y-0.85
X0.6Y-0.85
X0.7Y-0.85
X0.8Y-0.85
X0.9Y-0.85
T0
M30
